<svg width="179" height="179" viewBox="0 0 179 179" fill="none" xmlns="http://www.w3.org/2000/svg">
<path d="M127.536 58.5355C129.488 56.5829 129.488 53.4171 127.536 51.4645C125.583 49.5118 122.417 49.5118 120.464 51.4645L127.536 58.5355ZM50 124C50 126.761 52.2386 129 55 129L100 129C102.761 129 105 126.761 105 124C105 121.239 102.761 119 100 119L60 119L60 79C60 76.2386 57.7614 74 55 74C52.2386 74 50 76.2386 50 79L50 124ZM120.464 51.4645L51.4645 120.464L58.5355 127.536L127.536 58.5355L120.464 51.4645Z" fill="#0382BA"/>
<circle cx="89.5" cy="89.5" r="89" transform="rotate(90 89.5 89.5)" stroke="#0382BA"/>
</svg>
