<svg width="360" height="35" viewBox="0 0 360 35" fill="none" xmlns="http://www.w3.org/2000/svg">
<path d="M3.528 17.12V15.992H6.24C6.8 15.992 7.304 15.896 7.752 15.704C8.2 15.512 8.552 15.232 8.808 14.864C9.064 14.496 9.192 14.048 9.192 13.52C9.192 12.72 8.912 12.104 8.352 11.672C7.792 11.224 7.088 11 6.24 11H3.96V24.2H6.48C7.2 24.2 7.832 24.072 8.376 23.816C8.936 23.56 9.368 23.192 9.672 22.712C9.992 22.232 10.152 21.648 10.152 20.96C10.152 20.448 10.064 19.992 9.888 19.592C9.712 19.192 9.456 18.856 9.12 18.584C8.8 18.312 8.416 18.112 7.968 17.984C7.52 17.84 7.024 17.768 6.48 17.768H3.528V16.64H6.48C7.296 16.64 8.048 16.728 8.736 16.904C9.424 17.08 10.024 17.352 10.536 17.72C11.064 18.072 11.472 18.528 11.76 19.088C12.048 19.648 12.192 20.312 12.192 21.08C12.192 22.184 11.936 23.104 11.424 23.84C10.928 24.56 10.248 25.104 9.384 25.472C8.536 25.824 7.568 26 6.48 26H1.92V9.2H6.24C7.248 9.2 8.12 9.352 8.856 9.656C9.608 9.96 10.192 10.424 10.608 11.048C11.024 11.656 11.232 12.44 11.232 13.4C11.232 14.184 11.024 14.856 10.608 15.416C10.192 15.976 9.608 16.4 8.856 16.688C8.12 16.976 7.248 17.12 6.24 17.12H3.528ZM17.1028 21.68C17.1028 22.56 17.3028 23.24 17.7028 23.72C18.1028 24.2 18.6868 24.44 19.4548 24.44C20.0148 24.44 20.5028 24.328 20.9188 24.104C21.3508 23.864 21.6788 23.536 21.9028 23.12C22.1428 22.704 22.2628 22.224 22.2628 21.68V14.96H24.1828V26H22.2628V24.272C21.8948 24.928 21.4388 25.424 20.8948 25.76C20.3508 26.08 19.7108 26.24 18.9748 26.24C17.8228 26.24 16.9028 25.848 16.2148 25.064C15.5268 24.28 15.1828 23.232 15.1828 21.92V14.96H17.1028V21.68ZM27.7922 10.4C27.7922 10.032 27.9202 9.72 28.1762 9.464C28.4482 9.208 28.7602 9.08 29.1122 9.08C29.4802 9.08 29.7922 9.208 30.0482 9.464C30.3042 9.72 30.4322 10.032 30.4322 10.4C30.4322 10.752 30.3042 11.064 30.0482 11.336C29.7922 11.592 29.4802 11.72 29.1122 11.72C28.7602 11.72 28.4482 11.592 28.1762 11.336C27.9202 11.064 27.7922 10.752 27.7922 10.4ZM28.1522 14.96H30.0722V26H28.1522V14.96ZM34.0266 7.28H35.9466V26H34.0266V7.28ZM47.8378 7.28H49.7578V26H47.8378V7.28ZM38.5978 20.48C38.5978 19.28 38.8458 18.256 39.3418 17.408C39.8378 16.544 40.5018 15.88 41.3338 15.416C42.1658 14.952 43.0778 14.72 44.0698 14.72C44.9978 14.72 45.8058 14.952 46.4938 15.416C47.1818 15.88 47.7178 16.544 48.1018 17.408C48.5018 18.256 48.7018 19.28 48.7018 20.48C48.7018 21.664 48.5018 22.688 48.1018 23.552C47.7178 24.416 47.1818 25.08 46.4938 25.544C45.8058 26.008 44.9978 26.24 44.0698 26.24C43.0778 26.24 42.1658 26.008 41.3338 25.544C40.5018 25.08 39.8378 24.416 39.3418 23.552C38.8458 22.688 38.5978 21.664 38.5978 20.48ZM40.5418 20.48C40.5418 21.328 40.7098 22.048 41.0458 22.64C41.3978 23.232 41.8618 23.68 42.4378 23.984C43.0138 24.288 43.6378 24.44 44.3098 24.44C44.8698 24.44 45.4218 24.288 45.9658 23.984C46.5098 23.68 46.9578 23.232 47.3098 22.64C47.6618 22.048 47.8378 21.328 47.8378 20.48C47.8378 19.632 47.6618 18.912 47.3098 18.32C46.9578 17.728 46.5098 17.28 45.9658 16.976C45.4218 16.672 44.8698 16.52 44.3098 16.52C43.6378 16.52 43.0138 16.672 42.4378 16.976C41.8618 17.28 41.3978 17.728 41.0458 18.32C40.7098 18.912 40.5418 19.632 40.5418 20.48ZM58.8806 11.12V9.2H69.5606V11.12H65.2406V26H63.2006V11.12H58.8806ZM71.595 14.96V26H69.675V14.96H71.595ZM74.931 17.072C74.675 16.88 74.443 16.744 74.235 16.664C74.027 16.568 73.763 16.52 73.443 16.52C72.963 16.52 72.587 16.64 72.315 16.88C72.043 17.12 71.851 17.448 71.739 17.864C71.643 18.28 71.595 18.752 71.595 19.28H70.731C70.731 18.4 70.883 17.624 71.187 16.952C71.507 16.264 71.915 15.72 72.411 15.32C72.907 14.92 73.411 14.72 73.923 14.72C74.323 14.72 74.691 14.776 75.027 14.888C75.379 14.984 75.699 15.184 75.987 15.488L74.931 17.072ZM79.8216 21.68C79.8216 22.56 80.0216 23.24 80.4216 23.72C80.8216 24.2 81.4056 24.44 82.1736 24.44C82.7336 24.44 83.2216 24.328 83.6376 24.104C84.0696 23.864 84.3976 23.536 84.6216 23.12C84.8616 22.704 84.9816 22.224 84.9816 21.68V14.96H86.9016V26H84.9816V24.272C84.6136 24.928 84.1576 25.424 83.6136 25.76C83.0696 26.08 82.4296 26.24 81.6936 26.24C80.5416 26.24 79.6216 25.848 78.9336 25.064C78.2456 24.28 77.9016 23.232 77.9016 21.92V14.96H79.8216V21.68ZM90.9669 22.616C91.1909 22.952 91.4469 23.264 91.7349 23.552C92.0229 23.84 92.3509 24.072 92.7189 24.248C93.1029 24.408 93.5189 24.488 93.9669 24.488C94.5109 24.488 94.9349 24.368 95.2389 24.128C95.5589 23.872 95.7189 23.528 95.7189 23.096C95.7189 22.712 95.5909 22.392 95.3349 22.136C95.0949 21.864 94.7829 21.64 94.3989 21.464C94.0149 21.272 93.6069 21.096 93.1749 20.936C92.6949 20.744 92.2069 20.52 91.7109 20.264C91.2309 19.992 90.8229 19.648 90.4869 19.232C90.1669 18.8 90.0069 18.264 90.0069 17.624C90.0069 16.968 90.1749 16.424 90.5109 15.992C90.8629 15.56 91.3109 15.24 91.8549 15.032C92.4149 14.824 92.9909 14.72 93.5829 14.72C94.1749 14.72 94.7269 14.816 95.2389 15.008C95.7669 15.2 96.2309 15.456 96.6309 15.776C97.0309 16.096 97.3429 16.464 97.5669 16.88L96.0309 17.864C95.7269 17.448 95.3429 17.104 94.8789 16.832C94.4309 16.56 93.9189 16.424 93.3429 16.424C92.9429 16.424 92.5989 16.512 92.3109 16.688C92.0229 16.864 91.8789 17.136 91.8789 17.504C91.8789 17.792 91.9909 18.048 92.2149 18.272C92.4389 18.496 92.7269 18.696 93.0789 18.872C93.4309 19.048 93.7989 19.216 94.1829 19.376C94.8229 19.632 95.4069 19.912 95.9349 20.216C96.4629 20.504 96.8789 20.856 97.1829 21.272C97.5029 21.688 97.6629 22.224 97.6629 22.88C97.6629 23.84 97.3109 24.64 96.6069 25.28C95.9189 25.92 95.0069 26.24 93.8709 26.24C93.1349 26.24 92.4709 26.112 91.8789 25.856C91.2869 25.584 90.7829 25.24 90.3669 24.824C89.9669 24.408 89.6629 23.984 89.4549 23.552L90.9669 22.616ZM98.5106 14.96H104.031V16.76H98.5106V14.96ZM100.311 11.12H102.231V26H100.311V11.12ZM114.016 22.592C114.016 23.008 114.112 23.368 114.304 23.672C114.512 23.976 114.792 24.208 115.144 24.368C115.512 24.512 115.928 24.584 116.392 24.584C116.984 24.584 117.512 24.464 117.976 24.224C118.456 23.984 118.832 23.648 119.104 23.216C119.392 22.768 119.536 22.256 119.536 21.68L119.92 23.12C119.92 23.824 119.704 24.408 119.272 24.872C118.856 25.336 118.336 25.68 117.712 25.904C117.104 26.128 116.496 26.24 115.888 26.24C115.216 26.24 114.584 26.104 113.992 25.832C113.416 25.544 112.952 25.136 112.6 24.608C112.248 24.08 112.072 23.44 112.072 22.688C112.072 21.616 112.448 20.76 113.2 20.12C113.968 19.464 115.032 19.136 116.392 19.136C117.192 19.136 117.856 19.232 118.384 19.424C118.928 19.6 119.36 19.808 119.68 20.048C120 20.272 120.216 20.456 120.328 20.6V21.728C119.768 21.344 119.192 21.072 118.6 20.912C118.008 20.736 117.376 20.648 116.704 20.648C116.08 20.648 115.568 20.728 115.168 20.888C114.784 21.048 114.496 21.272 114.304 21.56C114.112 21.848 114.016 22.192 114.016 22.592ZM113.728 17.504L112.792 16.088C113.208 15.784 113.776 15.48 114.496 15.176C115.232 14.872 116.112 14.72 117.136 14.72C118 14.72 118.752 14.856 119.392 15.128C120.048 15.384 120.552 15.76 120.904 16.256C121.272 16.752 121.456 17.36 121.456 18.08V26H119.536V18.344C119.536 17.96 119.472 17.648 119.344 17.408C119.216 17.152 119.032 16.952 118.792 16.808C118.568 16.664 118.304 16.56 118 16.496C117.696 16.432 117.376 16.4 117.04 16.4C116.496 16.4 116 16.464 115.552 16.592C115.12 16.72 114.752 16.872 114.448 17.048C114.144 17.224 113.904 17.376 113.728 17.504ZM131.786 19.28C131.786 18.368 131.586 17.68 131.186 17.216C130.786 16.752 130.202 16.52 129.434 16.52C128.874 16.52 128.378 16.64 127.946 16.88C127.53 17.104 127.202 17.424 126.962 17.84C126.738 18.256 126.626 18.736 126.626 19.28V26H124.706V14.96H126.626V16.688C126.994 16.016 127.45 15.52 127.994 15.2C128.554 14.88 129.194 14.72 129.914 14.72C131.082 14.72 132.002 15.112 132.674 15.896C133.362 16.664 133.706 17.712 133.706 19.04V26H131.786V19.28ZM145.596 7.28H147.516V26H145.596V7.28ZM136.356 20.48C136.356 19.28 136.604 18.256 137.1 17.408C137.596 16.544 138.26 15.88 139.092 15.416C139.924 14.952 140.836 14.72 141.828 14.72C142.756 14.72 143.564 14.952 144.252 15.416C144.94 15.88 145.476 16.544 145.86 17.408C146.26 18.256 146.46 19.28 146.46 20.48C146.46 21.664 146.26 22.688 145.86 23.552C145.476 24.416 144.94 25.08 144.252 25.544C143.564 26.008 142.756 26.24 141.828 26.24C140.836 26.24 139.924 26.008 139.092 25.544C138.26 25.08 137.596 24.416 137.1 23.552C136.604 22.688 136.356 21.664 136.356 20.48ZM138.3 20.48C138.3 21.328 138.468 22.048 138.804 22.64C139.156 23.232 139.62 23.68 140.196 23.984C140.772 24.288 141.396 24.44 142.068 24.44C142.628 24.44 143.18 24.288 143.724 23.984C144.268 23.68 144.716 23.232 145.068 22.64C145.42 22.048 145.596 21.328 145.596 20.48C145.596 19.632 145.42 18.912 145.068 18.32C144.716 17.728 144.268 17.28 143.724 16.976C143.18 16.672 142.628 16.52 142.068 16.52C141.396 16.52 140.772 16.672 140.196 16.976C139.62 17.28 139.156 17.728 138.804 18.32C138.468 18.912 138.3 19.632 138.3 20.48ZM159.446 26V24.08H167.918V26H159.446ZM159.446 11.12V9.2H167.918V11.12H159.446ZM159.446 17.84V15.92H167.438V17.84H159.446ZM158.318 9.2H160.358V26H158.318V9.2ZM177.274 14.96H179.434L175.666 20.312L179.674 26H177.514L174.634 21.824L171.754 26H169.594L173.602 20.312L169.834 14.96H171.994L174.634 18.8L177.274 14.96ZM181.984 20.48C181.984 21.248 182.144 21.928 182.464 22.52C182.8 23.112 183.248 23.584 183.808 23.936C184.384 24.272 185.032 24.44 185.752 24.44C186.344 24.44 186.896 24.352 187.408 24.176C187.936 23.984 188.392 23.736 188.776 23.432C189.16 23.112 189.432 22.776 189.592 22.424V24.824C189.208 25.272 188.656 25.624 187.936 25.88C187.232 26.12 186.504 26.24 185.752 26.24C184.68 26.24 183.712 25.992 182.848 25.496C181.984 25 181.296 24.32 180.784 23.456C180.288 22.576 180.04 21.584 180.04 20.48C180.04 19.36 180.288 18.368 180.784 17.504C181.296 16.64 181.984 15.96 182.848 15.464C183.712 14.968 184.68 14.72 185.752 14.72C186.504 14.72 187.232 14.848 187.936 15.104C188.656 15.344 189.208 15.688 189.592 16.136V18.536C189.432 18.168 189.16 17.832 188.776 17.528C188.392 17.224 187.936 16.984 187.408 16.808C186.896 16.616 186.344 16.52 185.752 16.52C185.032 16.52 184.384 16.688 183.808 17.024C183.248 17.36 182.8 17.832 182.464 18.44C182.144 19.032 181.984 19.712 181.984 20.48ZM196.853 26.24C195.829 26.24 194.917 26 194.117 25.52C193.333 25.024 192.717 24.344 192.269 23.48C191.837 22.616 191.621 21.616 191.621 20.48C191.621 19.328 191.845 18.32 192.293 17.456C192.757 16.592 193.397 15.92 194.213 15.44C195.045 14.96 196.005 14.72 197.093 14.72C198.181 14.72 199.109 14.952 199.877 15.416C200.661 15.864 201.261 16.512 201.677 17.36C202.093 18.208 202.301 19.216 202.301 20.384C202.301 20.496 202.293 20.616 202.277 20.744C202.277 20.856 202.277 20.928 202.277 20.96H192.845V19.328H200.765L199.997 20.432C200.045 20.352 200.093 20.232 200.141 20.072C200.189 19.896 200.213 19.752 200.213 19.64C200.213 18.984 200.077 18.416 199.805 17.936C199.549 17.456 199.189 17.08 198.725 16.808C198.261 16.536 197.717 16.4 197.093 16.4C196.357 16.4 195.725 16.56 195.197 16.88C194.685 17.184 194.285 17.632 193.997 18.224C193.725 18.8 193.581 19.512 193.565 20.36C193.565 21.224 193.701 21.96 193.973 22.568C194.245 23.176 194.645 23.64 195.173 23.96C195.701 24.28 196.341 24.44 197.093 24.44C197.845 24.44 198.509 24.28 199.085 23.96C199.661 23.624 200.149 23.12 200.549 22.448L202.109 23.432C201.533 24.36 200.805 25.064 199.925 25.544C199.061 26.008 198.037 26.24 196.853 26.24ZM204.933 7.28H206.853V26H204.933V7.28ZM210.464 7.28H212.384V26H210.464V7.28ZM220.267 26.24C219.243 26.24 218.331 26 217.531 25.52C216.747 25.024 216.131 24.344 215.683 23.48C215.251 22.616 215.035 21.616 215.035 20.48C215.035 19.328 215.259 18.32 215.707 17.456C216.171 16.592 216.811 15.92 217.627 15.44C218.459 14.96 219.419 14.72 220.507 14.72C221.595 14.72 222.523 14.952 223.291 15.416C224.075 15.864 224.675 16.512 225.091 17.36C225.507 18.208 225.715 19.216 225.715 20.384C225.715 20.496 225.707 20.616 225.691 20.744C225.691 20.856 225.691 20.928 225.691 20.96H216.259V19.328H224.179L223.411 20.432C223.459 20.352 223.507 20.232 223.555 20.072C223.603 19.896 223.627 19.752 223.627 19.64C223.627 18.984 223.491 18.416 223.219 17.936C222.963 17.456 222.603 17.08 222.139 16.808C221.675 16.536 221.131 16.4 220.507 16.4C219.771 16.4 219.139 16.56 218.611 16.88C218.099 17.184 217.699 17.632 217.411 18.224C217.139 18.8 216.995 19.512 216.979 20.36C216.979 21.224 217.115 21.96 217.387 22.568C217.659 23.176 218.059 23.64 218.587 23.96C219.115 24.28 219.755 24.44 220.507 24.44C221.259 24.44 221.923 24.28 222.499 23.96C223.075 23.624 223.563 23.12 223.963 22.448L225.523 23.432C224.947 24.36 224.219 25.064 223.339 25.544C222.475 26.008 221.451 26.24 220.267 26.24ZM235.427 19.28C235.427 18.368 235.227 17.68 234.827 17.216C234.427 16.752 233.843 16.52 233.075 16.52C232.515 16.52 232.019 16.64 231.587 16.88C231.171 17.104 230.843 17.424 230.603 17.84C230.379 18.256 230.267 18.736 230.267 19.28V26H228.347V14.96H230.267V16.688C230.635 16.016 231.091 15.52 231.635 15.2C232.195 14.88 232.835 14.72 233.555 14.72C234.723 14.72 235.643 15.112 236.315 15.896C237.003 16.664 237.347 17.712 237.347 19.04V26H235.427V19.28ZM241.82 20.48C241.82 21.248 241.98 21.928 242.3 22.52C242.636 23.112 243.084 23.584 243.644 23.936C244.22 24.272 244.868 24.44 245.588 24.44C246.18 24.44 246.732 24.352 247.244 24.176C247.772 23.984 248.228 23.736 248.612 23.432C248.996 23.112 249.268 22.776 249.428 22.424V24.824C249.044 25.272 248.492 25.624 247.772 25.88C247.068 26.12 246.34 26.24 245.588 26.24C244.516 26.24 243.548 25.992 242.684 25.496C241.82 25 241.132 24.32 240.62 23.456C240.124 22.576 239.876 21.584 239.876 20.48C239.876 19.36 240.124 18.368 240.62 17.504C241.132 16.64 241.82 15.96 242.684 15.464C243.548 14.968 244.516 14.72 245.588 14.72C246.34 14.72 247.068 14.848 247.772 15.104C248.492 15.344 249.044 15.688 249.428 16.136V18.536C249.268 18.168 248.996 17.832 248.612 17.528C248.228 17.224 247.772 16.984 247.244 16.808C246.732 16.616 246.18 16.52 245.588 16.52C244.868 16.52 244.22 16.688 243.644 17.024C243.084 17.36 242.636 17.832 242.3 18.44C241.98 19.032 241.82 19.712 241.82 20.48ZM256.689 26.24C255.665 26.24 254.753 26 253.953 25.52C253.169 25.024 252.553 24.344 252.105 23.48C251.673 22.616 251.457 21.616 251.457 20.48C251.457 19.328 251.681 18.32 252.129 17.456C252.593 16.592 253.233 15.92 254.049 15.44C254.881 14.96 255.841 14.72 256.929 14.72C258.017 14.72 258.945 14.952 259.713 15.416C260.497 15.864 261.097 16.512 261.513 17.36C261.929 18.208 262.137 19.216 262.137 20.384C262.137 20.496 262.129 20.616 262.113 20.744C262.113 20.856 262.113 20.928 262.113 20.96H252.681V19.328H260.601L259.833 20.432C259.881 20.352 259.929 20.232 259.977 20.072C260.025 19.896 260.049 19.752 260.049 19.64C260.049 18.984 259.913 18.416 259.641 17.936C259.385 17.456 259.025 17.08 258.561 16.808C258.097 16.536 257.553 16.4 256.929 16.4C256.193 16.4 255.561 16.56 255.033 16.88C254.521 17.184 254.121 17.632 253.833 18.224C253.561 18.8 253.417 19.512 253.401 20.36C253.401 21.224 253.537 21.96 253.809 22.568C254.081 23.176 254.481 23.64 255.009 23.96C255.537 24.28 256.177 24.44 256.929 24.44C257.681 24.44 258.345 24.28 258.921 23.96C259.497 23.624 259.985 23.12 260.385 22.448L261.945 23.432C261.369 24.36 260.641 25.064 259.761 25.544C258.897 26.008 257.873 26.24 256.689 26.24Z" fill="url(#paint0_linear_45_4)"/>
<defs>
<linearGradient id="paint0_linear_45_4" x1="201.262" y1="5.87786" x2="201.262" y2="28.0534" gradientUnits="userSpaceOnUse">
<stop stop-color="#02D5FF"/>
<stop offset="1" stop-color="#0382BA"/>
</linearGradient>
</defs>
</svg>
