<svg width="195" height="41" viewBox="0 0 195 41" fill="none" xmlns="http://www.w3.org/2000/svg">
<rect x="0.5" y="0.5" width="194" height="40" rx="9.5" stroke="url(#paint0_linear_66_117)"/>
<path d="M46.327 20.6C46.327 21.896 46.615 23.04 47.191 24.032C47.783 25.024 48.551 25.8 49.495 26.36C50.439 26.92 51.463 27.2 52.567 27.2C53.367 27.2 54.095 27.096 54.751 26.888C55.423 26.68 56.031 26.392 56.575 26.024C57.119 25.64 57.583 25.2 57.967 24.704V27.392C57.263 28.016 56.495 28.48 55.663 28.784C54.831 29.088 53.799 29.24 52.567 29.24C51.399 29.24 50.303 29.032 49.279 28.616C48.271 28.184 47.383 27.584 46.615 26.816C45.847 26.032 45.247 25.112 44.815 24.056C44.383 23 44.167 21.848 44.167 20.6C44.167 19.352 44.383 18.2 44.815 17.144C45.247 16.088 45.847 15.176 46.615 14.408C47.383 13.624 48.271 13.024 49.279 12.608C50.303 12.176 51.399 11.96 52.567 11.96C53.799 11.96 54.831 12.112 55.663 12.416C56.495 12.72 57.263 13.184 57.967 13.808V16.496C57.583 16 57.119 15.568 56.575 15.2C56.031 14.816 55.423 14.52 54.751 14.312C54.095 14.104 53.367 14 52.567 14C51.463 14 50.439 14.28 49.495 14.84C48.551 15.4 47.783 16.176 47.191 17.168C46.615 18.144 46.327 19.288 46.327 20.6ZM60.4767 23.48C60.4767 22.36 60.7247 21.368 61.2207 20.504C61.7327 19.64 62.4207 18.96 63.2847 18.464C64.1487 17.968 65.1167 17.72 66.1887 17.72C67.2767 17.72 68.2447 17.968 69.0927 18.464C69.9567 18.96 70.6367 19.64 71.1327 20.504C71.6447 21.368 71.9007 22.36 71.9007 23.48C71.9007 24.584 71.6447 25.576 71.1327 26.456C70.6367 27.32 69.9567 28 69.0927 28.496C68.2447 28.992 67.2767 29.24 66.1887 29.24C65.1167 29.24 64.1487 28.992 63.2847 28.496C62.4207 28 61.7327 27.32 61.2207 26.456C60.7247 25.576 60.4767 24.584 60.4767 23.48ZM62.4207 23.48C62.4207 24.248 62.5807 24.928 62.9007 25.52C63.2367 26.112 63.6847 26.584 64.2447 26.936C64.8207 27.272 65.4687 27.44 66.1887 27.44C66.9087 27.44 67.5487 27.272 68.1087 26.936C68.6847 26.584 69.1327 26.112 69.4527 25.52C69.7887 24.928 69.9567 24.248 69.9567 23.48C69.9567 22.712 69.7887 22.032 69.4527 21.44C69.1327 20.832 68.6847 20.36 68.1087 20.024C67.5487 19.688 66.9087 19.52 66.1887 19.52C65.4687 19.52 64.8207 19.688 64.2447 20.024C63.6847 20.36 63.2367 20.832 62.9007 21.44C62.5807 22.032 62.4207 22.712 62.4207 23.48ZM81.6183 22.28C81.6183 21.368 81.4183 20.68 81.0183 20.216C80.6183 19.752 80.0343 19.52 79.2663 19.52C78.7063 19.52 78.2103 19.64 77.7783 19.88C77.3623 20.104 77.0343 20.424 76.7943 20.84C76.5703 21.256 76.4583 21.736 76.4583 22.28V29H74.5383V17.96H76.4583V19.688C76.8263 19.016 77.2823 18.52 77.8263 18.2C78.3863 17.88 79.0263 17.72 79.7463 17.72C80.9143 17.72 81.8343 18.112 82.5063 18.896C83.1943 19.664 83.5383 20.712 83.5383 22.04V29H81.6183V22.28ZM85.4677 17.96H90.9877V19.76H85.4677V17.96ZM87.2677 14.12H89.1877V29H87.2677V14.12ZM93.7773 25.592C93.7773 26.008 93.8733 26.368 94.0653 26.672C94.2733 26.976 94.5533 27.208 94.9053 27.368C95.2733 27.512 95.6893 27.584 96.1533 27.584C96.7453 27.584 97.2733 27.464 97.7373 27.224C98.2173 26.984 98.5933 26.648 98.8653 26.216C99.1533 25.768 99.2973 25.256 99.2973 24.68L99.6813 26.12C99.6813 26.824 99.4653 27.408 99.0333 27.872C98.6173 28.336 98.0973 28.68 97.4733 28.904C96.8653 29.128 96.2573 29.24 95.6493 29.24C94.9773 29.24 94.3453 29.104 93.7533 28.832C93.1773 28.544 92.7133 28.136 92.3613 27.608C92.0093 27.08 91.8333 26.44 91.8333 25.688C91.8333 24.616 92.2093 23.76 92.9613 23.12C93.7293 22.464 94.7933 22.136 96.1533 22.136C96.9533 22.136 97.6173 22.232 98.1453 22.424C98.6893 22.6 99.1213 22.808 99.4413 23.048C99.7613 23.272 99.9773 23.456 100.089 23.6V24.728C99.5293 24.344 98.9533 24.072 98.3613 23.912C97.7693 23.736 97.1373 23.648 96.4653 23.648C95.8413 23.648 95.3293 23.728 94.9293 23.888C94.5453 24.048 94.2573 24.272 94.0653 24.56C93.8733 24.848 93.7773 25.192 93.7773 25.592ZM93.4893 20.504L92.5533 19.088C92.9693 18.784 93.5373 18.48 94.2573 18.176C94.9933 17.872 95.8733 17.72 96.8973 17.72C97.7613 17.72 98.5133 17.856 99.1533 18.128C99.8093 18.384 100.313 18.76 100.665 19.256C101.033 19.752 101.217 20.36 101.217 21.08V29H99.2973V21.344C99.2973 20.96 99.2333 20.648 99.1053 20.408C98.9773 20.152 98.7933 19.952 98.5533 19.808C98.3293 19.664 98.0653 19.56 97.7613 19.496C97.4573 19.432 97.1373 19.4 96.8013 19.4C96.2573 19.4 95.7613 19.464 95.3133 19.592C94.8813 19.72 94.5133 19.872 94.2093 20.048C93.9053 20.224 93.6653 20.376 93.4893 20.504ZM105.332 23.48C105.332 24.248 105.492 24.928 105.812 25.52C106.148 26.112 106.596 26.584 107.156 26.936C107.732 27.272 108.38 27.44 109.1 27.44C109.692 27.44 110.244 27.352 110.756 27.176C111.284 26.984 111.74 26.736 112.124 26.432C112.508 26.112 112.78 25.776 112.94 25.424V27.824C112.556 28.272 112.004 28.624 111.284 28.88C110.58 29.12 109.852 29.24 109.1 29.24C108.028 29.24 107.06 28.992 106.196 28.496C105.332 28 104.644 27.32 104.132 26.456C103.636 25.576 103.388 24.584 103.388 23.48C103.388 22.36 103.636 21.368 104.132 20.504C104.644 19.64 105.332 18.96 106.196 18.464C107.06 17.968 108.028 17.72 109.1 17.72C109.852 17.72 110.58 17.848 111.284 18.104C112.004 18.344 112.556 18.688 112.94 19.136V21.536C112.78 21.168 112.508 20.832 112.124 20.528C111.74 20.224 111.284 19.984 110.756 19.808C110.244 19.616 109.692 19.52 109.1 19.52C108.38 19.52 107.732 19.688 107.156 20.024C106.596 20.36 106.148 20.832 105.812 21.44C105.492 22.032 105.332 22.712 105.332 23.48ZM114.249 17.96H119.769V19.76H114.249V17.96ZM116.049 14.12H117.969V29H116.049V14.12ZM128.89 12.2H130.93V23.48C130.93 24.632 131.242 25.56 131.866 26.264C132.49 26.968 133.402 27.32 134.602 27.32C135.802 27.32 136.714 26.968 137.338 26.264C137.962 25.56 138.274 24.632 138.274 23.48V12.2H140.314V23.48C140.314 24.312 140.178 25.08 139.906 25.784C139.65 26.488 139.266 27.096 138.754 27.608C138.258 28.12 137.658 28.52 136.954 28.808C136.25 29.096 135.466 29.24 134.602 29.24C133.738 29.24 132.954 29.096 132.25 28.808C131.546 28.52 130.938 28.12 130.426 27.608C129.93 27.096 129.546 26.488 129.274 25.784C129.018 25.08 128.89 24.312 128.89 23.48V12.2ZM144.369 25.616C144.593 25.952 144.849 26.264 145.137 26.552C145.425 26.84 145.753 27.072 146.121 27.248C146.505 27.408 146.921 27.488 147.369 27.488C147.913 27.488 148.337 27.368 148.641 27.128C148.961 26.872 149.121 26.528 149.121 26.096C149.121 25.712 148.993 25.392 148.737 25.136C148.497 24.864 148.185 24.64 147.801 24.464C147.417 24.272 147.009 24.096 146.577 23.936C146.097 23.744 145.609 23.52 145.113 23.264C144.633 22.992 144.225 22.648 143.889 22.232C143.569 21.8 143.409 21.264 143.409 20.624C143.409 19.968 143.577 19.424 143.913 18.992C144.265 18.56 144.713 18.24 145.257 18.032C145.817 17.824 146.393 17.72 146.985 17.72C147.577 17.72 148.129 17.816 148.641 18.008C149.169 18.2 149.633 18.456 150.033 18.776C150.433 19.096 150.745 19.464 150.969 19.88L149.433 20.864C149.129 20.448 148.745 20.104 148.281 19.832C147.833 19.56 147.321 19.424 146.745 19.424C146.345 19.424 146.001 19.512 145.713 19.688C145.425 19.864 145.281 20.136 145.281 20.504C145.281 20.792 145.393 21.048 145.617 21.272C145.841 21.496 146.129 21.696 146.481 21.872C146.833 22.048 147.201 22.216 147.585 22.376C148.225 22.632 148.809 22.912 149.337 23.216C149.865 23.504 150.281 23.856 150.585 24.272C150.905 24.688 151.065 25.224 151.065 25.88C151.065 26.84 150.713 27.64 150.009 28.28C149.321 28.92 148.409 29.24 147.273 29.24C146.537 29.24 145.873 29.112 145.281 28.856C144.689 28.584 144.185 28.24 143.769 27.824C143.369 27.408 143.065 26.984 142.857 26.552L144.369 25.616Z" fill="url(#paint1_linear_66_117)"/>
<defs>
<linearGradient id="paint0_linear_66_117" x1="0" y1="20.5" x2="195" y2="20.5" gradientUnits="userSpaceOnUse">
<stop stop-color="#02D5FF"/>
<stop offset="1" stop-color="#008FAB"/>
</linearGradient>
<linearGradient id="paint1_linear_66_117" x1="29" y1="20.5377" x2="166" y2="20.5377" gradientUnits="userSpaceOnUse">
<stop stop-color="#02D5FF"/>
<stop offset="1" stop-color="#008FAB"/>
</linearGradient>
</defs>
</svg>
