<svg width="371" height="62" viewBox="0 0 371 62" fill="none" xmlns="http://www.w3.org/2000/svg">
<path d="M31.132 33.057L36.98 15.9H45.623L32.594 47.763L22.876 29.617L13.201 47.763L0.172 15.9H8.772L14.706 33.057L22.876 14.395L31.132 33.057ZM54.9691 46.43C52.6758 46.43 50.6835 46.0143 48.9921 45.183C47.3295 44.323 46.0395 43.119 45.1221 41.571C44.2048 40.023 43.7461 38.2027 43.7461 36.11C43.7461 33.9887 44.1905 32.154 45.0791 30.606C45.9678 29.058 47.2435 27.8683 48.9061 27.037C50.5975 26.2057 52.5898 25.79 54.8831 25.79C57.1765 25.79 59.1115 26.1913 60.6881 26.994C62.2648 27.768 63.4688 28.9003 64.3001 30.391C65.1315 31.8817 65.5471 33.6877 65.5471 35.809C65.5471 36.1243 65.5471 36.4397 65.5471 36.755C65.5471 37.0417 65.5185 37.2853 65.4611 37.486H47.4011V33.874H59.6131L58.0651 35.852C58.2085 35.6513 58.3231 35.4077 58.4091 35.121C58.5238 34.8057 58.5811 34.5477 58.5811 34.347C58.5811 33.487 58.4235 32.7417 58.1081 32.111C57.7928 31.4803 57.3485 30.993 56.7751 30.649C56.2018 30.305 55.5281 30.133 54.7541 30.133C53.7795 30.133 52.9625 30.348 52.3031 30.778C51.6438 31.208 51.1421 31.8673 50.7981 32.756C50.4828 33.616 50.3108 34.7053 50.2821 36.024C50.2821 37.228 50.4541 38.26 50.7981 39.12C51.1421 39.98 51.6581 40.6393 52.3461 41.098C53.0341 41.528 53.8798 41.743 54.8831 41.743C56.0298 41.743 57.0045 41.528 57.8071 41.098C58.6385 40.668 59.2978 40.023 59.7851 39.163L65.5901 40.582C64.5581 42.5313 63.1535 43.9933 61.3761 44.968C59.6275 45.9427 57.4918 46.43 54.9691 46.43ZM76.0065 12.46V46H69.5135V12.46H76.0065ZM92.1745 36.11C92.1745 38.3173 91.7159 40.195 90.7985 41.743C89.9099 43.2623 88.7489 44.4233 87.3155 45.226C85.9109 46.0287 84.3915 46.43 82.7575 46.43C81.1235 46.43 79.6615 46.0143 78.3715 45.183C77.0815 44.3517 76.0639 43.162 75.3185 41.614C74.5732 40.066 74.2005 38.2313 74.2005 36.11C74.2005 33.96 74.5732 32.1253 75.3185 30.606C76.0639 29.058 77.0815 27.8683 78.3715 27.037C79.6615 26.2057 81.1235 25.79 82.7575 25.79C84.3915 25.79 85.9109 26.1913 87.3155 26.994C88.7489 27.7967 89.9099 28.9577 90.7985 30.477C91.7159 31.9963 92.1745 33.874 92.1745 36.11ZM85.3375 36.11C85.3375 35.078 85.1225 34.1893 84.6925 33.444C84.2625 32.67 83.6892 32.0823 82.9725 31.681C82.2559 31.251 81.4675 31.036 80.6075 31.036C79.8622 31.036 79.1312 31.2367 78.4145 31.638C77.7265 32.0393 77.1532 32.627 76.6945 33.401C76.2359 34.1463 76.0065 35.0493 76.0065 36.11C76.0065 37.1707 76.2359 38.088 76.6945 38.862C77.1532 39.6073 77.7265 40.1807 78.4145 40.582C79.1312 40.9833 79.8622 41.184 80.6075 41.184C81.4675 41.184 82.2559 40.9833 82.9725 40.582C83.6892 40.152 84.2625 39.5643 84.6925 38.819C85.1225 38.045 85.3375 37.142 85.3375 36.11ZM105.384 31.423V28.155C106.215 28.155 106.96 28.0547 107.62 27.854C108.308 27.6247 108.895 27.3237 109.383 26.951C109.899 26.5783 110.286 26.1483 110.544 25.661C110.802 25.1737 110.931 24.6577 110.931 24.113C110.931 23.5397 110.802 23.0237 110.544 22.565C110.286 22.1063 109.913 21.7623 109.426 21.533C108.938 21.275 108.308 21.146 107.534 21.146C106.387 21.146 105.441 21.4757 104.696 22.135C103.95 22.7943 103.578 23.6543 103.578 24.715H96.9126C96.9126 22.9377 97.3426 21.3467 98.2026 19.942C99.0913 18.5087 100.338 17.3907 101.944 16.588C103.549 15.7567 105.412 15.341 107.534 15.341C109.798 15.341 111.719 15.7137 113.296 16.459C114.872 17.2043 116.062 18.2077 116.865 19.469C117.696 20.7303 118.112 22.135 118.112 23.683C118.112 25.403 117.538 26.8363 116.392 27.983C115.274 29.1297 113.754 29.9897 111.834 30.563C109.913 31.1363 107.763 31.423 105.384 31.423ZM107.19 46.688C105.384 46.688 103.764 46.4157 102.331 45.871C100.897 45.3263 99.6789 44.5667 98.6756 43.592C97.7009 42.6173 96.9413 41.5137 96.3966 40.281C95.8806 39.0483 95.6226 37.7727 95.6226 36.454H102.761C102.761 37.4287 102.976 38.2457 103.406 38.905C103.836 39.5643 104.409 40.0517 105.126 40.367C105.871 40.6823 106.645 40.84 107.448 40.84C108.308 40.84 109.053 40.711 109.684 40.453C110.343 40.195 110.859 39.7793 111.232 39.206C111.604 38.6327 111.791 37.9303 111.791 37.099C111.791 36.4683 111.662 35.895 111.404 35.379C111.146 34.863 110.744 34.4187 110.2 34.046C109.684 33.6447 109.024 33.3437 108.222 33.143C107.419 32.9423 106.473 32.842 105.384 32.842V29.144C107.362 29.144 109.168 29.316 110.802 29.66C112.464 29.9753 113.912 30.4913 115.145 31.208C116.377 31.896 117.323 32.7847 117.983 33.874C118.642 34.9633 118.972 36.2677 118.972 37.787C118.972 39.5357 118.499 41.0837 117.553 42.431C116.607 43.7497 115.259 44.796 113.511 45.57C111.762 46.3153 109.655 46.688 107.19 46.688ZM136.597 15.9H140.252V46H136.597V15.9ZM145.627 46H138.618V42.345H145.627C147.319 42.345 148.867 42.087 150.271 41.571C151.676 41.0263 152.88 40.2667 153.883 39.292C154.887 38.2887 155.661 37.0847 156.205 35.68C156.75 34.2753 157.022 32.6987 157.022 30.95C157.022 29.2013 156.75 27.6247 156.205 26.22C155.661 24.8153 154.887 23.6257 153.883 22.651C152.88 21.6477 151.676 20.888 150.271 20.372C148.867 19.8273 147.319 19.555 145.627 19.555H138.618V15.9H145.627C148.551 15.9 151.146 16.5307 153.41 17.792C155.675 19.0533 157.452 20.8163 158.742 23.081C160.032 25.317 160.677 27.94 160.677 30.95C160.677 33.96 160.032 36.5973 158.742 38.862C157.452 41.098 155.675 42.8467 153.41 44.108C151.146 45.3693 148.551 46 145.627 46ZM173.263 46.43C171.428 46.43 169.794 46 168.361 45.14C166.956 44.2513 165.852 43.033 165.05 41.485C164.276 39.937 163.889 38.1453 163.889 36.11C163.889 34.046 164.29 32.24 165.093 30.692C165.924 29.144 167.071 27.94 168.533 27.08C170.023 26.22 171.743 25.79 173.693 25.79C175.642 25.79 177.305 26.2057 178.681 27.037C180.085 27.8397 181.16 29.0007 181.906 30.52C182.651 32.0393 183.024 33.8453 183.024 35.938C183.024 36.1387 183.009 36.3537 182.981 36.583C182.981 36.7837 182.981 36.9127 182.981 36.97H166.082V34.046H180.272L178.896 36.024C178.982 35.8807 179.068 35.6657 179.154 35.379C179.24 35.0637 179.283 34.8057 179.283 34.605C179.283 33.4297 179.039 32.412 178.552 31.552C178.093 30.692 177.448 30.0183 176.617 29.531C175.785 29.0437 174.811 28.8 173.693 28.8C172.374 28.8 171.242 29.0867 170.296 29.66C169.378 30.2047 168.662 31.0073 168.146 32.068C167.658 33.1 167.4 34.3757 167.372 35.895C167.372 37.443 167.615 38.7617 168.103 39.851C168.59 40.9403 169.307 41.7717 170.253 42.345C171.199 42.9183 172.345 43.205 173.693 43.205C175.04 43.205 176.23 42.9183 177.262 42.345C178.294 41.743 179.168 40.84 179.885 39.636L182.68 41.399C181.648 43.0617 180.343 44.323 178.767 45.183C177.219 46.0143 175.384 46.43 173.263 46.43ZM183.884 26.22H187.754L193.344 40.195L198.934 26.22H202.804L193.344 47.505L183.884 26.22ZM213.071 46.43C211.237 46.43 209.603 46 208.169 45.14C206.765 44.2513 205.661 43.033 204.858 41.485C204.084 39.937 203.697 38.1453 203.697 36.11C203.697 34.046 204.099 32.24 204.901 30.692C205.733 29.144 206.879 27.94 208.341 27.08C209.832 26.22 211.552 25.79 213.501 25.79C215.451 25.79 217.113 26.2057 218.489 27.037C219.894 27.8397 220.969 29.0007 221.714 30.52C222.46 32.0393 222.832 33.8453 222.832 35.938C222.832 36.1387 222.818 36.3537 222.789 36.583C222.789 36.7837 222.789 36.9127 222.789 36.97H205.89V34.046H220.08L218.704 36.024C218.79 35.8807 218.876 35.6657 218.962 35.379C219.048 35.0637 219.091 34.8057 219.091 34.605C219.091 33.4297 218.848 32.412 218.36 31.552C217.902 30.692 217.257 30.0183 216.425 29.531C215.594 29.0437 214.619 28.8 213.501 28.8C212.183 28.8 211.05 29.0867 210.104 29.66C209.187 30.2047 208.47 31.0073 207.954 32.068C207.467 33.1 207.209 34.3757 207.18 35.895C207.18 37.443 207.424 38.7617 207.911 39.851C208.399 40.9403 209.115 41.7717 210.061 42.345C211.007 42.9183 212.154 43.205 213.501 43.205C214.849 43.205 216.038 42.9183 217.07 42.345C218.102 41.743 218.977 40.84 219.693 39.636L222.488 41.399C221.456 43.0617 220.152 44.323 218.575 45.183C217.027 46.0143 215.193 46.43 213.071 46.43ZM227.547 12.46H230.987V46H227.547V12.46ZM235.737 36.11C235.737 34.1033 236.182 32.326 237.07 30.778C237.988 29.23 239.22 28.0117 240.768 27.123C242.316 26.2343 244.051 25.79 245.971 25.79C247.921 25.79 249.655 26.2343 251.174 27.123C252.722 28.0117 253.941 29.23 254.829 30.778C255.747 32.326 256.205 34.1033 256.205 36.11C256.205 38.088 255.747 39.8653 254.829 41.442C253.941 42.99 252.722 44.2083 251.174 45.097C249.655 45.9857 247.921 46.43 245.971 46.43C244.051 46.43 242.316 45.9857 240.768 45.097C239.22 44.2083 237.988 42.99 237.07 41.442C236.182 39.8653 235.737 38.088 235.737 36.11ZM239.22 36.11C239.22 37.486 239.507 38.7043 240.08 39.765C240.682 40.8257 241.485 41.6713 242.488 42.302C243.52 42.904 244.681 43.205 245.971 43.205C247.261 43.205 248.408 42.904 249.411 42.302C250.443 41.6713 251.246 40.8257 251.819 39.765C252.421 38.7043 252.722 37.486 252.722 36.11C252.722 34.734 252.421 33.5157 251.819 32.455C251.246 31.3657 250.443 30.52 249.411 29.918C248.408 29.316 247.261 29.015 245.971 29.015C244.681 29.015 243.52 29.316 242.488 29.918C241.485 30.52 240.682 31.3657 240.08 32.455C239.507 33.5157 239.22 34.734 239.22 36.11ZM264.156 55.46H260.716V26.22H264.156V55.46ZM280.711 36.11C280.711 38.2313 280.267 40.066 279.378 41.614C278.489 43.162 277.3 44.3517 275.809 45.183C274.347 46.0143 272.713 46.43 270.907 46.43C269.273 46.43 267.825 46.0143 266.564 45.183C265.331 44.3517 264.357 43.162 263.64 41.614C262.952 40.066 262.608 38.2313 262.608 36.11C262.608 33.96 262.952 32.1253 263.64 30.606C264.357 29.058 265.331 27.8683 266.564 27.037C267.825 26.2057 269.273 25.79 270.907 25.79C272.713 25.79 274.347 26.2057 275.809 27.037C277.3 27.8683 278.489 29.058 279.378 30.606C280.267 32.1253 280.711 33.96 280.711 36.11ZM277.228 36.11C277.228 34.5907 276.913 33.3007 276.282 32.24C275.68 31.1793 274.863 30.3767 273.831 29.832C272.828 29.2873 271.71 29.015 270.477 29.015C269.474 29.015 268.485 29.2873 267.51 29.832C266.535 30.3767 265.733 31.1793 265.102 32.24C264.471 33.3007 264.156 34.5907 264.156 36.11C264.156 37.6293 264.471 38.9193 265.102 39.98C265.733 41.0407 266.535 41.8433 267.51 42.388C268.485 42.9327 269.474 43.205 270.477 43.205C271.71 43.205 272.828 42.9327 273.831 42.388C274.863 41.8433 275.68 41.0407 276.282 39.98C276.913 38.9193 277.228 37.6293 277.228 36.11ZM312.544 33.53V46H309.104V33.96C309.104 32.2687 308.789 31.0217 308.158 30.219C307.556 29.4163 306.61 29.015 305.32 29.015C304.374 29.015 303.557 29.2157 302.869 29.617C302.181 29.9897 301.651 30.5487 301.278 31.294C300.906 32.0393 300.719 32.928 300.719 33.96V46H297.279V33.96C297.279 32.2687 296.964 31.0217 296.333 30.219C295.731 29.4163 294.785 29.015 293.495 29.015C292.549 29.015 291.732 29.2157 291.044 29.617C290.356 29.9897 289.826 30.5487 289.453 31.294C289.081 32.0393 288.894 32.928 288.894 33.96V46H285.454V26.22H288.894V29.101C289.496 27.983 290.242 27.1517 291.13 26.607C292.048 26.0623 293.123 25.79 294.355 25.79C295.731 25.79 296.907 26.1197 297.881 26.779C298.885 27.4097 299.616 28.3127 300.074 29.488C300.762 28.2553 301.622 27.338 302.654 26.736C303.686 26.1053 304.862 25.79 306.18 25.79C307.528 25.79 308.674 26.091 309.62 26.693C310.566 27.295 311.283 28.1837 311.77 29.359C312.286 30.5057 312.544 31.896 312.544 33.53ZM326.66 46.43C324.826 46.43 323.192 46 321.758 45.14C320.354 44.2513 319.25 43.033 318.447 41.485C317.673 39.937 317.286 38.1453 317.286 36.11C317.286 34.046 317.688 32.24 318.49 30.692C319.322 29.144 320.468 27.94 321.93 27.08C323.421 26.22 325.141 25.79 327.09 25.79C329.04 25.79 330.702 26.2057 332.078 27.037C333.483 27.8397 334.558 29.0007 335.303 30.52C336.049 32.0393 336.421 33.8453 336.421 35.938C336.421 36.1387 336.407 36.3537 336.378 36.583C336.378 36.7837 336.378 36.9127 336.378 36.97H319.479V34.046H333.669L332.293 36.024C332.379 35.8807 332.465 35.6657 332.551 35.379C332.637 35.0637 332.68 34.8057 332.68 34.605C332.68 33.4297 332.437 32.412 331.949 31.552C331.491 30.692 330.846 30.0183 330.014 29.531C329.183 29.0437 328.208 28.8 327.09 28.8C325.772 28.8 324.639 29.0867 323.693 29.66C322.776 30.2047 322.059 31.0073 321.543 32.068C321.056 33.1 320.798 34.3757 320.769 35.895C320.769 37.443 321.013 38.7617 321.5 39.851C321.988 40.9403 322.704 41.7717 323.65 42.345C324.596 42.9183 325.743 43.205 327.09 43.205C328.438 43.205 329.627 42.9183 330.659 42.345C331.691 41.743 332.566 40.84 333.282 39.636L336.077 41.399C335.045 43.0617 333.741 44.323 332.164 45.183C330.616 46.0143 328.782 46.43 326.66 46.43ZM353.821 33.96C353.821 32.326 353.463 31.0933 352.746 30.262C352.029 29.4307 350.983 29.015 349.607 29.015C348.604 29.015 347.715 29.23 346.941 29.66C346.196 30.0613 345.608 30.6347 345.178 31.38C344.777 32.1253 344.576 32.9853 344.576 33.96V46H341.136V26.22H344.576V29.316C345.235 28.112 346.052 27.2233 347.027 26.65C348.03 26.0767 349.177 25.79 350.467 25.79C352.56 25.79 354.208 26.4923 355.412 27.897C356.645 29.273 357.261 31.1507 357.261 33.53V46H353.821V33.96ZM360.718 26.22H370.608V29.445H360.718V26.22ZM363.943 19.34H367.383V46H363.943V19.34Z" fill="url(#paint0_linear_45_2)"/>
<defs>
<linearGradient id="paint0_linear_45_2" x1="207.411" y1="10.4122" x2="207.411" y2="49.6947" gradientUnits="userSpaceOnUse">
<stop stop-color="#02D5FF"/>
<stop offset="1" stop-color="#0382BA"/>
</linearGradient>
</defs>
</svg>
