<svg width="328" height="124" viewBox="0 0 328 124" fill="none" xmlns="http://www.w3.org/2000/svg">
<path d="M7.998 22.135V15.9H21.457V22.135H7.998ZM7.998 33.917V28.069H21.027V33.917H7.998ZM3.182 15.9H10.148V46H3.182V15.9ZM32.2587 38.26C32.2587 39.4067 32.4737 40.3097 32.9037 40.969C33.3337 41.5997 34.0791 41.915 35.1397 41.915C35.8564 41.915 36.4584 41.7717 36.9457 41.485C37.4617 41.1983 37.8631 40.7827 38.1497 40.238C38.4364 39.6933 38.5797 39.034 38.5797 38.26V26.22H45.0727V46H38.5797V43.033C37.9777 44.0937 37.1894 44.9393 36.2147 45.57C35.2401 46.172 34.0217 46.473 32.5597 46.473C30.0944 46.473 28.2884 45.8137 27.1417 44.495C26.0237 43.1477 25.4647 41.2987 25.4647 38.948V26.22H32.2587V38.26ZM63.0551 33.96C63.0551 32.7847 62.8258 31.8817 62.3671 31.251C61.9371 30.6203 61.2061 30.305 60.1741 30.305C59.4861 30.305 58.8841 30.4483 58.3681 30.735C57.8521 31.0217 57.4508 31.4373 57.1641 31.982C56.8775 32.5267 56.7341 33.186 56.7341 33.96V46H50.1981V26.22H56.7341V29.187C57.3075 28.0977 58.0815 27.252 59.0561 26.65C60.0595 26.048 61.2921 25.747 62.7541 25.747C65.2195 25.747 67.0111 26.4063 68.1291 27.725C69.2471 29.0437 69.8061 30.8927 69.8061 33.272V46H63.0551V33.96ZM89.9385 12.46H96.4315V46H89.9385V12.46ZM73.7705 36.11C73.7705 33.874 74.2149 31.9963 75.1035 30.477C76.0209 28.9577 77.1962 27.7967 78.6295 26.994C80.0629 26.1913 81.5822 25.79 83.1875 25.79C84.8502 25.79 86.3122 26.2057 87.5735 27.037C88.8635 27.8683 89.8812 29.058 90.6265 30.606C91.3719 32.1253 91.7445 33.96 91.7445 36.11C91.7445 38.2313 91.3719 40.066 90.6265 41.614C89.8812 43.162 88.8635 44.3517 87.5735 45.183C86.3122 46.0143 84.8502 46.43 83.1875 46.43C81.5822 46.43 80.0629 46.0287 78.6295 45.226C77.1962 44.4233 76.0209 43.2623 75.1035 41.743C74.2149 40.195 73.7705 38.3173 73.7705 36.11ZM80.6075 36.11C80.6075 37.142 80.8225 38.045 81.2525 38.819C81.6825 39.5643 82.2559 40.152 82.9725 40.582C83.6892 40.9833 84.4775 41.184 85.3375 41.184C86.0829 41.184 86.7995 40.9833 87.4875 40.582C88.2042 40.1807 88.7919 39.6073 89.2505 38.862C89.7092 38.088 89.9385 37.1707 89.9385 36.11C89.9385 35.0493 89.7092 34.1463 89.2505 33.401C88.7919 32.627 88.2042 32.0393 87.4875 31.638C86.7995 31.2367 86.0829 31.036 85.3375 31.036C84.4775 31.036 83.6892 31.251 82.9725 31.681C82.2559 32.0823 81.6825 32.67 81.2525 33.444C80.8225 34.1893 80.6075 35.078 80.6075 36.11ZM107.878 26.22V46H101.471V26.22H107.878ZM113.597 32.928C113.253 32.584 112.88 32.3117 112.479 32.111C112.106 31.9103 111.633 31.81 111.06 31.81C110.429 31.81 109.87 31.982 109.383 32.326C108.895 32.67 108.523 33.1717 108.265 33.831C108.007 34.4903 107.878 35.293 107.878 36.239L106.33 33.96C106.33 32.3833 106.631 30.9787 107.233 29.746C107.863 28.5133 108.68 27.5387 109.684 26.822C110.687 26.1053 111.733 25.747 112.823 25.747C113.539 25.747 114.227 25.8903 114.887 26.177C115.546 26.4637 116.048 26.865 116.392 27.381L113.597 32.928ZM124.18 39.808C124.18 40.324 124.309 40.7683 124.567 41.141C124.825 41.485 125.169 41.7573 125.599 41.958C126.029 42.13 126.502 42.216 127.018 42.216C127.764 42.216 128.452 42.0583 129.082 41.743C129.713 41.4277 130.229 40.9547 130.63 40.324C131.032 39.6933 131.232 38.9193 131.232 38.002L131.92 40.582C131.92 41.8433 131.576 42.9183 130.888 43.807C130.2 44.667 129.312 45.3263 128.222 45.785C127.133 46.215 125.958 46.43 124.696 46.43C123.435 46.43 122.26 46.2007 121.17 45.742C120.11 45.2547 119.25 44.538 118.59 43.592C117.96 42.646 117.644 41.4993 117.644 40.152C117.644 38.26 118.318 36.7693 119.665 35.68C121.013 34.562 122.919 34.003 125.384 34.003C126.588 34.003 127.663 34.1177 128.609 34.347C129.584 34.5763 130.415 34.863 131.103 35.207C131.791 35.551 132.307 35.9093 132.651 36.282V39.163C131.963 38.647 131.161 38.26 130.243 38.002C129.355 37.7153 128.409 37.572 127.405 37.572C126.631 37.572 126.015 37.658 125.556 37.83C125.098 38.002 124.754 38.26 124.524 38.604C124.295 38.9193 124.18 39.3207 124.18 39.808ZM121.299 32.283L119.106 27.94C120.224 27.3953 121.572 26.8793 123.148 26.392C124.725 25.9047 126.445 25.661 128.308 25.661C130.057 25.661 131.619 25.919 132.995 26.435C134.371 26.9223 135.461 27.639 136.263 28.585C137.066 29.531 137.467 30.692 137.467 32.068V46H131.232V33.53C131.232 33.0427 131.146 32.627 130.974 32.283C130.831 31.9103 130.602 31.595 130.286 31.337C129.971 31.079 129.57 30.8927 129.082 30.778C128.624 30.6633 128.093 30.606 127.491 30.606C126.603 30.606 125.728 30.7063 124.868 30.907C124.037 31.1077 123.306 31.3513 122.675 31.638C122.045 31.896 121.586 32.111 121.299 32.283ZM141.942 18.781C141.942 17.749 142.315 16.9177 143.06 16.287C143.805 15.6277 144.694 15.298 145.726 15.298C146.787 15.298 147.675 15.6277 148.392 16.287C149.137 16.9177 149.51 17.749 149.51 18.781C149.51 19.813 149.137 20.6587 148.392 21.318C147.675 21.9773 146.787 22.307 145.726 22.307C144.694 22.307 143.805 21.9773 143.06 21.318C142.315 20.6587 141.942 19.813 141.942 18.781ZM142.587 26.22H148.865V46H142.587V26.22ZM155.288 38.819C156.291 39.6503 157.194 40.3097 157.997 40.797C158.828 41.2557 159.559 41.5853 160.19 41.786C160.82 41.958 161.365 42.044 161.824 42.044C162.483 42.044 162.97 41.9007 163.286 41.614C163.601 41.3273 163.759 40.9547 163.759 40.496C163.759 40.066 163.63 39.7077 163.372 39.421C163.114 39.1057 162.669 38.8047 162.039 38.518C161.437 38.2313 160.605 37.9303 159.545 37.615C158.599 37.271 157.696 36.8697 156.836 36.411C156.004 35.9237 155.316 35.2787 154.772 34.476C154.227 33.6733 153.955 32.6413 153.955 31.38C153.955 30.176 154.27 29.1583 154.901 28.327C155.56 27.4957 156.434 26.865 157.524 26.435C158.642 26.005 159.917 25.79 161.351 25.79C162.497 25.79 163.558 25.919 164.533 26.177C165.536 26.435 166.468 26.779 167.328 27.209C168.216 27.639 169.048 28.1407 169.822 28.714L167.5 32.928C166.668 32.154 165.722 31.5233 164.662 31.036C163.601 30.52 162.626 30.262 161.738 30.262C161.136 30.262 160.677 30.3767 160.362 30.606C160.075 30.8353 159.932 31.1363 159.932 31.509C159.932 31.939 160.104 32.2973 160.448 32.584C160.82 32.8707 161.336 33.143 161.996 33.401C162.684 33.6303 163.515 33.9313 164.49 34.304C165.522 34.6767 166.468 35.1067 167.328 35.594C168.216 36.0813 168.919 36.6977 169.435 37.443C169.979 38.1883 170.252 39.1773 170.252 40.41C170.252 42.5313 169.592 44.1367 168.274 45.226C166.984 46.2867 165.163 46.817 162.813 46.817C161.379 46.817 160.046 46.645 158.814 46.301C157.61 45.9857 156.492 45.5557 155.46 45.011C154.428 44.4377 153.467 43.807 152.579 43.119L155.288 38.819ZM173.436 18.781C173.436 17.749 173.809 16.9177 174.554 16.287C175.299 15.6277 176.188 15.298 177.22 15.298C178.281 15.298 179.169 15.6277 179.886 16.287C180.631 16.9177 181.004 17.749 181.004 18.781C181.004 19.813 180.631 20.6587 179.886 21.318C179.169 21.9773 178.281 22.307 177.22 22.307C176.188 22.307 175.299 21.9773 174.554 21.318C173.809 20.6587 173.436 19.813 173.436 18.781ZM174.081 26.22H180.359V46H174.081V26.22ZM198.564 33.96C198.564 32.7847 198.335 31.8817 197.876 31.251C197.446 30.6203 196.715 30.305 195.683 30.305C194.995 30.305 194.393 30.4483 193.877 30.735C193.361 31.0217 192.96 31.4373 192.673 31.982C192.386 32.5267 192.243 33.186 192.243 33.96V46H185.707V26.22H192.243V29.187C192.816 28.0977 193.59 27.252 194.565 26.65C195.568 26.048 196.801 25.747 198.263 25.747C200.728 25.747 202.52 26.4063 203.638 27.725C204.756 29.0437 205.315 30.8927 205.315 33.272V46H198.564V33.96ZM209.709 47.419H215.987C216.073 48.2217 216.303 48.8953 216.675 49.44C217.077 49.9847 217.607 50.386 218.266 50.644C218.926 50.9307 219.671 51.074 220.502 51.074C221.42 51.074 222.251 50.859 222.996 50.429C223.742 50.0277 224.329 49.4113 224.759 48.58C225.218 47.7773 225.447 46.774 225.447 45.57V26.22H231.682V45.57C231.682 48.0927 231.181 50.1423 230.177 51.719C229.203 53.2957 227.898 54.4423 226.264 55.159C224.63 55.9043 222.796 56.277 220.76 56.277C218.324 56.277 216.303 55.9043 214.697 55.159C213.121 54.4137 211.931 53.3673 211.128 52.02C210.326 50.7013 209.853 49.1677 209.709 47.419ZM209.279 35.852C209.279 33.616 209.724 31.7527 210.612 30.262C211.53 28.7713 212.705 27.6533 214.138 26.908C215.572 26.1627 217.091 25.79 218.696 25.79C220.359 25.79 221.821 26.1913 223.082 26.994C224.372 27.768 225.39 28.9003 226.135 30.391C226.881 31.8817 227.253 33.702 227.253 35.852C227.253 37.9733 226.881 39.7937 226.135 41.313C225.39 42.8037 224.372 43.9503 223.082 44.753C221.821 45.527 220.359 45.914 218.696 45.914C217.091 45.914 215.572 45.5413 214.138 44.796C212.705 44.022 211.53 42.8897 210.612 41.399C209.724 39.9083 209.279 38.0593 209.279 35.852ZM216.116 35.852C216.116 36.8553 216.331 37.7297 216.761 38.475C217.191 39.1917 217.765 39.7363 218.481 40.109C219.198 40.4817 219.986 40.668 220.846 40.668C221.592 40.668 222.308 40.496 222.996 40.152C223.713 39.7793 224.301 39.2347 224.759 38.518C225.218 37.8013 225.447 36.9127 225.447 35.852C225.447 35.0493 225.304 34.347 225.017 33.745C224.759 33.143 224.401 32.6413 223.942 32.24C223.512 31.8387 223.025 31.5377 222.48 31.337C221.936 31.1363 221.391 31.036 220.846 31.036C219.986 31.036 219.198 31.2223 218.481 31.595C217.765 31.9677 217.191 32.5123 216.761 33.229C216.331 33.9457 216.116 34.82 216.116 35.852ZM251.813 39.894C251.813 40.6393 251.985 41.2843 252.329 41.829C252.702 42.3737 253.203 42.7893 253.834 43.076C254.493 43.334 255.239 43.463 256.07 43.463C257.131 43.463 258.077 43.248 258.908 42.818C259.768 42.388 260.442 41.786 260.929 41.012C261.445 40.2093 261.703 39.292 261.703 38.26L262.391 40.84C262.391 42.1013 262.004 43.1477 261.23 43.979C260.485 44.8103 259.553 45.4267 258.435 45.828C257.346 46.2293 256.256 46.43 255.167 46.43C253.963 46.43 252.831 46.1863 251.77 45.699C250.738 45.183 249.907 44.452 249.276 43.506C248.645 42.56 248.33 41.4133 248.33 40.066C248.33 38.1453 249.004 36.6117 250.351 35.465C251.727 34.2897 253.633 33.702 256.07 33.702C257.503 33.702 258.693 33.874 259.639 34.218C260.614 34.5333 261.388 34.906 261.961 35.336C262.534 35.7373 262.921 36.067 263.122 36.325V38.346C262.119 37.658 261.087 37.1707 260.026 36.884C258.965 36.5687 257.833 36.411 256.629 36.411C255.511 36.411 254.594 36.5543 253.877 36.841C253.189 37.1277 252.673 37.529 252.329 38.045C251.985 38.561 251.813 39.1773 251.813 39.894ZM251.297 30.778L249.62 28.241C250.365 27.6963 251.383 27.1517 252.673 26.607C253.992 26.0623 255.568 25.79 257.403 25.79C258.951 25.79 260.298 26.0337 261.445 26.521C262.62 26.9797 263.523 27.6533 264.154 28.542C264.813 29.4307 265.143 30.52 265.143 31.81V46H261.703V32.283C261.703 31.595 261.588 31.036 261.359 30.606C261.13 30.1473 260.8 29.789 260.37 29.531C259.969 29.273 259.496 29.0867 258.951 28.972C258.406 28.8573 257.833 28.8 257.231 28.8C256.256 28.8 255.368 28.9147 254.565 29.144C253.791 29.3733 253.132 29.6457 252.587 29.961C252.042 30.2763 251.612 30.5487 251.297 30.778ZM283.652 33.96C283.652 32.326 283.294 31.0933 282.577 30.262C281.861 29.4307 280.814 29.015 279.438 29.015C278.435 29.015 277.546 29.23 276.772 29.66C276.027 30.0613 275.439 30.6347 275.009 31.38C274.608 32.1253 274.407 32.9853 274.407 33.96V46H270.967V26.22H274.407V29.316C275.067 28.112 275.884 27.2233 276.858 26.65C277.862 26.0767 279.008 25.79 280.298 25.79C282.391 25.79 284.039 26.4923 285.243 27.897C286.476 29.273 287.092 31.1507 287.092 33.53V46H283.652V33.96ZM308.394 12.46H311.834V46H308.394V12.46ZM291.839 36.11C291.839 33.96 292.283 32.1253 293.172 30.606C294.061 29.058 295.25 27.8683 296.741 27.037C298.232 26.2057 299.866 25.79 301.643 25.79C303.306 25.79 304.753 26.2057 305.986 27.037C307.219 27.8683 308.179 29.058 308.867 30.606C309.584 32.1253 309.942 33.96 309.942 36.11C309.942 38.2313 309.584 40.066 308.867 41.614C308.179 43.162 307.219 44.3517 305.986 45.183C304.753 46.0143 303.306 46.43 301.643 46.43C299.866 46.43 298.232 46.0143 296.741 45.183C295.25 44.3517 294.061 43.162 293.172 41.614C292.283 40.066 291.839 38.2313 291.839 36.11ZM295.322 36.11C295.322 37.6293 295.623 38.9193 296.225 39.98C296.856 41.0407 297.687 41.8433 298.719 42.388C299.751 42.9327 300.869 43.205 302.073 43.205C303.076 43.205 304.065 42.9327 305.04 42.388C306.015 41.8433 306.817 41.0407 307.448 39.98C308.079 38.9193 308.394 37.6293 308.394 36.11C308.394 34.5907 308.079 33.3007 307.448 32.24C306.817 31.1793 306.015 30.3767 305.04 29.832C304.065 29.2873 303.076 29.015 302.073 29.015C300.869 29.015 299.751 29.2873 298.719 29.832C297.687 30.3767 296.856 31.1793 296.225 32.24C295.623 33.3007 295.322 34.5907 295.322 36.11ZM6.321 98.97L7.611 95.53H20.941L22.231 98.97H6.321ZM14.19 84.694L9.116 96.648L8.772 97.422L4.3 108H0.215L14.19 76.395L28.165 108H24.08L19.694 97.68L19.35 96.82L14.19 84.694ZM46.4467 74.46H49.8867V108H46.4467V74.46ZM29.8917 98.11C29.8917 95.96 30.3361 94.1253 31.2247 92.606C32.1134 91.058 33.3031 89.8683 34.7937 89.037C36.2844 88.2057 37.9184 87.79 39.6957 87.79C41.3584 87.79 42.8061 88.2057 44.0387 89.037C45.2714 89.8683 46.2317 91.058 46.9197 92.606C47.6364 94.1253 47.9947 95.96 47.9947 98.11C47.9947 100.231 47.6364 102.066 46.9197 103.614C46.2317 105.162 45.2714 106.352 44.0387 107.183C42.8061 108.014 41.3584 108.43 39.6957 108.43C37.9184 108.43 36.2844 108.014 34.7937 107.183C33.3031 106.352 32.1134 105.162 31.2247 103.614C30.3361 102.066 29.8917 100.231 29.8917 98.11ZM33.3747 98.11C33.3747 99.6293 33.6757 100.919 34.2777 101.98C34.9084 103.041 35.7397 103.843 36.7717 104.388C37.8037 104.933 38.9217 105.205 40.1257 105.205C41.1291 105.205 42.1181 104.933 43.0927 104.388C44.0674 103.843 44.8701 103.041 45.5007 101.98C46.1314 100.919 46.4467 99.6293 46.4467 98.11C46.4467 96.5907 46.1314 95.3007 45.5007 94.24C44.8701 93.1793 44.0674 92.3767 43.0927 91.832C42.1181 91.2873 41.1291 91.015 40.1257 91.015C38.9217 91.015 37.8037 91.2873 36.7717 91.832C35.7397 92.3767 34.9084 93.1793 34.2777 94.24C33.6757 95.3007 33.3747 96.5907 33.3747 98.11ZM52.9102 88.22H56.7802L62.3702 102.195L67.9602 88.22H71.8302L62.3702 109.505L52.9102 88.22ZM75.0736 80.05C75.0736 79.3907 75.303 78.8317 75.7616 78.373C76.249 77.9143 76.808 77.685 77.4386 77.685C78.098 77.685 78.657 77.9143 79.1156 78.373C79.5743 78.8317 79.8036 79.3907 79.8036 80.05C79.8036 80.6807 79.5743 81.2397 79.1156 81.727C78.657 82.1857 78.098 82.415 77.4386 82.415C76.808 82.415 76.249 82.1857 75.7616 81.727C75.303 81.2397 75.0736 80.6807 75.0736 80.05ZM75.7186 88.22H79.1586V108H75.7186V88.22ZM87.0606 101.937C87.4619 102.539 87.9206 103.098 88.4366 103.614C88.9526 104.13 89.5402 104.546 90.1996 104.861C90.8876 105.148 91.6329 105.291 92.4356 105.291C93.4102 105.291 94.1699 105.076 94.7146 104.646C95.2879 104.187 95.5746 103.571 95.5746 102.797C95.5746 102.109 95.3452 101.536 94.8866 101.077C94.4566 100.59 93.8976 100.188 93.2096 99.873C92.5216 99.529 91.7906 99.2137 91.0166 98.927C90.1566 98.583 89.2822 98.1817 88.3936 97.723C87.5336 97.2357 86.8026 96.6193 86.2006 95.874C85.6272 95.1 85.3406 94.1397 85.3406 92.993C85.3406 91.8177 85.6416 90.843 86.2436 90.069C86.8742 89.295 87.6769 88.7217 88.6516 88.349C89.6549 87.9763 90.6869 87.79 91.7476 87.79C92.8082 87.79 93.7972 87.962 94.7146 88.306C95.6606 88.65 96.4919 89.1087 97.2086 89.682C97.9252 90.2553 98.4842 90.9147 98.8856 91.66L96.1336 93.423C95.5889 92.6777 94.9009 92.0613 94.0696 91.574C93.2669 91.0867 92.3496 90.843 91.3176 90.843C90.6009 90.843 89.9846 91.0007 89.4686 91.316C88.9526 91.6313 88.6946 92.1187 88.6946 92.778C88.6946 93.294 88.8952 93.7527 89.2966 94.154C89.6979 94.5553 90.2139 94.9137 90.8446 95.229C91.4752 95.5443 92.1346 95.8453 92.8226 96.132C93.9692 96.5907 95.0156 97.0923 95.9616 97.637C96.9076 98.153 97.6529 98.7837 98.1976 99.529C98.7709 100.274 99.0576 101.235 99.0576 102.41C99.0576 104.13 98.4269 105.563 97.1656 106.71C95.9329 107.857 94.2989 108.43 92.2636 108.43C90.9449 108.43 89.7552 108.201 88.6946 107.742C87.6339 107.255 86.7309 106.638 85.9856 105.893C85.2689 105.148 84.7242 104.388 84.3516 103.614L87.0606 101.937ZM101.866 98.11C101.866 96.1033 102.311 94.326 103.199 92.778C104.117 91.23 105.349 90.0117 106.897 89.123C108.445 88.2343 110.18 87.79 112.1 87.79C114.05 87.79 115.784 88.2343 117.303 89.123C118.851 90.0117 120.07 91.23 120.958 92.778C121.876 94.326 122.334 96.1033 122.334 98.11C122.334 100.088 121.876 101.865 120.958 103.442C120.07 104.99 118.851 106.208 117.303 107.097C115.784 107.986 114.05 108.43 112.1 108.43C110.18 108.43 108.445 107.986 106.897 107.097C105.349 106.208 104.117 104.99 103.199 103.442C102.311 101.865 101.866 100.088 101.866 98.11ZM105.349 98.11C105.349 99.486 105.636 100.704 106.209 101.765C106.811 102.826 107.614 103.671 108.617 104.302C109.649 104.904 110.81 105.205 112.1 105.205C113.39 105.205 114.537 104.904 115.54 104.302C116.572 103.671 117.375 102.826 117.948 101.765C118.55 100.704 118.851 99.486 118.851 98.11C118.851 96.734 118.55 95.5157 117.948 94.455C117.375 93.3657 116.572 92.52 115.54 91.918C114.537 91.316 113.39 91.015 112.1 91.015C110.81 91.015 109.649 91.316 108.617 91.918C107.614 92.52 106.811 93.3657 106.209 94.455C105.636 95.5157 105.349 96.734 105.349 98.11ZM130.5 88.22V108H127.06V88.22H130.5ZM136.477 92.004C136.018 91.66 135.603 91.4163 135.23 91.273C134.857 91.101 134.384 91.015 133.811 91.015C132.951 91.015 132.277 91.23 131.79 91.66C131.303 92.09 130.959 92.6777 130.758 93.423C130.586 94.1683 130.5 95.014 130.5 95.96H128.952C128.952 94.3833 129.224 92.993 129.769 91.789C130.342 90.5563 131.073 89.5817 131.962 88.865C132.851 88.1483 133.754 87.79 134.671 87.79C135.388 87.79 136.047 87.8903 136.649 88.091C137.28 88.263 137.853 88.6213 138.369 89.166L136.477 92.004ZM158.796 88.22L145.896 117.46H142.026L147.444 105.205L139.876 88.22H143.961L150.239 103.7L148.82 103.528L154.926 88.22H158.796Z" fill="url(#paint0_linear_78_138)"/>
<defs>
<linearGradient id="paint0_linear_78_138" x1="183.372" y1="20.8244" x2="183.372" y2="99.3893" gradientUnits="userSpaceOnUse">
<stop stop-color="#02D5FF"/>
<stop offset="1" stop-color="#0382BA"/>
</linearGradient>
</defs>
</svg>
