<svg width="1011" height="419" viewBox="0 0 1011 419" fill="none" xmlns="http://www.w3.org/2000/svg">
<path d="M240.192 346.492L254.88 303.4H276.588L243.864 383.428L219.456 337.852L195.156 383.428L162.432 303.4H184.032L198.936 346.492L219.456 299.62L240.192 346.492ZM285.058 303.4H303.634V379H285.058V303.4ZM312.092 319.708V303.4H371.924V319.708H351.08V379H332.828V319.708H312.092ZM385.267 347.356V330.94H442.507V347.356H385.267ZM430.951 303.4H449.203V379H430.951V303.4ZM380.191 303.4H398.443V379H380.191V303.4ZM496.932 303.4H515.184V352.864C515.184 356.68 516.192 359.776 518.208 362.152C520.224 364.528 523.248 365.716 527.28 365.716C531.384 365.716 534.444 364.528 536.46 362.152C538.476 359.776 539.484 356.68 539.484 352.864V303.4H557.736V354.16C557.736 358.912 556.944 363.052 555.36 366.58C553.848 370.108 551.688 373.024 548.88 375.328C546.144 377.56 542.904 379.252 539.16 380.404C535.488 381.556 531.528 382.132 527.28 382.132C523.032 382.132 519.072 381.556 515.4 380.404C511.728 379.252 508.488 377.56 505.68 375.328C502.944 373.024 500.784 370.108 499.2 366.58C497.688 363.052 496.932 358.912 496.932 354.16V303.4ZM581.515 352.432C583.027 355.168 584.719 357.544 586.591 359.56C588.535 361.576 590.623 363.124 592.855 364.204C595.159 365.284 597.571 365.824 600.091 365.824C602.755 365.824 604.951 365.176 606.679 363.88C608.407 362.512 609.271 360.676 609.271 358.372C609.271 356.428 608.767 354.88 607.759 353.728C606.751 352.504 605.131 351.352 602.899 350.272C600.667 349.192 597.715 347.968 594.043 346.6C592.243 345.952 590.155 345.052 587.779 343.9C585.475 342.748 583.279 341.272 581.191 339.472C579.103 337.6 577.375 335.368 576.007 332.776C574.639 330.112 573.955 326.908 573.955 323.164C573.955 318.7 575.107 314.848 577.411 311.608C579.787 308.368 582.955 305.92 586.915 304.264C590.947 302.536 595.411 301.672 600.307 301.672C605.347 301.672 609.703 302.5 613.375 304.156C617.119 305.812 620.215 307.9 622.663 310.42C625.111 312.94 626.983 315.496 628.279 318.088L614.347 325.864C613.267 324.064 612.007 322.516 610.567 321.22C609.199 319.852 607.651 318.808 605.923 318.088C604.267 317.296 602.467 316.9 600.523 316.9C597.931 316.9 595.951 317.476 594.583 318.628C593.215 319.708 592.531 321.076 592.531 322.732C592.531 324.46 593.179 325.972 594.475 327.268C595.843 328.564 597.751 329.752 600.199 330.832C602.719 331.912 605.743 333.064 609.271 334.288C611.935 335.296 614.419 336.484 616.723 337.852C619.027 339.148 621.043 340.732 622.771 342.604C624.571 344.476 625.975 346.636 626.983 349.084C627.991 351.532 628.495 354.34 628.495 357.508C628.495 361.324 627.703 364.744 626.119 367.768C624.607 370.72 622.519 373.204 619.855 375.22C617.263 377.236 614.275 378.748 610.891 379.756C607.579 380.836 604.159 381.376 600.631 381.376C595.735 381.376 591.163 380.512 586.915 378.784C582.739 376.984 579.103 374.572 576.007 371.548C572.911 368.524 570.499 365.212 568.771 361.612L581.515 352.432Z" fill="url(#paint0_linear_70_122)"/>
<path d="M13.716 49.04V40.4H47.52V49.04H13.716ZM13.716 79.28V70.64H46.44V79.28H13.716ZM8.64 40.4H17.82V116H8.64V40.4ZM68.04 78.2C68.04 83.888 69.264 88.964 71.712 93.428C74.232 97.892 77.652 101.42 81.972 104.012C86.292 106.604 91.188 107.9 96.66 107.9C102.204 107.9 107.1 106.604 111.348 104.012C115.668 101.42 119.052 97.892 121.5 93.428C124.02 88.964 125.28 83.888 125.28 78.2C125.28 72.512 124.02 67.436 121.5 62.972C119.052 58.508 115.668 54.98 111.348 52.388C107.1 49.796 102.204 48.5 96.66 48.5C91.188 48.5 86.292 49.796 81.972 52.388C77.652 54.98 74.232 58.508 71.712 62.972C69.264 67.436 68.04 72.512 68.04 78.2ZM58.32 78.2C58.32 72.656 59.256 67.544 61.128 62.864C63.072 58.112 65.772 54.008 69.228 50.552C72.684 47.024 76.752 44.288 81.432 42.344C86.112 40.328 91.188 39.32 96.66 39.32C102.204 39.32 107.28 40.328 111.888 42.344C116.568 44.288 120.636 47.024 124.092 50.552C127.548 54.008 130.212 58.112 132.084 62.864C134.028 67.544 135 72.656 135 78.2C135 83.672 134.028 88.784 132.084 93.536C130.212 98.288 127.548 102.428 124.092 105.956C120.636 109.412 116.568 112.148 111.888 114.164C107.28 116.108 102.204 117.08 96.66 117.08C91.188 117.08 86.112 116.108 81.432 114.164C76.752 112.148 72.684 109.412 69.228 105.956C65.772 102.428 63.072 98.288 61.128 93.536C59.256 88.784 58.32 83.672 58.32 78.2ZM161.464 78.74H171.724L198.724 116H187.384L161.464 78.74ZM147.964 40.4H157.144V116H147.964V40.4ZM153.04 48.5V40.4H168.484C173.38 40.4 177.736 41.336 181.552 43.208C185.44 45.008 188.5 47.6 190.732 50.984C193.036 54.368 194.188 58.4 194.188 63.08C194.188 67.688 193.036 71.72 190.732 75.176C188.5 78.56 185.44 81.188 181.552 83.06C177.736 84.86 173.38 85.76 168.484 85.76H153.04V77.66H168.484C171.724 77.66 174.568 77.084 177.016 75.932C179.536 74.78 181.48 73.124 182.848 70.964C184.288 68.804 185.008 66.176 185.008 63.08C185.008 59.984 184.288 57.356 182.848 55.196C181.48 53.036 179.536 51.38 177.016 50.228C174.568 49.076 171.724 48.5 168.484 48.5H153.04ZM243.498 86.3V77.66H278.598C278.598 82.916 277.806 87.92 276.222 92.672C274.638 97.352 272.298 101.528 269.202 105.2C266.106 108.872 262.29 111.788 257.754 113.948C253.29 116.036 248.178 117.08 242.418 117.08C236.946 117.08 231.87 116.144 227.19 114.272C222.51 112.328 218.442 109.628 214.986 106.172C211.53 102.644 208.83 98.504 206.886 93.752C205.014 89 204.078 83.816 204.078 78.2C204.078 72.584 205.014 67.4 206.886 62.648C208.83 57.896 211.53 53.792 214.986 50.336C218.442 46.808 222.51 44.108 227.19 42.236C231.87 40.292 236.946 39.32 242.418 39.32C247.098 39.32 251.382 39.932 255.27 41.156C259.23 42.38 262.758 44.18 265.854 46.556C269.022 48.932 271.686 51.884 273.846 55.412L267.366 61.352C264.99 57.32 261.678 54.188 257.43 51.956C253.182 49.652 248.178 48.5 242.418 48.5C237.09 48.5 232.266 49.76 227.946 52.28C223.626 54.8 220.17 58.292 217.578 62.756C215.058 67.148 213.798 72.296 213.798 78.2C213.798 84.032 215.058 89.18 217.578 93.644C220.17 98.108 223.626 101.6 227.946 104.12C232.266 106.64 237.09 107.9 242.418 107.9C246.162 107.9 249.51 107.36 252.462 106.28C255.486 105.128 258.078 103.544 260.238 101.528C262.398 99.512 264.162 97.208 265.53 94.616C266.97 92.024 268.014 89.252 268.662 86.3H243.498ZM297.216 116V107.36H335.34V116H297.216ZM297.216 49.04V40.4H335.34V49.04H297.216ZM297.216 79.28V70.64H333.18V79.28H297.216ZM292.14 40.4H301.32V116H292.14V40.4Z" fill="white"/>
<path d="M425.694 40.4H446.646L420.186 85.22V116H401.61V85.328L375.15 40.4H396.102L410.898 68.804L425.694 40.4ZM464.18 78.2C464.18 82.664 465.044 86.624 466.772 90.08C468.572 93.464 471.056 96.128 474.224 98.072C477.464 100.016 481.244 100.988 485.564 100.988C489.812 100.988 493.52 100.016 496.688 98.072C499.928 96.128 502.412 93.464 504.14 90.08C505.94 86.624 506.84 82.664 506.84 78.2C506.84 73.736 505.976 69.812 504.248 66.428C502.52 62.972 500.072 60.272 496.904 58.328C493.736 56.384 489.956 55.412 485.564 55.412C481.244 55.412 477.464 56.384 474.224 58.328C471.056 60.272 468.572 62.972 466.772 66.428C465.044 69.812 464.18 73.736 464.18 78.2ZM444.848 78.2C444.848 72.368 445.856 67.04 447.872 62.216C449.96 57.392 452.84 53.216 456.512 49.688C460.184 46.16 464.504 43.46 469.472 41.588C474.44 39.644 479.804 38.672 485.564 38.672C491.396 38.672 496.76 39.644 501.656 41.588C506.624 43.46 510.944 46.16 514.616 49.688C518.288 53.216 521.132 57.392 523.148 62.216C525.164 67.04 526.172 72.368 526.172 78.2C526.172 84.032 525.164 89.396 523.148 94.292C521.204 99.188 518.396 103.436 514.724 107.036C511.124 110.636 506.84 113.444 501.872 115.46C496.904 117.404 491.468 118.376 485.564 118.376C479.588 118.376 474.116 117.404 469.148 115.46C464.18 113.444 459.86 110.636 456.188 107.036C452.588 103.436 449.78 99.188 447.764 94.292C445.82 89.396 444.848 84.032 444.848 78.2ZM537.327 40.4H555.579V89.864C555.579 93.68 556.587 96.776 558.603 99.152C560.619 101.528 563.643 102.716 567.675 102.716C571.779 102.716 574.839 101.528 576.855 99.152C578.871 96.776 579.879 93.68 579.879 89.864V40.4H598.131V91.16C598.131 95.912 597.339 100.052 595.755 103.58C594.243 107.108 592.083 110.024 589.275 112.328C586.539 114.56 583.299 116.252 579.555 117.404C575.883 118.556 571.923 119.132 567.675 119.132C563.427 119.132 559.467 118.556 555.795 117.404C552.123 116.252 548.883 114.56 546.075 112.328C543.339 110.024 541.179 107.108 539.595 103.58C538.083 100.052 537.327 95.912 537.327 91.16V40.4ZM632.494 81.764H651.394L675.046 116H653.662L632.494 81.764ZM613.594 40.4H631.846V116H613.594V40.4ZM625.042 55.844V40.4H641.134C647.614 40.4 653.014 41.444 657.334 43.532C661.654 45.62 664.93 48.536 667.162 52.28C669.394 55.952 670.51 60.236 670.51 65.132C670.51 69.956 669.394 74.24 667.162 77.984C664.93 81.656 661.654 84.536 657.334 86.624C653.014 88.712 647.614 89.756 641.134 89.756H625.042V75.608H639.838C642.286 75.608 644.374 75.248 646.102 74.528C647.902 73.736 649.27 72.62 650.206 71.18C651.142 69.668 651.61 67.868 651.61 65.78C651.61 63.692 651.142 61.928 650.206 60.488C649.27 58.976 647.902 57.824 646.102 57.032C644.374 56.24 642.286 55.844 639.838 55.844H625.042Z" fill="url(#paint1_linear_70_122)"/>
<path d="M385.192 214.492L399.88 171.4H421.588L388.864 251.428L364.456 205.852L340.156 251.428L307.432 171.4H329.032L343.936 214.492L364.456 167.62L385.192 214.492ZM442.154 247V231.988H480.278V247H442.154ZM442.154 186.412V171.4H480.278V186.412H442.154ZM442.154 214.6V199.912H478.118V214.6H442.154ZM430.058 171.4H447.554V247H430.058V171.4ZM508.741 209.416V201.424H520.945C523.033 201.424 524.797 201.1 526.237 200.452C527.749 199.804 528.901 198.904 529.693 197.752C530.485 196.528 530.881 195.052 530.881 193.324C530.881 190.732 530.017 188.788 528.289 187.492C526.561 186.196 524.113 185.548 520.945 185.548H513.385V232.852H522.673C525.049 232.852 527.173 232.564 529.045 231.988C530.917 231.34 532.393 230.332 533.473 228.964C534.625 227.524 535.201 225.58 535.201 223.132C535.201 221.548 534.877 220.18 534.229 219.028C533.581 217.876 532.681 216.94 531.529 216.22C530.377 215.5 529.045 214.996 527.533 214.708C526.093 214.348 524.473 214.168 522.673 214.168H508.741V204.232H524.725C528.397 204.232 531.961 204.628 535.417 205.42C538.873 206.212 542.005 207.508 544.813 209.308C547.621 211.036 549.853 213.268 551.509 216.004C553.237 218.668 554.101 221.908 554.101 225.724C554.101 230.764 552.877 234.832 550.429 237.928C548.053 241.024 544.669 243.328 540.277 244.84C535.885 246.28 530.701 247 524.725 247H495.133V171.4H522.889C528.145 171.4 532.753 172.12 536.713 173.56C540.745 174.928 543.913 177.052 546.217 179.932C548.593 182.74 549.781 186.304 549.781 190.624C549.781 194.584 548.593 197.968 546.217 200.776C543.913 203.584 540.745 205.744 536.713 207.256C532.753 208.696 528.145 209.416 522.889 209.416H508.741ZM588.559 210.388V202.18C590.647 202.18 592.519 201.928 594.175 201.424C595.903 200.848 597.379 200.092 598.603 199.156C599.899 198.22 600.871 197.14 601.519 195.916C602.167 194.692 602.491 193.396 602.491 192.028C602.491 190.588 602.167 189.292 601.519 188.14C600.871 186.988 599.935 186.124 598.711 185.548C597.487 184.9 595.903 184.576 593.959 184.576C591.079 184.576 588.703 185.404 586.831 187.06C584.959 188.716 584.023 190.876 584.023 193.54H567.283C567.283 189.076 568.363 185.08 570.523 181.552C572.755 177.952 575.887 175.144 579.919 173.128C583.951 171.04 588.631 169.996 593.959 169.996C599.647 169.996 604.471 170.932 608.431 172.804C612.391 174.676 615.379 177.196 617.395 180.364C619.483 183.532 620.527 187.06 620.527 190.948C620.527 195.268 619.087 198.868 616.207 201.748C613.399 204.628 609.583 206.788 604.759 208.228C599.935 209.668 594.535 210.388 588.559 210.388ZM593.095 248.728C588.559 248.728 584.491 248.044 580.891 246.676C577.291 245.308 574.231 243.4 571.711 240.952C569.263 238.504 567.355 235.732 565.987 232.636C564.691 229.54 564.043 226.336 564.043 223.024H581.971C581.971 225.472 582.511 227.524 583.591 229.18C584.671 230.836 586.111 232.06 587.911 232.852C589.783 233.644 591.727 234.04 593.743 234.04C595.903 234.04 597.775 233.716 599.359 233.068C601.015 232.42 602.311 231.376 603.247 229.936C604.183 228.496 604.651 226.732 604.651 224.644C604.651 223.06 604.327 221.62 603.679 220.324C603.031 219.028 602.023 217.912 600.655 216.976C599.359 215.968 597.703 215.212 595.687 214.708C593.671 214.204 591.295 213.952 588.559 213.952V204.664C593.527 204.664 598.063 205.096 602.167 205.96C606.343 206.752 609.979 208.048 613.075 209.848C616.171 211.576 618.547 213.808 620.203 216.544C621.859 219.28 622.687 222.556 622.687 226.372C622.687 230.764 621.499 234.652 619.123 238.036C616.747 241.348 613.363 243.976 608.971 245.92C604.579 247.792 599.287 248.728 593.095 248.728Z" fill="url(#paint2_linear_70_122)"/>
<path d="M693.956 229.936L718.796 171.4H729.056L693.956 250.78L658.856 171.4H669.116L693.956 229.936ZM738.253 171.4H747.433V247H738.253V171.4ZM767.534 224.104C769.262 227.128 771.062 229.792 772.934 232.096C774.878 234.4 777.038 236.2 779.414 237.496C781.79 238.792 784.49 239.44 787.514 239.44C791.546 239.44 794.786 238.324 797.234 236.092C799.682 233.86 800.906 231.016 800.906 227.56C800.906 224.176 800.114 221.476 798.53 219.46C796.946 217.444 794.858 215.824 792.266 214.6C789.746 213.304 787.046 212.152 784.166 211.144C782.294 210.496 780.206 209.668 777.902 208.66C775.598 207.58 773.402 206.248 771.314 204.664C769.226 203.008 767.498 200.992 766.13 198.616C764.834 196.24 764.186 193.324 764.186 189.868C764.186 186.124 765.122 182.776 766.994 179.824C768.866 176.872 771.458 174.568 774.77 172.912C778.082 171.184 781.862 170.32 786.11 170.32C790.214 170.32 793.778 171.112 796.802 172.696C799.898 174.208 802.526 176.188 804.686 178.636C806.846 181.012 808.538 183.532 809.762 186.196L801.878 190.732C800.942 188.86 799.754 187.024 798.314 185.224C796.874 183.424 795.11 181.948 793.022 180.796C791.006 179.644 788.522 179.068 785.57 179.068C781.466 179.068 778.478 180.076 776.606 182.092C774.734 184.036 773.798 186.232 773.798 188.68C773.798 190.768 774.338 192.712 775.418 194.512C776.498 196.24 778.298 197.896 780.818 199.48C783.41 200.992 786.902 202.504 791.294 204.016C793.31 204.736 795.434 205.672 797.666 206.824C799.898 207.976 801.95 209.452 803.822 211.252C805.766 212.98 807.35 215.104 808.574 217.624C809.798 220.072 810.41 223.024 810.41 226.48C810.41 229.792 809.762 232.78 808.466 235.444C807.242 238.108 805.514 240.376 803.282 242.248C801.122 244.12 798.638 245.56 795.83 246.568C793.094 247.576 790.214 248.08 787.19 248.08C783.086 248.08 779.27 247.216 775.742 245.488C772.286 243.688 769.226 241.348 766.562 238.468C763.97 235.516 761.846 232.384 760.19 229.072L767.534 224.104ZM823.894 171.4H833.074V247H823.894V171.4ZM855.767 209.2C855.767 214.888 856.991 219.964 859.439 224.428C861.959 228.892 865.379 232.42 869.699 235.012C874.019 237.604 878.915 238.9 884.387 238.9C889.931 238.9 894.827 237.604 899.075 235.012C903.395 232.42 906.779 228.892 909.227 224.428C911.747 219.964 913.007 214.888 913.007 209.2C913.007 203.512 911.747 198.436 909.227 193.972C906.779 189.508 903.395 185.98 899.075 183.388C894.827 180.796 889.931 179.5 884.387 179.5C878.915 179.5 874.019 180.796 869.699 183.388C865.379 185.98 861.959 189.508 859.439 193.972C856.991 198.436 855.767 203.512 855.767 209.2ZM846.047 209.2C846.047 203.656 846.983 198.544 848.855 193.864C850.799 189.112 853.499 185.008 856.955 181.552C860.411 178.024 864.479 175.288 869.159 173.344C873.839 171.328 878.915 170.32 884.387 170.32C889.931 170.32 895.007 171.328 899.615 173.344C904.295 175.288 908.363 178.024 911.819 181.552C915.275 185.008 917.939 189.112 919.811 193.864C921.755 198.544 922.727 203.656 922.727 209.2C922.727 214.672 921.755 219.784 919.811 224.536C917.939 229.288 915.275 233.428 911.819 236.956C908.363 240.412 904.295 243.148 899.615 245.164C895.007 247.108 889.931 248.08 884.387 248.08C878.915 248.08 873.839 247.108 869.159 245.164C864.479 243.148 860.411 240.412 856.955 236.956C853.499 233.428 850.799 229.288 848.855 224.536C846.983 219.784 846.047 214.672 846.047 209.2ZM992.931 171.4H1002.11V250.78L944.871 190.732V247H935.691V167.62L992.931 227.668V171.4Z" fill="white"/>
<defs>
<linearGradient id="paint0_linear_70_122" x1="425.317" y1="289.198" x2="425.317" y2="388.038" gradientUnits="userSpaceOnUse">
<stop stop-color="#02D5FF"/>
<stop offset="1" stop-color="#0382BA"/>
</linearGradient>
<linearGradient id="paint1_linear_70_122" x1="377.925" y1="26.1985" x2="377.925" y2="125.038" gradientUnits="userSpaceOnUse">
<stop stop-color="#02D5FF"/>
<stop offset="1" stop-color="#0382BA"/>
</linearGradient>
<linearGradient id="paint2_linear_70_122" x1="700.579" y1="157.198" x2="700.579" y2="256.038" gradientUnits="userSpaceOnUse">
<stop stop-color="#02D5FF"/>
<stop offset="1" stop-color="#0382BA"/>
</linearGradient>
</defs>
</svg>
