<svg width="1153" height="419" viewBox="0 0 1153 419" fill="none" xmlns="http://www.w3.org/2000/svg">
<path d="M382.192 346.492L396.88 303.4H418.588L385.864 383.428L361.456 337.852L337.156 383.428L304.432 303.4H326.032L340.936 346.492L361.456 299.62L382.192 346.492ZM427.058 303.4H445.634V379H427.058V303.4ZM454.092 319.708V303.4H513.924V319.708H493.08V379H474.828V319.708H454.092ZM527.267 347.356V330.94H584.507V347.356H527.267ZM572.951 303.4H591.203V379H572.951V303.4ZM522.191 303.4H540.443V379H522.191V303.4ZM638.932 303.4H657.184V352.864C657.184 356.68 658.192 359.776 660.208 362.152C662.224 364.528 665.248 365.716 669.28 365.716C673.384 365.716 676.444 364.528 678.46 362.152C680.476 359.776 681.484 356.68 681.484 352.864V303.4H699.736V354.16C699.736 358.912 698.944 363.052 697.36 366.58C695.848 370.108 693.688 373.024 690.88 375.328C688.144 377.56 684.904 379.252 681.16 380.404C677.488 381.556 673.528 382.132 669.28 382.132C665.032 382.132 661.072 381.556 657.4 380.404C653.728 379.252 650.488 377.56 647.68 375.328C644.944 373.024 642.784 370.108 641.2 366.58C639.688 363.052 638.932 358.912 638.932 354.16V303.4ZM723.515 352.432C725.027 355.168 726.719 357.544 728.591 359.56C730.535 361.576 732.623 363.124 734.855 364.204C737.159 365.284 739.571 365.824 742.091 365.824C744.755 365.824 746.951 365.176 748.679 363.88C750.407 362.512 751.271 360.676 751.271 358.372C751.271 356.428 750.767 354.88 749.759 353.728C748.751 352.504 747.131 351.352 744.899 350.272C742.667 349.192 739.715 347.968 736.043 346.6C734.243 345.952 732.155 345.052 729.779 343.9C727.475 342.748 725.279 341.272 723.191 339.472C721.103 337.6 719.375 335.368 718.007 332.776C716.639 330.112 715.955 326.908 715.955 323.164C715.955 318.7 717.107 314.848 719.411 311.608C721.787 308.368 724.955 305.92 728.915 304.264C732.947 302.536 737.411 301.672 742.307 301.672C747.347 301.672 751.703 302.5 755.375 304.156C759.119 305.812 762.215 307.9 764.663 310.42C767.111 312.94 768.983 315.496 770.279 318.088L756.347 325.864C755.267 324.064 754.007 322.516 752.567 321.22C751.199 319.852 749.651 318.808 747.923 318.088C746.267 317.296 744.467 316.9 742.523 316.9C739.931 316.9 737.951 317.476 736.583 318.628C735.215 319.708 734.531 321.076 734.531 322.732C734.531 324.46 735.179 325.972 736.475 327.268C737.843 328.564 739.751 329.752 742.199 330.832C744.719 331.912 747.743 333.064 751.271 334.288C753.935 335.296 756.419 336.484 758.723 337.852C761.027 339.148 763.043 340.732 764.771 342.604C766.571 344.476 767.975 346.636 768.983 349.084C769.991 351.532 770.495 354.34 770.495 357.508C770.495 361.324 769.703 364.744 768.119 367.768C766.607 370.72 764.519 373.204 761.855 375.22C759.263 377.236 756.275 378.748 752.891 379.756C749.579 380.836 746.159 381.376 742.631 381.376C737.735 381.376 733.163 380.512 728.915 378.784C724.739 376.984 721.103 374.572 718.007 371.548C714.911 368.524 712.499 365.212 710.771 361.612L723.515 352.432Z" fill="url(#paint0_linear_32_104)"/>
<path d="M155.716 49.04V40.4H189.52V49.04H155.716ZM155.716 79.28V70.64H188.44V79.28H155.716ZM150.64 40.4H159.82V116H150.64V40.4ZM210.04 78.2C210.04 83.888 211.264 88.964 213.712 93.428C216.232 97.892 219.652 101.42 223.972 104.012C228.292 106.604 233.188 107.9 238.66 107.9C244.204 107.9 249.1 106.604 253.348 104.012C257.668 101.42 261.052 97.892 263.5 93.428C266.02 88.964 267.28 83.888 267.28 78.2C267.28 72.512 266.02 67.436 263.5 62.972C261.052 58.508 257.668 54.98 253.348 52.388C249.1 49.796 244.204 48.5 238.66 48.5C233.188 48.5 228.292 49.796 223.972 52.388C219.652 54.98 216.232 58.508 213.712 62.972C211.264 67.436 210.04 72.512 210.04 78.2ZM200.32 78.2C200.32 72.656 201.256 67.544 203.128 62.864C205.072 58.112 207.772 54.008 211.228 50.552C214.684 47.024 218.752 44.288 223.432 42.344C228.112 40.328 233.188 39.32 238.66 39.32C244.204 39.32 249.28 40.328 253.888 42.344C258.568 44.288 262.636 47.024 266.092 50.552C269.548 54.008 272.212 58.112 274.084 62.864C276.028 67.544 277 72.656 277 78.2C277 83.672 276.028 88.784 274.084 93.536C272.212 98.288 269.548 102.428 266.092 105.956C262.636 109.412 258.568 112.148 253.888 114.164C249.28 116.108 244.204 117.08 238.66 117.08C233.188 117.08 228.112 116.108 223.432 114.164C218.752 112.148 214.684 109.412 211.228 105.956C207.772 102.428 205.072 98.288 203.128 93.536C201.256 88.784 200.32 83.672 200.32 78.2ZM303.464 78.74H313.724L340.724 116H329.384L303.464 78.74ZM289.964 40.4H299.144V116H289.964V40.4ZM295.04 48.5V40.4H310.484C315.38 40.4 319.736 41.336 323.552 43.208C327.44 45.008 330.5 47.6 332.732 50.984C335.036 54.368 336.188 58.4 336.188 63.08C336.188 67.688 335.036 71.72 332.732 75.176C330.5 78.56 327.44 81.188 323.552 83.06C319.736 84.86 315.38 85.76 310.484 85.76H295.04V77.66H310.484C313.724 77.66 316.568 77.084 319.016 75.932C321.536 74.78 323.48 73.124 324.848 70.964C326.288 68.804 327.008 66.176 327.008 63.08C327.008 59.984 326.288 57.356 324.848 55.196C323.48 53.036 321.536 51.38 319.016 50.228C316.568 49.076 313.724 48.5 310.484 48.5H295.04ZM385.498 86.3V77.66H420.598C420.598 82.916 419.806 87.92 418.222 92.672C416.638 97.352 414.298 101.528 411.202 105.2C408.106 108.872 404.29 111.788 399.754 113.948C395.29 116.036 390.178 117.08 384.418 117.08C378.946 117.08 373.87 116.144 369.19 114.272C364.51 112.328 360.442 109.628 356.986 106.172C353.53 102.644 350.83 98.504 348.886 93.752C347.014 89 346.078 83.816 346.078 78.2C346.078 72.584 347.014 67.4 348.886 62.648C350.83 57.896 353.53 53.792 356.986 50.336C360.442 46.808 364.51 44.108 369.19 42.236C373.87 40.292 378.946 39.32 384.418 39.32C389.098 39.32 393.382 39.932 397.27 41.156C401.23 42.38 404.758 44.18 407.854 46.556C411.022 48.932 413.686 51.884 415.846 55.412L409.366 61.352C406.99 57.32 403.678 54.188 399.43 51.956C395.182 49.652 390.178 48.5 384.418 48.5C379.09 48.5 374.266 49.76 369.946 52.28C365.626 54.8 362.17 58.292 359.578 62.756C357.058 67.148 355.798 72.296 355.798 78.2C355.798 84.032 357.058 89.18 359.578 93.644C362.17 98.108 365.626 101.6 369.946 104.12C374.266 106.64 379.09 107.9 384.418 107.9C388.162 107.9 391.51 107.36 394.462 106.28C397.486 105.128 400.078 103.544 402.238 101.528C404.398 99.512 406.162 97.208 407.53 94.616C408.97 92.024 410.014 89.252 410.662 86.3H385.498ZM439.216 116V107.36H477.34V116H439.216ZM439.216 49.04V40.4H477.34V49.04H439.216ZM439.216 79.28V70.64H475.18V79.28H439.216ZM434.14 40.4H443.32V116H434.14V40.4Z" fill="white"/>
<path d="M567.694 40.4H588.646L562.186 85.22V116H543.61V85.328L517.15 40.4H538.102L552.898 68.804L567.694 40.4ZM606.18 78.2C606.18 82.664 607.044 86.624 608.772 90.08C610.572 93.464 613.056 96.128 616.224 98.072C619.464 100.016 623.244 100.988 627.564 100.988C631.812 100.988 635.52 100.016 638.688 98.072C641.928 96.128 644.412 93.464 646.14 90.08C647.94 86.624 648.84 82.664 648.84 78.2C648.84 73.736 647.976 69.812 646.248 66.428C644.52 62.972 642.072 60.272 638.904 58.328C635.736 56.384 631.956 55.412 627.564 55.412C623.244 55.412 619.464 56.384 616.224 58.328C613.056 60.272 610.572 62.972 608.772 66.428C607.044 69.812 606.18 73.736 606.18 78.2ZM586.848 78.2C586.848 72.368 587.856 67.04 589.872 62.216C591.96 57.392 594.84 53.216 598.512 49.688C602.184 46.16 606.504 43.46 611.472 41.588C616.44 39.644 621.804 38.672 627.564 38.672C633.396 38.672 638.76 39.644 643.656 41.588C648.624 43.46 652.944 46.16 656.616 49.688C660.288 53.216 663.132 57.392 665.148 62.216C667.164 67.04 668.172 72.368 668.172 78.2C668.172 84.032 667.164 89.396 665.148 94.292C663.204 99.188 660.396 103.436 656.724 107.036C653.124 110.636 648.84 113.444 643.872 115.46C638.904 117.404 633.468 118.376 627.564 118.376C621.588 118.376 616.116 117.404 611.148 115.46C606.18 113.444 601.86 110.636 598.188 107.036C594.588 103.436 591.78 99.188 589.764 94.292C587.82 89.396 586.848 84.032 586.848 78.2ZM679.327 40.4H697.579V89.864C697.579 93.68 698.587 96.776 700.603 99.152C702.619 101.528 705.643 102.716 709.675 102.716C713.779 102.716 716.839 101.528 718.855 99.152C720.871 96.776 721.879 93.68 721.879 89.864V40.4H740.131V91.16C740.131 95.912 739.339 100.052 737.755 103.58C736.243 107.108 734.083 110.024 731.275 112.328C728.539 114.56 725.299 116.252 721.555 117.404C717.883 118.556 713.923 119.132 709.675 119.132C705.427 119.132 701.467 118.556 697.795 117.404C694.123 116.252 690.883 114.56 688.075 112.328C685.339 110.024 683.179 107.108 681.595 103.58C680.083 100.052 679.327 95.912 679.327 91.16V40.4ZM774.494 81.764H793.394L817.046 116H795.662L774.494 81.764ZM755.594 40.4H773.846V116H755.594V40.4ZM767.042 55.844V40.4H783.134C789.614 40.4 795.014 41.444 799.334 43.532C803.654 45.62 806.93 48.536 809.162 52.28C811.394 55.952 812.51 60.236 812.51 65.132C812.51 69.956 811.394 74.24 809.162 77.984C806.93 81.656 803.654 84.536 799.334 86.624C795.014 88.712 789.614 89.756 783.134 89.756H767.042V75.608H781.838C784.286 75.608 786.374 75.248 788.102 74.528C789.902 73.736 791.27 72.62 792.206 71.18C793.142 69.668 793.61 67.868 793.61 65.78C793.61 63.692 793.142 61.928 792.206 60.488C791.27 58.976 789.902 57.824 788.102 57.032C786.374 56.24 784.286 55.844 781.838 55.844H767.042Z" fill="url(#paint1_linear_32_104)"/>
<path d="M527.192 214.492L541.88 171.4H563.588L530.864 251.428L506.456 205.852L482.156 251.428L449.432 171.4H471.032L485.936 214.492L506.456 167.62L527.192 214.492ZM584.154 247V231.988H622.278V247H584.154ZM584.154 186.412V171.4H622.278V186.412H584.154ZM584.154 214.6V199.912H620.118V214.6H584.154ZM572.058 171.4H589.554V247H572.058V171.4ZM650.741 209.416V201.424H662.945C665.033 201.424 666.797 201.1 668.237 200.452C669.749 199.804 670.901 198.904 671.693 197.752C672.485 196.528 672.881 195.052 672.881 193.324C672.881 190.732 672.017 188.788 670.289 187.492C668.561 186.196 666.113 185.548 662.945 185.548H655.385V232.852H664.673C667.049 232.852 669.173 232.564 671.045 231.988C672.917 231.34 674.393 230.332 675.473 228.964C676.625 227.524 677.201 225.58 677.201 223.132C677.201 221.548 676.877 220.18 676.229 219.028C675.581 217.876 674.681 216.94 673.529 216.22C672.377 215.5 671.045 214.996 669.533 214.708C668.093 214.348 666.473 214.168 664.673 214.168H650.741V204.232H666.725C670.397 204.232 673.961 204.628 677.417 205.42C680.873 206.212 684.005 207.508 686.813 209.308C689.621 211.036 691.853 213.268 693.509 216.004C695.237 218.668 696.101 221.908 696.101 225.724C696.101 230.764 694.877 234.832 692.429 237.928C690.053 241.024 686.669 243.328 682.277 244.84C677.885 246.28 672.701 247 666.725 247H637.133V171.4H664.889C670.145 171.4 674.753 172.12 678.713 173.56C682.745 174.928 685.913 177.052 688.217 179.932C690.593 182.74 691.781 186.304 691.781 190.624C691.781 194.584 690.593 197.968 688.217 200.776C685.913 203.584 682.745 205.744 678.713 207.256C674.753 208.696 670.145 209.416 664.889 209.416H650.741ZM730.559 210.388V202.18C732.647 202.18 734.519 201.928 736.175 201.424C737.903 200.848 739.379 200.092 740.603 199.156C741.899 198.22 742.871 197.14 743.519 195.916C744.167 194.692 744.491 193.396 744.491 192.028C744.491 190.588 744.167 189.292 743.519 188.14C742.871 186.988 741.935 186.124 740.711 185.548C739.487 184.9 737.903 184.576 735.959 184.576C733.079 184.576 730.703 185.404 728.831 187.06C726.959 188.716 726.023 190.876 726.023 193.54H709.283C709.283 189.076 710.363 185.08 712.523 181.552C714.755 177.952 717.887 175.144 721.919 173.128C725.951 171.04 730.631 169.996 735.959 169.996C741.647 169.996 746.471 170.932 750.431 172.804C754.391 174.676 757.379 177.196 759.395 180.364C761.483 183.532 762.527 187.06 762.527 190.948C762.527 195.268 761.087 198.868 758.207 201.748C755.399 204.628 751.583 206.788 746.759 208.228C741.935 209.668 736.535 210.388 730.559 210.388ZM735.095 248.728C730.559 248.728 726.491 248.044 722.891 246.676C719.291 245.308 716.231 243.4 713.711 240.952C711.263 238.504 709.355 235.732 707.987 232.636C706.691 229.54 706.043 226.336 706.043 223.024H723.971C723.971 225.472 724.511 227.524 725.591 229.18C726.671 230.836 728.111 232.06 729.911 232.852C731.783 233.644 733.727 234.04 735.743 234.04C737.903 234.04 739.775 233.716 741.359 233.068C743.015 232.42 744.311 231.376 745.247 229.936C746.183 228.496 746.651 226.732 746.651 224.644C746.651 223.06 746.327 221.62 745.679 220.324C745.031 219.028 744.023 217.912 742.655 216.976C741.359 215.968 739.703 215.212 737.687 214.708C735.671 214.204 733.295 213.952 730.559 213.952V204.664C735.527 204.664 740.063 205.096 744.167 205.96C748.343 206.752 751.979 208.048 755.075 209.848C758.171 211.576 760.547 213.808 762.203 216.544C763.859 219.28 764.687 222.556 764.687 226.372C764.687 230.764 763.499 234.652 761.123 238.036C758.747 241.348 755.363 243.976 750.971 245.92C746.579 247.792 741.287 248.728 735.095 248.728Z" fill="url(#paint2_linear_32_104)"/>
<path d="M835.956 229.936L860.796 171.4H871.056L835.956 250.78L800.856 171.4H811.116L835.956 229.936ZM880.253 171.4H889.433V247H880.253V171.4ZM909.534 224.104C911.262 227.128 913.062 229.792 914.934 232.096C916.878 234.4 919.038 236.2 921.414 237.496C923.79 238.792 926.49 239.44 929.514 239.44C933.546 239.44 936.786 238.324 939.234 236.092C941.682 233.86 942.906 231.016 942.906 227.56C942.906 224.176 942.114 221.476 940.53 219.46C938.946 217.444 936.858 215.824 934.266 214.6C931.746 213.304 929.046 212.152 926.166 211.144C924.294 210.496 922.206 209.668 919.902 208.66C917.598 207.58 915.402 206.248 913.314 204.664C911.226 203.008 909.498 200.992 908.13 198.616C906.834 196.24 906.186 193.324 906.186 189.868C906.186 186.124 907.122 182.776 908.994 179.824C910.866 176.872 913.458 174.568 916.77 172.912C920.082 171.184 923.862 170.32 928.11 170.32C932.214 170.32 935.778 171.112 938.802 172.696C941.898 174.208 944.526 176.188 946.686 178.636C948.846 181.012 950.538 183.532 951.762 186.196L943.878 190.732C942.942 188.86 941.754 187.024 940.314 185.224C938.874 183.424 937.11 181.948 935.022 180.796C933.006 179.644 930.522 179.068 927.57 179.068C923.466 179.068 920.478 180.076 918.606 182.092C916.734 184.036 915.798 186.232 915.798 188.68C915.798 190.768 916.338 192.712 917.418 194.512C918.498 196.24 920.298 197.896 922.818 199.48C925.41 200.992 928.902 202.504 933.294 204.016C935.31 204.736 937.434 205.672 939.666 206.824C941.898 207.976 943.95 209.452 945.822 211.252C947.766 212.98 949.35 215.104 950.574 217.624C951.798 220.072 952.41 223.024 952.41 226.48C952.41 229.792 951.762 232.78 950.466 235.444C949.242 238.108 947.514 240.376 945.282 242.248C943.122 244.12 940.638 245.56 937.83 246.568C935.094 247.576 932.214 248.08 929.19 248.08C925.086 248.08 921.27 247.216 917.742 245.488C914.286 243.688 911.226 241.348 908.562 238.468C905.97 235.516 903.846 232.384 902.19 229.072L909.534 224.104ZM965.894 171.4H975.074V247H965.894V171.4ZM997.767 209.2C997.767 214.888 998.991 219.964 1001.44 224.428C1003.96 228.892 1007.38 232.42 1011.7 235.012C1016.02 237.604 1020.91 238.9 1026.39 238.9C1031.93 238.9 1036.83 237.604 1041.07 235.012C1045.39 232.42 1048.78 228.892 1051.23 224.428C1053.75 219.964 1055.01 214.888 1055.01 209.2C1055.01 203.512 1053.75 198.436 1051.23 193.972C1048.78 189.508 1045.39 185.98 1041.07 183.388C1036.83 180.796 1031.93 179.5 1026.39 179.5C1020.91 179.5 1016.02 180.796 1011.7 183.388C1007.38 185.98 1003.96 189.508 1001.44 193.972C998.991 198.436 997.767 203.512 997.767 209.2ZM988.047 209.2C988.047 203.656 988.983 198.544 990.855 193.864C992.799 189.112 995.499 185.008 998.955 181.552C1002.41 178.024 1006.48 175.288 1011.16 173.344C1015.84 171.328 1020.91 170.32 1026.39 170.32C1031.93 170.32 1037.01 171.328 1041.61 173.344C1046.29 175.288 1050.36 178.024 1053.82 181.552C1057.27 185.008 1059.94 189.112 1061.81 193.864C1063.75 198.544 1064.73 203.656 1064.73 209.2C1064.73 214.672 1063.75 219.784 1061.81 224.536C1059.94 229.288 1057.27 233.428 1053.82 236.956C1050.36 240.412 1046.29 243.148 1041.61 245.164C1037.01 247.108 1031.93 248.08 1026.39 248.08C1020.91 248.08 1015.84 247.108 1011.16 245.164C1006.48 243.148 1002.41 240.412 998.955 236.956C995.499 233.428 992.799 229.288 990.855 224.536C988.983 219.784 988.047 214.672 988.047 209.2ZM1134.93 171.4H1144.11V250.78L1086.87 190.732V247H1077.69V167.62L1134.93 227.668V171.4Z" fill="white"/>
<path d="M102.198 27.384L83.6868 74.8144L102.198 122.245L70.3782 82.4981L20.0465 74.8144L70.3782 67.1307L102.198 27.384Z" fill="#D9D9D9"/>
<defs>
<linearGradient id="paint0_linear_32_104" x1="567.317" y1="289.198" x2="567.317" y2="388.038" gradientUnits="userSpaceOnUse">
<stop stop-color="#02D5FF"/>
<stop offset="1" stop-color="#0382BA"/>
</linearGradient>
<linearGradient id="paint1_linear_32_104" x1="519.925" y1="26.1985" x2="519.925" y2="125.038" gradientUnits="userSpaceOnUse">
<stop stop-color="#02D5FF"/>
<stop offset="1" stop-color="#0382BA"/>
</linearGradient>
<linearGradient id="paint2_linear_32_104" x1="842.579" y1="157.198" x2="842.579" y2="256.038" gradientUnits="userSpaceOnUse">
<stop stop-color="#02D5FF"/>
<stop offset="1" stop-color="#0382BA"/>
</linearGradient>
</defs>
</svg>
