<svg width="284" height="219" viewBox="0 0 284 219" fill="none" xmlns="http://www.w3.org/2000/svg">
<rect x="0.5" y="0.5" width="283" height="218" rx="39.5" stroke="#02D5FF"/>
<path d="M16 47.5H18.125V65H16V47.5ZM29.3779 58C29.3779 57.05 29.1696 56.3333 28.7529 55.85C28.3363 55.3667 27.7279 55.125 26.9279 55.125C26.3446 55.125 25.8279 55.25 25.3779 55.5C24.9446 55.7333 24.6029 56.0667 24.3529 56.5C24.1196 56.9333 24.0029 57.4333 24.0029 58V65H22.0029V53.5H24.0029V55.3C24.3863 54.6 24.8613 54.0833 25.4279 53.75C26.0113 53.4167 26.6779 53.25 27.4279 53.25C28.6446 53.25 29.6029 53.6583 30.3029 54.475C31.0196 55.275 31.3779 56.3667 31.3779 57.75V65H29.3779V58ZM42.5127 58C42.5127 57.05 42.3044 56.3333 41.8877 55.85C41.471 55.3667 40.8627 55.125 40.0627 55.125C39.4794 55.125 38.9627 55.25 38.5127 55.5C38.0794 55.7333 37.7377 56.0667 37.4877 56.5C37.2544 56.9333 37.1377 57.4333 37.1377 58V65H35.1377V53.5H37.1377V55.3C37.521 54.6 37.996 54.0833 38.5627 53.75C39.146 53.4167 39.8127 53.25 40.5627 53.25C41.7794 53.25 42.7377 53.6583 43.4377 54.475C44.1544 55.275 44.5127 56.3667 44.5127 57.75V65H42.5127V58ZM47.2725 59.25C47.2725 58.0833 47.5308 57.05 48.0475 56.15C48.5808 55.25 49.2975 54.5417 50.1975 54.025C51.0975 53.5083 52.1058 53.25 53.2225 53.25C54.3558 53.25 55.3641 53.5083 56.2475 54.025C57.1475 54.5417 57.8558 55.25 58.3725 56.15C58.9058 57.05 59.1725 58.0833 59.1725 59.25C59.1725 60.4 58.9058 61.4333 58.3725 62.35C57.8558 63.25 57.1475 63.9583 56.2475 64.475C55.3641 64.9917 54.3558 65.25 53.2225 65.25C52.1058 65.25 51.0975 64.9917 50.1975 64.475C49.2975 63.9583 48.5808 63.25 48.0475 62.35C47.5308 61.4333 47.2725 60.4 47.2725 59.25ZM49.2975 59.25C49.2975 60.05 49.4641 60.7583 49.7975 61.375C50.1475 61.9917 50.6141 62.4833 51.1975 62.85C51.7975 63.2 52.4725 63.375 53.2225 63.375C53.9725 63.375 54.6391 63.2 55.2225 62.85C55.8225 62.4833 56.2891 61.9917 56.6225 61.375C56.9725 60.7583 57.1475 60.05 57.1475 59.25C57.1475 58.45 56.9725 57.7417 56.6225 57.125C56.2891 56.4917 55.8225 56 55.2225 55.65C54.6391 55.3 53.9725 55.125 53.2225 55.125C52.4725 55.125 51.7975 55.3 51.1975 55.65C50.6141 56 50.1475 56.4917 49.7975 57.125C49.4641 57.7417 49.2975 58.45 49.2975 59.25ZM59.6787 53.5H61.9287L65.1787 61.625L68.4287 53.5H70.6787L65.1787 65.875L59.6787 53.5ZM73.4645 61.45C73.4645 61.8833 73.5645 62.2583 73.7645 62.575C73.9811 62.8917 74.2728 63.1333 74.6395 63.3C75.0228 63.45 75.4561 63.525 75.9395 63.525C76.5561 63.525 77.1061 63.4 77.5895 63.15C78.0895 62.9 78.4811 62.55 78.7645 62.1C79.0645 61.6333 79.2145 61.1 79.2145 60.5L79.6145 62C79.6145 62.7333 79.3895 63.3417 78.9395 63.825C78.5061 64.3083 77.9645 64.6667 77.3145 64.9C76.6811 65.1333 76.0478 65.25 75.4145 65.25C74.7145 65.25 74.0561 65.1083 73.4395 64.825C72.8395 64.525 72.3561 64.1 71.9895 63.55C71.6228 63 71.4395 62.3333 71.4395 61.55C71.4395 60.4333 71.8311 59.5417 72.6145 58.875C73.4145 58.1917 74.5228 57.85 75.9395 57.85C76.7728 57.85 77.4645 57.95 78.0145 58.15C78.5811 58.3333 79.0311 58.55 79.3645 58.8C79.6978 59.0333 79.9228 59.225 80.0395 59.375V60.55C79.4561 60.15 78.8561 59.8667 78.2395 59.7C77.6228 59.5167 76.9645 59.425 76.2645 59.425C75.6145 59.425 75.0811 59.5083 74.6645 59.675C74.2645 59.8417 73.9645 60.075 73.7645 60.375C73.5645 60.675 73.4645 61.0333 73.4645 61.45ZM73.1645 56.15L72.1895 54.675C72.6228 54.3583 73.2145 54.0417 73.9645 53.725C74.7311 53.4083 75.6478 53.25 76.7145 53.25C77.6145 53.25 78.3978 53.3917 79.0645 53.675C79.7478 53.9417 80.2728 54.3333 80.6395 54.85C81.0228 55.3667 81.2145 56 81.2145 56.75V65H79.2145V57.025C79.2145 56.625 79.1478 56.3 79.0145 56.05C78.8811 55.7833 78.6895 55.575 78.4395 55.425C78.2061 55.275 77.9311 55.1667 77.6145 55.1C77.2978 55.0333 76.9645 55 76.6145 55C76.0478 55 75.5311 55.0667 75.0645 55.2C74.6145 55.3333 74.2311 55.4917 73.9145 55.675C73.5978 55.8583 73.3478 56.0167 73.1645 56.15ZM82.8506 53.5H88.6006V55.375H82.8506V53.5ZM84.7256 49.5H86.7256V65H84.7256V49.5ZM90.6064 48.75C90.6064 48.3667 90.7398 48.0417 91.0064 47.775C91.2898 47.5083 91.6148 47.375 91.9814 47.375C92.3648 47.375 92.6898 47.5083 92.9564 47.775C93.2231 48.0417 93.3564 48.3667 93.3564 48.75C93.3564 49.1167 93.2231 49.4417 92.9564 49.725C92.6898 49.9917 92.3648 50.125 91.9814 50.125C91.6148 50.125 91.2898 49.9917 91.0064 49.725C90.7398 49.4417 90.6064 49.1167 90.6064 48.75ZM90.9814 53.5H92.9814V65H90.9814V53.5ZM95.2256 53.5H97.4756L100.726 61.625L103.976 53.5H106.226L100.726 65.875L95.2256 53.5ZM112.195 65.25C111.128 65.25 110.178 65 109.345 64.5C108.528 63.9833 107.887 63.275 107.42 62.375C106.97 61.475 106.745 60.4333 106.745 59.25C106.745 58.05 106.978 57 107.445 56.1C107.928 55.2 108.595 54.5 109.445 54C110.312 53.5 111.312 53.25 112.445 53.25C113.578 53.25 114.545 53.4917 115.345 53.975C116.162 54.4417 116.787 55.1167 117.22 56C117.653 56.8833 117.87 57.9333 117.87 59.15C117.87 59.2667 117.862 59.3917 117.845 59.525C117.845 59.6417 117.845 59.7167 117.845 59.75H108.02V58.05H116.27L115.47 59.2C115.52 59.1167 115.57 58.9917 115.62 58.825C115.67 58.6417 115.695 58.4917 115.695 58.375C115.695 57.6917 115.553 57.1 115.27 56.6C115.003 56.1 114.628 55.7083 114.145 55.425C113.662 55.1417 113.095 55 112.445 55C111.678 55 111.02 55.1667 110.47 55.5C109.937 55.8167 109.52 56.2833 109.22 56.9C108.937 57.5 108.787 58.2417 108.77 59.125C108.77 60.025 108.912 60.7917 109.195 61.425C109.478 62.0583 109.895 62.5417 110.445 62.875C110.995 63.2083 111.662 63.375 112.445 63.375C113.228 63.375 113.92 63.2083 114.52 62.875C115.12 62.525 115.628 62 116.045 61.3L117.67 62.325C117.07 63.2917 116.312 64.025 115.395 64.525C114.495 65.0083 113.428 65.25 112.195 65.25ZM16.35 97.475C16.5833 97.825 16.85 98.15 17.15 98.45C17.45 98.75 17.7917 98.9917 18.175 99.175C18.575 99.3417 19.0083 99.425 19.475 99.425C20.0417 99.425 20.4833 99.3 20.8 99.05C21.1333 98.7833 21.3 98.425 21.3 97.975C21.3 97.575 21.1667 97.2417 20.9 96.975C20.65 96.6917 20.325 96.4583 19.925 96.275C19.525 96.075 19.1 95.8917 18.65 95.725C18.15 95.525 17.6417 95.2917 17.125 95.025C16.625 94.7417 16.2 94.3833 15.85 93.95C15.5167 93.5 15.35 92.9417 15.35 92.275C15.35 91.5917 15.525 91.025 15.875 90.575C16.2417 90.125 16.7083 89.7917 17.275 89.575C17.8583 89.3583 18.4583 89.25 19.075 89.25C19.6917 89.25 20.2667 89.35 20.8 89.55C21.35 89.75 21.8333 90.0167 22.25 90.35C22.6667 90.6833 22.9917 91.0667 23.225 91.5L21.625 92.525C21.3083 92.0917 20.9083 91.7333 20.425 91.45C19.9583 91.1667 19.425 91.025 18.825 91.025C18.4083 91.025 18.05 91.1167 17.75 91.3C17.45 91.4833 17.3 91.7667 17.3 92.15C17.3 92.45 17.4167 92.7167 17.65 92.95C17.8833 93.1833 18.1833 93.3917 18.55 93.575C18.9167 93.7583 19.3 93.9333 19.7 94.1C20.3667 94.3667 20.975 94.6583 21.525 94.975C22.075 95.275 22.5083 95.6417 22.825 96.075C23.1583 96.5083 23.325 97.0667 23.325 97.75C23.325 98.75 22.9583 99.5833 22.225 100.25C21.5083 100.917 20.5583 101.25 19.375 101.25C18.6083 101.25 17.9167 101.117 17.3 100.85C16.6833 100.567 16.1583 100.208 15.725 99.775C15.3083 99.3417 14.9917 98.9 14.775 98.45L16.35 97.475ZM24.208 89.5H29.958V91.375H24.208V89.5ZM26.083 85.5H28.083V101H26.083V85.5ZM33.9639 89.5V101H31.9639V89.5H33.9639ZM37.4389 91.7C37.1722 91.5 36.9305 91.3583 36.7139 91.275C36.4972 91.175 36.2222 91.125 35.8889 91.125C35.3889 91.125 34.9972 91.25 34.7139 91.5C34.4305 91.75 34.2305 92.0917 34.1139 92.525C34.0139 92.9583 33.9639 93.45 33.9639 94H33.0639C33.0639 93.0833 33.2222 92.275 33.5389 91.575C33.8722 90.8583 34.2972 90.2917 34.8139 89.875C35.3305 89.4583 35.8555 89.25 36.3889 89.25C36.8055 89.25 37.1889 89.3083 37.5389 89.425C37.9055 89.525 38.2389 89.7333 38.5389 90.05L37.4389 91.7ZM41.4332 97.45C41.4332 97.8833 41.5332 98.2583 41.7332 98.575C41.9499 98.8917 42.2415 99.1333 42.6082 99.3C42.9915 99.45 43.4249 99.525 43.9082 99.525C44.5249 99.525 45.0749 99.4 45.5582 99.15C46.0582 98.9 46.4499 98.55 46.7332 98.1C47.0332 97.6333 47.1832 97.1 47.1832 96.5L47.5832 98C47.5832 98.7333 47.3582 99.3417 46.9082 99.825C46.4749 100.308 45.9332 100.667 45.2832 100.9C44.6499 101.133 44.0165 101.25 43.3832 101.25C42.6832 101.25 42.0249 101.108 41.4082 100.825C40.8082 100.525 40.3249 100.1 39.9582 99.55C39.5915 99 39.4082 98.3333 39.4082 97.55C39.4082 96.4333 39.7999 95.5417 40.5832 94.875C41.3832 94.1917 42.4915 93.85 43.9082 93.85C44.7415 93.85 45.4332 93.95 45.9832 94.15C46.5499 94.3333 46.9999 94.55 47.3332 94.8C47.6665 95.0333 47.8915 95.225 48.0082 95.375V96.55C47.4249 96.15 46.8249 95.8667 46.2082 95.7C45.5915 95.5167 44.9332 95.425 44.2332 95.425C43.5832 95.425 43.0499 95.5083 42.6332 95.675C42.2332 95.8417 41.9332 96.075 41.7332 96.375C41.5332 96.675 41.4332 97.0333 41.4332 97.45ZM41.1332 92.15L40.1582 90.675C40.5915 90.3583 41.1832 90.0417 41.9332 89.725C42.6999 89.4083 43.6165 89.25 44.6832 89.25C45.5832 89.25 46.3665 89.3917 47.0332 89.675C47.7165 89.9417 48.2415 90.3333 48.6082 90.85C48.9915 91.3667 49.1832 92 49.1832 92.75V101H47.1832V93.025C47.1832 92.625 47.1165 92.3 46.9832 92.05C46.8499 91.7833 46.6582 91.575 46.4082 91.425C46.1749 91.275 45.8999 91.1667 45.5832 91.1C45.2665 91.0333 44.9332 91 44.5832 91C44.0165 91 43.4999 91.0667 43.0332 91.2C42.5832 91.3333 42.1999 91.4917 41.8832 91.675C41.5665 91.8583 41.3165 92.0167 41.1332 92.15ZM50.8193 89.5H56.5693V91.375H50.8193V89.5ZM52.6943 85.5H54.6943V101H52.6943V85.5ZM63.0252 101.25C61.9585 101.25 61.0085 101 60.1752 100.5C59.3585 99.9833 58.7169 99.275 58.2502 98.375C57.8002 97.475 57.5752 96.4333 57.5752 95.25C57.5752 94.05 57.8085 93 58.2752 92.1C58.7585 91.2 59.4252 90.5 60.2752 90C61.1419 89.5 62.1419 89.25 63.2752 89.25C64.4085 89.25 65.3752 89.4917 66.1752 89.975C66.9919 90.4417 67.6169 91.1167 68.0502 92C68.4835 92.8833 68.7002 93.9333 68.7002 95.15C68.7002 95.2667 68.6919 95.3917 68.6752 95.525C68.6752 95.6417 68.6752 95.7167 68.6752 95.75H58.8502V94.05H67.1002L66.3002 95.2C66.3502 95.1167 66.4002 94.9917 66.4502 94.825C66.5002 94.6417 66.5252 94.4917 66.5252 94.375C66.5252 93.6917 66.3835 93.1 66.1002 92.6C65.8335 92.1 65.4585 91.7083 64.9752 91.425C64.4919 91.1417 63.9252 91 63.2752 91C62.5085 91 61.8502 91.1667 61.3002 91.5C60.7669 91.8167 60.3502 92.2833 60.0502 92.9C59.7669 93.5 59.6169 94.2417 59.6002 95.125C59.6002 96.025 59.7419 96.7917 60.0252 97.425C60.3085 98.0583 60.7252 98.5417 61.2752 98.875C61.8252 99.2083 62.4919 99.375 63.2752 99.375C64.0585 99.375 64.7502 99.2083 65.3502 98.875C65.9502 98.525 66.4585 98 66.8752 97.3L68.5002 98.325C67.9002 99.2917 67.1419 100.025 66.2252 100.525C65.3252 101.008 64.2585 101.25 63.0252 101.25ZM70.6664 101.75H72.6914C72.6914 102.3 72.8414 102.808 73.1414 103.275C73.4414 103.758 73.8664 104.142 74.4164 104.425C74.9664 104.725 75.6164 104.875 76.3664 104.875C76.9497 104.875 77.5247 104.733 78.0914 104.45C78.6581 104.167 79.1247 103.717 79.4914 103.1C79.8747 102.5 80.0664 101.717 80.0664 100.75V89.5H82.0664V100.75C82.0664 102.067 81.7914 103.167 81.2414 104.05C80.6914 104.95 79.9831 105.625 79.1164 106.075C78.2497 106.525 77.3331 106.75 76.3664 106.75C75.2497 106.75 74.2581 106.542 73.3914 106.125C72.5414 105.708 71.8747 105.117 71.3914 104.35C70.9081 103.6 70.6664 102.733 70.6664 101.75ZM70.4414 95.25C70.4414 94 70.6997 92.9333 71.2164 92.05C71.7331 91.15 72.4247 90.4583 73.2914 89.975C74.1581 89.4917 75.1081 89.25 76.1414 89.25C77.1081 89.25 77.9497 89.4917 78.6664 89.975C79.3831 90.4583 79.9414 91.15 80.3414 92.05C80.7581 92.9333 80.9664 94 80.9664 95.25C80.9664 96.4833 80.7581 97.55 80.3414 98.45C79.9414 99.35 79.3831 100.042 78.6664 100.525C77.9497 101.008 77.1081 101.25 76.1414 101.25C75.1081 101.25 74.1581 101.008 73.2914 100.525C72.4247 100.042 71.7331 99.35 71.2164 98.45C70.6997 97.55 70.4414 96.4833 70.4414 95.25ZM72.4664 95.25C72.4664 96.1333 72.6414 96.8833 72.9914 97.5C73.3581 98.1167 73.8414 98.5833 74.4414 98.9C75.0414 99.2167 75.6914 99.375 76.3914 99.375C76.9747 99.375 77.5497 99.2167 78.1164 98.9C78.6831 98.5833 79.1497 98.1167 79.5164 97.5C79.8831 96.8833 80.0664 96.1333 80.0664 95.25C80.0664 94.5833 79.9581 94 79.7414 93.5C79.5247 92.9833 79.2331 92.55 78.8664 92.2C78.5164 91.85 78.1247 91.5833 77.6914 91.4C77.2581 91.2167 76.8247 91.125 76.3914 91.125C75.6914 91.125 75.0414 91.2833 74.4414 91.6C73.8414 91.9167 73.3581 92.3833 72.9914 93C72.6414 93.6167 72.4664 94.3667 72.4664 95.25ZM85.6992 84.75C85.6992 84.3667 85.8326 84.0417 86.0992 83.775C86.3826 83.5083 86.7076 83.375 87.0742 83.375C87.4576 83.375 87.7826 83.5083 88.0492 83.775C88.3159 84.0417 88.4492 84.3667 88.4492 84.75C88.4492 85.1167 88.3159 85.4417 88.0492 85.725C87.7826 85.9917 87.4576 86.125 87.0742 86.125C86.7076 86.125 86.3826 85.9917 86.0992 85.725C85.8326 85.4417 85.6992 85.1167 85.6992 84.75ZM86.0742 89.5H88.0742V101H86.0742V89.5ZM96.6434 101.25C95.5767 101.25 94.6267 101 93.7934 100.5C92.9767 99.9833 92.335 99.275 91.8684 98.375C91.4184 97.475 91.1934 96.4333 91.1934 95.25C91.1934 94.05 91.4267 93 91.8934 92.1C92.3767 91.2 93.0434 90.5 93.8934 90C94.76 89.5 95.76 89.25 96.8934 89.25C98.0267 89.25 98.9934 89.4917 99.7934 89.975C100.61 90.4417 101.235 91.1167 101.668 92C102.102 92.8833 102.318 93.9333 102.318 95.15C102.318 95.2667 102.31 95.3917 102.293 95.525C102.293 95.6417 102.293 95.7167 102.293 95.75H92.4684V94.05H100.718L99.9184 95.2C99.9684 95.1167 100.018 94.9917 100.068 94.825C100.118 94.6417 100.143 94.4917 100.143 94.375C100.143 93.6917 100.002 93.1 99.7184 92.6C99.4517 92.1 99.0767 91.7083 98.5934 91.425C98.11 91.1417 97.5434 91 96.8934 91C96.1267 91 95.4684 91.1667 94.9184 91.5C94.385 91.8167 93.9684 92.2833 93.6684 92.9C93.385 93.5 93.235 94.2417 93.2184 95.125C93.2184 96.025 93.36 96.7917 93.6434 97.425C93.9267 98.0583 94.3434 98.5417 94.8934 98.875C95.4434 99.2083 96.11 99.375 96.8934 99.375C97.6767 99.375 98.3684 99.2083 98.9684 98.875C99.5684 98.525 100.077 98 100.493 97.3L102.118 98.325C101.518 99.2917 100.76 100.025 99.8434 100.525C98.9434 101.008 97.8767 101.25 96.6434 101.25ZM105.535 97.475C105.768 97.825 106.035 98.15 106.335 98.45C106.635 98.75 106.976 98.9917 107.36 99.175C107.76 99.3417 108.193 99.425 108.66 99.425C109.226 99.425 109.668 99.3 109.985 99.05C110.318 98.7833 110.485 98.425 110.485 97.975C110.485 97.575 110.351 97.2417 110.085 96.975C109.835 96.6917 109.51 96.4583 109.11 96.275C108.71 96.075 108.285 95.8917 107.835 95.725C107.335 95.525 106.826 95.2917 106.31 95.025C105.81 94.7417 105.385 94.3833 105.035 93.95C104.701 93.5 104.535 92.9417 104.535 92.275C104.535 91.5917 104.71 91.025 105.06 90.575C105.426 90.125 105.893 89.7917 106.46 89.575C107.043 89.3583 107.643 89.25 108.26 89.25C108.876 89.25 109.451 89.35 109.985 89.55C110.535 89.75 111.018 90.0167 111.435 90.35C111.851 90.6833 112.176 91.0667 112.41 91.5L110.81 92.525C110.493 92.0917 110.093 91.7333 109.61 91.45C109.143 91.1667 108.61 91.025 108.01 91.025C107.593 91.025 107.235 91.1167 106.935 91.3C106.635 91.4833 106.485 91.7667 106.485 92.15C106.485 92.45 106.601 92.7167 106.835 92.95C107.068 93.1833 107.368 93.3917 107.735 93.575C108.101 93.7583 108.485 93.9333 108.885 94.1C109.551 94.3667 110.16 94.6583 110.71 94.975C111.26 95.275 111.693 95.6417 112.01 96.075C112.343 96.5083 112.51 97.0667 112.51 97.75C112.51 98.75 112.143 99.5833 111.41 100.25C110.693 100.917 109.743 101.25 108.56 101.25C107.793 101.25 107.101 101.117 106.485 100.85C105.868 100.567 105.343 100.208 104.91 99.775C104.493 99.3417 104.176 98.9 103.96 98.45L105.535 97.475Z" fill="white"/>
<path d="M15.95 125.75C15.95 126.56 16.13 127.275 16.49 127.895C16.86 128.515 17.34 129 17.93 129.35C18.52 129.7 19.16 129.875 19.85 129.875C20.35 129.875 20.805 129.81 21.215 129.68C21.635 129.55 22.015 129.37 22.355 129.14C22.695 128.9 22.985 128.625 23.225 128.315V129.995C22.785 130.385 22.305 130.675 21.785 130.865C21.265 131.055 20.62 131.15 19.85 131.15C19.12 131.15 18.435 131.02 17.795 130.76C17.165 130.49 16.61 130.115 16.13 129.635C15.65 129.145 15.275 128.57 15.005 127.91C14.735 127.25 14.6 126.53 14.6 125.75C14.6 124.97 14.735 124.25 15.005 123.59C15.275 122.93 15.65 122.36 16.13 121.88C16.61 121.39 17.165 121.015 17.795 120.755C18.435 120.485 19.12 120.35 19.85 120.35C20.62 120.35 21.265 120.445 21.785 120.635C22.305 120.825 22.785 121.115 23.225 121.505V123.185C22.985 122.875 22.695 122.605 22.355 122.375C22.015 122.135 21.635 121.95 21.215 121.82C20.805 121.69 20.35 121.625 19.85 121.625C19.16 121.625 18.52 121.8 17.93 122.15C17.34 122.5 16.86 122.985 16.49 123.605C16.13 124.215 15.95 124.93 15.95 125.75ZM26.5936 119.3V131H25.3936V119.3H26.5936ZM29.8186 126.8C29.8186 126.23 29.6936 125.8 29.4436 125.51C29.2036 125.22 28.8386 125.075 28.3486 125.075C27.9986 125.075 27.6886 125.15 27.4186 125.3C27.1586 125.45 26.9536 125.655 26.8036 125.915C26.6636 126.175 26.5936 126.47 26.5936 126.8H26.2036C26.2036 126.25 26.3086 125.765 26.5186 125.345C26.7286 124.915 27.0136 124.575 27.3736 124.325C27.7436 124.075 28.1686 123.95 28.6486 123.95C29.1286 123.95 29.5436 124.05 29.8936 124.25C30.2536 124.45 30.5286 124.75 30.7186 125.15C30.9186 125.55 31.0186 126.05 31.0186 126.65V131H29.8186V126.8ZM32.6744 127.55C32.6744 126.85 32.8294 126.23 33.1394 125.69C33.4594 125.15 33.8894 124.725 34.4294 124.415C34.9694 124.105 35.5744 123.95 36.2444 123.95C36.9244 123.95 37.5294 124.105 38.0594 124.415C38.5994 124.725 39.0244 125.15 39.3344 125.69C39.6544 126.23 39.8144 126.85 39.8144 127.55C39.8144 128.24 39.6544 128.86 39.3344 129.41C39.0244 129.95 38.5994 130.375 38.0594 130.685C37.5294 130.995 36.9244 131.15 36.2444 131.15C35.5744 131.15 34.9694 130.995 34.4294 130.685C33.8894 130.375 33.4594 129.95 33.1394 129.41C32.8294 128.86 32.6744 128.24 32.6744 127.55ZM33.8894 127.55C33.8894 128.03 33.9894 128.455 34.1894 128.825C34.3994 129.195 34.6794 129.49 35.0294 129.71C35.3894 129.92 35.7944 130.025 36.2444 130.025C36.6944 130.025 37.0944 129.92 37.4444 129.71C37.8044 129.49 38.0844 129.195 38.2844 128.825C38.4944 128.455 38.5994 128.03 38.5994 127.55C38.5994 127.07 38.4944 126.645 38.2844 126.275C38.0844 125.895 37.8044 125.6 37.4444 125.39C37.0944 125.18 36.6944 125.075 36.2444 125.075C35.7944 125.075 35.3894 125.18 35.0294 125.39C34.6794 125.6 34.3994 125.895 34.1894 126.275C33.9894 126.645 33.8894 127.07 33.8894 127.55ZM40.8629 127.55C40.8629 126.85 41.0179 126.23 41.3279 125.69C41.6479 125.15 42.0779 124.725 42.6179 124.415C43.1579 124.105 43.7629 123.95 44.4329 123.95C45.1129 123.95 45.7179 124.105 46.2479 124.415C46.7879 124.725 47.2129 125.15 47.5229 125.69C47.8429 126.23 48.0029 126.85 48.0029 127.55C48.0029 128.24 47.8429 128.86 47.5229 129.41C47.2129 129.95 46.7879 130.375 46.2479 130.685C45.7179 130.995 45.1129 131.15 44.4329 131.15C43.7629 131.15 43.1579 130.995 42.6179 130.685C42.0779 130.375 41.6479 129.95 41.3279 129.41C41.0179 128.86 40.8629 128.24 40.8629 127.55ZM42.0779 127.55C42.0779 128.03 42.1779 128.455 42.3779 128.825C42.5879 129.195 42.8679 129.49 43.2179 129.71C43.5779 129.92 43.9829 130.025 44.4329 130.025C44.8829 130.025 45.2829 129.92 45.6329 129.71C45.9929 129.49 46.2729 129.195 46.4729 128.825C46.6829 128.455 46.7879 128.03 46.7879 127.55C46.7879 127.07 46.6829 126.645 46.4729 126.275C46.2729 125.895 45.9929 125.6 45.6329 125.39C45.2829 125.18 44.8829 125.075 44.4329 125.075C43.9829 125.075 43.5779 125.18 43.2179 125.39C42.8679 125.6 42.5879 125.895 42.3779 126.275C42.1779 126.645 42.0779 127.07 42.0779 127.55ZM49.9364 128.885C50.0764 129.095 50.2364 129.29 50.4164 129.47C50.5964 129.65 50.8014 129.795 51.0314 129.905C51.2714 130.005 51.5314 130.055 51.8114 130.055C52.1514 130.055 52.4164 129.98 52.6064 129.83C52.8064 129.67 52.9064 129.455 52.9064 129.185C52.9064 128.945 52.8264 128.745 52.6664 128.585C52.5164 128.415 52.3214 128.275 52.0814 128.165C51.8414 128.045 51.5864 127.935 51.3164 127.835C51.0164 127.715 50.7114 127.575 50.4014 127.415C50.1014 127.245 49.8464 127.03 49.6364 126.77C49.4364 126.5 49.3364 126.165 49.3364 125.765C49.3364 125.355 49.4414 125.015 49.6514 124.745C49.8714 124.475 50.1514 124.275 50.4914 124.145C50.8414 124.015 51.2014 123.95 51.5714 123.95C51.9414 123.95 52.2864 124.01 52.6064 124.13C52.9364 124.25 53.2264 124.41 53.4764 124.61C53.7264 124.81 53.9214 125.04 54.0614 125.3L53.1014 125.915C52.9114 125.655 52.6714 125.44 52.3814 125.27C52.1014 125.1 51.7814 125.015 51.4214 125.015C51.1714 125.015 50.9564 125.07 50.7764 125.18C50.5964 125.29 50.5064 125.46 50.5064 125.69C50.5064 125.87 50.5764 126.03 50.7164 126.17C50.8564 126.31 51.0364 126.435 51.2564 126.545C51.4764 126.655 51.7064 126.76 51.9464 126.86C52.3464 127.02 52.7114 127.195 53.0414 127.385C53.3714 127.565 53.6314 127.785 53.8214 128.045C54.0214 128.305 54.1214 128.64 54.1214 129.05C54.1214 129.65 53.9014 130.15 53.4614 130.55C53.0314 130.95 52.4614 131.15 51.7514 131.15C51.2914 131.15 50.8764 131.07 50.5064 130.91C50.1364 130.74 49.8214 130.525 49.5614 130.265C49.3114 130.005 49.1214 129.74 48.9914 129.47L49.9364 128.885ZM55.7012 121.25C55.7012 121.02 55.7812 120.825 55.9412 120.665C56.1112 120.505 56.3062 120.425 56.5262 120.425C56.7562 120.425 56.9512 120.505 57.1112 120.665C57.2712 120.825 57.3512 121.02 57.3512 121.25C57.3512 121.47 57.2712 121.665 57.1112 121.835C56.9512 121.995 56.7562 122.075 56.5262 122.075C56.3062 122.075 56.1112 121.995 55.9412 121.835C55.7812 121.665 55.7012 121.47 55.7012 121.25ZM55.9262 124.1H57.1262V131H55.9262V124.1ZM64.0227 126.8C64.0227 126.23 63.8977 125.8 63.6477 125.51C63.3977 125.22 63.0327 125.075 62.5527 125.075C62.2027 125.075 61.8927 125.15 61.6227 125.3C61.3627 125.44 61.1577 125.64 61.0077 125.9C60.8677 126.16 60.7977 126.46 60.7977 126.8V131H59.5977V124.1H60.7977V125.18C61.0277 124.76 61.3127 124.45 61.6527 124.25C62.0027 124.05 62.4027 123.95 62.8527 123.95C63.5827 123.95 64.1577 124.195 64.5777 124.685C65.0077 125.165 65.2227 125.82 65.2227 126.65V131H64.0227V126.8ZM67.0135 131.45H68.2285C68.2285 131.78 68.3185 132.085 68.4985 132.365C68.6785 132.655 68.9335 132.885 69.2635 133.055C69.5935 133.235 69.9835 133.325 70.4335 133.325C70.7835 133.325 71.1285 133.24 71.4685 133.07C71.8085 132.9 72.0885 132.63 72.3085 132.26C72.5385 131.9 72.6535 131.43 72.6535 130.85V124.1H73.8535V130.85C73.8535 131.64 73.6885 132.3 73.3585 132.83C73.0285 133.37 72.6035 133.775 72.0835 134.045C71.5635 134.315 71.0135 134.45 70.4335 134.45C69.7635 134.45 69.1685 134.325 68.6485 134.075C68.1385 133.825 67.7385 133.47 67.4485 133.01C67.1585 132.56 67.0135 132.04 67.0135 131.45ZM66.8785 127.55C66.8785 126.8 67.0335 126.16 67.3435 125.63C67.6535 125.09 68.0685 124.675 68.5885 124.385C69.1085 124.095 69.6785 123.95 70.2985 123.95C70.8785 123.95 71.3835 124.095 71.8135 124.385C72.2435 124.675 72.5785 125.09 72.8185 125.63C73.0685 126.16 73.1935 126.8 73.1935 127.55C73.1935 128.29 73.0685 128.93 72.8185 129.47C72.5785 130.01 72.2435 130.425 71.8135 130.715C71.3835 131.005 70.8785 131.15 70.2985 131.15C69.6785 131.15 69.1085 131.005 68.5885 130.715C68.0685 130.425 67.6535 130.01 67.3435 129.47C67.0335 128.93 66.8785 128.29 66.8785 127.55ZM68.0935 127.55C68.0935 128.08 68.1985 128.53 68.4085 128.9C68.6285 129.27 68.9185 129.55 69.2785 129.74C69.6385 129.93 70.0285 130.025 70.4485 130.025C70.7985 130.025 71.1435 129.93 71.4835 129.74C71.8235 129.55 72.1035 129.27 72.3235 128.9C72.5435 128.53 72.6535 128.08 72.6535 127.55C72.6535 127.15 72.5885 126.8 72.4585 126.5C72.3285 126.19 72.1535 125.93 71.9335 125.72C71.7235 125.51 71.4885 125.35 71.2285 125.24C70.9685 125.13 70.7085 125.075 70.4485 125.075C70.0285 125.075 69.6385 125.17 69.2785 125.36C68.9185 125.55 68.6285 125.83 68.4085 126.2C68.1985 126.57 68.0935 127.02 68.0935 127.55ZM79.4803 124.1H82.9303V125.225H79.4803V124.1ZM80.6053 121.7H81.8053V131H80.6053V121.7ZM85.3338 119.3V131H84.1338V119.3H85.3338ZM88.5588 126.8C88.5588 126.23 88.4338 125.8 88.1838 125.51C87.9438 125.22 87.5788 125.075 87.0888 125.075C86.7388 125.075 86.4288 125.15 86.1588 125.3C85.8988 125.45 85.6938 125.655 85.5438 125.915C85.4038 126.175 85.3338 126.47 85.3338 126.8H84.9438C84.9438 126.25 85.0488 125.765 85.2588 125.345C85.4688 124.915 85.7538 124.575 86.1138 124.325C86.4838 124.075 86.9088 123.95 87.3888 123.95C87.8688 123.95 88.2838 124.05 88.6338 124.25C88.9938 124.45 89.2688 124.75 89.4588 125.15C89.6588 125.55 89.7588 126.05 89.7588 126.65V131H88.5588V126.8ZM94.6846 131.15C94.0446 131.15 93.4746 131 92.9746 130.7C92.4846 130.39 92.0996 129.965 91.8196 129.425C91.5496 128.885 91.4146 128.26 91.4146 127.55C91.4146 126.83 91.5546 126.2 91.8346 125.66C92.1246 125.12 92.5246 124.7 93.0346 124.4C93.5546 124.1 94.1546 123.95 94.8346 123.95C95.5146 123.95 96.0946 124.095 96.5746 124.385C97.0646 124.665 97.4396 125.07 97.6996 125.6C97.9596 126.13 98.0896 126.76 98.0896 127.49C98.0896 127.56 98.0846 127.635 98.0746 127.715C98.0746 127.785 98.0746 127.83 98.0746 127.85H92.1796V126.83H97.1296L96.6496 127.52C96.6796 127.47 96.7096 127.395 96.7396 127.295C96.7696 127.185 96.7846 127.095 96.7846 127.025C96.7846 126.615 96.6996 126.26 96.5296 125.96C96.3696 125.66 96.1446 125.425 95.8546 125.255C95.5646 125.085 95.2246 125 94.8346 125C94.3746 125 93.9796 125.1 93.6496 125.3C93.3296 125.49 93.0796 125.77 92.8996 126.14C92.7296 126.5 92.6396 126.945 92.6296 127.475C92.6296 128.015 92.7146 128.475 92.8846 128.855C93.0546 129.235 93.3046 129.525 93.6346 129.725C93.9646 129.925 94.3646 130.025 94.8346 130.025C95.3046 130.025 95.7196 129.925 96.0796 129.725C96.4396 129.515 96.7446 129.2 96.9946 128.78L97.9696 129.395C97.6096 129.975 97.1546 130.415 96.6046 130.715C96.0646 131.005 95.4246 131.15 94.6846 131.15ZM105.431 124.1V131H104.231V124.1H105.431ZM107.516 125.42C107.356 125.3 107.211 125.215 107.081 125.165C106.951 125.105 106.786 125.075 106.586 125.075C106.286 125.075 106.051 125.15 105.881 125.3C105.711 125.45 105.591 125.655 105.521 125.915C105.461 126.175 105.431 126.47 105.431 126.8H104.891C104.891 126.25 104.986 125.765 105.176 125.345C105.376 124.915 105.631 124.575 105.941 124.325C106.251 124.075 106.566 123.95 106.886 123.95C107.136 123.95 107.366 123.985 107.576 124.055C107.796 124.115 107.996 124.24 108.176 124.43L107.516 125.42ZM109.373 121.25C109.373 121.02 109.453 120.825 109.613 120.665C109.783 120.505 109.978 120.425 110.198 120.425C110.428 120.425 110.623 120.505 110.783 120.665C110.943 120.825 111.023 121.02 111.023 121.25C111.023 121.47 110.943 121.665 110.783 121.835C110.623 121.995 110.428 122.075 110.198 122.075C109.978 122.075 109.783 121.995 109.613 121.835C109.453 121.665 109.373 121.47 109.373 121.25ZM109.598 124.1H110.798V131H109.598V124.1ZM112.805 131.45H114.02C114.02 131.78 114.11 132.085 114.29 132.365C114.47 132.655 114.725 132.885 115.055 133.055C115.385 133.235 115.775 133.325 116.225 133.325C116.575 133.325 116.92 133.24 117.26 133.07C117.6 132.9 117.88 132.63 118.1 132.26C118.33 131.9 118.445 131.43 118.445 130.85V124.1H119.645V130.85C119.645 131.64 119.48 132.3 119.15 132.83C118.82 133.37 118.395 133.775 117.875 134.045C117.355 134.315 116.805 134.45 116.225 134.45C115.555 134.45 114.96 134.325 114.44 134.075C113.93 133.825 113.53 133.47 113.24 133.01C112.95 132.56 112.805 132.04 112.805 131.45ZM112.67 127.55C112.67 126.8 112.825 126.16 113.135 125.63C113.445 125.09 113.86 124.675 114.38 124.385C114.9 124.095 115.47 123.95 116.09 123.95C116.67 123.95 117.175 124.095 117.605 124.385C118.035 124.675 118.37 125.09 118.61 125.63C118.86 126.16 118.985 126.8 118.985 127.55C118.985 128.29 118.86 128.93 118.61 129.47C118.37 130.01 118.035 130.425 117.605 130.715C117.175 131.005 116.67 131.15 116.09 131.15C115.47 131.15 114.9 131.005 114.38 130.715C113.86 130.425 113.445 130.01 113.135 129.47C112.825 128.93 112.67 128.29 112.67 127.55ZM113.885 127.55C113.885 128.08 113.99 128.53 114.2 128.9C114.42 129.27 114.71 129.55 115.07 129.74C115.43 129.93 115.82 130.025 116.24 130.025C116.59 130.025 116.935 129.93 117.275 129.74C117.615 129.55 117.895 129.27 118.115 128.9C118.335 128.53 118.445 128.08 118.445 127.55C118.445 127.15 118.38 126.8 118.25 126.5C118.12 126.19 117.945 125.93 117.725 125.72C117.515 125.51 117.28 125.35 117.02 125.24C116.76 125.13 116.5 125.075 116.24 125.075C115.82 125.075 115.43 125.17 115.07 125.36C114.71 125.55 114.42 125.83 114.2 126.2C113.99 126.57 113.885 127.02 113.885 127.55ZM123.024 119.3V131H121.824V119.3H123.024ZM126.249 126.8C126.249 126.23 126.124 125.8 125.874 125.51C125.634 125.22 125.269 125.075 124.779 125.075C124.429 125.075 124.119 125.15 123.849 125.3C123.589 125.45 123.384 125.655 123.234 125.915C123.094 126.175 123.024 126.47 123.024 126.8H122.634C122.634 126.25 122.739 125.765 122.949 125.345C123.159 124.915 123.444 124.575 123.804 124.325C124.174 124.075 124.599 123.95 125.079 123.95C125.559 123.95 125.974 124.05 126.324 124.25C126.684 124.45 126.959 124.75 127.149 125.15C127.349 125.55 127.449 126.05 127.449 126.65V131H126.249V126.8ZM128.655 124.1H132.105V125.225H128.655V124.1ZM129.78 121.7H130.98V131H129.78V121.7ZM138.931 134.3H137.731V124.1H138.931V134.3ZM144.706 127.55C144.706 128.29 144.551 128.93 144.241 129.47C143.931 130.01 143.516 130.425 142.996 130.715C142.486 131.005 141.916 131.15 141.286 131.15C140.716 131.15 140.211 131.005 139.771 130.715C139.341 130.425 139.001 130.01 138.751 129.47C138.511 128.93 138.391 128.29 138.391 127.55C138.391 126.8 138.511 126.16 138.751 125.63C139.001 125.09 139.341 124.675 139.771 124.385C140.211 124.095 140.716 123.95 141.286 123.95C141.916 123.95 142.486 124.095 142.996 124.385C143.516 124.675 143.931 125.09 144.241 125.63C144.551 126.16 144.706 126.8 144.706 127.55ZM143.491 127.55C143.491 127.02 143.381 126.57 143.161 126.2C142.951 125.83 142.666 125.55 142.306 125.36C141.956 125.17 141.566 125.075 141.136 125.075C140.786 125.075 140.441 125.17 140.101 125.36C139.761 125.55 139.481 125.83 139.261 126.2C139.041 126.57 138.931 127.02 138.931 127.55C138.931 128.08 139.041 128.53 139.261 128.9C139.481 129.27 139.761 129.55 140.101 129.74C140.441 129.93 140.786 130.025 141.136 130.025C141.566 130.025 141.956 129.93 142.306 129.74C142.666 129.55 142.951 129.27 143.161 128.9C143.381 128.53 143.491 128.08 143.491 127.55ZM146.9 128.87C146.9 129.13 146.96 129.355 147.08 129.545C147.21 129.735 147.385 129.88 147.605 129.98C147.835 130.07 148.095 130.115 148.385 130.115C148.755 130.115 149.085 130.04 149.375 129.89C149.675 129.74 149.91 129.53 150.08 129.26C150.26 128.98 150.35 128.66 150.35 128.3L150.59 129.2C150.59 129.64 150.455 130.005 150.185 130.295C149.925 130.585 149.6 130.8 149.21 130.94C148.83 131.08 148.45 131.15 148.07 131.15C147.65 131.15 147.255 131.065 146.885 130.895C146.525 130.715 146.235 130.46 146.015 130.13C145.795 129.8 145.685 129.4 145.685 128.93C145.685 128.26 145.92 127.725 146.39 127.325C146.87 126.915 147.535 126.71 148.385 126.71C148.885 126.71 149.3 126.77 149.63 126.89C149.97 127 150.24 127.13 150.44 127.28C150.64 127.42 150.775 127.535 150.845 127.625V128.33C150.495 128.09 150.135 127.92 149.765 127.82C149.395 127.71 149 127.655 148.58 127.655C148.19 127.655 147.87 127.705 147.62 127.805C147.38 127.905 147.2 128.045 147.08 128.225C146.96 128.405 146.9 128.62 146.9 128.87ZM146.72 125.69L146.135 124.805C146.395 124.615 146.75 124.425 147.2 124.235C147.66 124.045 148.21 123.95 148.85 123.95C149.39 123.95 149.86 124.035 150.26 124.205C150.67 124.365 150.985 124.6 151.205 124.91C151.435 125.22 151.55 125.6 151.55 126.05V131H150.35V126.215C150.35 125.975 150.31 125.78 150.23 125.63C150.15 125.47 150.035 125.345 149.885 125.255C149.745 125.165 149.58 125.1 149.39 125.06C149.2 125.02 149 125 148.79 125C148.45 125 148.14 125.04 147.86 125.12C147.59 125.2 147.36 125.295 147.17 125.405C146.98 125.515 146.83 125.61 146.72 125.69ZM154.782 124.1V131H153.582V124.1H154.782ZM156.867 125.42C156.707 125.3 156.562 125.215 156.432 125.165C156.302 125.105 156.137 125.075 155.937 125.075C155.637 125.075 155.402 125.15 155.232 125.3C155.062 125.45 154.942 125.655 154.872 125.915C154.812 126.175 154.782 126.47 154.782 126.8H154.242C154.242 126.25 154.337 125.765 154.527 125.345C154.727 124.915 154.982 124.575 155.292 124.325C155.602 124.075 155.917 123.95 156.237 123.95C156.487 123.95 156.717 123.985 156.927 124.055C157.147 124.115 157.347 124.24 157.527 124.43L156.867 125.42ZM157.674 124.1H161.124V125.225H157.674V124.1ZM158.799 121.7H159.999V131H158.799V121.7ZM166.752 126.8C166.752 126.23 166.627 125.8 166.377 125.51C166.127 125.22 165.762 125.075 165.282 125.075C164.932 125.075 164.622 125.15 164.352 125.3C164.092 125.44 163.887 125.64 163.737 125.9C163.597 126.16 163.527 126.46 163.527 126.8V131H162.327V124.1H163.527V125.18C163.757 124.76 164.042 124.45 164.382 124.25C164.732 124.05 165.132 123.95 165.582 123.95C166.312 123.95 166.887 124.195 167.307 124.685C167.737 125.165 167.952 125.82 167.952 126.65V131H166.752V126.8ZM172.878 131.15C172.238 131.15 171.668 131 171.168 130.7C170.678 130.39 170.293 129.965 170.013 129.425C169.743 128.885 169.608 128.26 169.608 127.55C169.608 126.83 169.748 126.2 170.028 125.66C170.318 125.12 170.718 124.7 171.228 124.4C171.748 124.1 172.348 123.95 173.028 123.95C173.708 123.95 174.288 124.095 174.768 124.385C175.258 124.665 175.633 125.07 175.893 125.6C176.153 126.13 176.283 126.76 176.283 127.49C176.283 127.56 176.278 127.635 176.268 127.715C176.268 127.785 176.268 127.83 176.268 127.85H170.373V126.83H175.323L174.843 127.52C174.873 127.47 174.903 127.395 174.933 127.295C174.963 127.185 174.978 127.095 174.978 127.025C174.978 126.615 174.893 126.26 174.723 125.96C174.563 125.66 174.338 125.425 174.048 125.255C173.758 125.085 173.418 125 173.028 125C172.568 125 172.173 125.1 171.843 125.3C171.523 125.49 171.273 125.77 171.093 126.14C170.923 126.5 170.833 126.945 170.823 127.475C170.823 128.015 170.908 128.475 171.078 128.855C171.248 129.235 171.498 129.525 171.828 129.725C172.158 129.925 172.558 130.025 173.028 130.025C173.498 130.025 173.913 129.925 174.273 129.725C174.633 129.515 174.938 129.2 175.188 128.78L176.163 129.395C175.803 129.975 175.348 130.415 174.798 130.715C174.258 131.005 173.618 131.15 172.878 131.15ZM179.128 124.1V131H177.928V124.1H179.128ZM181.213 125.42C181.053 125.3 180.908 125.215 180.778 125.165C180.648 125.105 180.483 125.075 180.283 125.075C179.983 125.075 179.748 125.15 179.578 125.3C179.408 125.45 179.288 125.655 179.218 125.915C179.158 126.175 179.128 126.47 179.128 126.8H178.588C178.588 126.25 178.683 125.765 178.873 125.345C179.073 124.915 179.328 124.575 179.638 124.325C179.948 124.075 180.263 123.95 180.583 123.95C180.833 123.95 181.063 123.985 181.273 124.055C181.493 124.115 181.693 124.24 181.873 124.43L181.213 125.42ZM187.041 124.1H190.491V125.225H187.041V124.1ZM190.371 120.74C190.271 120.57 190.151 120.465 190.011 120.425C189.881 120.375 189.756 120.35 189.636 120.35C189.486 120.35 189.356 120.395 189.246 120.485C189.146 120.565 189.066 120.705 189.006 120.905C188.946 121.105 188.916 121.37 188.916 121.7V131H187.716V121.55C187.716 121 187.796 120.55 187.956 120.2C188.116 119.85 188.341 119.59 188.631 119.42C188.931 119.24 189.291 119.15 189.711 119.15C189.931 119.15 190.126 119.18 190.296 119.24C190.466 119.3 190.611 119.375 190.731 119.465C190.861 119.555 190.961 119.65 191.031 119.75L190.371 120.74ZM191.258 127.55C191.258 126.85 191.413 126.23 191.723 125.69C192.043 125.15 192.473 124.725 193.013 124.415C193.553 124.105 194.158 123.95 194.828 123.95C195.508 123.95 196.113 124.105 196.643 124.415C197.183 124.725 197.608 125.15 197.918 125.69C198.238 126.23 198.398 126.85 198.398 127.55C198.398 128.24 198.238 128.86 197.918 129.41C197.608 129.95 197.183 130.375 196.643 130.685C196.113 130.995 195.508 131.15 194.828 131.15C194.158 131.15 193.553 130.995 193.013 130.685C192.473 130.375 192.043 129.95 191.723 129.41C191.413 128.86 191.258 128.24 191.258 127.55ZM192.473 127.55C192.473 128.03 192.573 128.455 192.773 128.825C192.983 129.195 193.263 129.49 193.613 129.71C193.973 129.92 194.378 130.025 194.828 130.025C195.278 130.025 195.678 129.92 196.028 129.71C196.388 129.49 196.668 129.195 196.868 128.825C197.078 128.455 197.183 128.03 197.183 127.55C197.183 127.07 197.078 126.645 196.868 126.275C196.668 125.895 196.388 125.6 196.028 125.39C195.678 125.18 195.278 125.075 194.828 125.075C194.378 125.075 193.973 125.18 193.613 125.39C193.263 125.6 192.983 125.895 192.773 126.275C192.573 126.645 192.473 127.07 192.473 127.55ZM201.247 124.1V131H200.047V124.1H201.247ZM203.332 125.42C203.172 125.3 203.027 125.215 202.897 125.165C202.767 125.105 202.602 125.075 202.402 125.075C202.102 125.075 201.867 125.15 201.697 125.3C201.527 125.45 201.407 125.655 201.337 125.915C201.277 126.175 201.247 126.47 201.247 126.8H200.707C200.707 126.25 200.802 125.765 200.992 125.345C201.192 124.915 201.447 124.575 201.757 124.325C202.067 124.075 202.382 123.95 202.702 123.95C202.952 123.95 203.182 123.985 203.392 124.055C203.612 124.115 203.812 124.24 203.992 124.43L203.332 125.42ZM215.161 124.1L210.661 134.3H209.311L211.201 130.025L208.561 124.1H209.986L212.176 129.5L211.681 129.44L213.811 124.1H215.161ZM215.472 127.55C215.472 126.85 215.627 126.23 215.937 125.69C216.257 125.15 216.687 124.725 217.227 124.415C217.767 124.105 218.372 123.95 219.042 123.95C219.722 123.95 220.327 124.105 220.857 124.415C221.397 124.725 221.822 125.15 222.132 125.69C222.452 126.23 222.612 126.85 222.612 127.55C222.612 128.24 222.452 128.86 222.132 129.41C221.822 129.95 221.397 130.375 220.857 130.685C220.327 130.995 219.722 131.15 219.042 131.15C218.372 131.15 217.767 130.995 217.227 130.685C216.687 130.375 216.257 129.95 215.937 129.41C215.627 128.86 215.472 128.24 215.472 127.55ZM216.687 127.55C216.687 128.03 216.787 128.455 216.987 128.825C217.197 129.195 217.477 129.49 217.827 129.71C218.187 129.92 218.592 130.025 219.042 130.025C219.492 130.025 219.892 129.92 220.242 129.71C220.602 129.49 220.882 129.195 221.082 128.825C221.292 128.455 221.397 128.03 221.397 127.55C221.397 127.07 221.292 126.645 221.082 126.275C220.882 125.895 220.602 125.6 220.242 125.39C219.892 125.18 219.492 125.075 219.042 125.075C218.592 125.075 218.187 125.18 217.827 125.39C217.477 125.6 217.197 125.895 216.987 126.275C216.787 126.645 216.687 127.07 216.687 127.55ZM225.461 128.3C225.461 128.85 225.586 129.275 225.836 129.575C226.086 129.875 226.451 130.025 226.931 130.025C227.281 130.025 227.586 129.955 227.846 129.815C228.116 129.665 228.321 129.46 228.461 129.2C228.611 128.94 228.686 128.64 228.686 128.3V124.1H229.886V131H228.686V129.92C228.456 130.33 228.171 130.64 227.831 130.85C227.491 131.05 227.091 131.15 226.631 131.15C225.911 131.15 225.336 130.905 224.906 130.415C224.476 129.925 224.261 129.27 224.261 128.45V124.1H225.461V128.3ZM233.342 124.1V131H232.142V124.1H233.342ZM235.427 125.42C235.267 125.3 235.122 125.215 234.992 125.165C234.862 125.105 234.697 125.075 234.497 125.075C234.197 125.075 233.962 125.15 233.792 125.3C233.622 125.45 233.502 125.655 233.432 125.915C233.372 126.175 233.342 126.47 233.342 126.8H232.802C232.802 126.25 232.897 125.765 233.087 125.345C233.287 124.915 233.542 124.575 233.852 124.325C234.162 124.075 234.477 123.95 234.797 123.95C235.047 123.95 235.277 123.985 235.487 124.055C235.707 124.115 235.907 124.24 236.087 124.43L235.427 125.42ZM24.545 150.225L27.275 142.5H28.7L24.575 153.525L21.425 145.365L18.275 153.525L14.15 142.5H15.575L18.365 150.225L21.425 141.975L24.545 150.225ZM31.4473 153.15C30.8073 153.15 30.2373 153 29.7373 152.7C29.2473 152.39 28.8623 151.965 28.5823 151.425C28.3123 150.885 28.1773 150.26 28.1773 149.55C28.1773 148.83 28.3173 148.2 28.5973 147.66C28.8873 147.12 29.2873 146.7 29.7973 146.4C30.3173 146.1 30.9173 145.95 31.5973 145.95C32.2773 145.95 32.8573 146.095 33.3373 146.385C33.8273 146.665 34.2023 147.07 34.4623 147.6C34.7223 148.13 34.8523 148.76 34.8523 149.49C34.8523 149.56 34.8473 149.635 34.8373 149.715C34.8373 149.785 34.8373 149.83 34.8373 149.85H28.9423V148.83H33.8923L33.4123 149.52C33.4423 149.47 33.4723 149.395 33.5023 149.295C33.5323 149.185 33.5473 149.095 33.5473 149.025C33.5473 148.615 33.4623 148.26 33.2923 147.96C33.1323 147.66 32.9073 147.425 32.6173 147.255C32.3273 147.085 31.9873 147 31.5973 147C31.1373 147 30.7423 147.1 30.4123 147.3C30.0923 147.49 29.8423 147.77 29.6623 148.14C29.4923 148.5 29.4023 148.945 29.3923 149.475C29.3923 150.015 29.4773 150.475 29.6473 150.855C29.8173 151.235 30.0673 151.525 30.3973 151.725C30.7273 151.925 31.1273 152.025 31.5973 152.025C32.0673 152.025 32.4823 151.925 32.8423 151.725C33.2023 151.515 33.5073 151.2 33.7573 150.78L34.7323 151.395C34.3723 151.975 33.9173 152.415 33.3673 152.715C32.8273 153.005 32.1873 153.15 31.4473 153.15ZM37.6221 141.3V153H36.4221V141.3H37.6221ZM43.3971 149.55C43.3971 150.29 43.2421 150.93 42.9321 151.47C42.6221 152.01 42.2071 152.425 41.6871 152.715C41.1771 153.005 40.6071 153.15 39.9771 153.15C39.4071 153.15 38.9021 153.005 38.4621 152.715C38.0321 152.425 37.6921 152.01 37.4421 151.47C37.2021 150.93 37.0821 150.29 37.0821 149.55C37.0821 148.8 37.2021 148.16 37.4421 147.63C37.6921 147.09 38.0321 146.675 38.4621 146.385C38.9021 146.095 39.4071 145.95 39.9771 145.95C40.6071 145.95 41.1771 146.095 41.6871 146.385C42.2071 146.675 42.6221 147.09 42.9321 147.63C43.2421 148.16 43.3971 148.8 43.3971 149.55ZM42.1821 149.55C42.1821 149.02 42.0721 148.57 41.8521 148.2C41.6421 147.83 41.3571 147.55 40.9971 147.36C40.6471 147.17 40.2571 147.075 39.8271 147.075C39.4771 147.075 39.1321 147.17 38.7921 147.36C38.4521 147.55 38.1721 147.83 37.9521 148.2C37.7321 148.57 37.6221 149.02 37.6221 149.55C37.6221 150.08 37.7321 150.53 37.9521 150.9C38.1721 151.27 38.4521 151.55 38.7921 151.74C39.1321 151.93 39.4771 152.025 39.8271 152.025C40.2571 152.025 40.6471 151.93 40.9971 151.74C41.3571 151.55 41.6421 151.27 41.8521 150.9C42.0721 150.53 42.1821 150.08 42.1821 149.55ZM47.7218 147.825V147C48.0618 147 48.3618 146.955 48.6218 146.865C48.8818 146.765 49.1018 146.635 49.2818 146.475C49.4618 146.305 49.5968 146.11 49.6868 145.89C49.7868 145.67 49.8368 145.435 49.8368 145.185C49.8368 144.855 49.7768 144.565 49.6568 144.315C49.5368 144.055 49.3568 143.855 49.1168 143.715C48.8868 143.575 48.5968 143.505 48.2468 143.505C47.7568 143.505 47.3418 143.66 47.0018 143.97C46.6618 144.27 46.4918 144.65 46.4918 145.11H45.2768C45.2768 144.56 45.4018 144.08 45.6518 143.67C45.9118 143.26 46.2618 142.94 46.7018 142.71C47.1518 142.47 47.6618 142.35 48.2318 142.35C48.8318 142.35 49.3468 142.48 49.7768 142.74C50.2168 143 50.5518 143.34 50.7818 143.76C51.0218 144.18 51.1418 144.64 51.1418 145.14C51.1418 145.63 50.9968 146.08 50.7068 146.49C50.4168 146.9 50.0168 147.225 49.5068 147.465C48.9968 147.705 48.4018 147.825 47.7218 147.825ZM48.1718 153.15C47.6618 153.15 47.2018 153.075 46.7918 152.925C46.3818 152.775 46.0318 152.57 45.7418 152.31C45.4518 152.04 45.2268 151.73 45.0668 151.38C44.9068 151.02 44.8268 150.635 44.8268 150.225H46.1168C46.1168 150.555 46.2018 150.85 46.3718 151.11C46.5518 151.37 46.7968 151.575 47.1068 151.725C47.4168 151.875 47.7718 151.95 48.1718 151.95C48.5718 151.95 48.9168 151.875 49.2068 151.725C49.5068 151.565 49.7368 151.345 49.8968 151.065C50.0568 150.785 50.1368 150.455 50.1368 150.075C50.1368 149.755 50.0718 149.475 49.9418 149.235C49.8218 148.985 49.6518 148.78 49.4318 148.62C49.2118 148.45 48.9568 148.325 48.6668 148.245C48.3768 148.165 48.0618 148.125 47.7218 148.125V147.3C48.2318 147.3 48.7068 147.355 49.1468 147.465C49.5968 147.575 49.9918 147.75 50.3318 147.99C50.6818 148.22 50.9518 148.52 51.1418 148.89C51.3418 149.26 51.4418 149.705 51.4418 150.225C51.4418 150.815 51.2968 151.33 51.0068 151.77C50.7268 152.21 50.3418 152.55 49.8518 152.79C49.3618 153.03 48.8018 153.15 48.1718 153.15ZM58.8623 156.3H57.6623V146.1H58.8623V156.3ZM64.6373 149.55C64.6373 150.29 64.4823 150.93 64.1723 151.47C63.8623 152.01 63.4473 152.425 62.9273 152.715C62.4173 153.005 61.8473 153.15 61.2173 153.15C60.6473 153.15 60.1423 153.005 59.7023 152.715C59.2723 152.425 58.9323 152.01 58.6823 151.47C58.4423 150.93 58.3223 150.29 58.3223 149.55C58.3223 148.8 58.4423 148.16 58.6823 147.63C58.9323 147.09 59.2723 146.675 59.7023 146.385C60.1423 146.095 60.6473 145.95 61.2173 145.95C61.8473 145.95 62.4173 146.095 62.9273 146.385C63.4473 146.675 63.8623 147.09 64.1723 147.63C64.4823 148.16 64.6373 148.8 64.6373 149.55ZM63.4223 149.55C63.4223 149.02 63.3123 148.57 63.0923 148.2C62.8823 147.83 62.5973 147.55 62.2373 147.36C61.8873 147.17 61.4973 147.075 61.0673 147.075C60.7173 147.075 60.3723 147.17 60.0323 147.36C59.6923 147.55 59.4123 147.83 59.1923 148.2C58.9723 148.57 58.8623 149.02 58.8623 149.55C58.8623 150.08 58.9723 150.53 59.1923 150.9C59.4123 151.27 59.6923 151.55 60.0323 151.74C60.3723 151.93 60.7173 152.025 61.0673 152.025C61.4973 152.025 61.8873 151.93 62.2373 151.74C62.5973 151.55 62.8823 151.27 63.0923 150.9C63.3123 150.53 63.4223 150.08 63.4223 149.55ZM67.492 146.1V153H66.292V146.1H67.492ZM69.577 147.42C69.417 147.3 69.272 147.215 69.142 147.165C69.012 147.105 68.847 147.075 68.647 147.075C68.347 147.075 68.112 147.15 67.942 147.3C67.772 147.45 67.652 147.655 67.582 147.915C67.522 148.175 67.492 148.47 67.492 148.8H66.952C66.952 148.25 67.047 147.765 67.237 147.345C67.437 146.915 67.692 146.575 68.002 146.325C68.312 146.075 68.627 145.95 68.947 145.95C69.197 145.95 69.427 145.985 69.637 146.055C69.857 146.115 70.057 146.24 70.237 146.43L69.577 147.42ZM70.6139 149.55C70.6139 148.85 70.7689 148.23 71.0789 147.69C71.3989 147.15 71.8289 146.725 72.3689 146.415C72.9089 146.105 73.5139 145.95 74.1839 145.95C74.8639 145.95 75.4689 146.105 75.9989 146.415C76.5389 146.725 76.9639 147.15 77.2739 147.69C77.5939 148.23 77.7539 148.85 77.7539 149.55C77.7539 150.24 77.5939 150.86 77.2739 151.41C76.9639 151.95 76.5389 152.375 75.9989 152.685C75.4689 152.995 74.8639 153.15 74.1839 153.15C73.5139 153.15 72.9089 152.995 72.3689 152.685C71.8289 152.375 71.3989 151.95 71.0789 151.41C70.7689 150.86 70.6139 150.24 70.6139 149.55ZM71.8289 149.55C71.8289 150.03 71.9289 150.455 72.1289 150.825C72.3389 151.195 72.6189 151.49 72.9689 151.71C73.3289 151.92 73.7339 152.025 74.1839 152.025C74.6339 152.025 75.0339 151.92 75.3839 151.71C75.7439 151.49 76.0239 151.195 76.2239 150.825C76.4339 150.455 76.5389 150.03 76.5389 149.55C76.5389 149.07 76.4339 148.645 76.2239 148.275C76.0239 147.895 75.7439 147.6 75.3839 147.39C75.0339 147.18 74.6339 147.075 74.1839 147.075C73.7339 147.075 73.3289 147.18 72.9689 147.39C72.6189 147.6 72.3389 147.895 72.1289 148.275C71.9289 148.645 71.8289 149.07 71.8289 149.55ZM79.2073 143.25C79.2073 143.02 79.2873 142.83 79.4473 142.68C79.6073 142.52 79.7973 142.44 80.0173 142.44C80.2473 142.44 80.4373 142.52 80.5873 142.68C80.7473 142.83 80.8273 143.02 80.8273 143.25C80.8273 143.47 80.7473 143.66 80.5873 143.82C80.4373 143.98 80.2473 144.06 80.0173 144.06C79.7973 144.06 79.6073 143.98 79.4473 143.82C79.2873 143.66 79.2073 143.47 79.2073 143.25ZM78.0223 154.71C78.1023 154.83 78.2023 154.925 78.3223 154.995C78.4523 155.065 78.5973 155.1 78.7573 155.1C78.9273 155.1 79.0623 155.055 79.1623 154.965C79.2723 154.875 79.3523 154.73 79.4023 154.53C79.4523 154.33 79.4773 154.07 79.4773 153.75V146.1H80.6773V153.9C80.6773 154.4 80.5973 154.83 80.4373 155.19C80.2873 155.55 80.0623 155.825 79.7623 156.015C79.4623 156.205 79.1023 156.3 78.6823 156.3C78.4823 156.3 78.3023 156.275 78.1423 156.225C77.9823 156.185 77.8373 156.12 77.7073 156.03C77.5773 155.94 77.4623 155.83 77.3623 155.7L78.0223 154.71ZM85.8223 153.15C85.1823 153.15 84.6123 153 84.1123 152.7C83.6223 152.39 83.2373 151.965 82.9573 151.425C82.6873 150.885 82.5523 150.26 82.5523 149.55C82.5523 148.83 82.6923 148.2 82.9723 147.66C83.2623 147.12 83.6623 146.7 84.1723 146.4C84.6923 146.1 85.2923 145.95 85.9723 145.95C86.6523 145.95 87.2323 146.095 87.7123 146.385C88.2023 146.665 88.5773 147.07 88.8373 147.6C89.0973 148.13 89.2273 148.76 89.2273 149.49C89.2273 149.56 89.2223 149.635 89.2123 149.715C89.2123 149.785 89.2123 149.83 89.2123 149.85H83.3173V148.83H88.2673L87.7873 149.52C87.8173 149.47 87.8473 149.395 87.8773 149.295C87.9073 149.185 87.9223 149.095 87.9223 149.025C87.9223 148.615 87.8373 148.26 87.6673 147.96C87.5073 147.66 87.2823 147.425 86.9923 147.255C86.7023 147.085 86.3623 147 85.9723 147C85.5123 147 85.1173 147.1 84.7873 147.3C84.4673 147.49 84.2173 147.77 84.0373 148.14C83.8673 148.5 83.7773 148.945 83.7673 149.475C83.7673 150.015 83.8523 150.475 84.0223 150.855C84.1923 151.235 84.4423 151.525 84.7723 151.725C85.1023 151.925 85.5023 152.025 85.9723 152.025C86.4423 152.025 86.8573 151.925 87.2173 151.725C87.5773 151.515 87.8823 151.2 88.1323 150.78L89.1073 151.395C88.7473 151.975 88.2923 152.415 87.7423 152.715C87.2023 153.005 86.5623 153.15 85.8223 153.15ZM91.4121 149.55C91.4121 150.03 91.5121 150.455 91.7121 150.825C91.9221 151.195 92.2021 151.49 92.5521 151.71C92.9121 151.92 93.3171 152.025 93.7671 152.025C94.1371 152.025 94.4821 151.97 94.8021 151.86C95.1321 151.74 95.4171 151.585 95.6571 151.395C95.8971 151.195 96.0671 150.985 96.1671 150.765V152.265C95.9271 152.545 95.5821 152.765 95.1321 152.925C94.6921 153.075 94.2371 153.15 93.7671 153.15C93.0971 153.15 92.4921 152.995 91.9521 152.685C91.4121 152.375 90.9821 151.95 90.6621 151.41C90.3521 150.86 90.1971 150.24 90.1971 149.55C90.1971 148.85 90.3521 148.23 90.6621 147.69C90.9821 147.15 91.4121 146.725 91.9521 146.415C92.4921 146.105 93.0971 145.95 93.7671 145.95C94.2371 145.95 94.6921 146.03 95.1321 146.19C95.5821 146.34 95.9271 146.555 96.1671 146.835V148.335C96.0671 148.105 95.8971 147.895 95.6571 147.705C95.4171 147.515 95.1321 147.365 94.8021 147.255C94.4821 147.135 94.1371 147.075 93.7671 147.075C93.3171 147.075 92.9121 147.18 92.5521 147.39C92.2021 147.6 91.9221 147.895 91.7121 148.275C91.5121 148.645 91.4121 149.07 91.4121 149.55ZM96.9852 146.1H100.435V147.225H96.9852V146.1ZM98.1102 143.7H99.3102V153H98.1102V143.7ZM106.676 149.55C106.676 150.03 106.776 150.455 106.976 150.825C107.186 151.195 107.466 151.49 107.816 151.71C108.176 151.92 108.581 152.025 109.031 152.025C109.401 152.025 109.746 151.97 110.066 151.86C110.396 151.74 110.681 151.585 110.921 151.395C111.161 151.195 111.331 150.985 111.431 150.765V152.265C111.191 152.545 110.846 152.765 110.396 152.925C109.956 153.075 109.501 153.15 109.031 153.15C108.361 153.15 107.756 152.995 107.216 152.685C106.676 152.375 106.246 151.95 105.926 151.41C105.616 150.86 105.461 150.24 105.461 149.55C105.461 148.85 105.616 148.23 105.926 147.69C106.246 147.15 106.676 146.725 107.216 146.415C107.756 146.105 108.361 145.95 109.031 145.95C109.501 145.95 109.956 146.03 110.396 146.19C110.846 146.34 111.191 146.555 111.431 146.835V148.335C111.331 148.105 111.161 147.895 110.921 147.705C110.681 147.515 110.396 147.365 110.066 147.255C109.746 147.135 109.401 147.075 109.031 147.075C108.581 147.075 108.176 147.18 107.816 147.39C107.466 147.6 107.186 147.895 106.976 148.275C106.776 148.645 106.676 149.07 106.676 149.55ZM113.839 150.87C113.839 151.13 113.899 151.355 114.019 151.545C114.149 151.735 114.324 151.88 114.544 151.98C114.774 152.07 115.034 152.115 115.324 152.115C115.694 152.115 116.024 152.04 116.314 151.89C116.614 151.74 116.849 151.53 117.019 151.26C117.199 150.98 117.289 150.66 117.289 150.3L117.529 151.2C117.529 151.64 117.394 152.005 117.124 152.295C116.864 152.585 116.539 152.8 116.149 152.94C115.769 153.08 115.389 153.15 115.009 153.15C114.589 153.15 114.194 153.065 113.824 152.895C113.464 152.715 113.174 152.46 112.954 152.13C112.734 151.8 112.624 151.4 112.624 150.93C112.624 150.26 112.859 149.725 113.329 149.325C113.809 148.915 114.474 148.71 115.324 148.71C115.824 148.71 116.239 148.77 116.569 148.89C116.909 149 117.179 149.13 117.379 149.28C117.579 149.42 117.714 149.535 117.784 149.625V150.33C117.434 150.09 117.074 149.92 116.704 149.82C116.334 149.71 115.939 149.655 115.519 149.655C115.129 149.655 114.809 149.705 114.559 149.805C114.319 149.905 114.139 150.045 114.019 150.225C113.899 150.405 113.839 150.62 113.839 150.87ZM113.659 147.69L113.074 146.805C113.334 146.615 113.689 146.425 114.139 146.235C114.599 146.045 115.149 145.95 115.789 145.95C116.329 145.95 116.799 146.035 117.199 146.205C117.609 146.365 117.924 146.6 118.144 146.91C118.374 147.22 118.489 147.6 118.489 148.05V153H117.289V148.215C117.289 147.975 117.249 147.78 117.169 147.63C117.089 147.47 116.974 147.345 116.824 147.255C116.684 147.165 116.519 147.1 116.329 147.06C116.139 147.02 115.939 147 115.729 147C115.389 147 115.079 147.04 114.799 147.12C114.529 147.2 114.299 147.295 114.109 147.405C113.919 147.515 113.769 147.61 113.659 147.69ZM124.946 148.8C124.946 148.23 124.821 147.8 124.571 147.51C124.321 147.22 123.956 147.075 123.476 147.075C123.126 147.075 122.816 147.15 122.546 147.3C122.286 147.44 122.081 147.64 121.931 147.9C121.791 148.16 121.721 148.46 121.721 148.8V153H120.521V146.1H121.721V147.18C121.951 146.76 122.236 146.45 122.576 146.25C122.926 146.05 123.326 145.95 123.776 145.95C124.506 145.95 125.081 146.195 125.501 146.685C125.931 147.165 126.146 147.82 126.146 148.65V153H124.946V148.8ZM134.023 141.3V153H132.823V141.3H134.023ZM139.798 149.55C139.798 150.29 139.643 150.93 139.333 151.47C139.023 152.01 138.608 152.425 138.088 152.715C137.578 153.005 137.008 153.15 136.378 153.15C135.808 153.15 135.303 153.005 134.863 152.715C134.433 152.425 134.093 152.01 133.843 151.47C133.603 150.93 133.483 150.29 133.483 149.55C133.483 148.8 133.603 148.16 133.843 147.63C134.093 147.09 134.433 146.675 134.863 146.385C135.303 146.095 135.808 145.95 136.378 145.95C137.008 145.95 137.578 146.095 138.088 146.385C138.608 146.675 139.023 147.09 139.333 147.63C139.643 148.16 139.798 148.8 139.798 149.55ZM138.583 149.55C138.583 149.02 138.473 148.57 138.253 148.2C138.043 147.83 137.758 147.55 137.398 147.36C137.048 147.17 136.658 147.075 136.228 147.075C135.878 147.075 135.533 147.17 135.193 147.36C134.853 147.55 134.573 147.83 134.353 148.2C134.133 148.57 134.023 149.02 134.023 149.55C134.023 150.08 134.133 150.53 134.353 150.9C134.573 151.27 134.853 151.55 135.193 151.74C135.533 151.93 135.878 152.025 136.228 152.025C136.658 152.025 137.048 151.93 137.398 151.74C137.758 151.55 138.043 151.27 138.253 150.9C138.473 150.53 138.583 150.08 138.583 149.55ZM144.123 153.15C143.483 153.15 142.913 153 142.413 152.7C141.923 152.39 141.538 151.965 141.258 151.425C140.988 150.885 140.853 150.26 140.853 149.55C140.853 148.83 140.993 148.2 141.273 147.66C141.563 147.12 141.963 146.7 142.473 146.4C142.993 146.1 143.593 145.95 144.273 145.95C144.953 145.95 145.533 146.095 146.013 146.385C146.503 146.665 146.878 147.07 147.138 147.6C147.398 148.13 147.528 148.76 147.528 149.49C147.528 149.56 147.523 149.635 147.513 149.715C147.513 149.785 147.513 149.83 147.513 149.85H141.618V148.83H146.568L146.088 149.52C146.118 149.47 146.148 149.395 146.178 149.295C146.208 149.185 146.223 149.095 146.223 149.025C146.223 148.615 146.138 148.26 145.968 147.96C145.808 147.66 145.583 147.425 145.293 147.255C145.003 147.085 144.663 147 144.273 147C143.813 147 143.418 147.1 143.088 147.3C142.768 147.49 142.518 147.77 142.338 148.14C142.168 148.5 142.078 148.945 142.068 149.475C142.068 150.015 142.153 150.475 142.323 150.855C142.493 151.235 142.743 151.525 143.073 151.725C143.403 151.925 143.803 152.025 144.273 152.025C144.743 152.025 145.158 151.925 145.518 151.725C145.878 151.515 146.183 151.2 146.433 150.78L147.408 151.395C147.048 151.975 146.593 152.415 146.043 152.715C145.503 153.005 144.863 153.15 144.123 153.15ZM152.62 146.1H156.07V147.225H152.62V146.1ZM153.745 143.7H154.945V153H153.745V143.7ZM158.473 141.3V153H157.273V141.3H158.473ZM161.698 148.8C161.698 148.23 161.573 147.8 161.323 147.51C161.083 147.22 160.718 147.075 160.228 147.075C159.878 147.075 159.568 147.15 159.298 147.3C159.038 147.45 158.833 147.655 158.683 147.915C158.543 148.175 158.473 148.47 158.473 148.8H158.083C158.083 148.25 158.188 147.765 158.398 147.345C158.608 146.915 158.893 146.575 159.253 146.325C159.623 146.075 160.048 145.95 160.528 145.95C161.008 145.95 161.423 146.05 161.773 146.25C162.133 146.45 162.408 146.75 162.598 147.15C162.798 147.55 162.898 148.05 162.898 148.65V153H161.698V148.8ZM167.824 153.15C167.184 153.15 166.614 153 166.114 152.7C165.624 152.39 165.239 151.965 164.959 151.425C164.689 150.885 164.554 150.26 164.554 149.55C164.554 148.83 164.694 148.2 164.974 147.66C165.264 147.12 165.664 146.7 166.174 146.4C166.694 146.1 167.294 145.95 167.974 145.95C168.654 145.95 169.234 146.095 169.714 146.385C170.204 146.665 170.579 147.07 170.839 147.6C171.099 148.13 171.229 148.76 171.229 149.49C171.229 149.56 171.224 149.635 171.214 149.715C171.214 149.785 171.214 149.83 171.214 149.85H165.319V148.83H170.269L169.789 149.52C169.819 149.47 169.849 149.395 169.879 149.295C169.909 149.185 169.924 149.095 169.924 149.025C169.924 148.615 169.839 148.26 169.669 147.96C169.509 147.66 169.284 147.425 168.994 147.255C168.704 147.085 168.364 147 167.974 147C167.514 147 167.119 147.1 166.789 147.3C166.469 147.49 166.219 147.77 166.039 148.14C165.869 148.5 165.779 148.945 165.769 149.475C165.769 150.015 165.854 150.475 166.024 150.855C166.194 151.235 166.444 151.525 166.774 151.725C167.104 151.925 167.504 152.025 167.974 152.025C168.444 152.025 168.859 151.925 169.219 151.725C169.579 151.515 169.884 151.2 170.134 150.78L171.109 151.395C170.749 151.975 170.294 152.415 169.744 152.715C169.204 153.005 168.564 153.15 167.824 153.15ZM182.546 141.3H183.746V153H182.546V141.3ZM176.771 149.55C176.771 148.8 176.926 148.16 177.236 147.63C177.546 147.09 177.961 146.675 178.481 146.385C179.001 146.095 179.571 145.95 180.191 145.95C180.771 145.95 181.276 146.095 181.706 146.385C182.136 146.675 182.471 147.09 182.711 147.63C182.961 148.16 183.086 148.8 183.086 149.55C183.086 150.29 182.961 150.93 182.711 151.47C182.471 152.01 182.136 152.425 181.706 152.715C181.276 153.005 180.771 153.15 180.191 153.15C179.571 153.15 179.001 153.005 178.481 152.715C177.961 152.425 177.546 152.01 177.236 151.47C176.926 150.93 176.771 150.29 176.771 149.55ZM177.986 149.55C177.986 150.08 178.091 150.53 178.301 150.9C178.521 151.27 178.811 151.55 179.171 151.74C179.531 151.93 179.921 152.025 180.341 152.025C180.691 152.025 181.036 151.93 181.376 151.74C181.716 151.55 181.996 151.27 182.216 150.9C182.436 150.53 182.546 150.08 182.546 149.55C182.546 149.02 182.436 148.57 182.216 148.2C181.996 147.83 181.716 147.55 181.376 147.36C181.036 147.17 180.691 147.075 180.341 147.075C179.921 147.075 179.531 147.17 179.171 147.36C178.811 147.55 178.521 147.83 178.301 148.2C178.091 148.57 177.986 149.02 177.986 149.55ZM185.926 143.25C185.926 143.02 186.006 142.825 186.166 142.665C186.336 142.505 186.531 142.425 186.751 142.425C186.981 142.425 187.176 142.505 187.336 142.665C187.496 142.825 187.576 143.02 187.576 143.25C187.576 143.47 187.496 143.665 187.336 143.835C187.176 143.995 186.981 144.075 186.751 144.075C186.531 144.075 186.336 143.995 186.166 143.835C186.006 143.665 185.926 143.47 185.926 143.25ZM186.151 146.1H187.351V153H186.151V146.1ZM189.297 146.1H192.747V147.225H189.297V146.1ZM192.627 142.74C192.527 142.57 192.407 142.465 192.267 142.425C192.137 142.375 192.012 142.35 191.892 142.35C191.742 142.35 191.612 142.395 191.502 142.485C191.402 142.565 191.322 142.705 191.262 142.905C191.202 143.105 191.172 143.37 191.172 143.7V153H189.972V143.55C189.972 143 190.052 142.55 190.212 142.2C190.372 141.85 190.597 141.59 190.887 141.42C191.187 141.24 191.547 141.15 191.967 141.15C192.187 141.15 192.382 141.18 192.552 141.24C192.722 141.3 192.867 141.375 192.987 141.465C193.117 141.555 193.217 141.65 193.287 141.75L192.627 142.74ZM193.589 146.1H197.039V147.225H193.589V146.1ZM196.919 142.74C196.819 142.57 196.699 142.465 196.559 142.425C196.429 142.375 196.304 142.35 196.184 142.35C196.034 142.35 195.904 142.395 195.794 142.485C195.694 142.565 195.614 142.705 195.554 142.905C195.494 143.105 195.464 143.37 195.464 143.7V153H194.264V143.55C194.264 143 194.344 142.55 194.504 142.2C194.664 141.85 194.889 141.59 195.179 141.42C195.479 141.24 195.839 141.15 196.259 141.15C196.479 141.15 196.674 141.18 196.844 141.24C197.014 141.3 197.159 141.375 197.279 141.465C197.409 141.555 197.509 141.65 197.579 141.75L196.919 142.74ZM201.076 153.15C200.436 153.15 199.866 153 199.366 152.7C198.876 152.39 198.491 151.965 198.211 151.425C197.941 150.885 197.806 150.26 197.806 149.55C197.806 148.83 197.946 148.2 198.226 147.66C198.516 147.12 198.916 146.7 199.426 146.4C199.946 146.1 200.546 145.95 201.226 145.95C201.906 145.95 202.486 146.095 202.966 146.385C203.456 146.665 203.831 147.07 204.091 147.6C204.351 148.13 204.481 148.76 204.481 149.49C204.481 149.56 204.476 149.635 204.466 149.715C204.466 149.785 204.466 149.83 204.466 149.85H198.571V148.83H203.521L203.041 149.52C203.071 149.47 203.101 149.395 203.131 149.295C203.161 149.185 203.176 149.095 203.176 149.025C203.176 148.615 203.091 148.26 202.921 147.96C202.761 147.66 202.536 147.425 202.246 147.255C201.956 147.085 201.616 147 201.226 147C200.766 147 200.371 147.1 200.041 147.3C199.721 147.49 199.471 147.77 199.291 148.14C199.121 148.5 199.031 148.945 199.021 149.475C199.021 150.015 199.106 150.475 199.276 150.855C199.446 151.235 199.696 151.525 200.026 151.725C200.356 151.925 200.756 152.025 201.226 152.025C201.696 152.025 202.111 151.925 202.471 151.725C202.831 151.515 203.136 151.2 203.386 150.78L204.361 151.395C204.001 151.975 203.546 152.415 202.996 152.715C202.456 153.005 201.816 153.15 201.076 153.15ZM207.326 146.1V153H206.126V146.1H207.326ZM209.411 147.42C209.251 147.3 209.106 147.215 208.976 147.165C208.846 147.105 208.681 147.075 208.481 147.075C208.181 147.075 207.946 147.15 207.776 147.3C207.606 147.45 207.486 147.655 207.416 147.915C207.356 148.175 207.326 148.47 207.326 148.8H206.786C206.786 148.25 206.881 147.765 207.071 147.345C207.271 146.915 207.526 146.575 207.836 146.325C208.146 146.075 208.461 145.95 208.781 145.95C209.031 145.95 209.261 145.985 209.471 146.055C209.691 146.115 209.891 146.24 210.071 146.43L209.411 147.42ZM213.718 153.15C213.078 153.15 212.508 153 212.008 152.7C211.518 152.39 211.133 151.965 210.853 151.425C210.583 150.885 210.448 150.26 210.448 149.55C210.448 148.83 210.588 148.2 210.868 147.66C211.158 147.12 211.558 146.7 212.068 146.4C212.588 146.1 213.188 145.95 213.868 145.95C214.548 145.95 215.128 146.095 215.608 146.385C216.098 146.665 216.473 147.07 216.733 147.6C216.993 148.13 217.123 148.76 217.123 149.49C217.123 149.56 217.118 149.635 217.108 149.715C217.108 149.785 217.108 149.83 217.108 149.85H211.213V148.83H216.163L215.683 149.52C215.713 149.47 215.743 149.395 215.773 149.295C215.803 149.185 215.818 149.095 215.818 149.025C215.818 148.615 215.733 148.26 215.563 147.96C215.403 147.66 215.178 147.425 214.888 147.255C214.598 147.085 214.258 147 213.868 147C213.408 147 213.013 147.1 212.683 147.3C212.363 147.49 212.113 147.77 211.933 148.14C211.763 148.5 211.673 148.945 211.663 149.475C211.663 150.015 211.748 150.475 211.918 150.855C212.088 151.235 212.338 151.525 212.668 151.725C212.998 151.925 213.398 152.025 213.868 152.025C214.338 152.025 214.753 151.925 215.113 151.725C215.473 151.515 215.778 151.2 216.028 150.78L217.003 151.395C216.643 151.975 216.188 152.415 215.638 152.715C215.098 153.005 214.458 153.15 213.718 153.15ZM223.193 148.8C223.193 148.23 223.068 147.8 222.818 147.51C222.568 147.22 222.203 147.075 221.723 147.075C221.373 147.075 221.063 147.15 220.793 147.3C220.533 147.44 220.328 147.64 220.178 147.9C220.038 148.16 219.968 148.46 219.968 148.8V153H218.768V146.1H219.968V147.18C220.198 146.76 220.483 146.45 220.823 146.25C221.173 146.05 221.573 145.95 222.023 145.95C222.753 145.95 223.328 146.195 223.748 146.685C224.178 147.165 224.393 147.82 224.393 148.65V153H223.193V148.8ZM227.188 149.55C227.188 150.03 227.288 150.455 227.488 150.825C227.698 151.195 227.978 151.49 228.328 151.71C228.688 151.92 229.093 152.025 229.543 152.025C229.913 152.025 230.258 151.97 230.578 151.86C230.908 151.74 231.193 151.585 231.433 151.395C231.673 151.195 231.843 150.985 231.943 150.765V152.265C231.703 152.545 231.358 152.765 230.908 152.925C230.468 153.075 230.013 153.15 229.543 153.15C228.873 153.15 228.268 152.995 227.728 152.685C227.188 152.375 226.758 151.95 226.438 151.41C226.128 150.86 225.973 150.24 225.973 149.55C225.973 148.85 226.128 148.23 226.438 147.69C226.758 147.15 227.188 146.725 227.728 146.415C228.268 146.105 228.873 145.95 229.543 145.95C230.013 145.95 230.468 146.03 230.908 146.19C231.358 146.34 231.703 146.555 231.943 146.835V148.335C231.843 148.105 231.673 147.895 231.433 147.705C231.193 147.515 230.908 147.365 230.578 147.255C230.258 147.135 229.913 147.075 229.543 147.075C229.093 147.075 228.688 147.18 228.328 147.39C227.978 147.6 227.698 147.895 227.488 148.275C227.288 148.645 227.188 149.07 227.188 149.55ZM236.482 153.15C235.842 153.15 235.272 153 234.772 152.7C234.282 152.39 233.897 151.965 233.617 151.425C233.347 150.885 233.212 150.26 233.212 149.55C233.212 148.83 233.352 148.2 233.632 147.66C233.922 147.12 234.322 146.7 234.832 146.4C235.352 146.1 235.952 145.95 236.632 145.95C237.312 145.95 237.892 146.095 238.372 146.385C238.862 146.665 239.237 147.07 239.497 147.6C239.757 148.13 239.887 148.76 239.887 149.49C239.887 149.56 239.882 149.635 239.872 149.715C239.872 149.785 239.872 149.83 239.872 149.85H233.977V148.83H238.927L238.447 149.52C238.477 149.47 238.507 149.395 238.537 149.295C238.567 149.185 238.582 149.095 238.582 149.025C238.582 148.615 238.497 148.26 238.327 147.96C238.167 147.66 237.942 147.425 237.652 147.255C237.362 147.085 237.022 147 236.632 147C236.172 147 235.777 147.1 235.447 147.3C235.127 147.49 234.877 147.77 234.697 148.14C234.527 148.5 234.437 148.945 234.427 149.475C234.427 150.015 234.512 150.475 234.682 150.855C234.852 151.235 235.102 151.525 235.432 151.725C235.762 151.925 236.162 152.025 236.632 152.025C237.102 152.025 237.517 151.925 237.877 151.725C238.237 151.515 238.542 151.2 238.792 150.78L239.767 151.395C239.407 151.975 238.952 152.415 238.402 152.715C237.862 153.005 237.222 153.15 236.482 153.15ZM16.25 163.3V175H15.05V163.3H16.25ZM22.025 171.55C22.025 172.29 21.87 172.93 21.56 173.47C21.25 174.01 20.835 174.425 20.315 174.715C19.805 175.005 19.235 175.15 18.605 175.15C18.035 175.15 17.53 175.005 17.09 174.715C16.66 174.425 16.32 174.01 16.07 173.47C15.83 172.93 15.71 172.29 15.71 171.55C15.71 170.8 15.83 170.16 16.07 169.63C16.32 169.09 16.66 168.675 17.09 168.385C17.53 168.095 18.035 167.95 18.605 167.95C19.235 167.95 19.805 168.095 20.315 168.385C20.835 168.675 21.25 169.09 21.56 169.63C21.87 170.16 22.025 170.8 22.025 171.55ZM20.81 171.55C20.81 171.02 20.7 170.57 20.48 170.2C20.27 169.83 19.985 169.55 19.625 169.36C19.275 169.17 18.885 169.075 18.455 169.075C18.105 169.075 17.76 169.17 17.42 169.36C17.08 169.55 16.8 169.83 16.58 170.2C16.36 170.57 16.25 171.02 16.25 171.55C16.25 172.08 16.36 172.53 16.58 172.9C16.8 173.27 17.08 173.55 17.42 173.74C17.76 173.93 18.105 174.025 18.455 174.025C18.885 174.025 19.275 173.93 19.625 173.74C19.985 173.55 20.27 173.27 20.48 172.9C20.7 172.53 20.81 172.08 20.81 171.55ZM26.3497 175.15C25.7097 175.15 25.1397 175 24.6397 174.7C24.1497 174.39 23.7647 173.965 23.4847 173.425C23.2147 172.885 23.0797 172.26 23.0797 171.55C23.0797 170.83 23.2197 170.2 23.4997 169.66C23.7897 169.12 24.1897 168.7 24.6997 168.4C25.2197 168.1 25.8197 167.95 26.4997 167.95C27.1797 167.95 27.7597 168.095 28.2397 168.385C28.7297 168.665 29.1047 169.07 29.3647 169.6C29.6247 170.13 29.7547 170.76 29.7547 171.49C29.7547 171.56 29.7497 171.635 29.7397 171.715C29.7397 171.785 29.7397 171.83 29.7397 171.85H23.8447V170.83H28.7947L28.3147 171.52C28.3447 171.47 28.3747 171.395 28.4047 171.295C28.4347 171.185 28.4497 171.095 28.4497 171.025C28.4497 170.615 28.3647 170.26 28.1947 169.96C28.0347 169.66 27.8097 169.425 27.5197 169.255C27.2297 169.085 26.8897 169 26.4997 169C26.0397 169 25.6447 169.1 25.3147 169.3C24.9947 169.49 24.7447 169.77 24.5647 170.14C24.3947 170.5 24.3047 170.945 24.2947 171.475C24.2947 172.015 24.3797 172.475 24.5497 172.855C24.7197 173.235 24.9697 173.525 25.2997 173.725C25.6297 173.925 26.0297 174.025 26.4997 174.025C26.9697 174.025 27.3847 173.925 27.7447 173.725C28.1047 173.515 28.4097 173.2 28.6597 172.78L29.6347 173.395C29.2747 173.975 28.8197 174.415 28.2697 174.715C27.7297 175.005 27.0897 175.15 26.3497 175.15ZM30.3494 168.1H33.7994V169.225H30.3494V168.1ZM31.4744 165.7H32.6744V175H31.4744V165.7ZM33.9529 168.1H35.3029L37.0279 172.585L38.9029 167.575L40.9129 172.615L42.6529 168.1H44.0029L41.0029 175.525L38.9179 170.5L36.9529 175.525L33.9529 168.1ZM47.6485 175.15C47.0085 175.15 46.4385 175 45.9385 174.7C45.4485 174.39 45.0635 173.965 44.7835 173.425C44.5135 172.885 44.3785 172.26 44.3785 171.55C44.3785 170.83 44.5185 170.2 44.7985 169.66C45.0885 169.12 45.4885 168.7 45.9985 168.4C46.5185 168.1 47.1185 167.95 47.7985 167.95C48.4785 167.95 49.0585 168.095 49.5385 168.385C50.0285 168.665 50.4035 169.07 50.6635 169.6C50.9235 170.13 51.0535 170.76 51.0535 171.49C51.0535 171.56 51.0485 171.635 51.0385 171.715C51.0385 171.785 51.0385 171.83 51.0385 171.85H45.1435V170.83H50.0935L49.6135 171.52C49.6435 171.47 49.6735 171.395 49.7035 171.295C49.7335 171.185 49.7485 171.095 49.7485 171.025C49.7485 170.615 49.6635 170.26 49.4935 169.96C49.3335 169.66 49.1085 169.425 48.8185 169.255C48.5285 169.085 48.1885 169 47.7985 169C47.3385 169 46.9435 169.1 46.6135 169.3C46.2935 169.49 46.0435 169.77 45.8635 170.14C45.6935 170.5 45.6035 170.945 45.5935 171.475C45.5935 172.015 45.6785 172.475 45.8485 172.855C46.0185 173.235 46.2685 173.525 46.5985 173.725C46.9285 173.925 47.3285 174.025 47.7985 174.025C48.2685 174.025 48.6835 173.925 49.0435 173.725C49.4035 173.515 49.7085 173.2 49.9585 172.78L50.9335 173.395C50.5735 173.975 50.1185 174.415 49.5685 174.715C49.0285 175.005 48.3885 175.15 47.6485 175.15ZM55.3682 175.15C54.7282 175.15 54.1582 175 53.6582 174.7C53.1682 174.39 52.7832 173.965 52.5032 173.425C52.2332 172.885 52.0982 172.26 52.0982 171.55C52.0982 170.83 52.2382 170.2 52.5182 169.66C52.8082 169.12 53.2082 168.7 53.7182 168.4C54.2382 168.1 54.8382 167.95 55.5182 167.95C56.1982 167.95 56.7782 168.095 57.2582 168.385C57.7482 168.665 58.1232 169.07 58.3832 169.6C58.6432 170.13 58.7732 170.76 58.7732 171.49C58.7732 171.56 58.7682 171.635 58.7582 171.715C58.7582 171.785 58.7582 171.83 58.7582 171.85H52.8632V170.83H57.8132L57.3332 171.52C57.3632 171.47 57.3932 171.395 57.4232 171.295C57.4532 171.185 57.4682 171.095 57.4682 171.025C57.4682 170.615 57.3832 170.26 57.2132 169.96C57.0532 169.66 56.8282 169.425 56.5382 169.255C56.2482 169.085 55.9082 169 55.5182 169C55.0582 169 54.6632 169.1 54.3332 169.3C54.0132 169.49 53.7632 169.77 53.5832 170.14C53.4132 170.5 53.3232 170.945 53.3132 171.475C53.3132 172.015 53.3982 172.475 53.5682 172.855C53.7382 173.235 53.9882 173.525 54.3182 173.725C54.6482 173.925 55.0482 174.025 55.5182 174.025C55.9882 174.025 56.4032 173.925 56.7632 173.725C57.1232 173.515 57.4282 173.2 57.6782 172.78L58.6532 173.395C58.2932 173.975 57.8382 174.415 57.2882 174.715C56.7482 175.005 56.1082 175.15 55.3682 175.15ZM64.843 170.8C64.843 170.23 64.718 169.8 64.468 169.51C64.218 169.22 63.853 169.075 63.373 169.075C63.023 169.075 62.713 169.15 62.443 169.3C62.183 169.44 61.978 169.64 61.828 169.9C61.688 170.16 61.618 170.46 61.618 170.8V175H60.418V168.1H61.618V169.18C61.848 168.76 62.133 168.45 62.473 168.25C62.823 168.05 63.223 167.95 63.673 167.95C64.403 167.95 64.978 168.195 65.398 168.685C65.828 169.165 66.043 169.82 66.043 170.65V175H64.843V170.8ZM73.0809 172.885C73.2209 173.095 73.3809 173.29 73.5609 173.47C73.7409 173.65 73.9459 173.795 74.1759 173.905C74.4159 174.005 74.6759 174.055 74.9559 174.055C75.2959 174.055 75.5609 173.98 75.7509 173.83C75.9509 173.67 76.0509 173.455 76.0509 173.185C76.0509 172.945 75.9709 172.745 75.8109 172.585C75.6609 172.415 75.4659 172.275 75.2259 172.165C74.9859 172.045 74.7309 171.935 74.4609 171.835C74.1609 171.715 73.8559 171.575 73.5459 171.415C73.2459 171.245 72.9909 171.03 72.7809 170.77C72.5809 170.5 72.4809 170.165 72.4809 169.765C72.4809 169.355 72.5859 169.015 72.7959 168.745C73.0159 168.475 73.2959 168.275 73.6359 168.145C73.9859 168.015 74.3459 167.95 74.7159 167.95C75.0859 167.95 75.4309 168.01 75.7509 168.13C76.0809 168.25 76.3709 168.41 76.6209 168.61C76.8709 168.81 77.0659 169.04 77.2059 169.3L76.2459 169.915C76.0559 169.655 75.8159 169.44 75.5259 169.27C75.2459 169.1 74.9259 169.015 74.5659 169.015C74.3159 169.015 74.1009 169.07 73.9209 169.18C73.7409 169.29 73.6509 169.46 73.6509 169.69C73.6509 169.87 73.7209 170.03 73.8609 170.17C74.0009 170.31 74.1809 170.435 74.4009 170.545C74.6209 170.655 74.8509 170.76 75.0909 170.86C75.4909 171.02 75.8559 171.195 76.1859 171.385C76.5159 171.565 76.7759 171.785 76.9659 172.045C77.1659 172.305 77.2659 172.64 77.2659 173.05C77.2659 173.65 77.0459 174.15 76.6059 174.55C76.1759 174.95 75.6059 175.15 74.8959 175.15C74.4359 175.15 74.0209 175.07 73.6509 174.91C73.2809 174.74 72.9659 174.525 72.7059 174.265C72.4559 174.005 72.2659 173.74 72.1359 173.47L73.0809 172.885ZM80.0457 172.3C80.0457 172.85 80.1707 173.275 80.4207 173.575C80.6707 173.875 81.0357 174.025 81.5157 174.025C81.8657 174.025 82.1707 173.955 82.4307 173.815C82.7007 173.665 82.9057 173.46 83.0457 173.2C83.1957 172.94 83.2707 172.64 83.2707 172.3V168.1H84.4707V175H83.2707V173.92C83.0407 174.33 82.7557 174.64 82.4157 174.85C82.0757 175.05 81.6757 175.15 81.2157 175.15C80.4957 175.15 79.9207 174.905 79.4907 174.415C79.0607 173.925 78.8457 173.27 78.8457 172.45V168.1H80.0457V172.3ZM87.2666 171.55C87.2666 172.03 87.3666 172.455 87.5666 172.825C87.7766 173.195 88.0566 173.49 88.4066 173.71C88.7666 173.92 89.1716 174.025 89.6216 174.025C89.9916 174.025 90.3366 173.97 90.6566 173.86C90.9866 173.74 91.2716 173.585 91.5116 173.395C91.7516 173.195 91.9216 172.985 92.0216 172.765V174.265C91.7816 174.545 91.4366 174.765 90.9866 174.925C90.5466 175.075 90.0916 175.15 89.6216 175.15C88.9516 175.15 88.3466 174.995 87.8066 174.685C87.2666 174.375 86.8366 173.95 86.5166 173.41C86.2066 172.86 86.0516 172.24 86.0516 171.55C86.0516 170.85 86.2066 170.23 86.5166 169.69C86.8366 169.15 87.2666 168.725 87.8066 168.415C88.3466 168.105 88.9516 167.95 89.6216 167.95C90.0916 167.95 90.5466 168.03 90.9866 168.19C91.4366 168.34 91.7816 168.555 92.0216 168.835V170.335C91.9216 170.105 91.7516 169.895 91.5116 169.705C91.2716 169.515 90.9866 169.365 90.6566 169.255C90.3366 169.135 89.9916 169.075 89.6216 169.075C89.1716 169.075 88.7666 169.18 88.4066 169.39C88.0566 169.6 87.7766 169.895 87.5666 170.275C87.3666 170.645 87.2666 171.07 87.2666 171.55ZM94.4296 171.55C94.4296 172.03 94.5296 172.455 94.7296 172.825C94.9396 173.195 95.2196 173.49 95.5696 173.71C95.9296 173.92 96.3346 174.025 96.7846 174.025C97.1546 174.025 97.4996 173.97 97.8196 173.86C98.1496 173.74 98.4346 173.585 98.6746 173.395C98.9146 173.195 99.0846 172.985 99.1846 172.765V174.265C98.9446 174.545 98.5996 174.765 98.1496 174.925C97.7096 175.075 97.2546 175.15 96.7846 175.15C96.1146 175.15 95.5096 174.995 94.9696 174.685C94.4296 174.375 93.9996 173.95 93.6796 173.41C93.3696 172.86 93.2146 172.24 93.2146 171.55C93.2146 170.85 93.3696 170.23 93.6796 169.69C93.9996 169.15 94.4296 168.725 94.9696 168.415C95.5096 168.105 96.1146 167.95 96.7846 167.95C97.2546 167.95 97.7096 168.03 98.1496 168.19C98.5996 168.34 98.9446 168.555 99.1846 168.835V170.335C99.0846 170.105 98.9146 169.895 98.6746 169.705C98.4346 169.515 98.1496 169.365 97.8196 169.255C97.4996 169.135 97.1546 169.075 96.7846 169.075C96.3346 169.075 95.9296 169.18 95.5696 169.39C95.2196 169.6 94.9396 169.895 94.7296 170.275C94.5296 170.645 94.4296 171.07 94.4296 171.55ZM103.723 175.15C103.083 175.15 102.513 175 102.013 174.7C101.523 174.39 101.138 173.965 100.858 173.425C100.588 172.885 100.453 172.26 100.453 171.55C100.453 170.83 100.593 170.2 100.873 169.66C101.163 169.12 101.563 168.7 102.073 168.4C102.593 168.1 103.193 167.95 103.873 167.95C104.553 167.95 105.133 168.095 105.613 168.385C106.103 168.665 106.478 169.07 106.738 169.6C106.998 170.13 107.128 170.76 107.128 171.49C107.128 171.56 107.123 171.635 107.113 171.715C107.113 171.785 107.113 171.83 107.113 171.85H101.218V170.83H106.168L105.688 171.52C105.718 171.47 105.748 171.395 105.778 171.295C105.808 171.185 105.823 171.095 105.823 171.025C105.823 170.615 105.738 170.26 105.568 169.96C105.408 169.66 105.183 169.425 104.893 169.255C104.603 169.085 104.263 169 103.873 169C103.413 169 103.018 169.1 102.688 169.3C102.368 169.49 102.118 169.77 101.938 170.14C101.768 170.5 101.678 170.945 101.668 171.475C101.668 172.015 101.753 172.475 101.923 172.855C102.093 173.235 102.343 173.525 102.673 173.725C103.003 173.925 103.403 174.025 103.873 174.025C104.343 174.025 104.758 173.925 105.118 173.725C105.478 173.515 105.783 173.2 106.033 172.78L107.008 173.395C106.648 173.975 106.193 174.415 105.643 174.715C105.103 175.005 104.463 175.15 103.723 175.15ZM109.057 172.885C109.197 173.095 109.357 173.29 109.537 173.47C109.717 173.65 109.922 173.795 110.152 173.905C110.392 174.005 110.652 174.055 110.932 174.055C111.272 174.055 111.537 173.98 111.727 173.83C111.927 173.67 112.027 173.455 112.027 173.185C112.027 172.945 111.947 172.745 111.787 172.585C111.637 172.415 111.442 172.275 111.202 172.165C110.962 172.045 110.707 171.935 110.437 171.835C110.137 171.715 109.832 171.575 109.522 171.415C109.222 171.245 108.967 171.03 108.757 170.77C108.557 170.5 108.457 170.165 108.457 169.765C108.457 169.355 108.562 169.015 108.772 168.745C108.992 168.475 109.272 168.275 109.612 168.145C109.962 168.015 110.322 167.95 110.692 167.95C111.062 167.95 111.407 168.01 111.727 168.13C112.057 168.25 112.347 168.41 112.597 168.61C112.847 168.81 113.042 169.04 113.182 169.3L112.222 169.915C112.032 169.655 111.792 169.44 111.502 169.27C111.222 169.1 110.902 169.015 110.542 169.015C110.292 169.015 110.077 169.07 109.897 169.18C109.717 169.29 109.627 169.46 109.627 169.69C109.627 169.87 109.697 170.03 109.837 170.17C109.977 170.31 110.157 170.435 110.377 170.545C110.597 170.655 110.827 170.76 111.067 170.86C111.467 171.02 111.832 171.195 112.162 171.385C112.492 171.565 112.752 171.785 112.942 172.045C113.142 172.305 113.242 172.64 113.242 173.05C113.242 173.65 113.022 174.15 112.582 174.55C112.152 174.95 111.582 175.15 110.872 175.15C110.412 175.15 109.997 175.07 109.627 174.91C109.257 174.74 108.942 174.525 108.682 174.265C108.432 174.005 108.242 173.74 108.112 173.47L109.057 172.885ZM115.107 172.885C115.247 173.095 115.407 173.29 115.587 173.47C115.767 173.65 115.972 173.795 116.202 173.905C116.442 174.005 116.702 174.055 116.982 174.055C117.322 174.055 117.587 173.98 117.777 173.83C117.977 173.67 118.077 173.455 118.077 173.185C118.077 172.945 117.997 172.745 117.837 172.585C117.687 172.415 117.492 172.275 117.252 172.165C117.012 172.045 116.757 171.935 116.487 171.835C116.187 171.715 115.882 171.575 115.572 171.415C115.272 171.245 115.017 171.03 114.807 170.77C114.607 170.5 114.507 170.165 114.507 169.765C114.507 169.355 114.612 169.015 114.822 168.745C115.042 168.475 115.322 168.275 115.662 168.145C116.012 168.015 116.372 167.95 116.742 167.95C117.112 167.95 117.457 168.01 117.777 168.13C118.107 168.25 118.397 168.41 118.647 168.61C118.897 168.81 119.092 169.04 119.232 169.3L118.272 169.915C118.082 169.655 117.842 169.44 117.552 169.27C117.272 169.1 116.952 169.015 116.592 169.015C116.342 169.015 116.127 169.07 115.947 169.18C115.767 169.29 115.677 169.46 115.677 169.69C115.677 169.87 115.747 170.03 115.887 170.17C116.027 170.31 116.207 170.435 116.427 170.545C116.647 170.655 116.877 170.76 117.117 170.86C117.517 171.02 117.882 171.195 118.212 171.385C118.542 171.565 118.802 171.785 118.992 172.045C119.192 172.305 119.292 172.64 119.292 173.05C119.292 173.65 119.072 174.15 118.632 174.55C118.202 174.95 117.632 175.15 116.922 175.15C116.462 175.15 116.047 175.07 115.677 174.91C115.307 174.74 114.992 174.525 114.732 174.265C114.482 174.005 114.292 173.74 114.162 173.47L115.107 172.885ZM125.909 172.87C125.909 173.13 125.969 173.355 126.089 173.545C126.219 173.735 126.394 173.88 126.614 173.98C126.844 174.07 127.104 174.115 127.394 174.115C127.764 174.115 128.094 174.04 128.384 173.89C128.684 173.74 128.919 173.53 129.089 173.26C129.269 172.98 129.359 172.66 129.359 172.3L129.599 173.2C129.599 173.64 129.464 174.005 129.194 174.295C128.934 174.585 128.609 174.8 128.219 174.94C127.839 175.08 127.459 175.15 127.079 175.15C126.659 175.15 126.264 175.065 125.894 174.895C125.534 174.715 125.244 174.46 125.024 174.13C124.804 173.8 124.694 173.4 124.694 172.93C124.694 172.26 124.929 171.725 125.399 171.325C125.879 170.915 126.544 170.71 127.394 170.71C127.894 170.71 128.309 170.77 128.639 170.89C128.979 171 129.249 171.13 129.449 171.28C129.649 171.42 129.784 171.535 129.854 171.625V172.33C129.504 172.09 129.144 171.92 128.774 171.82C128.404 171.71 128.009 171.655 127.589 171.655C127.199 171.655 126.879 171.705 126.629 171.805C126.389 171.905 126.209 172.045 126.089 172.225C125.969 172.405 125.909 172.62 125.909 172.87ZM125.729 169.69L125.144 168.805C125.404 168.615 125.759 168.425 126.209 168.235C126.669 168.045 127.219 167.95 127.859 167.95C128.399 167.95 128.869 168.035 129.269 168.205C129.679 168.365 129.994 168.6 130.214 168.91C130.444 169.22 130.559 169.6 130.559 170.05V175H129.359V170.215C129.359 169.975 129.319 169.78 129.239 169.63C129.159 169.47 129.044 169.345 128.894 169.255C128.754 169.165 128.589 169.1 128.399 169.06C128.209 169.02 128.009 169 127.799 169C127.459 169 127.149 169.04 126.869 169.12C126.599 169.2 126.369 169.295 126.179 169.405C125.989 169.515 125.839 169.61 125.729 169.69ZM137.016 170.8C137.016 170.23 136.891 169.8 136.641 169.51C136.391 169.22 136.026 169.075 135.546 169.075C135.196 169.075 134.886 169.15 134.616 169.3C134.356 169.44 134.151 169.64 134.001 169.9C133.861 170.16 133.791 170.46 133.791 170.8V175H132.591V168.1H133.791V169.18C134.021 168.76 134.306 168.45 134.646 168.25C134.996 168.05 135.396 167.95 135.846 167.95C136.576 167.95 137.151 168.195 137.571 168.685C138.001 169.165 138.216 169.82 138.216 170.65V175H137.016V170.8ZM145.647 163.3H146.847V175H145.647V163.3ZM139.872 171.55C139.872 170.8 140.027 170.16 140.337 169.63C140.647 169.09 141.062 168.675 141.582 168.385C142.102 168.095 142.672 167.95 143.292 167.95C143.872 167.95 144.377 168.095 144.807 168.385C145.237 168.675 145.572 169.09 145.812 169.63C146.062 170.16 146.187 170.8 146.187 171.55C146.187 172.29 146.062 172.93 145.812 173.47C145.572 174.01 145.237 174.425 144.807 174.715C144.377 175.005 143.872 175.15 143.292 175.15C142.672 175.15 142.102 175.005 141.582 174.715C141.062 174.425 140.647 174.01 140.337 173.47C140.027 172.93 139.872 172.29 139.872 171.55ZM141.087 171.55C141.087 172.08 141.192 172.53 141.402 172.9C141.622 173.27 141.912 173.55 142.272 173.74C142.632 173.93 143.022 174.025 143.442 174.025C143.792 174.025 144.137 173.93 144.477 173.74C144.817 173.55 145.097 173.27 145.317 172.9C145.537 172.53 145.647 172.08 145.647 171.55C145.647 171.02 145.537 170.57 145.317 170.2C145.097 169.83 144.817 169.55 144.477 169.36C144.137 169.17 143.792 169.075 143.442 169.075C143.022 169.075 142.632 169.17 142.272 169.36C141.912 169.55 141.622 169.83 141.402 170.2C141.192 170.57 141.087 171.02 141.087 171.55ZM153.808 172.885C153.948 173.095 154.108 173.29 154.288 173.47C154.468 173.65 154.673 173.795 154.903 173.905C155.143 174.005 155.403 174.055 155.683 174.055C156.023 174.055 156.288 173.98 156.478 173.83C156.678 173.67 156.778 173.455 156.778 173.185C156.778 172.945 156.698 172.745 156.538 172.585C156.388 172.415 156.193 172.275 155.953 172.165C155.713 172.045 155.458 171.935 155.188 171.835C154.888 171.715 154.583 171.575 154.273 171.415C153.973 171.245 153.718 171.03 153.508 170.77C153.308 170.5 153.208 170.165 153.208 169.765C153.208 169.355 153.313 169.015 153.523 168.745C153.743 168.475 154.023 168.275 154.363 168.145C154.713 168.015 155.073 167.95 155.443 167.95C155.813 167.95 156.158 168.01 156.478 168.13C156.808 168.25 157.098 168.41 157.348 168.61C157.598 168.81 157.793 169.04 157.933 169.3L156.973 169.915C156.783 169.655 156.543 169.44 156.253 169.27C155.973 169.1 155.653 169.015 155.293 169.015C155.043 169.015 154.828 169.07 154.648 169.18C154.468 169.29 154.378 169.46 154.378 169.69C154.378 169.87 154.448 170.03 154.588 170.17C154.728 170.31 154.908 170.435 155.128 170.545C155.348 170.655 155.578 170.76 155.818 170.86C156.218 171.02 156.583 171.195 156.913 171.385C157.243 171.565 157.503 171.785 157.693 172.045C157.893 172.305 157.993 172.64 157.993 173.05C157.993 173.65 157.773 174.15 157.333 174.55C156.903 174.95 156.333 175.15 155.623 175.15C155.163 175.15 154.748 175.07 154.378 174.91C154.008 174.74 153.693 174.525 153.433 174.265C153.183 174.005 152.993 173.74 152.863 173.47L153.808 172.885ZM158.523 168.1H161.973V169.225H158.523V168.1ZM159.648 165.7H160.848V175H159.648V165.7ZM163.717 172.87C163.717 173.13 163.777 173.355 163.897 173.545C164.027 173.735 164.202 173.88 164.422 173.98C164.652 174.07 164.912 174.115 165.202 174.115C165.572 174.115 165.902 174.04 166.192 173.89C166.492 173.74 166.727 173.53 166.897 173.26C167.077 172.98 167.167 172.66 167.167 172.3L167.407 173.2C167.407 173.64 167.272 174.005 167.002 174.295C166.742 174.585 166.417 174.8 166.027 174.94C165.647 175.08 165.267 175.15 164.887 175.15C164.467 175.15 164.072 175.065 163.702 174.895C163.342 174.715 163.052 174.46 162.832 174.13C162.612 173.8 162.502 173.4 162.502 172.93C162.502 172.26 162.737 171.725 163.207 171.325C163.687 170.915 164.352 170.71 165.202 170.71C165.702 170.71 166.117 170.77 166.447 170.89C166.787 171 167.057 171.13 167.257 171.28C167.457 171.42 167.592 171.535 167.662 171.625V172.33C167.312 172.09 166.952 171.92 166.582 171.82C166.212 171.71 165.817 171.655 165.397 171.655C165.007 171.655 164.687 171.705 164.437 171.805C164.197 171.905 164.017 172.045 163.897 172.225C163.777 172.405 163.717 172.62 163.717 172.87ZM163.537 169.69L162.952 168.805C163.212 168.615 163.567 168.425 164.017 168.235C164.477 168.045 165.027 167.95 165.667 167.95C166.207 167.95 166.677 168.035 167.077 168.205C167.487 168.365 167.802 168.6 168.022 168.91C168.252 169.22 168.367 169.6 168.367 170.05V175H167.167V170.215C167.167 169.975 167.127 169.78 167.047 169.63C166.967 169.47 166.852 169.345 166.702 169.255C166.562 169.165 166.397 169.1 166.207 169.06C166.017 169.02 165.817 169 165.607 169C165.267 169 164.957 169.04 164.677 169.12C164.407 169.2 164.177 169.295 163.987 169.405C163.797 169.515 163.647 169.61 163.537 169.69ZM169.933 175.45H171.148C171.148 175.78 171.238 176.085 171.418 176.365C171.598 176.655 171.853 176.885 172.183 177.055C172.513 177.235 172.903 177.325 173.353 177.325C173.703 177.325 174.048 177.24 174.388 177.07C174.728 176.9 175.008 176.63 175.228 176.26C175.458 175.9 175.573 175.43 175.573 174.85V168.1H176.773V174.85C176.773 175.64 176.608 176.3 176.278 176.83C175.948 177.37 175.523 177.775 175.003 178.045C174.483 178.315 173.933 178.45 173.353 178.45C172.683 178.45 172.088 178.325 171.568 178.075C171.058 177.825 170.658 177.47 170.368 177.01C170.078 176.56 169.933 176.04 169.933 175.45ZM169.798 171.55C169.798 170.8 169.953 170.16 170.263 169.63C170.573 169.09 170.988 168.675 171.508 168.385C172.028 168.095 172.598 167.95 173.218 167.95C173.798 167.95 174.303 168.095 174.733 168.385C175.163 168.675 175.498 169.09 175.738 169.63C175.988 170.16 176.113 170.8 176.113 171.55C176.113 172.29 175.988 172.93 175.738 173.47C175.498 174.01 175.163 174.425 174.733 174.715C174.303 175.005 173.798 175.15 173.218 175.15C172.598 175.15 172.028 175.005 171.508 174.715C170.988 174.425 170.573 174.01 170.263 173.47C169.953 172.93 169.798 172.29 169.798 171.55ZM171.013 171.55C171.013 172.08 171.118 172.53 171.328 172.9C171.548 173.27 171.838 173.55 172.198 173.74C172.558 173.93 172.948 174.025 173.368 174.025C173.718 174.025 174.063 173.93 174.403 173.74C174.743 173.55 175.023 173.27 175.243 172.9C175.463 172.53 175.573 172.08 175.573 171.55C175.573 171.15 175.508 170.8 175.378 170.5C175.248 170.19 175.073 169.93 174.853 169.72C174.643 169.51 174.408 169.35 174.148 169.24C173.888 169.13 173.628 169.075 173.368 169.075C172.948 169.075 172.558 169.17 172.198 169.36C171.838 169.55 171.548 169.83 171.328 170.2C171.118 170.57 171.013 171.02 171.013 171.55ZM183.378 170.8C183.378 170.23 183.253 169.8 183.003 169.51C182.753 169.22 182.388 169.075 181.908 169.075C181.558 169.075 181.248 169.15 180.978 169.3C180.718 169.44 180.513 169.64 180.363 169.9C180.223 170.16 180.153 170.46 180.153 170.8V175H178.953V168.1H180.153V169.18C180.383 168.76 180.668 168.45 181.008 168.25C181.358 168.05 181.758 167.95 182.208 167.95C182.938 167.95 183.513 168.195 183.933 168.685C184.363 169.165 184.578 169.82 184.578 170.65V175H183.378V170.8ZM187.374 172.87C187.374 173.13 187.434 173.355 187.554 173.545C187.684 173.735 187.859 173.88 188.079 173.98C188.309 174.07 188.569 174.115 188.859 174.115C189.229 174.115 189.559 174.04 189.849 173.89C190.149 173.74 190.384 173.53 190.554 173.26C190.734 172.98 190.824 172.66 190.824 172.3L191.064 173.2C191.064 173.64 190.929 174.005 190.659 174.295C190.399 174.585 190.074 174.8 189.684 174.94C189.304 175.08 188.924 175.15 188.544 175.15C188.124 175.15 187.729 175.065 187.359 174.895C186.999 174.715 186.709 174.46 186.489 174.13C186.269 173.8 186.159 173.4 186.159 172.93C186.159 172.26 186.394 171.725 186.864 171.325C187.344 170.915 188.009 170.71 188.859 170.71C189.359 170.71 189.774 170.77 190.104 170.89C190.444 171 190.714 171.13 190.914 171.28C191.114 171.42 191.249 171.535 191.319 171.625V172.33C190.969 172.09 190.609 171.92 190.239 171.82C189.869 171.71 189.474 171.655 189.054 171.655C188.664 171.655 188.344 171.705 188.094 171.805C187.854 171.905 187.674 172.045 187.554 172.225C187.434 172.405 187.374 172.62 187.374 172.87ZM187.194 169.69L186.609 168.805C186.869 168.615 187.224 168.425 187.674 168.235C188.134 168.045 188.684 167.95 189.324 167.95C189.864 167.95 190.334 168.035 190.734 168.205C191.144 168.365 191.459 168.6 191.679 168.91C191.909 169.22 192.024 169.6 192.024 170.05V175H190.824V170.215C190.824 169.975 190.784 169.78 190.704 169.63C190.624 169.47 190.509 169.345 190.359 169.255C190.219 169.165 190.054 169.1 189.864 169.06C189.674 169.02 189.474 169 189.264 169C188.924 169 188.614 169.04 188.334 169.12C188.064 169.2 187.834 169.295 187.644 169.405C187.454 169.515 187.304 169.61 187.194 169.69ZM193.006 168.1H196.456V169.225H193.006V168.1ZM194.131 165.7H195.331V175H194.131V165.7ZM197.659 165.25C197.659 165.02 197.739 164.825 197.899 164.665C198.069 164.505 198.264 164.425 198.484 164.425C198.714 164.425 198.909 164.505 199.069 164.665C199.229 164.825 199.309 165.02 199.309 165.25C199.309 165.47 199.229 165.665 199.069 165.835C198.909 165.995 198.714 166.075 198.484 166.075C198.264 166.075 198.069 165.995 197.899 165.835C197.739 165.665 197.659 165.47 197.659 165.25ZM197.884 168.1H199.084V175H197.884V168.1ZM200.956 171.55C200.956 170.85 201.111 170.23 201.421 169.69C201.741 169.15 202.171 168.725 202.711 168.415C203.251 168.105 203.856 167.95 204.526 167.95C205.206 167.95 205.811 168.105 206.341 168.415C206.881 168.725 207.306 169.15 207.616 169.69C207.936 170.23 208.096 170.85 208.096 171.55C208.096 172.24 207.936 172.86 207.616 173.41C207.306 173.95 206.881 174.375 206.341 174.685C205.811 174.995 205.206 175.15 204.526 175.15C203.856 175.15 203.251 174.995 202.711 174.685C202.171 174.375 201.741 173.95 201.421 173.41C201.111 172.86 200.956 172.24 200.956 171.55ZM202.171 171.55C202.171 172.03 202.271 172.455 202.471 172.825C202.681 173.195 202.961 173.49 203.311 173.71C203.671 173.92 204.076 174.025 204.526 174.025C204.976 174.025 205.376 173.92 205.726 173.71C206.086 173.49 206.366 173.195 206.566 172.825C206.776 172.455 206.881 172.03 206.881 171.55C206.881 171.07 206.776 170.645 206.566 170.275C206.366 169.895 206.086 169.6 205.726 169.39C205.376 169.18 204.976 169.075 204.526 169.075C204.076 169.075 203.671 169.18 203.311 169.39C202.961 169.6 202.681 169.895 202.471 170.275C202.271 170.645 202.171 171.07 202.171 171.55ZM214.169 170.8C214.169 170.23 214.044 169.8 213.794 169.51C213.544 169.22 213.179 169.075 212.699 169.075C212.349 169.075 212.039 169.15 211.769 169.3C211.509 169.44 211.304 169.64 211.154 169.9C211.014 170.16 210.944 170.46 210.944 170.8V175H209.744V168.1H210.944V169.18C211.174 168.76 211.459 168.45 211.799 168.25C212.149 168.05 212.549 167.95 212.999 167.95C213.729 167.95 214.304 168.195 214.724 168.685C215.154 169.165 215.369 169.82 215.369 170.65V175H214.169V170.8ZM217.925 174.4C217.925 174.17 218.005 173.975 218.165 173.815C218.335 173.655 218.53 173.575 218.75 173.575C218.98 173.575 219.175 173.655 219.335 173.815C219.495 173.975 219.575 174.17 219.575 174.4C219.575 174.62 219.495 174.815 219.335 174.985C219.175 175.145 218.98 175.225 218.75 175.225C218.53 175.225 218.335 175.145 218.165 174.985C218.005 174.815 217.925 174.62 217.925 174.4Z" fill="white" fill-opacity="0.7"/>
<circle cx="249" cy="74" r="20" stroke="#02D5FF" stroke-width="2"/>
<path d="M257.707 66.7071C258.098 66.3166 258.098 65.6834 257.707 65.2929C257.317 64.9024 256.683 64.9024 256.293 65.2929L257.707 66.7071ZM240 82C240 82.5523 240.448 83 241 83L250 83C250.552 83 251 82.5523 251 82C251 81.4477 250.552 81 250 81L242 81L242 73C242 72.4477 241.552 72 241 72C240.448 72 240 72.4477 240 73L240 82ZM256.293 65.2929L240.293 81.2929L241.707 82.7071L257.707 66.7071L256.293 65.2929Z" fill="#02D5FF"/>
</svg>
