<svg width="284" height="376" viewBox="0 0 284 376" fill="none" xmlns="http://www.w3.org/2000/svg">
<rect x="0.5" y="0.5" width="283" height="375" rx="39.5" stroke="#02D5FF"/>
<path d="M16 57.5H18.125V75H16V57.5ZM29.3779 68C29.3779 67.05 29.1696 66.3333 28.7529 65.85C28.3363 65.3667 27.7279 65.125 26.9279 65.125C26.3446 65.125 25.8279 65.25 25.3779 65.5C24.9446 65.7333 24.6029 66.0667 24.3529 66.5C24.1196 66.9333 24.0029 67.4333 24.0029 68V75H22.0029V63.5H24.0029V65.3C24.3863 64.6 24.8613 64.0833 25.4279 63.75C26.0113 63.4167 26.6779 63.25 27.4279 63.25C28.6446 63.25 29.6029 63.6583 30.3029 64.475C31.0196 65.275 31.3779 66.3667 31.3779 67.75V75H29.3779V68ZM42.5127 68C42.5127 67.05 42.3044 66.3333 41.8877 65.85C41.471 65.3667 40.8627 65.125 40.0627 65.125C39.4794 65.125 38.9627 65.25 38.5127 65.5C38.0794 65.7333 37.7377 66.0667 37.4877 66.5C37.2544 66.9333 37.1377 67.4333 37.1377 68V75H35.1377V63.5H37.1377V65.3C37.521 64.6 37.996 64.0833 38.5627 63.75C39.146 63.4167 39.8127 63.25 40.5627 63.25C41.7794 63.25 42.7377 63.6583 43.4377 64.475C44.1544 65.275 44.5127 66.3667 44.5127 67.75V75H42.5127V68ZM47.2725 69.25C47.2725 68.0833 47.5308 67.05 48.0475 66.15C48.5808 65.25 49.2975 64.5417 50.1975 64.025C51.0975 63.5083 52.1058 63.25 53.2225 63.25C54.3558 63.25 55.3641 63.5083 56.2475 64.025C57.1475 64.5417 57.8558 65.25 58.3725 66.15C58.9058 67.05 59.1725 68.0833 59.1725 69.25C59.1725 70.4 58.9058 71.4333 58.3725 72.35C57.8558 73.25 57.1475 73.9583 56.2475 74.475C55.3641 74.9917 54.3558 75.25 53.2225 75.25C52.1058 75.25 51.0975 74.9917 50.1975 74.475C49.2975 73.9583 48.5808 73.25 48.0475 72.35C47.5308 71.4333 47.2725 70.4 47.2725 69.25ZM49.2975 69.25C49.2975 70.05 49.4641 70.7583 49.7975 71.375C50.1475 71.9917 50.6141 72.4833 51.1975 72.85C51.7975 73.2 52.4725 73.375 53.2225 73.375C53.9725 73.375 54.6391 73.2 55.2225 72.85C55.8225 72.4833 56.2891 71.9917 56.6225 71.375C56.9725 70.7583 57.1475 70.05 57.1475 69.25C57.1475 68.45 56.9725 67.7417 56.6225 67.125C56.2891 66.4917 55.8225 66 55.2225 65.65C54.6391 65.3 53.9725 65.125 53.2225 65.125C52.4725 65.125 51.7975 65.3 51.1975 65.65C50.6141 66 50.1475 66.4917 49.7975 67.125C49.4641 67.7417 49.2975 68.45 49.2975 69.25ZM59.6787 63.5H61.9287L65.1787 71.625L68.4287 63.5H70.6787L65.1787 75.875L59.6787 63.5ZM73.4645 71.45C73.4645 71.8833 73.5645 72.2583 73.7645 72.575C73.9811 72.8917 74.2728 73.1333 74.6395 73.3C75.0228 73.45 75.4561 73.525 75.9395 73.525C76.5561 73.525 77.1061 73.4 77.5895 73.15C78.0895 72.9 78.4811 72.55 78.7645 72.1C79.0645 71.6333 79.2145 71.1 79.2145 70.5L79.6145 72C79.6145 72.7333 79.3895 73.3417 78.9395 73.825C78.5061 74.3083 77.9645 74.6667 77.3145 74.9C76.6811 75.1333 76.0478 75.25 75.4145 75.25C74.7145 75.25 74.0561 75.1083 73.4395 74.825C72.8395 74.525 72.3561 74.1 71.9895 73.55C71.6228 73 71.4395 72.3333 71.4395 71.55C71.4395 70.4333 71.8311 69.5417 72.6145 68.875C73.4145 68.1917 74.5228 67.85 75.9395 67.85C76.7728 67.85 77.4645 67.95 78.0145 68.15C78.5811 68.3333 79.0311 68.55 79.3645 68.8C79.6978 69.0333 79.9228 69.225 80.0395 69.375V70.55C79.4561 70.15 78.8561 69.8667 78.2395 69.7C77.6228 69.5167 76.9645 69.425 76.2645 69.425C75.6145 69.425 75.0811 69.5083 74.6645 69.675C74.2645 69.8417 73.9645 70.075 73.7645 70.375C73.5645 70.675 73.4645 71.0333 73.4645 71.45ZM73.1645 66.15L72.1895 64.675C72.6228 64.3583 73.2145 64.0417 73.9645 63.725C74.7311 63.4083 75.6478 63.25 76.7145 63.25C77.6145 63.25 78.3978 63.3917 79.0645 63.675C79.7478 63.9417 80.2728 64.3333 80.6395 64.85C81.0228 65.3667 81.2145 66 81.2145 66.75V75H79.2145V67.025C79.2145 66.625 79.1478 66.3 79.0145 66.05C78.8811 65.7833 78.6895 65.575 78.4395 65.425C78.2061 65.275 77.9311 65.1667 77.6145 65.1C77.2978 65.0333 76.9645 65 76.6145 65C76.0478 65 75.5311 65.0667 75.0645 65.2C74.6145 65.3333 74.2311 65.4917 73.9145 65.675C73.5978 65.8583 73.3478 66.0167 73.1645 66.15ZM82.8506 63.5H88.6006V65.375H82.8506V63.5ZM84.7256 59.5H86.7256V75H84.7256V59.5ZM90.6064 58.75C90.6064 58.3667 90.7398 58.0417 91.0064 57.775C91.2898 57.5083 91.6148 57.375 91.9814 57.375C92.3648 57.375 92.6898 57.5083 92.9564 57.775C93.2231 58.0417 93.3564 58.3667 93.3564 58.75C93.3564 59.1167 93.2231 59.4417 92.9564 59.725C92.6898 59.9917 92.3648 60.125 91.9814 60.125C91.6148 60.125 91.2898 59.9917 91.0064 59.725C90.7398 59.4417 90.6064 59.1167 90.6064 58.75ZM90.9814 63.5H92.9814V75H90.9814V63.5ZM95.2256 63.5H97.4756L100.726 71.625L103.976 63.5H106.226L100.726 75.875L95.2256 63.5ZM112.195 75.25C111.128 75.25 110.178 75 109.345 74.5C108.528 73.9833 107.887 73.275 107.42 72.375C106.97 71.475 106.745 70.4333 106.745 69.25C106.745 68.05 106.978 67 107.445 66.1C107.928 65.2 108.595 64.5 109.445 64C110.312 63.5 111.312 63.25 112.445 63.25C113.578 63.25 114.545 63.4917 115.345 63.975C116.162 64.4417 116.787 65.1167 117.22 66C117.653 66.8833 117.87 67.9333 117.87 69.15C117.87 69.2667 117.862 69.3917 117.845 69.525C117.845 69.6417 117.845 69.7167 117.845 69.75H108.02V68.05H116.27L115.47 69.2C115.52 69.1167 115.57 68.9917 115.62 68.825C115.67 68.6417 115.695 68.4917 115.695 68.375C115.695 67.6917 115.553 67.1 115.27 66.6C115.003 66.1 114.628 65.7083 114.145 65.425C113.662 65.1417 113.095 65 112.445 65C111.678 65 111.02 65.1667 110.47 65.5C109.937 65.8167 109.52 66.2833 109.22 66.9C108.937 67.5 108.787 68.2417 108.77 69.125C108.77 70.025 108.912 70.7917 109.195 71.425C109.478 72.0583 109.895 72.5417 110.445 72.875C110.995 73.2083 111.662 73.375 112.445 73.375C113.228 73.375 113.92 73.2083 114.52 72.875C115.12 72.525 115.628 72 116.045 71.3L117.67 72.325C117.07 73.2917 116.312 74.025 115.395 74.525C114.495 75.0083 113.428 75.25 112.195 75.25ZM16.35 107.475C16.5833 107.825 16.85 108.15 17.15 108.45C17.45 108.75 17.7917 108.992 18.175 109.175C18.575 109.342 19.0083 109.425 19.475 109.425C20.0417 109.425 20.4833 109.3 20.8 109.05C21.1333 108.783 21.3 108.425 21.3 107.975C21.3 107.575 21.1667 107.242 20.9 106.975C20.65 106.692 20.325 106.458 19.925 106.275C19.525 106.075 19.1 105.892 18.65 105.725C18.15 105.525 17.6417 105.292 17.125 105.025C16.625 104.742 16.2 104.383 15.85 103.95C15.5167 103.5 15.35 102.942 15.35 102.275C15.35 101.592 15.525 101.025 15.875 100.575C16.2417 100.125 16.7083 99.7917 17.275 99.575C17.8583 99.3583 18.4583 99.25 19.075 99.25C19.6917 99.25 20.2667 99.35 20.8 99.55C21.35 99.75 21.8333 100.017 22.25 100.35C22.6667 100.683 22.9917 101.067 23.225 101.5L21.625 102.525C21.3083 102.092 20.9083 101.733 20.425 101.45C19.9583 101.167 19.425 101.025 18.825 101.025C18.4083 101.025 18.05 101.117 17.75 101.3C17.45 101.483 17.3 101.767 17.3 102.15C17.3 102.45 17.4167 102.717 17.65 102.95C17.8833 103.183 18.1833 103.392 18.55 103.575C18.9167 103.758 19.3 103.933 19.7 104.1C20.3667 104.367 20.975 104.658 21.525 104.975C22.075 105.275 22.5083 105.642 22.825 106.075C23.1583 106.508 23.325 107.067 23.325 107.75C23.325 108.75 22.9583 109.583 22.225 110.25C21.5083 110.917 20.5583 111.25 19.375 111.25C18.6083 111.25 17.9167 111.117 17.3 110.85C16.6833 110.567 16.1583 110.208 15.725 109.775C15.3083 109.342 14.9917 108.9 14.775 108.45L16.35 107.475ZM24.208 99.5H29.958V101.375H24.208V99.5ZM26.083 95.5H28.083V111H26.083V95.5ZM33.9639 99.5V111H31.9639V99.5H33.9639ZM37.4389 101.7C37.1722 101.5 36.9305 101.358 36.7139 101.275C36.4972 101.175 36.2222 101.125 35.8889 101.125C35.3889 101.125 34.9972 101.25 34.7139 101.5C34.4305 101.75 34.2305 102.092 34.1139 102.525C34.0139 102.958 33.9639 103.45 33.9639 104H33.0639C33.0639 103.083 33.2222 102.275 33.5389 101.575C33.8722 100.858 34.2972 100.292 34.8139 99.875C35.3305 99.4583 35.8555 99.25 36.3889 99.25C36.8055 99.25 37.1889 99.3083 37.5389 99.425C37.9055 99.525 38.2389 99.7333 38.5389 100.05L37.4389 101.7ZM41.4332 107.45C41.4332 107.883 41.5332 108.258 41.7332 108.575C41.9499 108.892 42.2415 109.133 42.6082 109.3C42.9915 109.45 43.4249 109.525 43.9082 109.525C44.5249 109.525 45.0749 109.4 45.5582 109.15C46.0582 108.9 46.4499 108.55 46.7332 108.1C47.0332 107.633 47.1832 107.1 47.1832 106.5L47.5832 108C47.5832 108.733 47.3582 109.342 46.9082 109.825C46.4749 110.308 45.9332 110.667 45.2832 110.9C44.6499 111.133 44.0165 111.25 43.3832 111.25C42.6832 111.25 42.0249 111.108 41.4082 110.825C40.8082 110.525 40.3249 110.1 39.9582 109.55C39.5915 109 39.4082 108.333 39.4082 107.55C39.4082 106.433 39.7999 105.542 40.5832 104.875C41.3832 104.192 42.4915 103.85 43.9082 103.85C44.7415 103.85 45.4332 103.95 45.9832 104.15C46.5499 104.333 46.9999 104.55 47.3332 104.8C47.6665 105.033 47.8915 105.225 48.0082 105.375V106.55C47.4249 106.15 46.8249 105.867 46.2082 105.7C45.5915 105.517 44.9332 105.425 44.2332 105.425C43.5832 105.425 43.0499 105.508 42.6332 105.675C42.2332 105.842 41.9332 106.075 41.7332 106.375C41.5332 106.675 41.4332 107.033 41.4332 107.45ZM41.1332 102.15L40.1582 100.675C40.5915 100.358 41.1832 100.042 41.9332 99.725C42.6999 99.4083 43.6165 99.25 44.6832 99.25C45.5832 99.25 46.3665 99.3917 47.0332 99.675C47.7165 99.9417 48.2415 100.333 48.6082 100.85C48.9915 101.367 49.1832 102 49.1832 102.75V111H47.1832V103.025C47.1832 102.625 47.1165 102.3 46.9832 102.05C46.8499 101.783 46.6582 101.575 46.4082 101.425C46.1749 101.275 45.8999 101.167 45.5832 101.1C45.2665 101.033 44.9332 101 44.5832 101C44.0165 101 43.4999 101.067 43.0332 101.2C42.5832 101.333 42.1999 101.492 41.8832 101.675C41.5665 101.858 41.3165 102.017 41.1332 102.15ZM50.8193 99.5H56.5693V101.375H50.8193V99.5ZM52.6943 95.5H54.6943V111H52.6943V95.5ZM63.0252 111.25C61.9585 111.25 61.0085 111 60.1752 110.5C59.3585 109.983 58.7169 109.275 58.2502 108.375C57.8002 107.475 57.5752 106.433 57.5752 105.25C57.5752 104.05 57.8085 103 58.2752 102.1C58.7585 101.2 59.4252 100.5 60.2752 100C61.1419 99.5 62.1419 99.25 63.2752 99.25C64.4085 99.25 65.3752 99.4917 66.1752 99.975C66.9919 100.442 67.6169 101.117 68.0502 102C68.4835 102.883 68.7002 103.933 68.7002 105.15C68.7002 105.267 68.6919 105.392 68.6752 105.525C68.6752 105.642 68.6752 105.717 68.6752 105.75H58.8502V104.05H67.1002L66.3002 105.2C66.3502 105.117 66.4002 104.992 66.4502 104.825C66.5002 104.642 66.5252 104.492 66.5252 104.375C66.5252 103.692 66.3835 103.1 66.1002 102.6C65.8335 102.1 65.4585 101.708 64.9752 101.425C64.4919 101.142 63.9252 101 63.2752 101C62.5085 101 61.8502 101.167 61.3002 101.5C60.7669 101.817 60.3502 102.283 60.0502 102.9C59.7669 103.5 59.6169 104.242 59.6002 105.125C59.6002 106.025 59.7419 106.792 60.0252 107.425C60.3085 108.058 60.7252 108.542 61.2752 108.875C61.8252 109.208 62.4919 109.375 63.2752 109.375C64.0585 109.375 64.7502 109.208 65.3502 108.875C65.9502 108.525 66.4585 108 66.8752 107.3L68.5002 108.325C67.9002 109.292 67.1419 110.025 66.2252 110.525C65.3252 111.008 64.2585 111.25 63.0252 111.25ZM70.6664 111.75H72.6914C72.6914 112.3 72.8414 112.808 73.1414 113.275C73.4414 113.758 73.8664 114.142 74.4164 114.425C74.9664 114.725 75.6164 114.875 76.3664 114.875C76.9497 114.875 77.5247 114.733 78.0914 114.45C78.6581 114.167 79.1247 113.717 79.4914 113.1C79.8747 112.5 80.0664 111.717 80.0664 110.75V99.5H82.0664V110.75C82.0664 112.067 81.7914 113.167 81.2414 114.05C80.6914 114.95 79.9831 115.625 79.1164 116.075C78.2497 116.525 77.3331 116.75 76.3664 116.75C75.2497 116.75 74.2581 116.542 73.3914 116.125C72.5414 115.708 71.8747 115.117 71.3914 114.35C70.9081 113.6 70.6664 112.733 70.6664 111.75ZM70.4414 105.25C70.4414 104 70.6997 102.933 71.2164 102.05C71.7331 101.15 72.4247 100.458 73.2914 99.975C74.1581 99.4917 75.1081 99.25 76.1414 99.25C77.1081 99.25 77.9497 99.4917 78.6664 99.975C79.3831 100.458 79.9414 101.15 80.3414 102.05C80.7581 102.933 80.9664 104 80.9664 105.25C80.9664 106.483 80.7581 107.55 80.3414 108.45C79.9414 109.35 79.3831 110.042 78.6664 110.525C77.9497 111.008 77.1081 111.25 76.1414 111.25C75.1081 111.25 74.1581 111.008 73.2914 110.525C72.4247 110.042 71.7331 109.35 71.2164 108.45C70.6997 107.55 70.4414 106.483 70.4414 105.25ZM72.4664 105.25C72.4664 106.133 72.6414 106.883 72.9914 107.5C73.3581 108.117 73.8414 108.583 74.4414 108.9C75.0414 109.217 75.6914 109.375 76.3914 109.375C76.9747 109.375 77.5497 109.217 78.1164 108.9C78.6831 108.583 79.1497 108.117 79.5164 107.5C79.8831 106.883 80.0664 106.133 80.0664 105.25C80.0664 104.583 79.9581 104 79.7414 103.5C79.5247 102.983 79.2331 102.55 78.8664 102.2C78.5164 101.85 78.1247 101.583 77.6914 101.4C77.2581 101.217 76.8247 101.125 76.3914 101.125C75.6914 101.125 75.0414 101.283 74.4414 101.6C73.8414 101.917 73.3581 102.383 72.9914 103C72.6414 103.617 72.4664 104.367 72.4664 105.25ZM85.6992 94.75C85.6992 94.3667 85.8326 94.0417 86.0992 93.775C86.3826 93.5083 86.7076 93.375 87.0742 93.375C87.4576 93.375 87.7826 93.5083 88.0492 93.775C88.3159 94.0417 88.4492 94.3667 88.4492 94.75C88.4492 95.1167 88.3159 95.4417 88.0492 95.725C87.7826 95.9917 87.4576 96.125 87.0742 96.125C86.7076 96.125 86.3826 95.9917 86.0992 95.725C85.8326 95.4417 85.6992 95.1167 85.6992 94.75ZM86.0742 99.5H88.0742V111H86.0742V99.5ZM96.6434 111.25C95.5767 111.25 94.6267 111 93.7934 110.5C92.9767 109.983 92.335 109.275 91.8684 108.375C91.4184 107.475 91.1934 106.433 91.1934 105.25C91.1934 104.05 91.4267 103 91.8934 102.1C92.3767 101.2 93.0434 100.5 93.8934 100C94.76 99.5 95.76 99.25 96.8934 99.25C98.0267 99.25 98.9934 99.4917 99.7934 99.975C100.61 100.442 101.235 101.117 101.668 102C102.102 102.883 102.318 103.933 102.318 105.15C102.318 105.267 102.31 105.392 102.293 105.525C102.293 105.642 102.293 105.717 102.293 105.75H92.4684V104.05H100.718L99.9184 105.2C99.9684 105.117 100.018 104.992 100.068 104.825C100.118 104.642 100.143 104.492 100.143 104.375C100.143 103.692 100.002 103.1 99.7184 102.6C99.4517 102.1 99.0767 101.708 98.5934 101.425C98.11 101.142 97.5434 101 96.8934 101C96.1267 101 95.4684 101.167 94.9184 101.5C94.385 101.817 93.9684 102.283 93.6684 102.9C93.385 103.5 93.235 104.242 93.2184 105.125C93.2184 106.025 93.36 106.792 93.6434 107.425C93.9267 108.058 94.3434 108.542 94.8934 108.875C95.4434 109.208 96.11 109.375 96.8934 109.375C97.6767 109.375 98.3684 109.208 98.9684 108.875C99.5684 108.525 100.077 108 100.493 107.3L102.118 108.325C101.518 109.292 100.76 110.025 99.8434 110.525C98.9434 111.008 97.8767 111.25 96.6434 111.25ZM105.535 107.475C105.768 107.825 106.035 108.15 106.335 108.45C106.635 108.75 106.976 108.992 107.36 109.175C107.76 109.342 108.193 109.425 108.66 109.425C109.226 109.425 109.668 109.3 109.985 109.05C110.318 108.783 110.485 108.425 110.485 107.975C110.485 107.575 110.351 107.242 110.085 106.975C109.835 106.692 109.51 106.458 109.11 106.275C108.71 106.075 108.285 105.892 107.835 105.725C107.335 105.525 106.826 105.292 106.31 105.025C105.81 104.742 105.385 104.383 105.035 103.95C104.701 103.5 104.535 102.942 104.535 102.275C104.535 101.592 104.71 101.025 105.06 100.575C105.426 100.125 105.893 99.7917 106.46 99.575C107.043 99.3583 107.643 99.25 108.26 99.25C108.876 99.25 109.451 99.35 109.985 99.55C110.535 99.75 111.018 100.017 111.435 100.35C111.851 100.683 112.176 101.067 112.41 101.5L110.81 102.525C110.493 102.092 110.093 101.733 109.61 101.45C109.143 101.167 108.61 101.025 108.01 101.025C107.593 101.025 107.235 101.117 106.935 101.3C106.635 101.483 106.485 101.767 106.485 102.15C106.485 102.45 106.601 102.717 106.835 102.95C107.068 103.183 107.368 103.392 107.735 103.575C108.101 103.758 108.485 103.933 108.885 104.1C109.551 104.367 110.16 104.658 110.71 104.975C111.26 105.275 111.693 105.642 112.01 106.075C112.343 106.508 112.51 107.067 112.51 107.75C112.51 108.75 112.143 109.583 111.41 110.25C110.693 110.917 109.743 111.25 108.56 111.25C107.793 111.25 107.101 111.117 106.485 110.85C105.868 110.567 105.343 110.208 104.91 109.775C104.493 109.342 104.176 108.9 103.96 108.45L105.535 107.475Z" fill="white"/>
<path d="M15.04 33.9H16.145V43H15.04V33.9ZM17.77 43H15.651V41.895H17.77C18.2813 41.895 18.7493 41.817 19.174 41.661C19.5987 41.4963 19.9627 41.2667 20.266 40.972C20.5693 40.6687 20.8033 40.3047 20.968 39.88C21.1327 39.4553 21.215 38.9787 21.215 38.45C21.215 37.9213 21.1327 37.4447 20.968 37.02C20.8033 36.5953 20.5693 36.2357 20.266 35.941C19.9627 35.6377 19.5987 35.408 19.174 35.252C18.7493 35.0873 18.2813 35.005 17.77 35.005H15.651V33.9H17.77C18.654 33.9 19.4383 34.0907 20.123 34.472C20.8077 34.8533 21.345 35.3863 21.735 36.071C22.125 36.747 22.32 37.54 22.32 38.45C22.32 39.36 22.125 40.1573 21.735 40.842C21.345 41.518 20.8077 42.0467 20.123 42.428C19.4383 42.8093 18.654 43 17.77 43ZM23.8109 34.55C23.8109 34.3507 23.8803 34.1817 24.0189 34.043C24.1663 33.9043 24.3353 33.835 24.5259 33.835C24.7253 33.835 24.8943 33.9043 25.0329 34.043C25.1716 34.1817 25.2409 34.3507 25.2409 34.55C25.2409 34.7407 25.1716 34.9097 25.0329 35.057C24.8943 35.1957 24.7253 35.265 24.5259 35.265C24.3353 35.265 24.1663 35.1957 24.0189 35.057C23.8803 34.9097 23.8109 34.7407 23.8109 34.55ZM24.0059 37.02H25.0459V43H24.0059V37.02ZM26.7329 37.02H29.7229V37.995H26.7329V37.02ZM29.6189 34.108C29.5322 33.9607 29.4282 33.8697 29.3069 33.835C29.1942 33.7917 29.0859 33.77 28.9819 33.77C28.8519 33.77 28.7392 33.809 28.6439 33.887C28.5572 33.9563 28.4879 34.0777 28.4359 34.251C28.3839 34.4243 28.3579 34.654 28.3579 34.94V43H27.3179V34.81C27.3179 34.3333 27.3872 33.9433 27.5259 33.64C27.6646 33.3367 27.8596 33.1113 28.1109 32.964C28.3709 32.808 28.6829 32.73 29.0469 32.73C29.2376 32.73 29.4066 32.756 29.5539 32.808C29.7012 32.86 29.8269 32.925 29.9309 33.003C30.0436 33.081 30.1302 33.1633 30.1909 33.25L29.6189 34.108ZM30.4526 37.02H33.4426V37.995H30.4526V37.02ZM33.3386 34.108C33.252 33.9607 33.148 33.8697 33.0266 33.835C32.914 33.7917 32.8056 33.77 32.7016 33.77C32.5716 33.77 32.459 33.809 32.3636 33.887C32.277 33.9563 32.2076 34.0777 32.1556 34.251C32.1036 34.4243 32.0776 34.654 32.0776 34.94V43H31.0376V34.81C31.0376 34.3333 31.107 33.9433 31.2456 33.64C31.3843 33.3367 31.5793 33.1113 31.8306 32.964C32.0906 32.808 32.4026 32.73 32.7666 32.73C32.9573 32.73 33.1263 32.756 33.2736 32.808C33.421 32.86 33.5466 32.925 33.6506 33.003C33.7633 33.081 33.85 33.1633 33.9106 33.25L33.3386 34.108ZM36.9413 43.13C36.3867 43.13 35.8927 43 35.4593 42.74C35.0347 42.4713 34.701 42.103 34.4583 41.635C34.2243 41.167 34.1073 40.6253 34.1073 40.01C34.1073 39.386 34.2287 38.84 34.4713 38.372C34.7227 37.904 35.0693 37.54 35.5113 37.28C35.962 37.02 36.482 36.89 37.0713 36.89C37.6607 36.89 38.1633 37.0157 38.5793 37.267C39.004 37.5097 39.329 37.8607 39.5543 38.32C39.7797 38.7793 39.8923 39.3253 39.8923 39.958C39.8923 40.0187 39.888 40.0837 39.8793 40.153C39.8793 40.2137 39.8793 40.2527 39.8793 40.27H34.7703V39.386H39.0603L38.6443 39.984C38.6703 39.9407 38.6963 39.8757 38.7223 39.789C38.7483 39.6937 38.7613 39.6157 38.7613 39.555C38.7613 39.1997 38.6877 38.892 38.5403 38.632C38.4017 38.372 38.2067 38.1683 37.9553 38.021C37.704 37.8737 37.4093 37.8 37.0713 37.8C36.6727 37.8 36.3303 37.8867 36.0443 38.06C35.767 38.2247 35.5503 38.4673 35.3943 38.788C35.247 39.1 35.169 39.4857 35.1603 39.945C35.1603 40.413 35.234 40.8117 35.3813 41.141C35.5287 41.4703 35.7453 41.7217 36.0313 41.895C36.3173 42.0683 36.664 42.155 37.0713 42.155C37.4787 42.155 37.8383 42.0683 38.1503 41.895C38.4623 41.713 38.7267 41.44 38.9433 41.076L39.7883 41.609C39.4763 42.1117 39.082 42.493 38.6053 42.753C38.1373 43.0043 37.5827 43.13 36.9413 43.13ZM42.3578 37.02V43H41.3178V37.02H42.3578ZM44.1648 38.164C44.0261 38.06 43.9004 37.9863 43.7878 37.943C43.6751 37.891 43.5321 37.865 43.3588 37.865C43.0988 37.865 42.8951 37.93 42.7478 38.06C42.6004 38.19 42.4964 38.3677 42.4358 38.593C42.3838 38.8183 42.3578 39.074 42.3578 39.36H41.8898C41.8898 38.8833 41.9721 38.463 42.1368 38.099C42.3101 37.7263 42.5311 37.4317 42.7998 37.215C43.0684 36.9983 43.3414 36.89 43.6188 36.89C43.8354 36.89 44.0348 36.9203 44.2168 36.981C44.4074 37.033 44.5808 37.1413 44.7368 37.306L44.1648 38.164ZM47.8974 43.13C47.3427 43.13 46.8487 43 46.4154 42.74C45.9907 42.4713 45.6571 42.103 45.4144 41.635C45.1804 41.167 45.0634 40.6253 45.0634 40.01C45.0634 39.386 45.1847 38.84 45.4274 38.372C45.6787 37.904 46.0254 37.54 46.4674 37.28C46.9181 37.02 47.4381 36.89 48.0274 36.89C48.6167 36.89 49.1194 37.0157 49.5354 37.267C49.9601 37.5097 50.2851 37.8607 50.5104 38.32C50.7357 38.7793 50.8484 39.3253 50.8484 39.958C50.8484 40.0187 50.8441 40.0837 50.8354 40.153C50.8354 40.2137 50.8354 40.2527 50.8354 40.27H45.7264V39.386H50.0164L49.6004 39.984C49.6264 39.9407 49.6524 39.8757 49.6784 39.789C49.7044 39.6937 49.7174 39.6157 49.7174 39.555C49.7174 39.1997 49.6437 38.892 49.4964 38.632C49.3577 38.372 49.1627 38.1683 48.9114 38.021C48.6601 37.8737 48.3654 37.8 48.0274 37.8C47.6287 37.8 47.2864 37.8867 47.0004 38.06C46.7231 38.2247 46.5064 38.4673 46.3504 38.788C46.2031 39.1 46.1251 39.4857 46.1164 39.945C46.1164 40.413 46.1901 40.8117 46.3374 41.141C46.4847 41.4703 46.7014 41.7217 46.9874 41.895C47.2734 42.0683 47.6201 42.155 48.0274 42.155C48.4347 42.155 48.7944 42.0683 49.1064 41.895C49.4184 41.713 49.6827 41.44 49.8994 41.076L50.7444 41.609C50.4324 42.1117 50.0381 42.493 49.5614 42.753C49.0934 43.0043 48.5387 43.13 47.8974 43.13ZM56.1088 39.36C56.1088 38.866 56.0005 38.4933 55.7838 38.242C55.5672 37.9907 55.2508 37.865 54.8348 37.865C54.5315 37.865 54.2628 37.93 54.0288 38.06C53.8035 38.1813 53.6258 38.3547 53.4958 38.58C53.3745 38.8053 53.3138 39.0653 53.3138 39.36V43H52.2738V37.02H53.3138V37.956C53.5132 37.592 53.7602 37.3233 54.0548 37.15C54.3582 36.9767 54.7048 36.89 55.0948 36.89C55.7275 36.89 56.2258 37.1023 56.5898 37.527C56.9625 37.943 57.1488 38.5107 57.1488 39.23V43H56.1088V39.36ZM58.1939 37.02H61.1839V37.995H58.1939V37.02ZM59.1689 34.94H60.2089V43H59.1689V34.94Z" fill="white"/>
<path d="M15.95 134.75C15.95 135.56 16.13 136.275 16.49 136.895C16.86 137.515 17.34 138 17.93 138.35C18.52 138.7 19.16 138.875 19.85 138.875C20.35 138.875 20.805 138.81 21.215 138.68C21.635 138.55 22.015 138.37 22.355 138.14C22.695 137.9 22.985 137.625 23.225 137.315V138.995C22.785 139.385 22.305 139.675 21.785 139.865C21.265 140.055 20.62 140.15 19.85 140.15C19.12 140.15 18.435 140.02 17.795 139.76C17.165 139.49 16.61 139.115 16.13 138.635C15.65 138.145 15.275 137.57 15.005 136.91C14.735 136.25 14.6 135.53 14.6 134.75C14.6 133.97 14.735 133.25 15.005 132.59C15.275 131.93 15.65 131.36 16.13 130.88C16.61 130.39 17.165 130.015 17.795 129.755C18.435 129.485 19.12 129.35 19.85 129.35C20.62 129.35 21.265 129.445 21.785 129.635C22.305 129.825 22.785 130.115 23.225 130.505V132.185C22.985 131.875 22.695 131.605 22.355 131.375C22.015 131.135 21.635 130.95 21.215 130.82C20.805 130.69 20.35 130.625 19.85 130.625C19.16 130.625 18.52 130.8 17.93 131.15C17.34 131.5 16.86 131.985 16.49 132.605C16.13 133.215 15.95 133.93 15.95 134.75ZM26.5936 128.3V140H25.3936V128.3H26.5936ZM29.8186 135.8C29.8186 135.23 29.6936 134.8 29.4436 134.51C29.2036 134.22 28.8386 134.075 28.3486 134.075C27.9986 134.075 27.6886 134.15 27.4186 134.3C27.1586 134.45 26.9536 134.655 26.8036 134.915C26.6636 135.175 26.5936 135.47 26.5936 135.8H26.2036C26.2036 135.25 26.3086 134.765 26.5186 134.345C26.7286 133.915 27.0136 133.575 27.3736 133.325C27.7436 133.075 28.1686 132.95 28.6486 132.95C29.1286 132.95 29.5436 133.05 29.8936 133.25C30.2536 133.45 30.5286 133.75 30.7186 134.15C30.9186 134.55 31.0186 135.05 31.0186 135.65V140H29.8186V135.8ZM32.6744 136.55C32.6744 135.85 32.8294 135.23 33.1394 134.69C33.4594 134.15 33.8894 133.725 34.4294 133.415C34.9694 133.105 35.5744 132.95 36.2444 132.95C36.9244 132.95 37.5294 133.105 38.0594 133.415C38.5994 133.725 39.0244 134.15 39.3344 134.69C39.6544 135.23 39.8144 135.85 39.8144 136.55C39.8144 137.24 39.6544 137.86 39.3344 138.41C39.0244 138.95 38.5994 139.375 38.0594 139.685C37.5294 139.995 36.9244 140.15 36.2444 140.15C35.5744 140.15 34.9694 139.995 34.4294 139.685C33.8894 139.375 33.4594 138.95 33.1394 138.41C32.8294 137.86 32.6744 137.24 32.6744 136.55ZM33.8894 136.55C33.8894 137.03 33.9894 137.455 34.1894 137.825C34.3994 138.195 34.6794 138.49 35.0294 138.71C35.3894 138.92 35.7944 139.025 36.2444 139.025C36.6944 139.025 37.0944 138.92 37.4444 138.71C37.8044 138.49 38.0844 138.195 38.2844 137.825C38.4944 137.455 38.5994 137.03 38.5994 136.55C38.5994 136.07 38.4944 135.645 38.2844 135.275C38.0844 134.895 37.8044 134.6 37.4444 134.39C37.0944 134.18 36.6944 134.075 36.2444 134.075C35.7944 134.075 35.3894 134.18 35.0294 134.39C34.6794 134.6 34.3994 134.895 34.1894 135.275C33.9894 135.645 33.8894 136.07 33.8894 136.55ZM40.8629 136.55C40.8629 135.85 41.0179 135.23 41.3279 134.69C41.6479 134.15 42.0779 133.725 42.6179 133.415C43.1579 133.105 43.7629 132.95 44.4329 132.95C45.1129 132.95 45.7179 133.105 46.2479 133.415C46.7879 133.725 47.2129 134.15 47.5229 134.69C47.8429 135.23 48.0029 135.85 48.0029 136.55C48.0029 137.24 47.8429 137.86 47.5229 138.41C47.2129 138.95 46.7879 139.375 46.2479 139.685C45.7179 139.995 45.1129 140.15 44.4329 140.15C43.7629 140.15 43.1579 139.995 42.6179 139.685C42.0779 139.375 41.6479 138.95 41.3279 138.41C41.0179 137.86 40.8629 137.24 40.8629 136.55ZM42.0779 136.55C42.0779 137.03 42.1779 137.455 42.3779 137.825C42.5879 138.195 42.8679 138.49 43.2179 138.71C43.5779 138.92 43.9829 139.025 44.4329 139.025C44.8829 139.025 45.2829 138.92 45.6329 138.71C45.9929 138.49 46.2729 138.195 46.4729 137.825C46.6829 137.455 46.7879 137.03 46.7879 136.55C46.7879 136.07 46.6829 135.645 46.4729 135.275C46.2729 134.895 45.9929 134.6 45.6329 134.39C45.2829 134.18 44.8829 134.075 44.4329 134.075C43.9829 134.075 43.5779 134.18 43.2179 134.39C42.8679 134.6 42.5879 134.895 42.3779 135.275C42.1779 135.645 42.0779 136.07 42.0779 136.55ZM49.9364 137.885C50.0764 138.095 50.2364 138.29 50.4164 138.47C50.5964 138.65 50.8014 138.795 51.0314 138.905C51.2714 139.005 51.5314 139.055 51.8114 139.055C52.1514 139.055 52.4164 138.98 52.6064 138.83C52.8064 138.67 52.9064 138.455 52.9064 138.185C52.9064 137.945 52.8264 137.745 52.6664 137.585C52.5164 137.415 52.3214 137.275 52.0814 137.165C51.8414 137.045 51.5864 136.935 51.3164 136.835C51.0164 136.715 50.7114 136.575 50.4014 136.415C50.1014 136.245 49.8464 136.03 49.6364 135.77C49.4364 135.5 49.3364 135.165 49.3364 134.765C49.3364 134.355 49.4414 134.015 49.6514 133.745C49.8714 133.475 50.1514 133.275 50.4914 133.145C50.8414 133.015 51.2014 132.95 51.5714 132.95C51.9414 132.95 52.2864 133.01 52.6064 133.13C52.9364 133.25 53.2264 133.41 53.4764 133.61C53.7264 133.81 53.9214 134.04 54.0614 134.3L53.1014 134.915C52.9114 134.655 52.6714 134.44 52.3814 134.27C52.1014 134.1 51.7814 134.015 51.4214 134.015C51.1714 134.015 50.9564 134.07 50.7764 134.18C50.5964 134.29 50.5064 134.46 50.5064 134.69C50.5064 134.87 50.5764 135.03 50.7164 135.17C50.8564 135.31 51.0364 135.435 51.2564 135.545C51.4764 135.655 51.7064 135.76 51.9464 135.86C52.3464 136.02 52.7114 136.195 53.0414 136.385C53.3714 136.565 53.6314 136.785 53.8214 137.045C54.0214 137.305 54.1214 137.64 54.1214 138.05C54.1214 138.65 53.9014 139.15 53.4614 139.55C53.0314 139.95 52.4614 140.15 51.7514 140.15C51.2914 140.15 50.8764 140.07 50.5064 139.91C50.1364 139.74 49.8214 139.525 49.5614 139.265C49.3114 139.005 49.1214 138.74 48.9914 138.47L49.9364 137.885ZM55.7012 130.25C55.7012 130.02 55.7812 129.825 55.9412 129.665C56.1112 129.505 56.3062 129.425 56.5262 129.425C56.7562 129.425 56.9512 129.505 57.1112 129.665C57.2712 129.825 57.3512 130.02 57.3512 130.25C57.3512 130.47 57.2712 130.665 57.1112 130.835C56.9512 130.995 56.7562 131.075 56.5262 131.075C56.3062 131.075 56.1112 130.995 55.9412 130.835C55.7812 130.665 55.7012 130.47 55.7012 130.25ZM55.9262 133.1H57.1262V140H55.9262V133.1ZM64.0227 135.8C64.0227 135.23 63.8977 134.8 63.6477 134.51C63.3977 134.22 63.0327 134.075 62.5527 134.075C62.2027 134.075 61.8927 134.15 61.6227 134.3C61.3627 134.44 61.1577 134.64 61.0077 134.9C60.8677 135.16 60.7977 135.46 60.7977 135.8V140H59.5977V133.1H60.7977V134.18C61.0277 133.76 61.3127 133.45 61.6527 133.25C62.0027 133.05 62.4027 132.95 62.8527 132.95C63.5827 132.95 64.1577 133.195 64.5777 133.685C65.0077 134.165 65.2227 134.82 65.2227 135.65V140H64.0227V135.8ZM67.0135 140.45H68.2285C68.2285 140.78 68.3185 141.085 68.4985 141.365C68.6785 141.655 68.9335 141.885 69.2635 142.055C69.5935 142.235 69.9835 142.325 70.4335 142.325C70.7835 142.325 71.1285 142.24 71.4685 142.07C71.8085 141.9 72.0885 141.63 72.3085 141.26C72.5385 140.9 72.6535 140.43 72.6535 139.85V133.1H73.8535V139.85C73.8535 140.64 73.6885 141.3 73.3585 141.83C73.0285 142.37 72.6035 142.775 72.0835 143.045C71.5635 143.315 71.0135 143.45 70.4335 143.45C69.7635 143.45 69.1685 143.325 68.6485 143.075C68.1385 142.825 67.7385 142.47 67.4485 142.01C67.1585 141.56 67.0135 141.04 67.0135 140.45ZM66.8785 136.55C66.8785 135.8 67.0335 135.16 67.3435 134.63C67.6535 134.09 68.0685 133.675 68.5885 133.385C69.1085 133.095 69.6785 132.95 70.2985 132.95C70.8785 132.95 71.3835 133.095 71.8135 133.385C72.2435 133.675 72.5785 134.09 72.8185 134.63C73.0685 135.16 73.1935 135.8 73.1935 136.55C73.1935 137.29 73.0685 137.93 72.8185 138.47C72.5785 139.01 72.2435 139.425 71.8135 139.715C71.3835 140.005 70.8785 140.15 70.2985 140.15C69.6785 140.15 69.1085 140.005 68.5885 139.715C68.0685 139.425 67.6535 139.01 67.3435 138.47C67.0335 137.93 66.8785 137.29 66.8785 136.55ZM68.0935 136.55C68.0935 137.08 68.1985 137.53 68.4085 137.9C68.6285 138.27 68.9185 138.55 69.2785 138.74C69.6385 138.93 70.0285 139.025 70.4485 139.025C70.7985 139.025 71.1435 138.93 71.4835 138.74C71.8235 138.55 72.1035 138.27 72.3235 137.9C72.5435 137.53 72.6535 137.08 72.6535 136.55C72.6535 136.15 72.5885 135.8 72.4585 135.5C72.3285 135.19 72.1535 134.93 71.9335 134.72C71.7235 134.51 71.4885 134.35 71.2285 134.24C70.9685 134.13 70.7085 134.075 70.4485 134.075C70.0285 134.075 69.6385 134.17 69.2785 134.36C68.9185 134.55 68.6285 134.83 68.4085 135.2C68.1985 135.57 68.0935 136.02 68.0935 136.55ZM79.4803 133.1H82.9303V134.225H79.4803V133.1ZM80.6053 130.7H81.8053V140H80.6053V130.7ZM85.3338 128.3V140H84.1338V128.3H85.3338ZM88.5588 135.8C88.5588 135.23 88.4338 134.8 88.1838 134.51C87.9438 134.22 87.5788 134.075 87.0888 134.075C86.7388 134.075 86.4288 134.15 86.1588 134.3C85.8988 134.45 85.6938 134.655 85.5438 134.915C85.4038 135.175 85.3338 135.47 85.3338 135.8H84.9438C84.9438 135.25 85.0488 134.765 85.2588 134.345C85.4688 133.915 85.7538 133.575 86.1138 133.325C86.4838 133.075 86.9088 132.95 87.3888 132.95C87.8688 132.95 88.2838 133.05 88.6338 133.25C88.9938 133.45 89.2688 133.75 89.4588 134.15C89.6588 134.55 89.7588 135.05 89.7588 135.65V140H88.5588V135.8ZM94.6846 140.15C94.0446 140.15 93.4746 140 92.9746 139.7C92.4846 139.39 92.0996 138.965 91.8196 138.425C91.5496 137.885 91.4146 137.26 91.4146 136.55C91.4146 135.83 91.5546 135.2 91.8346 134.66C92.1246 134.12 92.5246 133.7 93.0346 133.4C93.5546 133.1 94.1546 132.95 94.8346 132.95C95.5146 132.95 96.0946 133.095 96.5746 133.385C97.0646 133.665 97.4396 134.07 97.6996 134.6C97.9596 135.13 98.0896 135.76 98.0896 136.49C98.0896 136.56 98.0846 136.635 98.0746 136.715C98.0746 136.785 98.0746 136.83 98.0746 136.85H92.1796V135.83H97.1296L96.6496 136.52C96.6796 136.47 96.7096 136.395 96.7396 136.295C96.7696 136.185 96.7846 136.095 96.7846 136.025C96.7846 135.615 96.6996 135.26 96.5296 134.96C96.3696 134.66 96.1446 134.425 95.8546 134.255C95.5646 134.085 95.2246 134 94.8346 134C94.3746 134 93.9796 134.1 93.6496 134.3C93.3296 134.49 93.0796 134.77 92.8996 135.14C92.7296 135.5 92.6396 135.945 92.6296 136.475C92.6296 137.015 92.7146 137.475 92.8846 137.855C93.0546 138.235 93.3046 138.525 93.6346 138.725C93.9646 138.925 94.3646 139.025 94.8346 139.025C95.3046 139.025 95.7196 138.925 96.0796 138.725C96.4396 138.515 96.7446 138.2 96.9946 137.78L97.9696 138.395C97.6096 138.975 97.1546 139.415 96.6046 139.715C96.0646 140.005 95.4246 140.15 94.6846 140.15ZM105.431 133.1V140H104.231V133.1H105.431ZM107.516 134.42C107.356 134.3 107.211 134.215 107.081 134.165C106.951 134.105 106.786 134.075 106.586 134.075C106.286 134.075 106.051 134.15 105.881 134.3C105.711 134.45 105.591 134.655 105.521 134.915C105.461 135.175 105.431 135.47 105.431 135.8H104.891C104.891 135.25 104.986 134.765 105.176 134.345C105.376 133.915 105.631 133.575 105.941 133.325C106.251 133.075 106.566 132.95 106.886 132.95C107.136 132.95 107.366 132.985 107.576 133.055C107.796 133.115 107.996 133.24 108.176 133.43L107.516 134.42ZM109.373 130.25C109.373 130.02 109.453 129.825 109.613 129.665C109.783 129.505 109.978 129.425 110.198 129.425C110.428 129.425 110.623 129.505 110.783 129.665C110.943 129.825 111.023 130.02 111.023 130.25C111.023 130.47 110.943 130.665 110.783 130.835C110.623 130.995 110.428 131.075 110.198 131.075C109.978 131.075 109.783 130.995 109.613 130.835C109.453 130.665 109.373 130.47 109.373 130.25ZM109.598 133.1H110.798V140H109.598V133.1ZM112.805 140.45H114.02C114.02 140.78 114.11 141.085 114.29 141.365C114.47 141.655 114.725 141.885 115.055 142.055C115.385 142.235 115.775 142.325 116.225 142.325C116.575 142.325 116.92 142.24 117.26 142.07C117.6 141.9 117.88 141.63 118.1 141.26C118.33 140.9 118.445 140.43 118.445 139.85V133.1H119.645V139.85C119.645 140.64 119.48 141.3 119.15 141.83C118.82 142.37 118.395 142.775 117.875 143.045C117.355 143.315 116.805 143.45 116.225 143.45C115.555 143.45 114.96 143.325 114.44 143.075C113.93 142.825 113.53 142.47 113.24 142.01C112.95 141.56 112.805 141.04 112.805 140.45ZM112.67 136.55C112.67 135.8 112.825 135.16 113.135 134.63C113.445 134.09 113.86 133.675 114.38 133.385C114.9 133.095 115.47 132.95 116.09 132.95C116.67 132.95 117.175 133.095 117.605 133.385C118.035 133.675 118.37 134.09 118.61 134.63C118.86 135.16 118.985 135.8 118.985 136.55C118.985 137.29 118.86 137.93 118.61 138.47C118.37 139.01 118.035 139.425 117.605 139.715C117.175 140.005 116.67 140.15 116.09 140.15C115.47 140.15 114.9 140.005 114.38 139.715C113.86 139.425 113.445 139.01 113.135 138.47C112.825 137.93 112.67 137.29 112.67 136.55ZM113.885 136.55C113.885 137.08 113.99 137.53 114.2 137.9C114.42 138.27 114.71 138.55 115.07 138.74C115.43 138.93 115.82 139.025 116.24 139.025C116.59 139.025 116.935 138.93 117.275 138.74C117.615 138.55 117.895 138.27 118.115 137.9C118.335 137.53 118.445 137.08 118.445 136.55C118.445 136.15 118.38 135.8 118.25 135.5C118.12 135.19 117.945 134.93 117.725 134.72C117.515 134.51 117.28 134.35 117.02 134.24C116.76 134.13 116.5 134.075 116.24 134.075C115.82 134.075 115.43 134.17 115.07 134.36C114.71 134.55 114.42 134.83 114.2 135.2C113.99 135.57 113.885 136.02 113.885 136.55ZM123.024 128.3V140H121.824V128.3H123.024ZM126.249 135.8C126.249 135.23 126.124 134.8 125.874 134.51C125.634 134.22 125.269 134.075 124.779 134.075C124.429 134.075 124.119 134.15 123.849 134.3C123.589 134.45 123.384 134.655 123.234 134.915C123.094 135.175 123.024 135.47 123.024 135.8H122.634C122.634 135.25 122.739 134.765 122.949 134.345C123.159 133.915 123.444 133.575 123.804 133.325C124.174 133.075 124.599 132.95 125.079 132.95C125.559 132.95 125.974 133.05 126.324 133.25C126.684 133.45 126.959 133.75 127.149 134.15C127.349 134.55 127.449 135.05 127.449 135.65V140H126.249V135.8ZM128.655 133.1H132.105V134.225H128.655V133.1ZM129.78 130.7H130.98V140H129.78V130.7ZM138.931 143.3H137.731V133.1H138.931V143.3ZM144.706 136.55C144.706 137.29 144.551 137.93 144.241 138.47C143.931 139.01 143.516 139.425 142.996 139.715C142.486 140.005 141.916 140.15 141.286 140.15C140.716 140.15 140.211 140.005 139.771 139.715C139.341 139.425 139.001 139.01 138.751 138.47C138.511 137.93 138.391 137.29 138.391 136.55C138.391 135.8 138.511 135.16 138.751 134.63C139.001 134.09 139.341 133.675 139.771 133.385C140.211 133.095 140.716 132.95 141.286 132.95C141.916 132.95 142.486 133.095 142.996 133.385C143.516 133.675 143.931 134.09 144.241 134.63C144.551 135.16 144.706 135.8 144.706 136.55ZM143.491 136.55C143.491 136.02 143.381 135.57 143.161 135.2C142.951 134.83 142.666 134.55 142.306 134.36C141.956 134.17 141.566 134.075 141.136 134.075C140.786 134.075 140.441 134.17 140.101 134.36C139.761 134.55 139.481 134.83 139.261 135.2C139.041 135.57 138.931 136.02 138.931 136.55C138.931 137.08 139.041 137.53 139.261 137.9C139.481 138.27 139.761 138.55 140.101 138.74C140.441 138.93 140.786 139.025 141.136 139.025C141.566 139.025 141.956 138.93 142.306 138.74C142.666 138.55 142.951 138.27 143.161 137.9C143.381 137.53 143.491 137.08 143.491 136.55ZM146.9 137.87C146.9 138.13 146.96 138.355 147.08 138.545C147.21 138.735 147.385 138.88 147.605 138.98C147.835 139.07 148.095 139.115 148.385 139.115C148.755 139.115 149.085 139.04 149.375 138.89C149.675 138.74 149.91 138.53 150.08 138.26C150.26 137.98 150.35 137.66 150.35 137.3L150.59 138.2C150.59 138.64 150.455 139.005 150.185 139.295C149.925 139.585 149.6 139.8 149.21 139.94C148.83 140.08 148.45 140.15 148.07 140.15C147.65 140.15 147.255 140.065 146.885 139.895C146.525 139.715 146.235 139.46 146.015 139.13C145.795 138.8 145.685 138.4 145.685 137.93C145.685 137.26 145.92 136.725 146.39 136.325C146.87 135.915 147.535 135.71 148.385 135.71C148.885 135.71 149.3 135.77 149.63 135.89C149.97 136 150.24 136.13 150.44 136.28C150.64 136.42 150.775 136.535 150.845 136.625V137.33C150.495 137.09 150.135 136.92 149.765 136.82C149.395 136.71 149 136.655 148.58 136.655C148.19 136.655 147.87 136.705 147.62 136.805C147.38 136.905 147.2 137.045 147.08 137.225C146.96 137.405 146.9 137.62 146.9 137.87ZM146.72 134.69L146.135 133.805C146.395 133.615 146.75 133.425 147.2 133.235C147.66 133.045 148.21 132.95 148.85 132.95C149.39 132.95 149.86 133.035 150.26 133.205C150.67 133.365 150.985 133.6 151.205 133.91C151.435 134.22 151.55 134.6 151.55 135.05V140H150.35V135.215C150.35 134.975 150.31 134.78 150.23 134.63C150.15 134.47 150.035 134.345 149.885 134.255C149.745 134.165 149.58 134.1 149.39 134.06C149.2 134.02 149 134 148.79 134C148.45 134 148.14 134.04 147.86 134.12C147.59 134.2 147.36 134.295 147.17 134.405C146.98 134.515 146.83 134.61 146.72 134.69ZM154.782 133.1V140H153.582V133.1H154.782ZM156.867 134.42C156.707 134.3 156.562 134.215 156.432 134.165C156.302 134.105 156.137 134.075 155.937 134.075C155.637 134.075 155.402 134.15 155.232 134.3C155.062 134.45 154.942 134.655 154.872 134.915C154.812 135.175 154.782 135.47 154.782 135.8H154.242C154.242 135.25 154.337 134.765 154.527 134.345C154.727 133.915 154.982 133.575 155.292 133.325C155.602 133.075 155.917 132.95 156.237 132.95C156.487 132.95 156.717 132.985 156.927 133.055C157.147 133.115 157.347 133.24 157.527 133.43L156.867 134.42ZM157.674 133.1H161.124V134.225H157.674V133.1ZM158.799 130.7H159.999V140H158.799V130.7ZM166.752 135.8C166.752 135.23 166.627 134.8 166.377 134.51C166.127 134.22 165.762 134.075 165.282 134.075C164.932 134.075 164.622 134.15 164.352 134.3C164.092 134.44 163.887 134.64 163.737 134.9C163.597 135.16 163.527 135.46 163.527 135.8V140H162.327V133.1H163.527V134.18C163.757 133.76 164.042 133.45 164.382 133.25C164.732 133.05 165.132 132.95 165.582 132.95C166.312 132.95 166.887 133.195 167.307 133.685C167.737 134.165 167.952 134.82 167.952 135.65V140H166.752V135.8ZM172.878 140.15C172.238 140.15 171.668 140 171.168 139.7C170.678 139.39 170.293 138.965 170.013 138.425C169.743 137.885 169.608 137.26 169.608 136.55C169.608 135.83 169.748 135.2 170.028 134.66C170.318 134.12 170.718 133.7 171.228 133.4C171.748 133.1 172.348 132.95 173.028 132.95C173.708 132.95 174.288 133.095 174.768 133.385C175.258 133.665 175.633 134.07 175.893 134.6C176.153 135.13 176.283 135.76 176.283 136.49C176.283 136.56 176.278 136.635 176.268 136.715C176.268 136.785 176.268 136.83 176.268 136.85H170.373V135.83H175.323L174.843 136.52C174.873 136.47 174.903 136.395 174.933 136.295C174.963 136.185 174.978 136.095 174.978 136.025C174.978 135.615 174.893 135.26 174.723 134.96C174.563 134.66 174.338 134.425 174.048 134.255C173.758 134.085 173.418 134 173.028 134C172.568 134 172.173 134.1 171.843 134.3C171.523 134.49 171.273 134.77 171.093 135.14C170.923 135.5 170.833 135.945 170.823 136.475C170.823 137.015 170.908 137.475 171.078 137.855C171.248 138.235 171.498 138.525 171.828 138.725C172.158 138.925 172.558 139.025 173.028 139.025C173.498 139.025 173.913 138.925 174.273 138.725C174.633 138.515 174.938 138.2 175.188 137.78L176.163 138.395C175.803 138.975 175.348 139.415 174.798 139.715C174.258 140.005 173.618 140.15 172.878 140.15ZM179.128 133.1V140H177.928V133.1H179.128ZM181.213 134.42C181.053 134.3 180.908 134.215 180.778 134.165C180.648 134.105 180.483 134.075 180.283 134.075C179.983 134.075 179.748 134.15 179.578 134.3C179.408 134.45 179.288 134.655 179.218 134.915C179.158 135.175 179.128 135.47 179.128 135.8H178.588C178.588 135.25 178.683 134.765 178.873 134.345C179.073 133.915 179.328 133.575 179.638 133.325C179.948 133.075 180.263 132.95 180.583 132.95C180.833 132.95 181.063 132.985 181.273 133.055C181.493 133.115 181.693 133.24 181.873 133.43L181.213 134.42ZM187.041 133.1H190.491V134.225H187.041V133.1ZM190.371 129.74C190.271 129.57 190.151 129.465 190.011 129.425C189.881 129.375 189.756 129.35 189.636 129.35C189.486 129.35 189.356 129.395 189.246 129.485C189.146 129.565 189.066 129.705 189.006 129.905C188.946 130.105 188.916 130.37 188.916 130.7V140H187.716V130.55C187.716 130 187.796 129.55 187.956 129.2C188.116 128.85 188.341 128.59 188.631 128.42C188.931 128.24 189.291 128.15 189.711 128.15C189.931 128.15 190.126 128.18 190.296 128.24C190.466 128.3 190.611 128.375 190.731 128.465C190.861 128.555 190.961 128.65 191.031 128.75L190.371 129.74ZM191.258 136.55C191.258 135.85 191.413 135.23 191.723 134.69C192.043 134.15 192.473 133.725 193.013 133.415C193.553 133.105 194.158 132.95 194.828 132.95C195.508 132.95 196.113 133.105 196.643 133.415C197.183 133.725 197.608 134.15 197.918 134.69C198.238 135.23 198.398 135.85 198.398 136.55C198.398 137.24 198.238 137.86 197.918 138.41C197.608 138.95 197.183 139.375 196.643 139.685C196.113 139.995 195.508 140.15 194.828 140.15C194.158 140.15 193.553 139.995 193.013 139.685C192.473 139.375 192.043 138.95 191.723 138.41C191.413 137.86 191.258 137.24 191.258 136.55ZM192.473 136.55C192.473 137.03 192.573 137.455 192.773 137.825C192.983 138.195 193.263 138.49 193.613 138.71C193.973 138.92 194.378 139.025 194.828 139.025C195.278 139.025 195.678 138.92 196.028 138.71C196.388 138.49 196.668 138.195 196.868 137.825C197.078 137.455 197.183 137.03 197.183 136.55C197.183 136.07 197.078 135.645 196.868 135.275C196.668 134.895 196.388 134.6 196.028 134.39C195.678 134.18 195.278 134.075 194.828 134.075C194.378 134.075 193.973 134.18 193.613 134.39C193.263 134.6 192.983 134.895 192.773 135.275C192.573 135.645 192.473 136.07 192.473 136.55ZM201.247 133.1V140H200.047V133.1H201.247ZM203.332 134.42C203.172 134.3 203.027 134.215 202.897 134.165C202.767 134.105 202.602 134.075 202.402 134.075C202.102 134.075 201.867 134.15 201.697 134.3C201.527 134.45 201.407 134.655 201.337 134.915C201.277 135.175 201.247 135.47 201.247 135.8H200.707C200.707 135.25 200.802 134.765 200.992 134.345C201.192 133.915 201.447 133.575 201.757 133.325C202.067 133.075 202.382 132.95 202.702 132.95C202.952 132.95 203.182 132.985 203.392 133.055C203.612 133.115 203.812 133.24 203.992 133.43L203.332 134.42ZM215.161 133.1L210.661 143.3H209.311L211.201 139.025L208.561 133.1H209.986L212.176 138.5L211.681 138.44L213.811 133.1H215.161ZM215.472 136.55C215.472 135.85 215.627 135.23 215.937 134.69C216.257 134.15 216.687 133.725 217.227 133.415C217.767 133.105 218.372 132.95 219.042 132.95C219.722 132.95 220.327 133.105 220.857 133.415C221.397 133.725 221.822 134.15 222.132 134.69C222.452 135.23 222.612 135.85 222.612 136.55C222.612 137.24 222.452 137.86 222.132 138.41C221.822 138.95 221.397 139.375 220.857 139.685C220.327 139.995 219.722 140.15 219.042 140.15C218.372 140.15 217.767 139.995 217.227 139.685C216.687 139.375 216.257 138.95 215.937 138.41C215.627 137.86 215.472 137.24 215.472 136.55ZM216.687 136.55C216.687 137.03 216.787 137.455 216.987 137.825C217.197 138.195 217.477 138.49 217.827 138.71C218.187 138.92 218.592 139.025 219.042 139.025C219.492 139.025 219.892 138.92 220.242 138.71C220.602 138.49 220.882 138.195 221.082 137.825C221.292 137.455 221.397 137.03 221.397 136.55C221.397 136.07 221.292 135.645 221.082 135.275C220.882 134.895 220.602 134.6 220.242 134.39C219.892 134.18 219.492 134.075 219.042 134.075C218.592 134.075 218.187 134.18 217.827 134.39C217.477 134.6 217.197 134.895 216.987 135.275C216.787 135.645 216.687 136.07 216.687 136.55ZM225.461 137.3C225.461 137.85 225.586 138.275 225.836 138.575C226.086 138.875 226.451 139.025 226.931 139.025C227.281 139.025 227.586 138.955 227.846 138.815C228.116 138.665 228.321 138.46 228.461 138.2C228.611 137.94 228.686 137.64 228.686 137.3V133.1H229.886V140H228.686V138.92C228.456 139.33 228.171 139.64 227.831 139.85C227.491 140.05 227.091 140.15 226.631 140.15C225.911 140.15 225.336 139.905 224.906 139.415C224.476 138.925 224.261 138.27 224.261 137.45V133.1H225.461V137.3ZM233.342 133.1V140H232.142V133.1H233.342ZM235.427 134.42C235.267 134.3 235.122 134.215 234.992 134.165C234.862 134.105 234.697 134.075 234.497 134.075C234.197 134.075 233.962 134.15 233.792 134.3C233.622 134.45 233.502 134.655 233.432 134.915C233.372 135.175 233.342 135.47 233.342 135.8H232.802C232.802 135.25 232.897 134.765 233.087 134.345C233.287 133.915 233.542 133.575 233.852 133.325C234.162 133.075 234.477 132.95 234.797 132.95C235.047 132.95 235.277 132.985 235.487 133.055C235.707 133.115 235.907 133.24 236.087 133.43L235.427 134.42ZM24.545 159.225L27.275 151.5H28.7L24.575 162.525L21.425 154.365L18.275 162.525L14.15 151.5H15.575L18.365 159.225L21.425 150.975L24.545 159.225ZM31.4473 162.15C30.8073 162.15 30.2373 162 29.7373 161.7C29.2473 161.39 28.8623 160.965 28.5823 160.425C28.3123 159.885 28.1773 159.26 28.1773 158.55C28.1773 157.83 28.3173 157.2 28.5973 156.66C28.8873 156.12 29.2873 155.7 29.7973 155.4C30.3173 155.1 30.9173 154.95 31.5973 154.95C32.2773 154.95 32.8573 155.095 33.3373 155.385C33.8273 155.665 34.2023 156.07 34.4623 156.6C34.7223 157.13 34.8523 157.76 34.8523 158.49C34.8523 158.56 34.8473 158.635 34.8373 158.715C34.8373 158.785 34.8373 158.83 34.8373 158.85H28.9423V157.83H33.8923L33.4123 158.52C33.4423 158.47 33.4723 158.395 33.5023 158.295C33.5323 158.185 33.5473 158.095 33.5473 158.025C33.5473 157.615 33.4623 157.26 33.2923 156.96C33.1323 156.66 32.9073 156.425 32.6173 156.255C32.3273 156.085 31.9873 156 31.5973 156C31.1373 156 30.7423 156.1 30.4123 156.3C30.0923 156.49 29.8423 156.77 29.6623 157.14C29.4923 157.5 29.4023 157.945 29.3923 158.475C29.3923 159.015 29.4773 159.475 29.6473 159.855C29.8173 160.235 30.0673 160.525 30.3973 160.725C30.7273 160.925 31.1273 161.025 31.5973 161.025C32.0673 161.025 32.4823 160.925 32.8423 160.725C33.2023 160.515 33.5073 160.2 33.7573 159.78L34.7323 160.395C34.3723 160.975 33.9173 161.415 33.3673 161.715C32.8273 162.005 32.1873 162.15 31.4473 162.15ZM37.6221 150.3V162H36.4221V150.3H37.6221ZM43.3971 158.55C43.3971 159.29 43.2421 159.93 42.9321 160.47C42.6221 161.01 42.2071 161.425 41.6871 161.715C41.1771 162.005 40.6071 162.15 39.9771 162.15C39.4071 162.15 38.9021 162.005 38.4621 161.715C38.0321 161.425 37.6921 161.01 37.4421 160.47C37.2021 159.93 37.0821 159.29 37.0821 158.55C37.0821 157.8 37.2021 157.16 37.4421 156.63C37.6921 156.09 38.0321 155.675 38.4621 155.385C38.9021 155.095 39.4071 154.95 39.9771 154.95C40.6071 154.95 41.1771 155.095 41.6871 155.385C42.2071 155.675 42.6221 156.09 42.9321 156.63C43.2421 157.16 43.3971 157.8 43.3971 158.55ZM42.1821 158.55C42.1821 158.02 42.0721 157.57 41.8521 157.2C41.6421 156.83 41.3571 156.55 40.9971 156.36C40.6471 156.17 40.2571 156.075 39.8271 156.075C39.4771 156.075 39.1321 156.17 38.7921 156.36C38.4521 156.55 38.1721 156.83 37.9521 157.2C37.7321 157.57 37.6221 158.02 37.6221 158.55C37.6221 159.08 37.7321 159.53 37.9521 159.9C38.1721 160.27 38.4521 160.55 38.7921 160.74C39.1321 160.93 39.4771 161.025 39.8271 161.025C40.2571 161.025 40.6471 160.93 40.9971 160.74C41.3571 160.55 41.6421 160.27 41.8521 159.9C42.0721 159.53 42.1821 159.08 42.1821 158.55ZM47.7218 156.825V156C48.0618 156 48.3618 155.955 48.6218 155.865C48.8818 155.765 49.1018 155.635 49.2818 155.475C49.4618 155.305 49.5968 155.11 49.6868 154.89C49.7868 154.67 49.8368 154.435 49.8368 154.185C49.8368 153.855 49.7768 153.565 49.6568 153.315C49.5368 153.055 49.3568 152.855 49.1168 152.715C48.8868 152.575 48.5968 152.505 48.2468 152.505C47.7568 152.505 47.3418 152.66 47.0018 152.97C46.6618 153.27 46.4918 153.65 46.4918 154.11H45.2768C45.2768 153.56 45.4018 153.08 45.6518 152.67C45.9118 152.26 46.2618 151.94 46.7018 151.71C47.1518 151.47 47.6618 151.35 48.2318 151.35C48.8318 151.35 49.3468 151.48 49.7768 151.74C50.2168 152 50.5518 152.34 50.7818 152.76C51.0218 153.18 51.1418 153.64 51.1418 154.14C51.1418 154.63 50.9968 155.08 50.7068 155.49C50.4168 155.9 50.0168 156.225 49.5068 156.465C48.9968 156.705 48.4018 156.825 47.7218 156.825ZM48.1718 162.15C47.6618 162.15 47.2018 162.075 46.7918 161.925C46.3818 161.775 46.0318 161.57 45.7418 161.31C45.4518 161.04 45.2268 160.73 45.0668 160.38C44.9068 160.02 44.8268 159.635 44.8268 159.225H46.1168C46.1168 159.555 46.2018 159.85 46.3718 160.11C46.5518 160.37 46.7968 160.575 47.1068 160.725C47.4168 160.875 47.7718 160.95 48.1718 160.95C48.5718 160.95 48.9168 160.875 49.2068 160.725C49.5068 160.565 49.7368 160.345 49.8968 160.065C50.0568 159.785 50.1368 159.455 50.1368 159.075C50.1368 158.755 50.0718 158.475 49.9418 158.235C49.8218 157.985 49.6518 157.78 49.4318 157.62C49.2118 157.45 48.9568 157.325 48.6668 157.245C48.3768 157.165 48.0618 157.125 47.7218 157.125V156.3C48.2318 156.3 48.7068 156.355 49.1468 156.465C49.5968 156.575 49.9918 156.75 50.3318 156.99C50.6818 157.22 50.9518 157.52 51.1418 157.89C51.3418 158.26 51.4418 158.705 51.4418 159.225C51.4418 159.815 51.2968 160.33 51.0068 160.77C50.7268 161.21 50.3418 161.55 49.8518 161.79C49.3618 162.03 48.8018 162.15 48.1718 162.15ZM58.8623 165.3H57.6623V155.1H58.8623V165.3ZM64.6373 158.55C64.6373 159.29 64.4823 159.93 64.1723 160.47C63.8623 161.01 63.4473 161.425 62.9273 161.715C62.4173 162.005 61.8473 162.15 61.2173 162.15C60.6473 162.15 60.1423 162.005 59.7023 161.715C59.2723 161.425 58.9323 161.01 58.6823 160.47C58.4423 159.93 58.3223 159.29 58.3223 158.55C58.3223 157.8 58.4423 157.16 58.6823 156.63C58.9323 156.09 59.2723 155.675 59.7023 155.385C60.1423 155.095 60.6473 154.95 61.2173 154.95C61.8473 154.95 62.4173 155.095 62.9273 155.385C63.4473 155.675 63.8623 156.09 64.1723 156.63C64.4823 157.16 64.6373 157.8 64.6373 158.55ZM63.4223 158.55C63.4223 158.02 63.3123 157.57 63.0923 157.2C62.8823 156.83 62.5973 156.55 62.2373 156.36C61.8873 156.17 61.4973 156.075 61.0673 156.075C60.7173 156.075 60.3723 156.17 60.0323 156.36C59.6923 156.55 59.4123 156.83 59.1923 157.2C58.9723 157.57 58.8623 158.02 58.8623 158.55C58.8623 159.08 58.9723 159.53 59.1923 159.9C59.4123 160.27 59.6923 160.55 60.0323 160.74C60.3723 160.93 60.7173 161.025 61.0673 161.025C61.4973 161.025 61.8873 160.93 62.2373 160.74C62.5973 160.55 62.8823 160.27 63.0923 159.9C63.3123 159.53 63.4223 159.08 63.4223 158.55ZM67.492 155.1V162H66.292V155.1H67.492ZM69.577 156.42C69.417 156.3 69.272 156.215 69.142 156.165C69.012 156.105 68.847 156.075 68.647 156.075C68.347 156.075 68.112 156.15 67.942 156.3C67.772 156.45 67.652 156.655 67.582 156.915C67.522 157.175 67.492 157.47 67.492 157.8H66.952C66.952 157.25 67.047 156.765 67.237 156.345C67.437 155.915 67.692 155.575 68.002 155.325C68.312 155.075 68.627 154.95 68.947 154.95C69.197 154.95 69.427 154.985 69.637 155.055C69.857 155.115 70.057 155.24 70.237 155.43L69.577 156.42ZM70.6139 158.55C70.6139 157.85 70.7689 157.23 71.0789 156.69C71.3989 156.15 71.8289 155.725 72.3689 155.415C72.9089 155.105 73.5139 154.95 74.1839 154.95C74.8639 154.95 75.4689 155.105 75.9989 155.415C76.5389 155.725 76.9639 156.15 77.2739 156.69C77.5939 157.23 77.7539 157.85 77.7539 158.55C77.7539 159.24 77.5939 159.86 77.2739 160.41C76.9639 160.95 76.5389 161.375 75.9989 161.685C75.4689 161.995 74.8639 162.15 74.1839 162.15C73.5139 162.15 72.9089 161.995 72.3689 161.685C71.8289 161.375 71.3989 160.95 71.0789 160.41C70.7689 159.86 70.6139 159.24 70.6139 158.55ZM71.8289 158.55C71.8289 159.03 71.9289 159.455 72.1289 159.825C72.3389 160.195 72.6189 160.49 72.9689 160.71C73.3289 160.92 73.7339 161.025 74.1839 161.025C74.6339 161.025 75.0339 160.92 75.3839 160.71C75.7439 160.49 76.0239 160.195 76.2239 159.825C76.4339 159.455 76.5389 159.03 76.5389 158.55C76.5389 158.07 76.4339 157.645 76.2239 157.275C76.0239 156.895 75.7439 156.6 75.3839 156.39C75.0339 156.18 74.6339 156.075 74.1839 156.075C73.7339 156.075 73.3289 156.18 72.9689 156.39C72.6189 156.6 72.3389 156.895 72.1289 157.275C71.9289 157.645 71.8289 158.07 71.8289 158.55ZM79.2073 152.25C79.2073 152.02 79.2873 151.83 79.4473 151.68C79.6073 151.52 79.7973 151.44 80.0173 151.44C80.2473 151.44 80.4373 151.52 80.5873 151.68C80.7473 151.83 80.8273 152.02 80.8273 152.25C80.8273 152.47 80.7473 152.66 80.5873 152.82C80.4373 152.98 80.2473 153.06 80.0173 153.06C79.7973 153.06 79.6073 152.98 79.4473 152.82C79.2873 152.66 79.2073 152.47 79.2073 152.25ZM78.0223 163.71C78.1023 163.83 78.2023 163.925 78.3223 163.995C78.4523 164.065 78.5973 164.1 78.7573 164.1C78.9273 164.1 79.0623 164.055 79.1623 163.965C79.2723 163.875 79.3523 163.73 79.4023 163.53C79.4523 163.33 79.4773 163.07 79.4773 162.75V155.1H80.6773V162.9C80.6773 163.4 80.5973 163.83 80.4373 164.19C80.2873 164.55 80.0623 164.825 79.7623 165.015C79.4623 165.205 79.1023 165.3 78.6823 165.3C78.4823 165.3 78.3023 165.275 78.1423 165.225C77.9823 165.185 77.8373 165.12 77.7073 165.03C77.5773 164.94 77.4623 164.83 77.3623 164.7L78.0223 163.71ZM85.8223 162.15C85.1823 162.15 84.6123 162 84.1123 161.7C83.6223 161.39 83.2373 160.965 82.9573 160.425C82.6873 159.885 82.5523 159.26 82.5523 158.55C82.5523 157.83 82.6923 157.2 82.9723 156.66C83.2623 156.12 83.6623 155.7 84.1723 155.4C84.6923 155.1 85.2923 154.95 85.9723 154.95C86.6523 154.95 87.2323 155.095 87.7123 155.385C88.2023 155.665 88.5773 156.07 88.8373 156.6C89.0973 157.13 89.2273 157.76 89.2273 158.49C89.2273 158.56 89.2223 158.635 89.2123 158.715C89.2123 158.785 89.2123 158.83 89.2123 158.85H83.3173V157.83H88.2673L87.7873 158.52C87.8173 158.47 87.8473 158.395 87.8773 158.295C87.9073 158.185 87.9223 158.095 87.9223 158.025C87.9223 157.615 87.8373 157.26 87.6673 156.96C87.5073 156.66 87.2823 156.425 86.9923 156.255C86.7023 156.085 86.3623 156 85.9723 156C85.5123 156 85.1173 156.1 84.7873 156.3C84.4673 156.49 84.2173 156.77 84.0373 157.14C83.8673 157.5 83.7773 157.945 83.7673 158.475C83.7673 159.015 83.8523 159.475 84.0223 159.855C84.1923 160.235 84.4423 160.525 84.7723 160.725C85.1023 160.925 85.5023 161.025 85.9723 161.025C86.4423 161.025 86.8573 160.925 87.2173 160.725C87.5773 160.515 87.8823 160.2 88.1323 159.78L89.1073 160.395C88.7473 160.975 88.2923 161.415 87.7423 161.715C87.2023 162.005 86.5623 162.15 85.8223 162.15ZM91.4121 158.55C91.4121 159.03 91.5121 159.455 91.7121 159.825C91.9221 160.195 92.2021 160.49 92.5521 160.71C92.9121 160.92 93.3171 161.025 93.7671 161.025C94.1371 161.025 94.4821 160.97 94.8021 160.86C95.1321 160.74 95.4171 160.585 95.6571 160.395C95.8971 160.195 96.0671 159.985 96.1671 159.765V161.265C95.9271 161.545 95.5821 161.765 95.1321 161.925C94.6921 162.075 94.2371 162.15 93.7671 162.15C93.0971 162.15 92.4921 161.995 91.9521 161.685C91.4121 161.375 90.9821 160.95 90.6621 160.41C90.3521 159.86 90.1971 159.24 90.1971 158.55C90.1971 157.85 90.3521 157.23 90.6621 156.69C90.9821 156.15 91.4121 155.725 91.9521 155.415C92.4921 155.105 93.0971 154.95 93.7671 154.95C94.2371 154.95 94.6921 155.03 95.1321 155.19C95.5821 155.34 95.9271 155.555 96.1671 155.835V157.335C96.0671 157.105 95.8971 156.895 95.6571 156.705C95.4171 156.515 95.1321 156.365 94.8021 156.255C94.4821 156.135 94.1371 156.075 93.7671 156.075C93.3171 156.075 92.9121 156.18 92.5521 156.39C92.2021 156.6 91.9221 156.895 91.7121 157.275C91.5121 157.645 91.4121 158.07 91.4121 158.55ZM96.9852 155.1H100.435V156.225H96.9852V155.1ZM98.1102 152.7H99.3102V162H98.1102V152.7ZM106.676 158.55C106.676 159.03 106.776 159.455 106.976 159.825C107.186 160.195 107.466 160.49 107.816 160.71C108.176 160.92 108.581 161.025 109.031 161.025C109.401 161.025 109.746 160.97 110.066 160.86C110.396 160.74 110.681 160.585 110.921 160.395C111.161 160.195 111.331 159.985 111.431 159.765V161.265C111.191 161.545 110.846 161.765 110.396 161.925C109.956 162.075 109.501 162.15 109.031 162.15C108.361 162.15 107.756 161.995 107.216 161.685C106.676 161.375 106.246 160.95 105.926 160.41C105.616 159.86 105.461 159.24 105.461 158.55C105.461 157.85 105.616 157.23 105.926 156.69C106.246 156.15 106.676 155.725 107.216 155.415C107.756 155.105 108.361 154.95 109.031 154.95C109.501 154.95 109.956 155.03 110.396 155.19C110.846 155.34 111.191 155.555 111.431 155.835V157.335C111.331 157.105 111.161 156.895 110.921 156.705C110.681 156.515 110.396 156.365 110.066 156.255C109.746 156.135 109.401 156.075 109.031 156.075C108.581 156.075 108.176 156.18 107.816 156.39C107.466 156.6 107.186 156.895 106.976 157.275C106.776 157.645 106.676 158.07 106.676 158.55ZM113.839 159.87C113.839 160.13 113.899 160.355 114.019 160.545C114.149 160.735 114.324 160.88 114.544 160.98C114.774 161.07 115.034 161.115 115.324 161.115C115.694 161.115 116.024 161.04 116.314 160.89C116.614 160.74 116.849 160.53 117.019 160.26C117.199 159.98 117.289 159.66 117.289 159.3L117.529 160.2C117.529 160.64 117.394 161.005 117.124 161.295C116.864 161.585 116.539 161.8 116.149 161.94C115.769 162.08 115.389 162.15 115.009 162.15C114.589 162.15 114.194 162.065 113.824 161.895C113.464 161.715 113.174 161.46 112.954 161.13C112.734 160.8 112.624 160.4 112.624 159.93C112.624 159.26 112.859 158.725 113.329 158.325C113.809 157.915 114.474 157.71 115.324 157.71C115.824 157.71 116.239 157.77 116.569 157.89C116.909 158 117.179 158.13 117.379 158.28C117.579 158.42 117.714 158.535 117.784 158.625V159.33C117.434 159.09 117.074 158.92 116.704 158.82C116.334 158.71 115.939 158.655 115.519 158.655C115.129 158.655 114.809 158.705 114.559 158.805C114.319 158.905 114.139 159.045 114.019 159.225C113.899 159.405 113.839 159.62 113.839 159.87ZM113.659 156.69L113.074 155.805C113.334 155.615 113.689 155.425 114.139 155.235C114.599 155.045 115.149 154.95 115.789 154.95C116.329 154.95 116.799 155.035 117.199 155.205C117.609 155.365 117.924 155.6 118.144 155.91C118.374 156.22 118.489 156.6 118.489 157.05V162H117.289V157.215C117.289 156.975 117.249 156.78 117.169 156.63C117.089 156.47 116.974 156.345 116.824 156.255C116.684 156.165 116.519 156.1 116.329 156.06C116.139 156.02 115.939 156 115.729 156C115.389 156 115.079 156.04 114.799 156.12C114.529 156.2 114.299 156.295 114.109 156.405C113.919 156.515 113.769 156.61 113.659 156.69ZM124.946 157.8C124.946 157.23 124.821 156.8 124.571 156.51C124.321 156.22 123.956 156.075 123.476 156.075C123.126 156.075 122.816 156.15 122.546 156.3C122.286 156.44 122.081 156.64 121.931 156.9C121.791 157.16 121.721 157.46 121.721 157.8V162H120.521V155.1H121.721V156.18C121.951 155.76 122.236 155.45 122.576 155.25C122.926 155.05 123.326 154.95 123.776 154.95C124.506 154.95 125.081 155.195 125.501 155.685C125.931 156.165 126.146 156.82 126.146 157.65V162H124.946V157.8ZM134.023 150.3V162H132.823V150.3H134.023ZM139.798 158.55C139.798 159.29 139.643 159.93 139.333 160.47C139.023 161.01 138.608 161.425 138.088 161.715C137.578 162.005 137.008 162.15 136.378 162.15C135.808 162.15 135.303 162.005 134.863 161.715C134.433 161.425 134.093 161.01 133.843 160.47C133.603 159.93 133.483 159.29 133.483 158.55C133.483 157.8 133.603 157.16 133.843 156.63C134.093 156.09 134.433 155.675 134.863 155.385C135.303 155.095 135.808 154.95 136.378 154.95C137.008 154.95 137.578 155.095 138.088 155.385C138.608 155.675 139.023 156.09 139.333 156.63C139.643 157.16 139.798 157.8 139.798 158.55ZM138.583 158.55C138.583 158.02 138.473 157.57 138.253 157.2C138.043 156.83 137.758 156.55 137.398 156.36C137.048 156.17 136.658 156.075 136.228 156.075C135.878 156.075 135.533 156.17 135.193 156.36C134.853 156.55 134.573 156.83 134.353 157.2C134.133 157.57 134.023 158.02 134.023 158.55C134.023 159.08 134.133 159.53 134.353 159.9C134.573 160.27 134.853 160.55 135.193 160.74C135.533 160.93 135.878 161.025 136.228 161.025C136.658 161.025 137.048 160.93 137.398 160.74C137.758 160.55 138.043 160.27 138.253 159.9C138.473 159.53 138.583 159.08 138.583 158.55ZM144.123 162.15C143.483 162.15 142.913 162 142.413 161.7C141.923 161.39 141.538 160.965 141.258 160.425C140.988 159.885 140.853 159.26 140.853 158.55C140.853 157.83 140.993 157.2 141.273 156.66C141.563 156.12 141.963 155.7 142.473 155.4C142.993 155.1 143.593 154.95 144.273 154.95C144.953 154.95 145.533 155.095 146.013 155.385C146.503 155.665 146.878 156.07 147.138 156.6C147.398 157.13 147.528 157.76 147.528 158.49C147.528 158.56 147.523 158.635 147.513 158.715C147.513 158.785 147.513 158.83 147.513 158.85H141.618V157.83H146.568L146.088 158.52C146.118 158.47 146.148 158.395 146.178 158.295C146.208 158.185 146.223 158.095 146.223 158.025C146.223 157.615 146.138 157.26 145.968 156.96C145.808 156.66 145.583 156.425 145.293 156.255C145.003 156.085 144.663 156 144.273 156C143.813 156 143.418 156.1 143.088 156.3C142.768 156.49 142.518 156.77 142.338 157.14C142.168 157.5 142.078 157.945 142.068 158.475C142.068 159.015 142.153 159.475 142.323 159.855C142.493 160.235 142.743 160.525 143.073 160.725C143.403 160.925 143.803 161.025 144.273 161.025C144.743 161.025 145.158 160.925 145.518 160.725C145.878 160.515 146.183 160.2 146.433 159.78L147.408 160.395C147.048 160.975 146.593 161.415 146.043 161.715C145.503 162.005 144.863 162.15 144.123 162.15ZM152.62 155.1H156.07V156.225H152.62V155.1ZM153.745 152.7H154.945V162H153.745V152.7ZM158.473 150.3V162H157.273V150.3H158.473ZM161.698 157.8C161.698 157.23 161.573 156.8 161.323 156.51C161.083 156.22 160.718 156.075 160.228 156.075C159.878 156.075 159.568 156.15 159.298 156.3C159.038 156.45 158.833 156.655 158.683 156.915C158.543 157.175 158.473 157.47 158.473 157.8H158.083C158.083 157.25 158.188 156.765 158.398 156.345C158.608 155.915 158.893 155.575 159.253 155.325C159.623 155.075 160.048 154.95 160.528 154.95C161.008 154.95 161.423 155.05 161.773 155.25C162.133 155.45 162.408 155.75 162.598 156.15C162.798 156.55 162.898 157.05 162.898 157.65V162H161.698V157.8ZM167.824 162.15C167.184 162.15 166.614 162 166.114 161.7C165.624 161.39 165.239 160.965 164.959 160.425C164.689 159.885 164.554 159.26 164.554 158.55C164.554 157.83 164.694 157.2 164.974 156.66C165.264 156.12 165.664 155.7 166.174 155.4C166.694 155.1 167.294 154.95 167.974 154.95C168.654 154.95 169.234 155.095 169.714 155.385C170.204 155.665 170.579 156.07 170.839 156.6C171.099 157.13 171.229 157.76 171.229 158.49C171.229 158.56 171.224 158.635 171.214 158.715C171.214 158.785 171.214 158.83 171.214 158.85H165.319V157.83H170.269L169.789 158.52C169.819 158.47 169.849 158.395 169.879 158.295C169.909 158.185 169.924 158.095 169.924 158.025C169.924 157.615 169.839 157.26 169.669 156.96C169.509 156.66 169.284 156.425 168.994 156.255C168.704 156.085 168.364 156 167.974 156C167.514 156 167.119 156.1 166.789 156.3C166.469 156.49 166.219 156.77 166.039 157.14C165.869 157.5 165.779 157.945 165.769 158.475C165.769 159.015 165.854 159.475 166.024 159.855C166.194 160.235 166.444 160.525 166.774 160.725C167.104 160.925 167.504 161.025 167.974 161.025C168.444 161.025 168.859 160.925 169.219 160.725C169.579 160.515 169.884 160.2 170.134 159.78L171.109 160.395C170.749 160.975 170.294 161.415 169.744 161.715C169.204 162.005 168.564 162.15 167.824 162.15ZM182.546 150.3H183.746V162H182.546V150.3ZM176.771 158.55C176.771 157.8 176.926 157.16 177.236 156.63C177.546 156.09 177.961 155.675 178.481 155.385C179.001 155.095 179.571 154.95 180.191 154.95C180.771 154.95 181.276 155.095 181.706 155.385C182.136 155.675 182.471 156.09 182.711 156.63C182.961 157.16 183.086 157.8 183.086 158.55C183.086 159.29 182.961 159.93 182.711 160.47C182.471 161.01 182.136 161.425 181.706 161.715C181.276 162.005 180.771 162.15 180.191 162.15C179.571 162.15 179.001 162.005 178.481 161.715C177.961 161.425 177.546 161.01 177.236 160.47C176.926 159.93 176.771 159.29 176.771 158.55ZM177.986 158.55C177.986 159.08 178.091 159.53 178.301 159.9C178.521 160.27 178.811 160.55 179.171 160.74C179.531 160.93 179.921 161.025 180.341 161.025C180.691 161.025 181.036 160.93 181.376 160.74C181.716 160.55 181.996 160.27 182.216 159.9C182.436 159.53 182.546 159.08 182.546 158.55C182.546 158.02 182.436 157.57 182.216 157.2C181.996 156.83 181.716 156.55 181.376 156.36C181.036 156.17 180.691 156.075 180.341 156.075C179.921 156.075 179.531 156.17 179.171 156.36C178.811 156.55 178.521 156.83 178.301 157.2C178.091 157.57 177.986 158.02 177.986 158.55ZM185.926 152.25C185.926 152.02 186.006 151.825 186.166 151.665C186.336 151.505 186.531 151.425 186.751 151.425C186.981 151.425 187.176 151.505 187.336 151.665C187.496 151.825 187.576 152.02 187.576 152.25C187.576 152.47 187.496 152.665 187.336 152.835C187.176 152.995 186.981 153.075 186.751 153.075C186.531 153.075 186.336 152.995 186.166 152.835C186.006 152.665 185.926 152.47 185.926 152.25ZM186.151 155.1H187.351V162H186.151V155.1ZM189.297 155.1H192.747V156.225H189.297V155.1ZM192.627 151.74C192.527 151.57 192.407 151.465 192.267 151.425C192.137 151.375 192.012 151.35 191.892 151.35C191.742 151.35 191.612 151.395 191.502 151.485C191.402 151.565 191.322 151.705 191.262 151.905C191.202 152.105 191.172 152.37 191.172 152.7V162H189.972V152.55C189.972 152 190.052 151.55 190.212 151.2C190.372 150.85 190.597 150.59 190.887 150.42C191.187 150.24 191.547 150.15 191.967 150.15C192.187 150.15 192.382 150.18 192.552 150.24C192.722 150.3 192.867 150.375 192.987 150.465C193.117 150.555 193.217 150.65 193.287 150.75L192.627 151.74ZM193.589 155.1H197.039V156.225H193.589V155.1ZM196.919 151.74C196.819 151.57 196.699 151.465 196.559 151.425C196.429 151.375 196.304 151.35 196.184 151.35C196.034 151.35 195.904 151.395 195.794 151.485C195.694 151.565 195.614 151.705 195.554 151.905C195.494 152.105 195.464 152.37 195.464 152.7V162H194.264V152.55C194.264 152 194.344 151.55 194.504 151.2C194.664 150.85 194.889 150.59 195.179 150.42C195.479 150.24 195.839 150.15 196.259 150.15C196.479 150.15 196.674 150.18 196.844 150.24C197.014 150.3 197.159 150.375 197.279 150.465C197.409 150.555 197.509 150.65 197.579 150.75L196.919 151.74ZM201.076 162.15C200.436 162.15 199.866 162 199.366 161.7C198.876 161.39 198.491 160.965 198.211 160.425C197.941 159.885 197.806 159.26 197.806 158.55C197.806 157.83 197.946 157.2 198.226 156.66C198.516 156.12 198.916 155.7 199.426 155.4C199.946 155.1 200.546 154.95 201.226 154.95C201.906 154.95 202.486 155.095 202.966 155.385C203.456 155.665 203.831 156.07 204.091 156.6C204.351 157.13 204.481 157.76 204.481 158.49C204.481 158.56 204.476 158.635 204.466 158.715C204.466 158.785 204.466 158.83 204.466 158.85H198.571V157.83H203.521L203.041 158.52C203.071 158.47 203.101 158.395 203.131 158.295C203.161 158.185 203.176 158.095 203.176 158.025C203.176 157.615 203.091 157.26 202.921 156.96C202.761 156.66 202.536 156.425 202.246 156.255C201.956 156.085 201.616 156 201.226 156C200.766 156 200.371 156.1 200.041 156.3C199.721 156.49 199.471 156.77 199.291 157.14C199.121 157.5 199.031 157.945 199.021 158.475C199.021 159.015 199.106 159.475 199.276 159.855C199.446 160.235 199.696 160.525 200.026 160.725C200.356 160.925 200.756 161.025 201.226 161.025C201.696 161.025 202.111 160.925 202.471 160.725C202.831 160.515 203.136 160.2 203.386 159.78L204.361 160.395C204.001 160.975 203.546 161.415 202.996 161.715C202.456 162.005 201.816 162.15 201.076 162.15ZM207.326 155.1V162H206.126V155.1H207.326ZM209.411 156.42C209.251 156.3 209.106 156.215 208.976 156.165C208.846 156.105 208.681 156.075 208.481 156.075C208.181 156.075 207.946 156.15 207.776 156.3C207.606 156.45 207.486 156.655 207.416 156.915C207.356 157.175 207.326 157.47 207.326 157.8H206.786C206.786 157.25 206.881 156.765 207.071 156.345C207.271 155.915 207.526 155.575 207.836 155.325C208.146 155.075 208.461 154.95 208.781 154.95C209.031 154.95 209.261 154.985 209.471 155.055C209.691 155.115 209.891 155.24 210.071 155.43L209.411 156.42ZM213.718 162.15C213.078 162.15 212.508 162 212.008 161.7C211.518 161.39 211.133 160.965 210.853 160.425C210.583 159.885 210.448 159.26 210.448 158.55C210.448 157.83 210.588 157.2 210.868 156.66C211.158 156.12 211.558 155.7 212.068 155.4C212.588 155.1 213.188 154.95 213.868 154.95C214.548 154.95 215.128 155.095 215.608 155.385C216.098 155.665 216.473 156.07 216.733 156.6C216.993 157.13 217.123 157.76 217.123 158.49C217.123 158.56 217.118 158.635 217.108 158.715C217.108 158.785 217.108 158.83 217.108 158.85H211.213V157.83H216.163L215.683 158.52C215.713 158.47 215.743 158.395 215.773 158.295C215.803 158.185 215.818 158.095 215.818 158.025C215.818 157.615 215.733 157.26 215.563 156.96C215.403 156.66 215.178 156.425 214.888 156.255C214.598 156.085 214.258 156 213.868 156C213.408 156 213.013 156.1 212.683 156.3C212.363 156.49 212.113 156.77 211.933 157.14C211.763 157.5 211.673 157.945 211.663 158.475C211.663 159.015 211.748 159.475 211.918 159.855C212.088 160.235 212.338 160.525 212.668 160.725C212.998 160.925 213.398 161.025 213.868 161.025C214.338 161.025 214.753 160.925 215.113 160.725C215.473 160.515 215.778 160.2 216.028 159.78L217.003 160.395C216.643 160.975 216.188 161.415 215.638 161.715C215.098 162.005 214.458 162.15 213.718 162.15ZM223.193 157.8C223.193 157.23 223.068 156.8 222.818 156.51C222.568 156.22 222.203 156.075 221.723 156.075C221.373 156.075 221.063 156.15 220.793 156.3C220.533 156.44 220.328 156.64 220.178 156.9C220.038 157.16 219.968 157.46 219.968 157.8V162H218.768V155.1H219.968V156.18C220.198 155.76 220.483 155.45 220.823 155.25C221.173 155.05 221.573 154.95 222.023 154.95C222.753 154.95 223.328 155.195 223.748 155.685C224.178 156.165 224.393 156.82 224.393 157.65V162H223.193V157.8ZM227.188 158.55C227.188 159.03 227.288 159.455 227.488 159.825C227.698 160.195 227.978 160.49 228.328 160.71C228.688 160.92 229.093 161.025 229.543 161.025C229.913 161.025 230.258 160.97 230.578 160.86C230.908 160.74 231.193 160.585 231.433 160.395C231.673 160.195 231.843 159.985 231.943 159.765V161.265C231.703 161.545 231.358 161.765 230.908 161.925C230.468 162.075 230.013 162.15 229.543 162.15C228.873 162.15 228.268 161.995 227.728 161.685C227.188 161.375 226.758 160.95 226.438 160.41C226.128 159.86 225.973 159.24 225.973 158.55C225.973 157.85 226.128 157.23 226.438 156.69C226.758 156.15 227.188 155.725 227.728 155.415C228.268 155.105 228.873 154.95 229.543 154.95C230.013 154.95 230.468 155.03 230.908 155.19C231.358 155.34 231.703 155.555 231.943 155.835V157.335C231.843 157.105 231.673 156.895 231.433 156.705C231.193 156.515 230.908 156.365 230.578 156.255C230.258 156.135 229.913 156.075 229.543 156.075C229.093 156.075 228.688 156.18 228.328 156.39C227.978 156.6 227.698 156.895 227.488 157.275C227.288 157.645 227.188 158.07 227.188 158.55ZM236.482 162.15C235.842 162.15 235.272 162 234.772 161.7C234.282 161.39 233.897 160.965 233.617 160.425C233.347 159.885 233.212 159.26 233.212 158.55C233.212 157.83 233.352 157.2 233.632 156.66C233.922 156.12 234.322 155.7 234.832 155.4C235.352 155.1 235.952 154.95 236.632 154.95C237.312 154.95 237.892 155.095 238.372 155.385C238.862 155.665 239.237 156.07 239.497 156.6C239.757 157.13 239.887 157.76 239.887 158.49C239.887 158.56 239.882 158.635 239.872 158.715C239.872 158.785 239.872 158.83 239.872 158.85H233.977V157.83H238.927L238.447 158.52C238.477 158.47 238.507 158.395 238.537 158.295C238.567 158.185 238.582 158.095 238.582 158.025C238.582 157.615 238.497 157.26 238.327 156.96C238.167 156.66 237.942 156.425 237.652 156.255C237.362 156.085 237.022 156 236.632 156C236.172 156 235.777 156.1 235.447 156.3C235.127 156.49 234.877 156.77 234.697 157.14C234.527 157.5 234.437 157.945 234.427 158.475C234.427 159.015 234.512 159.475 234.682 159.855C234.852 160.235 235.102 160.525 235.432 160.725C235.762 160.925 236.162 161.025 236.632 161.025C237.102 161.025 237.517 160.925 237.877 160.725C238.237 160.515 238.542 160.2 238.792 159.78L239.767 160.395C239.407 160.975 238.952 161.415 238.402 161.715C237.862 162.005 237.222 162.15 236.482 162.15ZM16.25 172.3V184H15.05V172.3H16.25ZM22.025 180.55C22.025 181.29 21.87 181.93 21.56 182.47C21.25 183.01 20.835 183.425 20.315 183.715C19.805 184.005 19.235 184.15 18.605 184.15C18.035 184.15 17.53 184.005 17.09 183.715C16.66 183.425 16.32 183.01 16.07 182.47C15.83 181.93 15.71 181.29 15.71 180.55C15.71 179.8 15.83 179.16 16.07 178.63C16.32 178.09 16.66 177.675 17.09 177.385C17.53 177.095 18.035 176.95 18.605 176.95C19.235 176.95 19.805 177.095 20.315 177.385C20.835 177.675 21.25 178.09 21.56 178.63C21.87 179.16 22.025 179.8 22.025 180.55ZM20.81 180.55C20.81 180.02 20.7 179.57 20.48 179.2C20.27 178.83 19.985 178.55 19.625 178.36C19.275 178.17 18.885 178.075 18.455 178.075C18.105 178.075 17.76 178.17 17.42 178.36C17.08 178.55 16.8 178.83 16.58 179.2C16.36 179.57 16.25 180.02 16.25 180.55C16.25 181.08 16.36 181.53 16.58 181.9C16.8 182.27 17.08 182.55 17.42 182.74C17.76 182.93 18.105 183.025 18.455 183.025C18.885 183.025 19.275 182.93 19.625 182.74C19.985 182.55 20.27 182.27 20.48 181.9C20.7 181.53 20.81 181.08 20.81 180.55ZM26.3497 184.15C25.7097 184.15 25.1397 184 24.6397 183.7C24.1497 183.39 23.7647 182.965 23.4847 182.425C23.2147 181.885 23.0797 181.26 23.0797 180.55C23.0797 179.83 23.2197 179.2 23.4997 178.66C23.7897 178.12 24.1897 177.7 24.6997 177.4C25.2197 177.1 25.8197 176.95 26.4997 176.95C27.1797 176.95 27.7597 177.095 28.2397 177.385C28.7297 177.665 29.1047 178.07 29.3647 178.6C29.6247 179.13 29.7547 179.76 29.7547 180.49C29.7547 180.56 29.7497 180.635 29.7397 180.715C29.7397 180.785 29.7397 180.83 29.7397 180.85H23.8447V179.83H28.7947L28.3147 180.52C28.3447 180.47 28.3747 180.395 28.4047 180.295C28.4347 180.185 28.4497 180.095 28.4497 180.025C28.4497 179.615 28.3647 179.26 28.1947 178.96C28.0347 178.66 27.8097 178.425 27.5197 178.255C27.2297 178.085 26.8897 178 26.4997 178C26.0397 178 25.6447 178.1 25.3147 178.3C24.9947 178.49 24.7447 178.77 24.5647 179.14C24.3947 179.5 24.3047 179.945 24.2947 180.475C24.2947 181.015 24.3797 181.475 24.5497 181.855C24.7197 182.235 24.9697 182.525 25.2997 182.725C25.6297 182.925 26.0297 183.025 26.4997 183.025C26.9697 183.025 27.3847 182.925 27.7447 182.725C28.1047 182.515 28.4097 182.2 28.6597 181.78L29.6347 182.395C29.2747 182.975 28.8197 183.415 28.2697 183.715C27.7297 184.005 27.0897 184.15 26.3497 184.15ZM30.3494 177.1H33.7994V178.225H30.3494V177.1ZM31.4744 174.7H32.6744V184H31.4744V174.7ZM33.9529 177.1H35.3029L37.0279 181.585L38.9029 176.575L40.9129 181.615L42.6529 177.1H44.0029L41.0029 184.525L38.9179 179.5L36.9529 184.525L33.9529 177.1ZM47.6485 184.15C47.0085 184.15 46.4385 184 45.9385 183.7C45.4485 183.39 45.0635 182.965 44.7835 182.425C44.5135 181.885 44.3785 181.26 44.3785 180.55C44.3785 179.83 44.5185 179.2 44.7985 178.66C45.0885 178.12 45.4885 177.7 45.9985 177.4C46.5185 177.1 47.1185 176.95 47.7985 176.95C48.4785 176.95 49.0585 177.095 49.5385 177.385C50.0285 177.665 50.4035 178.07 50.6635 178.6C50.9235 179.13 51.0535 179.76 51.0535 180.49C51.0535 180.56 51.0485 180.635 51.0385 180.715C51.0385 180.785 51.0385 180.83 51.0385 180.85H45.1435V179.83H50.0935L49.6135 180.52C49.6435 180.47 49.6735 180.395 49.7035 180.295C49.7335 180.185 49.7485 180.095 49.7485 180.025C49.7485 179.615 49.6635 179.26 49.4935 178.96C49.3335 178.66 49.1085 178.425 48.8185 178.255C48.5285 178.085 48.1885 178 47.7985 178C47.3385 178 46.9435 178.1 46.6135 178.3C46.2935 178.49 46.0435 178.77 45.8635 179.14C45.6935 179.5 45.6035 179.945 45.5935 180.475C45.5935 181.015 45.6785 181.475 45.8485 181.855C46.0185 182.235 46.2685 182.525 46.5985 182.725C46.9285 182.925 47.3285 183.025 47.7985 183.025C48.2685 183.025 48.6835 182.925 49.0435 182.725C49.4035 182.515 49.7085 182.2 49.9585 181.78L50.9335 182.395C50.5735 182.975 50.1185 183.415 49.5685 183.715C49.0285 184.005 48.3885 184.15 47.6485 184.15ZM55.3682 184.15C54.7282 184.15 54.1582 184 53.6582 183.7C53.1682 183.39 52.7832 182.965 52.5032 182.425C52.2332 181.885 52.0982 181.26 52.0982 180.55C52.0982 179.83 52.2382 179.2 52.5182 178.66C52.8082 178.12 53.2082 177.7 53.7182 177.4C54.2382 177.1 54.8382 176.95 55.5182 176.95C56.1982 176.95 56.7782 177.095 57.2582 177.385C57.7482 177.665 58.1232 178.07 58.3832 178.6C58.6432 179.13 58.7732 179.76 58.7732 180.49C58.7732 180.56 58.7682 180.635 58.7582 180.715C58.7582 180.785 58.7582 180.83 58.7582 180.85H52.8632V179.83H57.8132L57.3332 180.52C57.3632 180.47 57.3932 180.395 57.4232 180.295C57.4532 180.185 57.4682 180.095 57.4682 180.025C57.4682 179.615 57.3832 179.26 57.2132 178.96C57.0532 178.66 56.8282 178.425 56.5382 178.255C56.2482 178.085 55.9082 178 55.5182 178C55.0582 178 54.6632 178.1 54.3332 178.3C54.0132 178.49 53.7632 178.77 53.5832 179.14C53.4132 179.5 53.3232 179.945 53.3132 180.475C53.3132 181.015 53.3982 181.475 53.5682 181.855C53.7382 182.235 53.9882 182.525 54.3182 182.725C54.6482 182.925 55.0482 183.025 55.5182 183.025C55.9882 183.025 56.4032 182.925 56.7632 182.725C57.1232 182.515 57.4282 182.2 57.6782 181.78L58.6532 182.395C58.2932 182.975 57.8382 183.415 57.2882 183.715C56.7482 184.005 56.1082 184.15 55.3682 184.15ZM64.843 179.8C64.843 179.23 64.718 178.8 64.468 178.51C64.218 178.22 63.853 178.075 63.373 178.075C63.023 178.075 62.713 178.15 62.443 178.3C62.183 178.44 61.978 178.64 61.828 178.9C61.688 179.16 61.618 179.46 61.618 179.8V184H60.418V177.1H61.618V178.18C61.848 177.76 62.133 177.45 62.473 177.25C62.823 177.05 63.223 176.95 63.673 176.95C64.403 176.95 64.978 177.195 65.398 177.685C65.828 178.165 66.043 178.82 66.043 179.65V184H64.843V179.8ZM73.0809 181.885C73.2209 182.095 73.3809 182.29 73.5609 182.47C73.7409 182.65 73.9459 182.795 74.1759 182.905C74.4159 183.005 74.6759 183.055 74.9559 183.055C75.2959 183.055 75.5609 182.98 75.7509 182.83C75.9509 182.67 76.0509 182.455 76.0509 182.185C76.0509 181.945 75.9709 181.745 75.8109 181.585C75.6609 181.415 75.4659 181.275 75.2259 181.165C74.9859 181.045 74.7309 180.935 74.4609 180.835C74.1609 180.715 73.8559 180.575 73.5459 180.415C73.2459 180.245 72.9909 180.03 72.7809 179.77C72.5809 179.5 72.4809 179.165 72.4809 178.765C72.4809 178.355 72.5859 178.015 72.7959 177.745C73.0159 177.475 73.2959 177.275 73.6359 177.145C73.9859 177.015 74.3459 176.95 74.7159 176.95C75.0859 176.95 75.4309 177.01 75.7509 177.13C76.0809 177.25 76.3709 177.41 76.6209 177.61C76.8709 177.81 77.0659 178.04 77.2059 178.3L76.2459 178.915C76.0559 178.655 75.8159 178.44 75.5259 178.27C75.2459 178.1 74.9259 178.015 74.5659 178.015C74.3159 178.015 74.1009 178.07 73.9209 178.18C73.7409 178.29 73.6509 178.46 73.6509 178.69C73.6509 178.87 73.7209 179.03 73.8609 179.17C74.0009 179.31 74.1809 179.435 74.4009 179.545C74.6209 179.655 74.8509 179.76 75.0909 179.86C75.4909 180.02 75.8559 180.195 76.1859 180.385C76.5159 180.565 76.7759 180.785 76.9659 181.045C77.1659 181.305 77.2659 181.64 77.2659 182.05C77.2659 182.65 77.0459 183.15 76.6059 183.55C76.1759 183.95 75.6059 184.15 74.8959 184.15C74.4359 184.15 74.0209 184.07 73.6509 183.91C73.2809 183.74 72.9659 183.525 72.7059 183.265C72.4559 183.005 72.2659 182.74 72.1359 182.47L73.0809 181.885ZM80.0457 181.3C80.0457 181.85 80.1707 182.275 80.4207 182.575C80.6707 182.875 81.0357 183.025 81.5157 183.025C81.8657 183.025 82.1707 182.955 82.4307 182.815C82.7007 182.665 82.9057 182.46 83.0457 182.2C83.1957 181.94 83.2707 181.64 83.2707 181.3V177.1H84.4707V184H83.2707V182.92C83.0407 183.33 82.7557 183.64 82.4157 183.85C82.0757 184.05 81.6757 184.15 81.2157 184.15C80.4957 184.15 79.9207 183.905 79.4907 183.415C79.0607 182.925 78.8457 182.27 78.8457 181.45V177.1H80.0457V181.3ZM87.2666 180.55C87.2666 181.03 87.3666 181.455 87.5666 181.825C87.7766 182.195 88.0566 182.49 88.4066 182.71C88.7666 182.92 89.1716 183.025 89.6216 183.025C89.9916 183.025 90.3366 182.97 90.6566 182.86C90.9866 182.74 91.2716 182.585 91.5116 182.395C91.7516 182.195 91.9216 181.985 92.0216 181.765V183.265C91.7816 183.545 91.4366 183.765 90.9866 183.925C90.5466 184.075 90.0916 184.15 89.6216 184.15C88.9516 184.15 88.3466 183.995 87.8066 183.685C87.2666 183.375 86.8366 182.95 86.5166 182.41C86.2066 181.86 86.0516 181.24 86.0516 180.55C86.0516 179.85 86.2066 179.23 86.5166 178.69C86.8366 178.15 87.2666 177.725 87.8066 177.415C88.3466 177.105 88.9516 176.95 89.6216 176.95C90.0916 176.95 90.5466 177.03 90.9866 177.19C91.4366 177.34 91.7816 177.555 92.0216 177.835V179.335C91.9216 179.105 91.7516 178.895 91.5116 178.705C91.2716 178.515 90.9866 178.365 90.6566 178.255C90.3366 178.135 89.9916 178.075 89.6216 178.075C89.1716 178.075 88.7666 178.18 88.4066 178.39C88.0566 178.6 87.7766 178.895 87.5666 179.275C87.3666 179.645 87.2666 180.07 87.2666 180.55ZM94.4296 180.55C94.4296 181.03 94.5296 181.455 94.7296 181.825C94.9396 182.195 95.2196 182.49 95.5696 182.71C95.9296 182.92 96.3346 183.025 96.7846 183.025C97.1546 183.025 97.4996 182.97 97.8196 182.86C98.1496 182.74 98.4346 182.585 98.6746 182.395C98.9146 182.195 99.0846 181.985 99.1846 181.765V183.265C98.9446 183.545 98.5996 183.765 98.1496 183.925C97.7096 184.075 97.2546 184.15 96.7846 184.15C96.1146 184.15 95.5096 183.995 94.9696 183.685C94.4296 183.375 93.9996 182.95 93.6796 182.41C93.3696 181.86 93.2146 181.24 93.2146 180.55C93.2146 179.85 93.3696 179.23 93.6796 178.69C93.9996 178.15 94.4296 177.725 94.9696 177.415C95.5096 177.105 96.1146 176.95 96.7846 176.95C97.2546 176.95 97.7096 177.03 98.1496 177.19C98.5996 177.34 98.9446 177.555 99.1846 177.835V179.335C99.0846 179.105 98.9146 178.895 98.6746 178.705C98.4346 178.515 98.1496 178.365 97.8196 178.255C97.4996 178.135 97.1546 178.075 96.7846 178.075C96.3346 178.075 95.9296 178.18 95.5696 178.39C95.2196 178.6 94.9396 178.895 94.7296 179.275C94.5296 179.645 94.4296 180.07 94.4296 180.55ZM103.723 184.15C103.083 184.15 102.513 184 102.013 183.7C101.523 183.39 101.138 182.965 100.858 182.425C100.588 181.885 100.453 181.26 100.453 180.55C100.453 179.83 100.593 179.2 100.873 178.66C101.163 178.12 101.563 177.7 102.073 177.4C102.593 177.1 103.193 176.95 103.873 176.95C104.553 176.95 105.133 177.095 105.613 177.385C106.103 177.665 106.478 178.07 106.738 178.6C106.998 179.13 107.128 179.76 107.128 180.49C107.128 180.56 107.123 180.635 107.113 180.715C107.113 180.785 107.113 180.83 107.113 180.85H101.218V179.83H106.168L105.688 180.52C105.718 180.47 105.748 180.395 105.778 180.295C105.808 180.185 105.823 180.095 105.823 180.025C105.823 179.615 105.738 179.26 105.568 178.96C105.408 178.66 105.183 178.425 104.893 178.255C104.603 178.085 104.263 178 103.873 178C103.413 178 103.018 178.1 102.688 178.3C102.368 178.49 102.118 178.77 101.938 179.14C101.768 179.5 101.678 179.945 101.668 180.475C101.668 181.015 101.753 181.475 101.923 181.855C102.093 182.235 102.343 182.525 102.673 182.725C103.003 182.925 103.403 183.025 103.873 183.025C104.343 183.025 104.758 182.925 105.118 182.725C105.478 182.515 105.783 182.2 106.033 181.78L107.008 182.395C106.648 182.975 106.193 183.415 105.643 183.715C105.103 184.005 104.463 184.15 103.723 184.15ZM109.057 181.885C109.197 182.095 109.357 182.29 109.537 182.47C109.717 182.65 109.922 182.795 110.152 182.905C110.392 183.005 110.652 183.055 110.932 183.055C111.272 183.055 111.537 182.98 111.727 182.83C111.927 182.67 112.027 182.455 112.027 182.185C112.027 181.945 111.947 181.745 111.787 181.585C111.637 181.415 111.442 181.275 111.202 181.165C110.962 181.045 110.707 180.935 110.437 180.835C110.137 180.715 109.832 180.575 109.522 180.415C109.222 180.245 108.967 180.03 108.757 179.77C108.557 179.5 108.457 179.165 108.457 178.765C108.457 178.355 108.562 178.015 108.772 177.745C108.992 177.475 109.272 177.275 109.612 177.145C109.962 177.015 110.322 176.95 110.692 176.95C111.062 176.95 111.407 177.01 111.727 177.13C112.057 177.25 112.347 177.41 112.597 177.61C112.847 177.81 113.042 178.04 113.182 178.3L112.222 178.915C112.032 178.655 111.792 178.44 111.502 178.27C111.222 178.1 110.902 178.015 110.542 178.015C110.292 178.015 110.077 178.07 109.897 178.18C109.717 178.29 109.627 178.46 109.627 178.69C109.627 178.87 109.697 179.03 109.837 179.17C109.977 179.31 110.157 179.435 110.377 179.545C110.597 179.655 110.827 179.76 111.067 179.86C111.467 180.02 111.832 180.195 112.162 180.385C112.492 180.565 112.752 180.785 112.942 181.045C113.142 181.305 113.242 181.64 113.242 182.05C113.242 182.65 113.022 183.15 112.582 183.55C112.152 183.95 111.582 184.15 110.872 184.15C110.412 184.15 109.997 184.07 109.627 183.91C109.257 183.74 108.942 183.525 108.682 183.265C108.432 183.005 108.242 182.74 108.112 182.47L109.057 181.885ZM115.107 181.885C115.247 182.095 115.407 182.29 115.587 182.47C115.767 182.65 115.972 182.795 116.202 182.905C116.442 183.005 116.702 183.055 116.982 183.055C117.322 183.055 117.587 182.98 117.777 182.83C117.977 182.67 118.077 182.455 118.077 182.185C118.077 181.945 117.997 181.745 117.837 181.585C117.687 181.415 117.492 181.275 117.252 181.165C117.012 181.045 116.757 180.935 116.487 180.835C116.187 180.715 115.882 180.575 115.572 180.415C115.272 180.245 115.017 180.03 114.807 179.77C114.607 179.5 114.507 179.165 114.507 178.765C114.507 178.355 114.612 178.015 114.822 177.745C115.042 177.475 115.322 177.275 115.662 177.145C116.012 177.015 116.372 176.95 116.742 176.95C117.112 176.95 117.457 177.01 117.777 177.13C118.107 177.25 118.397 177.41 118.647 177.61C118.897 177.81 119.092 178.04 119.232 178.3L118.272 178.915C118.082 178.655 117.842 178.44 117.552 178.27C117.272 178.1 116.952 178.015 116.592 178.015C116.342 178.015 116.127 178.07 115.947 178.18C115.767 178.29 115.677 178.46 115.677 178.69C115.677 178.87 115.747 179.03 115.887 179.17C116.027 179.31 116.207 179.435 116.427 179.545C116.647 179.655 116.877 179.76 117.117 179.86C117.517 180.02 117.882 180.195 118.212 180.385C118.542 180.565 118.802 180.785 118.992 181.045C119.192 181.305 119.292 181.64 119.292 182.05C119.292 182.65 119.072 183.15 118.632 183.55C118.202 183.95 117.632 184.15 116.922 184.15C116.462 184.15 116.047 184.07 115.677 183.91C115.307 183.74 114.992 183.525 114.732 183.265C114.482 183.005 114.292 182.74 114.162 182.47L115.107 181.885ZM125.909 181.87C125.909 182.13 125.969 182.355 126.089 182.545C126.219 182.735 126.394 182.88 126.614 182.98C126.844 183.07 127.104 183.115 127.394 183.115C127.764 183.115 128.094 183.04 128.384 182.89C128.684 182.74 128.919 182.53 129.089 182.26C129.269 181.98 129.359 181.66 129.359 181.3L129.599 182.2C129.599 182.64 129.464 183.005 129.194 183.295C128.934 183.585 128.609 183.8 128.219 183.94C127.839 184.08 127.459 184.15 127.079 184.15C126.659 184.15 126.264 184.065 125.894 183.895C125.534 183.715 125.244 183.46 125.024 183.13C124.804 182.8 124.694 182.4 124.694 181.93C124.694 181.26 124.929 180.725 125.399 180.325C125.879 179.915 126.544 179.71 127.394 179.71C127.894 179.71 128.309 179.77 128.639 179.89C128.979 180 129.249 180.13 129.449 180.28C129.649 180.42 129.784 180.535 129.854 180.625V181.33C129.504 181.09 129.144 180.92 128.774 180.82C128.404 180.71 128.009 180.655 127.589 180.655C127.199 180.655 126.879 180.705 126.629 180.805C126.389 180.905 126.209 181.045 126.089 181.225C125.969 181.405 125.909 181.62 125.909 181.87ZM125.729 178.69L125.144 177.805C125.404 177.615 125.759 177.425 126.209 177.235C126.669 177.045 127.219 176.95 127.859 176.95C128.399 176.95 128.869 177.035 129.269 177.205C129.679 177.365 129.994 177.6 130.214 177.91C130.444 178.22 130.559 178.6 130.559 179.05V184H129.359V179.215C129.359 178.975 129.319 178.78 129.239 178.63C129.159 178.47 129.044 178.345 128.894 178.255C128.754 178.165 128.589 178.1 128.399 178.06C128.209 178.02 128.009 178 127.799 178C127.459 178 127.149 178.04 126.869 178.12C126.599 178.2 126.369 178.295 126.179 178.405C125.989 178.515 125.839 178.61 125.729 178.69ZM137.016 179.8C137.016 179.23 136.891 178.8 136.641 178.51C136.391 178.22 136.026 178.075 135.546 178.075C135.196 178.075 134.886 178.15 134.616 178.3C134.356 178.44 134.151 178.64 134.001 178.9C133.861 179.16 133.791 179.46 133.791 179.8V184H132.591V177.1H133.791V178.18C134.021 177.76 134.306 177.45 134.646 177.25C134.996 177.05 135.396 176.95 135.846 176.95C136.576 176.95 137.151 177.195 137.571 177.685C138.001 178.165 138.216 178.82 138.216 179.65V184H137.016V179.8ZM145.647 172.3H146.847V184H145.647V172.3ZM139.872 180.55C139.872 179.8 140.027 179.16 140.337 178.63C140.647 178.09 141.062 177.675 141.582 177.385C142.102 177.095 142.672 176.95 143.292 176.95C143.872 176.95 144.377 177.095 144.807 177.385C145.237 177.675 145.572 178.09 145.812 178.63C146.062 179.16 146.187 179.8 146.187 180.55C146.187 181.29 146.062 181.93 145.812 182.47C145.572 183.01 145.237 183.425 144.807 183.715C144.377 184.005 143.872 184.15 143.292 184.15C142.672 184.15 142.102 184.005 141.582 183.715C141.062 183.425 140.647 183.01 140.337 182.47C140.027 181.93 139.872 181.29 139.872 180.55ZM141.087 180.55C141.087 181.08 141.192 181.53 141.402 181.9C141.622 182.27 141.912 182.55 142.272 182.74C142.632 182.93 143.022 183.025 143.442 183.025C143.792 183.025 144.137 182.93 144.477 182.74C144.817 182.55 145.097 182.27 145.317 181.9C145.537 181.53 145.647 181.08 145.647 180.55C145.647 180.02 145.537 179.57 145.317 179.2C145.097 178.83 144.817 178.55 144.477 178.36C144.137 178.17 143.792 178.075 143.442 178.075C143.022 178.075 142.632 178.17 142.272 178.36C141.912 178.55 141.622 178.83 141.402 179.2C141.192 179.57 141.087 180.02 141.087 180.55ZM153.808 181.885C153.948 182.095 154.108 182.29 154.288 182.47C154.468 182.65 154.673 182.795 154.903 182.905C155.143 183.005 155.403 183.055 155.683 183.055C156.023 183.055 156.288 182.98 156.478 182.83C156.678 182.67 156.778 182.455 156.778 182.185C156.778 181.945 156.698 181.745 156.538 181.585C156.388 181.415 156.193 181.275 155.953 181.165C155.713 181.045 155.458 180.935 155.188 180.835C154.888 180.715 154.583 180.575 154.273 180.415C153.973 180.245 153.718 180.03 153.508 179.77C153.308 179.5 153.208 179.165 153.208 178.765C153.208 178.355 153.313 178.015 153.523 177.745C153.743 177.475 154.023 177.275 154.363 177.145C154.713 177.015 155.073 176.95 155.443 176.95C155.813 176.95 156.158 177.01 156.478 177.13C156.808 177.25 157.098 177.41 157.348 177.61C157.598 177.81 157.793 178.04 157.933 178.3L156.973 178.915C156.783 178.655 156.543 178.44 156.253 178.27C155.973 178.1 155.653 178.015 155.293 178.015C155.043 178.015 154.828 178.07 154.648 178.18C154.468 178.29 154.378 178.46 154.378 178.69C154.378 178.87 154.448 179.03 154.588 179.17C154.728 179.31 154.908 179.435 155.128 179.545C155.348 179.655 155.578 179.76 155.818 179.86C156.218 180.02 156.583 180.195 156.913 180.385C157.243 180.565 157.503 180.785 157.693 181.045C157.893 181.305 157.993 181.64 157.993 182.05C157.993 182.65 157.773 183.15 157.333 183.55C156.903 183.95 156.333 184.15 155.623 184.15C155.163 184.15 154.748 184.07 154.378 183.91C154.008 183.74 153.693 183.525 153.433 183.265C153.183 183.005 152.993 182.74 152.863 182.47L153.808 181.885ZM158.523 177.1H161.973V178.225H158.523V177.1ZM159.648 174.7H160.848V184H159.648V174.7ZM163.717 181.87C163.717 182.13 163.777 182.355 163.897 182.545C164.027 182.735 164.202 182.88 164.422 182.98C164.652 183.07 164.912 183.115 165.202 183.115C165.572 183.115 165.902 183.04 166.192 182.89C166.492 182.74 166.727 182.53 166.897 182.26C167.077 181.98 167.167 181.66 167.167 181.3L167.407 182.2C167.407 182.64 167.272 183.005 167.002 183.295C166.742 183.585 166.417 183.8 166.027 183.94C165.647 184.08 165.267 184.15 164.887 184.15C164.467 184.15 164.072 184.065 163.702 183.895C163.342 183.715 163.052 183.46 162.832 183.13C162.612 182.8 162.502 182.4 162.502 181.93C162.502 181.26 162.737 180.725 163.207 180.325C163.687 179.915 164.352 179.71 165.202 179.71C165.702 179.71 166.117 179.77 166.447 179.89C166.787 180 167.057 180.13 167.257 180.28C167.457 180.42 167.592 180.535 167.662 180.625V181.33C167.312 181.09 166.952 180.92 166.582 180.82C166.212 180.71 165.817 180.655 165.397 180.655C165.007 180.655 164.687 180.705 164.437 180.805C164.197 180.905 164.017 181.045 163.897 181.225C163.777 181.405 163.717 181.62 163.717 181.87ZM163.537 178.69L162.952 177.805C163.212 177.615 163.567 177.425 164.017 177.235C164.477 177.045 165.027 176.95 165.667 176.95C166.207 176.95 166.677 177.035 167.077 177.205C167.487 177.365 167.802 177.6 168.022 177.91C168.252 178.22 168.367 178.6 168.367 179.05V184H167.167V179.215C167.167 178.975 167.127 178.78 167.047 178.63C166.967 178.47 166.852 178.345 166.702 178.255C166.562 178.165 166.397 178.1 166.207 178.06C166.017 178.02 165.817 178 165.607 178C165.267 178 164.957 178.04 164.677 178.12C164.407 178.2 164.177 178.295 163.987 178.405C163.797 178.515 163.647 178.61 163.537 178.69ZM169.933 184.45H171.148C171.148 184.78 171.238 185.085 171.418 185.365C171.598 185.655 171.853 185.885 172.183 186.055C172.513 186.235 172.903 186.325 173.353 186.325C173.703 186.325 174.048 186.24 174.388 186.07C174.728 185.9 175.008 185.63 175.228 185.26C175.458 184.9 175.573 184.43 175.573 183.85V177.1H176.773V183.85C176.773 184.64 176.608 185.3 176.278 185.83C175.948 186.37 175.523 186.775 175.003 187.045C174.483 187.315 173.933 187.45 173.353 187.45C172.683 187.45 172.088 187.325 171.568 187.075C171.058 186.825 170.658 186.47 170.368 186.01C170.078 185.56 169.933 185.04 169.933 184.45ZM169.798 180.55C169.798 179.8 169.953 179.16 170.263 178.63C170.573 178.09 170.988 177.675 171.508 177.385C172.028 177.095 172.598 176.95 173.218 176.95C173.798 176.95 174.303 177.095 174.733 177.385C175.163 177.675 175.498 178.09 175.738 178.63C175.988 179.16 176.113 179.8 176.113 180.55C176.113 181.29 175.988 181.93 175.738 182.47C175.498 183.01 175.163 183.425 174.733 183.715C174.303 184.005 173.798 184.15 173.218 184.15C172.598 184.15 172.028 184.005 171.508 183.715C170.988 183.425 170.573 183.01 170.263 182.47C169.953 181.93 169.798 181.29 169.798 180.55ZM171.013 180.55C171.013 181.08 171.118 181.53 171.328 181.9C171.548 182.27 171.838 182.55 172.198 182.74C172.558 182.93 172.948 183.025 173.368 183.025C173.718 183.025 174.063 182.93 174.403 182.74C174.743 182.55 175.023 182.27 175.243 181.9C175.463 181.53 175.573 181.08 175.573 180.55C175.573 180.15 175.508 179.8 175.378 179.5C175.248 179.19 175.073 178.93 174.853 178.72C174.643 178.51 174.408 178.35 174.148 178.24C173.888 178.13 173.628 178.075 173.368 178.075C172.948 178.075 172.558 178.17 172.198 178.36C171.838 178.55 171.548 178.83 171.328 179.2C171.118 179.57 171.013 180.02 171.013 180.55ZM183.378 179.8C183.378 179.23 183.253 178.8 183.003 178.51C182.753 178.22 182.388 178.075 181.908 178.075C181.558 178.075 181.248 178.15 180.978 178.3C180.718 178.44 180.513 178.64 180.363 178.9C180.223 179.16 180.153 179.46 180.153 179.8V184H178.953V177.1H180.153V178.18C180.383 177.76 180.668 177.45 181.008 177.25C181.358 177.05 181.758 176.95 182.208 176.95C182.938 176.95 183.513 177.195 183.933 177.685C184.363 178.165 184.578 178.82 184.578 179.65V184H183.378V179.8ZM187.374 181.87C187.374 182.13 187.434 182.355 187.554 182.545C187.684 182.735 187.859 182.88 188.079 182.98C188.309 183.07 188.569 183.115 188.859 183.115C189.229 183.115 189.559 183.04 189.849 182.89C190.149 182.74 190.384 182.53 190.554 182.26C190.734 181.98 190.824 181.66 190.824 181.3L191.064 182.2C191.064 182.64 190.929 183.005 190.659 183.295C190.399 183.585 190.074 183.8 189.684 183.94C189.304 184.08 188.924 184.15 188.544 184.15C188.124 184.15 187.729 184.065 187.359 183.895C186.999 183.715 186.709 183.46 186.489 183.13C186.269 182.8 186.159 182.4 186.159 181.93C186.159 181.26 186.394 180.725 186.864 180.325C187.344 179.915 188.009 179.71 188.859 179.71C189.359 179.71 189.774 179.77 190.104 179.89C190.444 180 190.714 180.13 190.914 180.28C191.114 180.42 191.249 180.535 191.319 180.625V181.33C190.969 181.09 190.609 180.92 190.239 180.82C189.869 180.71 189.474 180.655 189.054 180.655C188.664 180.655 188.344 180.705 188.094 180.805C187.854 180.905 187.674 181.045 187.554 181.225C187.434 181.405 187.374 181.62 187.374 181.87ZM187.194 178.69L186.609 177.805C186.869 177.615 187.224 177.425 187.674 177.235C188.134 177.045 188.684 176.95 189.324 176.95C189.864 176.95 190.334 177.035 190.734 177.205C191.144 177.365 191.459 177.6 191.679 177.91C191.909 178.22 192.024 178.6 192.024 179.05V184H190.824V179.215C190.824 178.975 190.784 178.78 190.704 178.63C190.624 178.47 190.509 178.345 190.359 178.255C190.219 178.165 190.054 178.1 189.864 178.06C189.674 178.02 189.474 178 189.264 178C188.924 178 188.614 178.04 188.334 178.12C188.064 178.2 187.834 178.295 187.644 178.405C187.454 178.515 187.304 178.61 187.194 178.69ZM193.006 177.1H196.456V178.225H193.006V177.1ZM194.131 174.7H195.331V184H194.131V174.7ZM197.659 174.25C197.659 174.02 197.739 173.825 197.899 173.665C198.069 173.505 198.264 173.425 198.484 173.425C198.714 173.425 198.909 173.505 199.069 173.665C199.229 173.825 199.309 174.02 199.309 174.25C199.309 174.47 199.229 174.665 199.069 174.835C198.909 174.995 198.714 175.075 198.484 175.075C198.264 175.075 198.069 174.995 197.899 174.835C197.739 174.665 197.659 174.47 197.659 174.25ZM197.884 177.1H199.084V184H197.884V177.1ZM200.956 180.55C200.956 179.85 201.111 179.23 201.421 178.69C201.741 178.15 202.171 177.725 202.711 177.415C203.251 177.105 203.856 176.95 204.526 176.95C205.206 176.95 205.811 177.105 206.341 177.415C206.881 177.725 207.306 178.15 207.616 178.69C207.936 179.23 208.096 179.85 208.096 180.55C208.096 181.24 207.936 181.86 207.616 182.41C207.306 182.95 206.881 183.375 206.341 183.685C205.811 183.995 205.206 184.15 204.526 184.15C203.856 184.15 203.251 183.995 202.711 183.685C202.171 183.375 201.741 182.95 201.421 182.41C201.111 181.86 200.956 181.24 200.956 180.55ZM202.171 180.55C202.171 181.03 202.271 181.455 202.471 181.825C202.681 182.195 202.961 182.49 203.311 182.71C203.671 182.92 204.076 183.025 204.526 183.025C204.976 183.025 205.376 182.92 205.726 182.71C206.086 182.49 206.366 182.195 206.566 181.825C206.776 181.455 206.881 181.03 206.881 180.55C206.881 180.07 206.776 179.645 206.566 179.275C206.366 178.895 206.086 178.6 205.726 178.39C205.376 178.18 204.976 178.075 204.526 178.075C204.076 178.075 203.671 178.18 203.311 178.39C202.961 178.6 202.681 178.895 202.471 179.275C202.271 179.645 202.171 180.07 202.171 180.55ZM214.169 179.8C214.169 179.23 214.044 178.8 213.794 178.51C213.544 178.22 213.179 178.075 212.699 178.075C212.349 178.075 212.039 178.15 211.769 178.3C211.509 178.44 211.304 178.64 211.154 178.9C211.014 179.16 210.944 179.46 210.944 179.8V184H209.744V177.1H210.944V178.18C211.174 177.76 211.459 177.45 211.799 177.25C212.149 177.05 212.549 176.95 212.999 176.95C213.729 176.95 214.304 177.195 214.724 177.685C215.154 178.165 215.369 178.82 215.369 179.65V184H214.169V179.8ZM217.925 183.4C217.925 183.17 218.005 182.975 218.165 182.815C218.335 182.655 218.53 182.575 218.75 182.575C218.98 182.575 219.175 182.655 219.335 182.815C219.495 182.975 219.575 183.17 219.575 183.4C219.575 183.62 219.495 183.815 219.335 183.985C219.175 184.145 218.98 184.225 218.75 184.225C218.53 184.225 218.335 184.145 218.165 183.985C218.005 183.815 217.925 183.62 217.925 183.4Z" fill="white" fill-opacity="0.7"/>
<circle cx="249" cy="84" r="20" stroke="#02D5FF" stroke-width="2"/>
<path d="M257.707 76.7071C258.098 76.3166 258.098 75.6834 257.707 75.2929C257.317 74.9024 256.683 74.9024 256.293 75.2929L257.707 76.7071ZM240 92C240 92.5523 240.448 93 241 93H250C250.552 93 251 92.5523 251 92C251 91.4477 250.552 91 250 91H242V83C242 82.4477 241.552 82 241 82C240.448 82 240 82.4477 240 83V92ZM256.293 75.2929L240.293 91.2929L241.707 92.7071L257.707 76.7071L256.293 75.2929Z" fill="#02D5FF"/>
</svg>
