<svg width="313" height="62" viewBox="0 0 313 62" fill="none" xmlns="http://www.w3.org/2000/svg">
<path d="M31.132 33.057L36.98 15.9H45.623L32.594 47.763L22.876 29.617L13.201 47.763L0.172 15.9H8.772L14.706 33.057L22.876 14.395L31.132 33.057ZM54.9691 46.43C52.6758 46.43 50.6835 46.0143 48.9921 45.183C47.3295 44.323 46.0395 43.119 45.1221 41.571C44.2048 40.023 43.7461 38.2027 43.7461 36.11C43.7461 33.9887 44.1905 32.154 45.0791 30.606C45.9678 29.058 47.2435 27.8683 48.9061 27.037C50.5975 26.2057 52.5898 25.79 54.8831 25.79C57.1765 25.79 59.1115 26.1913 60.6881 26.994C62.2648 27.768 63.4688 28.9003 64.3001 30.391C65.1315 31.8817 65.5471 33.6877 65.5471 35.809C65.5471 36.1243 65.5471 36.4397 65.5471 36.755C65.5471 37.0417 65.5185 37.2853 65.4611 37.486H47.4011V33.874H59.6131L58.0651 35.852C58.2085 35.6513 58.3231 35.4077 58.4091 35.121C58.5238 34.8057 58.5811 34.5477 58.5811 34.347C58.5811 33.487 58.4235 32.7417 58.1081 32.111C57.7928 31.4803 57.3485 30.993 56.7751 30.649C56.2018 30.305 55.5281 30.133 54.7541 30.133C53.7795 30.133 52.9625 30.348 52.3031 30.778C51.6438 31.208 51.1421 31.8673 50.7981 32.756C50.4828 33.616 50.3108 34.7053 50.2821 36.024C50.2821 37.228 50.4541 38.26 50.7981 39.12C51.1421 39.98 51.6581 40.6393 52.3461 41.098C53.0341 41.528 53.8798 41.743 54.8831 41.743C56.0298 41.743 57.0045 41.528 57.8071 41.098C58.6385 40.668 59.2978 40.023 59.7851 39.163L65.5901 40.582C64.5581 42.5313 63.1535 43.9933 61.3761 44.968C59.6275 45.9427 57.4918 46.43 54.9691 46.43ZM76.0065 12.46V46H69.5135V12.46H76.0065ZM92.1745 36.11C92.1745 38.3173 91.7159 40.195 90.7985 41.743C89.9099 43.2623 88.7489 44.4233 87.3155 45.226C85.9109 46.0287 84.3915 46.43 82.7575 46.43C81.1235 46.43 79.6615 46.0143 78.3715 45.183C77.0815 44.3517 76.0639 43.162 75.3185 41.614C74.5732 40.066 74.2005 38.2313 74.2005 36.11C74.2005 33.96 74.5732 32.1253 75.3185 30.606C76.0639 29.058 77.0815 27.8683 78.3715 27.037C79.6615 26.2057 81.1235 25.79 82.7575 25.79C84.3915 25.79 85.9109 26.1913 87.3155 26.994C88.7489 27.7967 89.9099 28.9577 90.7985 30.477C91.7159 31.9963 92.1745 33.874 92.1745 36.11ZM85.3375 36.11C85.3375 35.078 85.1225 34.1893 84.6925 33.444C84.2625 32.67 83.6892 32.0823 82.9725 31.681C82.2559 31.251 81.4675 31.036 80.6075 31.036C79.8622 31.036 79.1312 31.2367 78.4145 31.638C77.7265 32.0393 77.1532 32.627 76.6945 33.401C76.2359 34.1463 76.0065 35.0493 76.0065 36.11C76.0065 37.1707 76.2359 38.088 76.6945 38.862C77.1532 39.6073 77.7265 40.1807 78.4145 40.582C79.1312 40.9833 79.8622 41.184 80.6075 41.184C81.4675 41.184 82.2559 40.9833 82.9725 40.582C83.6892 40.152 84.2625 39.5643 84.6925 38.819C85.1225 38.045 85.3375 37.142 85.3375 36.11ZM105.384 31.423V28.155C106.215 28.155 106.96 28.0547 107.62 27.854C108.308 27.6247 108.895 27.3237 109.383 26.951C109.899 26.5783 110.286 26.1483 110.544 25.661C110.802 25.1737 110.931 24.6577 110.931 24.113C110.931 23.5397 110.802 23.0237 110.544 22.565C110.286 22.1063 109.913 21.7623 109.426 21.533C108.938 21.275 108.308 21.146 107.534 21.146C106.387 21.146 105.441 21.4757 104.696 22.135C103.95 22.7943 103.578 23.6543 103.578 24.715H96.9126C96.9126 22.9377 97.3426 21.3467 98.2026 19.942C99.0913 18.5087 100.338 17.3907 101.944 16.588C103.549 15.7567 105.412 15.341 107.534 15.341C109.798 15.341 111.719 15.7137 113.296 16.459C114.872 17.2043 116.062 18.2077 116.865 19.469C117.696 20.7303 118.112 22.135 118.112 23.683C118.112 25.403 117.538 26.8363 116.392 27.983C115.274 29.1297 113.754 29.9897 111.834 30.563C109.913 31.1363 107.763 31.423 105.384 31.423ZM107.19 46.688C105.384 46.688 103.764 46.4157 102.331 45.871C100.897 45.3263 99.6789 44.5667 98.6756 43.592C97.7009 42.6173 96.9413 41.5137 96.3966 40.281C95.8806 39.0483 95.6226 37.7727 95.6226 36.454H102.761C102.761 37.4287 102.976 38.2457 103.406 38.905C103.836 39.5643 104.409 40.0517 105.126 40.367C105.871 40.6823 106.645 40.84 107.448 40.84C108.308 40.84 109.053 40.711 109.684 40.453C110.343 40.195 110.859 39.7793 111.232 39.206C111.604 38.6327 111.791 37.9303 111.791 37.099C111.791 36.4683 111.662 35.895 111.404 35.379C111.146 34.863 110.744 34.4187 110.2 34.046C109.684 33.6447 109.024 33.3437 108.222 33.143C107.419 32.9423 106.473 32.842 105.384 32.842V29.144C107.362 29.144 109.168 29.316 110.802 29.66C112.464 29.9753 113.912 30.4913 115.145 31.208C116.377 31.896 117.323 32.7847 117.983 33.874C118.642 34.9633 118.972 36.2677 118.972 37.787C118.972 39.5357 118.499 41.0837 117.553 42.431C116.607 43.7497 115.259 44.796 113.511 45.57C111.762 46.3153 109.655 46.688 107.19 46.688ZM140.768 25.661L138.532 46H134.877L138.532 14.395L150.572 36.196L162.612 14.395L166.267 46H162.612L160.376 25.661L150.572 43.205L140.768 25.661ZM172.742 39.894C172.742 40.6393 172.914 41.2843 173.258 41.829C173.63 42.3737 174.132 42.7893 174.763 43.076C175.422 43.334 176.167 43.463 176.999 43.463C178.059 43.463 179.005 43.248 179.837 42.818C180.697 42.388 181.37 41.786 181.858 41.012C182.374 40.2093 182.632 39.292 182.632 38.26L183.32 40.84C183.32 42.1013 182.933 43.1477 182.159 43.979C181.413 44.8103 180.482 45.4267 179.364 45.828C178.274 46.2293 177.185 46.43 176.096 46.43C174.892 46.43 173.759 46.1863 172.699 45.699C171.667 45.183 170.835 44.452 170.205 43.506C169.574 42.56 169.259 41.4133 169.259 40.066C169.259 38.1453 169.932 36.6117 171.28 35.465C172.656 34.2897 174.562 33.702 176.999 33.702C178.432 33.702 179.622 33.874 180.568 34.218C181.542 34.5333 182.316 34.906 182.89 35.336C183.463 35.7373 183.85 36.067 184.051 36.325V38.346C183.047 37.658 182.015 37.1707 180.955 36.884C179.894 36.5687 178.762 36.411 177.558 36.411C176.44 36.411 175.522 36.5543 174.806 36.841C174.118 37.1277 173.602 37.529 173.258 38.045C172.914 38.561 172.742 39.1773 172.742 39.894ZM172.226 30.778L170.549 28.241C171.294 27.6963 172.312 27.1517 173.602 26.607C174.92 26.0623 176.497 25.79 178.332 25.79C179.88 25.79 181.227 26.0337 182.374 26.521C183.549 26.9797 184.452 27.6533 185.083 28.542C185.742 29.4307 186.072 30.52 186.072 31.81V46H182.632V32.283C182.632 31.595 182.517 31.036 182.288 30.606C182.058 30.1473 181.729 29.789 181.299 29.531C180.897 29.273 180.424 29.0867 179.88 28.972C179.335 28.8573 178.762 28.8 178.16 28.8C177.185 28.8 176.296 28.9147 175.494 29.144C174.72 29.3733 174.06 29.6457 173.516 29.961C172.971 30.2763 172.541 30.5487 172.226 30.778ZM195.336 26.22V46H191.896V26.22H195.336ZM201.313 30.004C200.854 29.66 200.439 29.4163 200.066 29.273C199.693 29.101 199.22 29.015 198.647 29.015C197.787 29.015 197.113 29.23 196.626 29.66C196.139 30.09 195.795 30.6777 195.594 31.423C195.422 32.1683 195.336 33.014 195.336 33.96H193.788C193.788 32.3833 194.06 30.993 194.605 29.789C195.178 28.5563 195.909 27.5817 196.798 26.865C197.687 26.1483 198.59 25.79 199.507 25.79C200.224 25.79 200.883 25.8903 201.485 26.091C202.116 26.263 202.689 26.6213 203.205 27.166L201.313 30.004ZM206.42 12.46H209.86V46H206.42V12.46ZM217.17 26.22H221.47L212.87 34.39L222.33 46H218.03L208.57 34.39L217.17 26.22ZM232.598 46.43C230.763 46.43 229.129 46 227.696 45.14C226.291 44.2513 225.187 43.033 224.385 41.485C223.611 39.937 223.224 38.1453 223.224 36.11C223.224 34.046 223.625 32.24 224.428 30.692C225.259 29.144 226.406 27.94 227.868 27.08C229.358 26.22 231.078 25.79 233.028 25.79C234.977 25.79 236.64 26.2057 238.016 27.037C239.42 27.8397 240.495 29.0007 241.241 30.52C241.986 32.0393 242.359 33.8453 242.359 35.938C242.359 36.1387 242.344 36.3537 242.316 36.583C242.316 36.7837 242.316 36.9127 242.316 36.97H225.417V34.046H239.607L238.231 36.024C238.317 35.8807 238.403 35.6657 238.489 35.379C238.575 35.0637 238.618 34.8057 238.618 34.605C238.618 33.4297 238.374 32.412 237.887 31.552C237.428 30.692 236.783 30.0183 235.952 29.531C235.12 29.0437 234.146 28.8 233.028 28.8C231.709 28.8 230.577 29.0867 229.631 29.66C228.713 30.2047 227.997 31.0073 227.481 32.068C226.993 33.1 226.735 34.3757 226.707 35.895C226.707 37.443 226.95 38.7617 227.438 39.851C227.925 40.9403 228.642 41.7717 229.588 42.345C230.534 42.9183 231.68 43.205 233.028 43.205C234.375 43.205 235.565 42.9183 236.597 42.345C237.629 41.743 238.503 40.84 239.22 39.636L242.015 41.399C240.983 43.0617 239.678 44.323 238.102 45.183C236.554 46.0143 234.719 46.43 232.598 46.43ZM244.064 26.22H253.954V29.445H244.064V26.22ZM247.289 19.34H250.729V46H247.289V19.34ZM257.404 18.05C257.404 17.3907 257.633 16.8317 258.092 16.373C258.579 15.9143 259.138 15.685 259.769 15.685C260.428 15.685 260.987 15.9143 261.446 16.373C261.904 16.8317 262.134 17.3907 262.134 18.05C262.134 18.6807 261.904 19.2397 261.446 19.727C260.987 20.1857 260.428 20.415 259.769 20.415C259.138 20.415 258.579 20.1857 258.092 19.727C257.633 19.2397 257.404 18.6807 257.404 18.05ZM258.049 26.22H261.489V46H258.049V26.22ZM281.259 33.96C281.259 32.326 280.9 31.0933 280.184 30.262C279.467 29.4307 278.421 29.015 277.045 29.015C276.041 29.015 275.153 29.23 274.379 29.66C273.633 30.0613 273.046 30.6347 272.616 31.38C272.214 32.1253 272.014 32.9853 272.014 33.96V46H268.574V26.22H272.014V29.316C272.673 28.112 273.49 27.2233 274.465 26.65C275.468 26.0767 276.615 25.79 277.905 25.79C279.997 25.79 281.646 26.4923 282.85 27.897C284.082 29.273 284.699 31.1507 284.699 33.53V46H281.259V33.96ZM289.832 47.29H293.315C293.315 48.236 293.573 49.1103 294.089 49.913C294.605 50.7443 295.336 51.4037 296.282 51.891C297.228 52.407 298.346 52.665 299.636 52.665C300.64 52.665 301.629 52.4213 302.603 51.934C303.578 51.4467 304.381 50.6727 305.011 49.612C305.671 48.58 306 47.2327 306 45.57V26.22H309.44V45.57C309.44 47.8347 308.967 49.7267 308.021 51.246C307.075 52.794 305.857 53.955 304.366 54.729C302.876 55.503 301.299 55.89 299.636 55.89C297.716 55.89 296.01 55.5317 294.519 54.815C293.057 54.0983 291.911 53.0807 291.079 51.762C290.248 50.472 289.832 48.9813 289.832 47.29ZM289.445 36.11C289.445 33.96 289.89 32.1253 290.778 30.606C291.667 29.058 292.857 27.8683 294.347 27.037C295.838 26.2057 297.472 25.79 299.249 25.79C300.912 25.79 302.36 26.2057 303.592 27.037C304.825 27.8683 305.785 29.058 306.473 30.606C307.19 32.1253 307.548 33.96 307.548 36.11C307.548 38.2313 307.19 40.066 306.473 41.614C305.785 43.162 304.825 44.3517 303.592 45.183C302.36 46.0143 300.912 46.43 299.249 46.43C297.472 46.43 295.838 46.0143 294.347 45.183C292.857 44.3517 291.667 43.162 290.778 41.614C289.89 40.066 289.445 38.2313 289.445 36.11ZM292.928 36.11C292.928 37.6293 293.229 38.9193 293.831 39.98C294.462 41.0407 295.293 41.8433 296.325 42.388C297.357 42.9327 298.475 43.205 299.679 43.205C300.683 43.205 301.672 42.9327 302.646 42.388C303.621 41.8433 304.424 41.0407 305.054 39.98C305.685 38.9193 306 37.6293 306 36.11C306 34.9633 305.814 33.96 305.441 33.1C305.069 32.2113 304.567 31.466 303.936 30.864C303.334 30.262 302.661 29.8033 301.915 29.488C301.17 29.1727 300.425 29.015 299.679 29.015C298.475 29.015 297.357 29.2873 296.325 29.832C295.293 30.3767 294.462 31.1793 293.831 32.24C293.229 33.3007 292.928 34.5907 292.928 36.11Z" fill="url(#paint0_linear_41_105)"/>
<defs>
<linearGradient id="paint0_linear_41_105" x1="174.986" y1="10.4122" x2="174.986" y2="49.6947" gradientUnits="userSpaceOnUse">
<stop stop-color="#02D5FF"/>
<stop offset="1" stop-color="#0382BA"/>
</linearGradient>
</defs>
</svg>
