<svg width="284" height="219" viewBox="0 0 284 219" fill="none" xmlns="http://www.w3.org/2000/svg">
<rect x="0.5" y="0.5" width="283" height="218" rx="39.5" stroke="#02D5FF"/>
<path d="M16.65 59.7C17.05 60.4 17.4667 61.0167 17.9 61.55C18.35 62.0833 18.85 62.5 19.4 62.8C19.95 63.1 20.575 63.25 21.275 63.25C22.2083 63.25 22.9583 62.9917 23.525 62.475C24.0917 61.9583 24.375 61.3 24.375 60.5C24.375 59.7167 24.1917 59.0917 23.825 58.625C23.4583 58.1583 22.975 57.7833 22.375 57.5C21.7917 57.2 21.1667 56.9333 20.5 56.7C20.0667 56.55 19.5833 56.3583 19.05 56.125C18.5167 55.875 18.0083 55.5667 17.525 55.2C17.0417 54.8167 16.6417 54.35 16.325 53.8C16.025 53.25 15.875 52.575 15.875 51.775C15.875 50.9083 16.0917 50.1333 16.525 49.45C16.9583 48.7667 17.5583 48.2333 18.325 47.85C19.0917 47.45 19.9667 47.25 20.95 47.25C21.9 47.25 22.725 47.4333 23.425 47.8C24.1417 48.15 24.75 48.6083 25.25 49.175C25.75 49.725 26.1417 50.3083 26.425 50.925L24.6 51.975C24.3833 51.5417 24.1083 51.1167 23.775 50.7C23.4417 50.2833 23.0333 49.9417 22.55 49.675C22.0833 49.4083 21.5083 49.275 20.825 49.275C19.875 49.275 19.1833 49.5083 18.75 49.975C18.3167 50.425 18.1 50.9333 18.1 51.5C18.1 51.9833 18.225 52.4333 18.475 52.85C18.725 53.25 19.1417 53.6333 19.725 54C20.325 54.35 21.1333 54.7 22.15 55.05C22.6167 55.2167 23.1083 55.4333 23.625 55.7C24.1417 55.9667 24.6167 56.3083 25.05 56.725C25.5 57.125 25.8667 57.6167 26.15 58.2C26.4333 58.7667 26.575 59.45 26.575 60.25C26.575 61.0167 26.425 61.7083 26.125 62.325C25.8417 62.9417 25.4417 63.4667 24.925 63.9C24.425 64.3333 23.85 64.6667 23.2 64.9C22.5667 65.1333 21.9 65.25 21.2 65.25C20.25 65.25 19.3667 65.05 18.55 64.65C17.75 64.2333 17.0417 63.6917 16.425 63.025C15.825 62.3417 15.3333 61.6167 14.95 60.85L16.65 59.7ZM27.8213 53.5H33.5713V55.375H27.8213V53.5ZM29.6963 49.5H31.6963V65H29.6963V49.5ZM37.5771 53.5V65H35.5771V53.5H37.5771ZM41.0521 55.7C40.7855 55.5 40.5438 55.3583 40.3271 55.275C40.1105 55.175 39.8355 55.125 39.5021 55.125C39.0021 55.125 38.6105 55.25 38.3271 55.5C38.0438 55.75 37.8438 56.0917 37.7271 56.525C37.6271 56.9583 37.5771 57.45 37.5771 58H36.6771C36.6771 57.0833 36.8355 56.275 37.1521 55.575C37.4855 54.8583 37.9105 54.2917 38.4271 53.875C38.9438 53.4583 39.4688 53.25 40.0021 53.25C40.4188 53.25 40.8021 53.3083 41.1521 53.425C41.5188 53.525 41.8521 53.7333 42.1521 54.05L41.0521 55.7ZM45.0465 61.45C45.0465 61.8833 45.1465 62.2583 45.3465 62.575C45.5632 62.8917 45.8548 63.1333 46.2215 63.3C46.6048 63.45 47.0382 63.525 47.5215 63.525C48.1382 63.525 48.6882 63.4 49.1715 63.15C49.6715 62.9 50.0632 62.55 50.3465 62.1C50.6465 61.6333 50.7965 61.1 50.7965 60.5L51.1965 62C51.1965 62.7333 50.9715 63.3417 50.5215 63.825C50.0882 64.3083 49.5465 64.6667 48.8965 64.9C48.2632 65.1333 47.6298 65.25 46.9965 65.25C46.2965 65.25 45.6382 65.1083 45.0215 64.825C44.4215 64.525 43.9382 64.1 43.5715 63.55C43.2048 63 43.0215 62.3333 43.0215 61.55C43.0215 60.4333 43.4132 59.5417 44.1965 58.875C44.9965 58.1917 46.1048 57.85 47.5215 57.85C48.3548 57.85 49.0465 57.95 49.5965 58.15C50.1632 58.3333 50.6132 58.55 50.9465 58.8C51.2798 59.0333 51.5048 59.225 51.6215 59.375V60.55C51.0382 60.15 50.4382 59.8667 49.8215 59.7C49.2048 59.5167 48.5465 59.425 47.8465 59.425C47.1965 59.425 46.6632 59.5083 46.2465 59.675C45.8465 59.8417 45.5465 60.075 45.3465 60.375C45.1465 60.675 45.0465 61.0333 45.0465 61.45ZM44.7465 56.15L43.7715 54.675C44.2048 54.3583 44.7965 54.0417 45.5465 53.725C46.3132 53.4083 47.2298 53.25 48.2965 53.25C49.1965 53.25 49.9798 53.3917 50.6465 53.675C51.3298 53.9417 51.8548 54.3333 52.2215 54.85C52.6048 55.3667 52.7965 56 52.7965 56.75V65H50.7965V57.025C50.7965 56.625 50.7298 56.3 50.5965 56.05C50.4632 55.7833 50.2715 55.575 50.0215 55.425C49.7882 55.275 49.5132 55.1667 49.1965 55.1C48.8798 55.0333 48.5465 55 48.1965 55C47.6298 55 47.1132 55.0667 46.6465 55.2C46.1965 55.3333 45.8132 55.4917 45.4965 55.675C45.1798 55.8583 44.9298 56.0167 44.7465 56.15ZM54.4326 53.5H60.1826V55.375H54.4326V53.5ZM56.3076 49.5H58.3076V65H56.3076V49.5ZM66.6385 65.25C65.5718 65.25 64.6218 65 63.7885 64.5C62.9718 63.9833 62.3301 63.275 61.8635 62.375C61.4135 61.475 61.1885 60.4333 61.1885 59.25C61.1885 58.05 61.4218 57 61.8885 56.1C62.3718 55.2 63.0385 54.5 63.8885 54C64.7551 53.5 65.7551 53.25 66.8885 53.25C68.0218 53.25 68.9885 53.4917 69.7885 53.975C70.6051 54.4417 71.2301 55.1167 71.6635 56C72.0968 56.8833 72.3135 57.9333 72.3135 59.15C72.3135 59.2667 72.3051 59.3917 72.2885 59.525C72.2885 59.6417 72.2885 59.7167 72.2885 59.75H62.4635V58.05H70.7135L69.9135 59.2C69.9635 59.1167 70.0135 58.9917 70.0635 58.825C70.1135 58.6417 70.1385 58.4917 70.1385 58.375C70.1385 57.6917 69.9968 57.1 69.7135 56.6C69.4468 56.1 69.0718 55.7083 68.5885 55.425C68.1051 55.1417 67.5385 55 66.8885 55C66.1218 55 65.4635 55.1667 64.9135 55.5C64.3801 55.8167 63.9635 56.2833 63.6635 56.9C63.3801 57.5 63.2301 58.2417 63.2135 59.125C63.2135 60.025 63.3551 60.7917 63.6385 61.425C63.9218 62.0583 64.3385 62.5417 64.8885 62.875C65.4385 63.2083 66.1051 63.375 66.8885 63.375C67.6718 63.375 68.3635 63.2083 68.9635 62.875C69.5635 62.525 70.0718 62 70.4885 61.3L72.1135 62.325C71.5135 63.2917 70.7551 64.025 69.8385 64.525C68.9385 65.0083 67.8718 65.25 66.6385 65.25ZM74.2797 65.75H76.3047C76.3047 66.3 76.4547 66.8083 76.7547 67.275C77.0547 67.7583 77.4797 68.1417 78.0297 68.425C78.5797 68.725 79.2297 68.875 79.9797 68.875C80.563 68.875 81.138 68.7333 81.7047 68.45C82.2714 68.1667 82.738 67.7167 83.1047 67.1C83.488 66.5 83.6797 65.7167 83.6797 64.75V53.5H85.6797V64.75C85.6797 66.0667 85.4047 67.1667 84.8547 68.05C84.3047 68.95 83.5964 69.625 82.7297 70.075C81.863 70.525 80.9464 70.75 79.9797 70.75C78.863 70.75 77.8714 70.5417 77.0047 70.125C76.1547 69.7083 75.488 69.1167 75.0047 68.35C74.5214 67.6 74.2797 66.7333 74.2797 65.75ZM74.0547 59.25C74.0547 58 74.313 56.9333 74.8297 56.05C75.3464 55.15 76.038 54.4583 76.9047 53.975C77.7714 53.4917 78.7214 53.25 79.7547 53.25C80.7214 53.25 81.563 53.4917 82.2797 53.975C82.9964 54.4583 83.5547 55.15 83.9547 56.05C84.3714 56.9333 84.5797 58 84.5797 59.25C84.5797 60.4833 84.3714 61.55 83.9547 62.45C83.5547 63.35 82.9964 64.0417 82.2797 64.525C81.563 65.0083 80.7214 65.25 79.7547 65.25C78.7214 65.25 77.7714 65.0083 76.9047 64.525C76.038 64.0417 75.3464 63.35 74.8297 62.45C74.313 61.55 74.0547 60.4833 74.0547 59.25ZM76.0797 59.25C76.0797 60.1333 76.2547 60.8833 76.6047 61.5C76.9714 62.1167 77.4547 62.5833 78.0547 62.9C78.6547 63.2167 79.3047 63.375 80.0047 63.375C80.588 63.375 81.163 63.2167 81.7297 62.9C82.2964 62.5833 82.763 62.1167 83.1297 61.5C83.4964 60.8833 83.6797 60.1333 83.6797 59.25C83.6797 58.5833 83.5714 58 83.3547 57.5C83.138 56.9833 82.8464 56.55 82.4797 56.2C82.1297 55.85 81.738 55.5833 81.3047 55.4C80.8714 55.2167 80.438 55.125 80.0047 55.125C79.3047 55.125 78.6547 55.2833 78.0547 55.6C77.4547 55.9167 76.9714 56.3833 76.6047 57C76.2547 57.6167 76.0797 58.3667 76.0797 59.25ZM89.3125 48.75C89.3125 48.3667 89.4458 48.0417 89.7125 47.775C89.9958 47.5083 90.3208 47.375 90.6875 47.375C91.0708 47.375 91.3958 47.5083 91.6625 47.775C91.9292 48.0417 92.0625 48.3667 92.0625 48.75C92.0625 49.1167 91.9292 49.4417 91.6625 49.725C91.3958 49.9917 91.0708 50.125 90.6875 50.125C90.3208 50.125 89.9958 49.9917 89.7125 49.725C89.4458 49.4417 89.3125 49.1167 89.3125 48.75ZM89.6875 53.5H91.6875V65H89.6875V53.5ZM96.7066 59.25C96.7066 60.05 96.8733 60.7583 97.2066 61.375C97.5566 61.9917 98.0233 62.4833 98.6066 62.85C99.2066 63.2 99.8816 63.375 100.632 63.375C101.248 63.375 101.823 63.2833 102.357 63.1C102.907 62.9 103.382 62.6417 103.782 62.325C104.182 61.9917 104.465 61.6417 104.632 61.275V63.775C104.232 64.2417 103.657 64.6083 102.907 64.875C102.173 65.125 101.415 65.25 100.632 65.25C99.515 65.25 98.5066 64.9917 97.6066 64.475C96.7066 63.9583 95.99 63.25 95.4566 62.35C94.94 61.4333 94.6816 60.4 94.6816 59.25C94.6816 58.0833 94.94 57.05 95.4566 56.15C95.99 55.25 96.7066 54.5417 97.6066 54.025C98.5066 53.5083 99.515 53.25 100.632 53.25C101.415 53.25 102.173 53.3833 102.907 53.65C103.657 53.9 104.232 54.2583 104.632 54.725V57.225C104.465 56.8417 104.182 56.4917 103.782 56.175C103.382 55.8583 102.907 55.6083 102.357 55.425C101.823 55.225 101.248 55.125 100.632 55.125C99.8816 55.125 99.2066 55.3 98.6066 55.65C98.0233 56 97.5566 56.4917 97.2066 57.125C96.8733 57.7417 96.7066 58.45 96.7066 59.25ZM17.75 106.5H15.75V89.5H17.75V106.5ZM27.375 95.25C27.375 96.4833 27.1167 97.55 26.6 98.45C26.0833 99.35 25.3917 100.042 24.525 100.525C23.675 101.008 22.725 101.25 21.675 101.25C20.725 101.25 19.8833 101.008 19.15 100.525C18.4333 100.042 17.8667 99.35 17.45 98.45C17.05 97.55 16.85 96.4833 16.85 95.25C16.85 94 17.05 92.9333 17.45 92.05C17.8667 91.15 18.4333 90.4583 19.15 89.975C19.8833 89.4917 20.725 89.25 21.675 89.25C22.725 89.25 23.675 89.4917 24.525 89.975C25.3917 90.4583 26.0833 91.15 26.6 92.05C27.1167 92.9333 27.375 94 27.375 95.25ZM25.35 95.25C25.35 94.3667 25.1667 93.6167 24.8 93C24.45 92.3833 23.975 91.9167 23.375 91.6C22.7917 91.2833 22.1417 91.125 21.425 91.125C20.8417 91.125 20.2667 91.2833 19.7 91.6C19.1333 91.9167 18.6667 92.3833 18.3 93C17.9333 93.6167 17.75 94.3667 17.75 95.25C17.75 96.1333 17.9333 96.8833 18.3 97.5C18.6667 98.1167 19.1333 98.5833 19.7 98.9C20.2667 99.2167 20.8417 99.375 21.425 99.375C22.1417 99.375 22.7917 99.2167 23.375 98.9C23.975 98.5833 24.45 98.1167 24.8 97.5C25.1667 96.8833 25.35 96.1333 25.35 95.25ZM31.0328 97.45C31.0328 97.8833 31.1328 98.2583 31.3328 98.575C31.5495 98.8917 31.8411 99.1333 32.2078 99.3C32.5911 99.45 33.0245 99.525 33.5078 99.525C34.1245 99.525 34.6745 99.4 35.1578 99.15C35.6578 98.9 36.0495 98.55 36.3328 98.1C36.6328 97.6333 36.7828 97.1 36.7828 96.5L37.1828 98C37.1828 98.7333 36.9578 99.3417 36.5078 99.825C36.0745 100.308 35.5328 100.667 34.8828 100.9C34.2495 101.133 33.6161 101.25 32.9828 101.25C32.2828 101.25 31.6245 101.108 31.0078 100.825C30.4078 100.525 29.9245 100.1 29.5578 99.55C29.1911 99 29.0078 98.3333 29.0078 97.55C29.0078 96.4333 29.3995 95.5417 30.1828 94.875C30.9828 94.1917 32.0911 93.85 33.5078 93.85C34.3411 93.85 35.0328 93.95 35.5828 94.15C36.1495 94.3333 36.5995 94.55 36.9328 94.8C37.2661 95.0333 37.4911 95.225 37.6078 95.375V96.55C37.0245 96.15 36.4245 95.8667 35.8078 95.7C35.1911 95.5167 34.5328 95.425 33.8328 95.425C33.1828 95.425 32.6495 95.5083 32.2328 95.675C31.8328 95.8417 31.5328 96.075 31.3328 96.375C31.1328 96.675 31.0328 97.0333 31.0328 97.45ZM30.7328 92.15L29.7578 90.675C30.1911 90.3583 30.7828 90.0417 31.5328 89.725C32.2995 89.4083 33.2161 89.25 34.2828 89.25C35.1828 89.25 35.9661 89.3917 36.6328 89.675C37.3161 89.9417 37.8411 90.3333 38.2078 90.85C38.5911 91.3667 38.7828 92 38.7828 92.75V101H36.7828V93.025C36.7828 92.625 36.7161 92.3 36.5828 92.05C36.4495 91.7833 36.2578 91.575 36.0078 91.425C35.7745 91.275 35.4995 91.1667 35.1828 91.1C34.8661 91.0333 34.5328 91 34.1828 91C33.6161 91 33.0995 91.0667 32.6328 91.2C32.1828 91.3333 31.7995 91.4917 31.4828 91.675C31.1661 91.8583 30.9161 92.0167 30.7328 92.15ZM44.1689 89.5V101H42.1689V89.5H44.1689ZM47.6439 91.7C47.3773 91.5 47.1356 91.3583 46.9189 91.275C46.7023 91.175 46.4273 91.125 46.0939 91.125C45.5939 91.125 45.2023 91.25 44.9189 91.5C44.6356 91.75 44.4356 92.0917 44.3189 92.525C44.2189 92.9583 44.1689 93.45 44.1689 94H43.2689C43.2689 93.0833 43.4273 92.275 43.7439 91.575C44.0773 90.8583 44.5023 90.2917 45.0189 89.875C45.5356 89.4583 46.0606 89.25 46.5939 89.25C47.0106 89.25 47.3939 89.3083 47.7439 89.425C48.1106 89.525 48.4439 89.7333 48.7439 90.05L47.6439 91.7ZM48.9883 89.5H54.7383V91.375H48.9883V89.5ZM50.8633 85.5H52.8633V101H50.8633V85.5ZM64.1191 94C64.1191 93.05 63.9108 92.3333 63.4941 91.85C63.0775 91.3667 62.4691 91.125 61.6691 91.125C61.0858 91.125 60.5691 91.25 60.1191 91.5C59.6858 91.7333 59.3441 92.0667 59.0941 92.5C58.8608 92.9333 58.7441 93.4333 58.7441 94V101H56.7441V89.5H58.7441V91.3C59.1275 90.6 59.6025 90.0833 60.1691 89.75C60.7525 89.4167 61.4191 89.25 62.1691 89.25C63.3858 89.25 64.3441 89.6583 65.0441 90.475C65.7608 91.275 66.1191 92.3667 66.1191 93.75V101H64.1191V94ZM74.3289 101.25C73.2622 101.25 72.3122 101 71.4789 100.5C70.6622 99.9833 70.0206 99.275 69.5539 98.375C69.1039 97.475 68.8789 96.4333 68.8789 95.25C68.8789 94.05 69.1122 93 69.5789 92.1C70.0622 91.2 70.7289 90.5 71.5789 90C72.4456 89.5 73.4456 89.25 74.5789 89.25C75.7122 89.25 76.6789 89.4917 77.4789 89.975C78.2956 90.4417 78.9206 91.1167 79.3539 92C79.7872 92.8833 80.0039 93.9333 80.0039 95.15C80.0039 95.2667 79.9956 95.3917 79.9789 95.525C79.9789 95.6417 79.9789 95.7167 79.9789 95.75H70.1539V94.05H78.4039L77.6039 95.2C77.6539 95.1167 77.7039 94.9917 77.7539 94.825C77.8039 94.6417 77.8289 94.4917 77.8289 94.375C77.8289 93.6917 77.6872 93.1 77.4039 92.6C77.1372 92.1 76.7622 91.7083 76.2789 91.425C75.7956 91.1417 75.2289 91 74.5789 91C73.8122 91 73.1539 91.1667 72.6039 91.5C72.0706 91.8167 71.6539 92.2833 71.3539 92.9C71.0706 93.5 70.9206 94.2417 70.9039 95.125C70.9039 96.025 71.0456 96.7917 71.3289 97.425C71.6122 98.0583 72.0289 98.5417 72.5789 98.875C73.1289 99.2083 73.7956 99.375 74.5789 99.375C75.3622 99.375 76.0539 99.2083 76.6539 98.875C77.2539 98.525 77.7622 98 78.1789 97.3L79.8039 98.325C79.2039 99.2917 78.4456 100.025 77.5289 100.525C76.6289 101.008 75.5622 101.25 74.3289 101.25ZM84.7451 89.5V101H82.7451V89.5H84.7451ZM88.2201 91.7C87.9535 91.5 87.7118 91.3583 87.4951 91.275C87.2785 91.175 87.0035 91.125 86.6701 91.125C86.1701 91.125 85.7785 91.25 85.4951 91.5C85.2118 91.75 85.0118 92.0917 84.8951 92.525C84.7951 92.9583 84.7451 93.45 84.7451 94H83.8451C83.8451 93.0833 84.0035 92.275 84.3201 91.575C84.6535 90.8583 85.0785 90.2917 85.5951 89.875C86.1118 89.4583 86.6368 89.25 87.1701 89.25C87.5868 89.25 87.9701 89.3083 88.3201 89.425C88.6868 89.525 89.0201 89.7333 89.3201 90.05L88.2201 91.7ZM91.7895 97.475C92.0228 97.825 92.2895 98.15 92.5895 98.45C92.8895 98.75 93.2311 98.9917 93.6145 99.175C94.0145 99.3417 94.4478 99.425 94.9145 99.425C95.4811 99.425 95.9228 99.3 96.2395 99.05C96.5728 98.7833 96.7395 98.425 96.7395 97.975C96.7395 97.575 96.6061 97.2417 96.3395 96.975C96.0895 96.6917 95.7645 96.4583 95.3645 96.275C94.9645 96.075 94.5395 95.8917 94.0895 95.725C93.5895 95.525 93.0811 95.2917 92.5645 95.025C92.0645 94.7417 91.6395 94.3833 91.2895 93.95C90.9561 93.5 90.7895 92.9417 90.7895 92.275C90.7895 91.5917 90.9645 91.025 91.3145 90.575C91.6811 90.125 92.1478 89.7917 92.7145 89.575C93.2978 89.3583 93.8978 89.25 94.5145 89.25C95.1311 89.25 95.7061 89.35 96.2395 89.55C96.7895 89.75 97.2728 90.0167 97.6895 90.35C98.1061 90.6833 98.4311 91.0667 98.6645 91.5L97.0645 92.525C96.7478 92.0917 96.3478 91.7333 95.8645 91.45C95.3978 91.1667 94.8645 91.025 94.2645 91.025C93.8478 91.025 93.4895 91.1167 93.1895 91.3C92.8895 91.4833 92.7395 91.7667 92.7395 92.15C92.7395 92.45 92.8561 92.7167 93.0895 92.95C93.3228 93.1833 93.6228 93.3917 93.9895 93.575C94.3561 93.7583 94.7395 93.9333 95.1395 94.1C95.8061 94.3667 96.4145 94.6583 96.9645 94.975C97.5145 95.275 97.9478 95.6417 98.2645 96.075C98.5978 96.5083 98.7645 97.0667 98.7645 97.75C98.7645 98.75 98.3978 99.5833 97.6645 100.25C96.9478 100.917 95.9978 101.25 94.8145 101.25C94.0478 101.25 93.3561 101.117 92.7395 100.85C92.1228 100.567 91.5978 100.208 91.1645 99.775C90.7478 99.3417 90.4311 98.9 90.2145 98.45L91.7895 97.475ZM103.397 81.5V101H101.397V81.5H103.397ZM108.772 94C108.772 93.05 108.564 92.3333 108.147 91.85C107.747 91.3667 107.139 91.125 106.322 91.125C105.739 91.125 105.222 91.25 104.772 91.5C104.339 91.75 103.997 92.0917 103.747 92.525C103.514 92.9583 103.397 93.45 103.397 94H102.747C102.747 93.0833 102.922 92.275 103.272 91.575C103.622 90.8583 104.097 90.2917 104.697 89.875C105.314 89.4583 106.022 89.25 106.822 89.25C107.622 89.25 108.314 89.4167 108.897 89.75C109.497 90.0833 109.956 90.5833 110.272 91.25C110.606 91.9167 110.772 92.75 110.772 93.75V101H108.772V94ZM114.532 84.75C114.532 84.3667 114.666 84.0417 114.932 83.775C115.216 83.5083 115.541 83.375 115.907 83.375C116.291 83.375 116.616 83.5083 116.882 83.775C117.149 84.0417 117.282 84.3667 117.282 84.75C117.282 85.1167 117.149 85.4417 116.882 85.725C116.616 85.9917 116.291 86.125 115.907 86.125C115.541 86.125 115.216 85.9917 114.932 85.725C114.666 85.4417 114.532 85.1167 114.532 84.75ZM114.907 89.5H116.907V101H114.907V89.5ZM122.901 106.5H120.901V89.5H122.901V106.5ZM132.526 95.25C132.526 96.4833 132.268 97.55 131.751 98.45C131.235 99.35 130.543 100.042 129.676 100.525C128.826 101.008 127.876 101.25 126.826 101.25C125.876 101.25 125.035 101.008 124.301 100.525C123.585 100.042 123.018 99.35 122.601 98.45C122.201 97.55 122.001 96.4833 122.001 95.25C122.001 94 122.201 92.9333 122.601 92.05C123.018 91.15 123.585 90.4583 124.301 89.975C125.035 89.4917 125.876 89.25 126.826 89.25C127.876 89.25 128.826 89.4917 129.676 89.975C130.543 90.4583 131.235 91.15 131.751 92.05C132.268 92.9333 132.526 94 132.526 95.25ZM130.501 95.25C130.501 94.3667 130.318 93.6167 129.951 93C129.601 92.3833 129.126 91.9167 128.526 91.6C127.943 91.2833 127.293 91.125 126.576 91.125C125.993 91.125 125.418 91.2833 124.851 91.6C124.285 91.9167 123.818 92.3833 123.451 93C123.085 93.6167 122.901 94.3667 122.901 95.25C122.901 96.1333 123.085 96.8833 123.451 97.5C123.818 98.1167 124.285 98.5833 124.851 98.9C125.418 99.2167 125.993 99.375 126.576 99.375C127.293 99.375 127.943 99.2167 128.526 98.9C129.126 98.5833 129.601 98.1167 129.951 97.5C130.318 96.8833 130.501 96.1333 130.501 95.25ZM135.759 97.475C135.993 97.825 136.259 98.15 136.559 98.45C136.859 98.75 137.201 98.9917 137.584 99.175C137.984 99.3417 138.418 99.425 138.884 99.425C139.451 99.425 139.893 99.3 140.209 99.05C140.543 98.7833 140.709 98.425 140.709 97.975C140.709 97.575 140.576 97.2417 140.309 96.975C140.059 96.6917 139.734 96.4583 139.334 96.275C138.934 96.075 138.509 95.8917 138.059 95.725C137.559 95.525 137.051 95.2917 136.534 95.025C136.034 94.7417 135.609 94.3833 135.259 93.95C134.926 93.5 134.759 92.9417 134.759 92.275C134.759 91.5917 134.934 91.025 135.284 90.575C135.651 90.125 136.118 89.7917 136.684 89.575C137.268 89.3583 137.868 89.25 138.484 89.25C139.101 89.25 139.676 89.35 140.209 89.55C140.759 89.75 141.243 90.0167 141.659 90.35C142.076 90.6833 142.401 91.0667 142.634 91.5L141.034 92.525C140.718 92.0917 140.318 91.7333 139.834 91.45C139.368 91.1667 138.834 91.025 138.234 91.025C137.818 91.025 137.459 91.1167 137.159 91.3C136.859 91.4833 136.709 91.7667 136.709 92.15C136.709 92.45 136.826 92.7167 137.059 92.95C137.293 93.1833 137.593 93.3917 137.959 93.575C138.326 93.7583 138.709 93.9333 139.109 94.1C139.776 94.3667 140.384 94.6583 140.934 94.975C141.484 95.275 141.918 95.6417 142.234 96.075C142.568 96.5083 142.734 97.0667 142.734 97.75C142.734 98.75 142.368 99.5833 141.634 100.25C140.918 100.917 139.968 101.25 138.784 101.25C138.018 101.25 137.326 101.117 136.709 100.85C136.093 100.567 135.568 100.208 135.134 99.775C134.718 99.3417 134.401 98.9 134.184 98.45L135.759 97.475Z" fill="white"/>
<path d="M15.95 125.75C15.95 126.54 16.12 127.245 16.46 127.865C16.81 128.485 17.285 128.975 17.885 129.335C18.485 129.695 19.165 129.875 19.925 129.875C20.695 129.875 21.375 129.695 21.965 129.335C22.565 128.975 23.035 128.485 23.375 127.865C23.725 127.245 23.9 126.54 23.9 125.75C23.9 124.96 23.725 124.255 23.375 123.635C23.035 123.015 22.565 122.525 21.965 122.165C21.375 121.805 20.695 121.625 19.925 121.625C19.165 121.625 18.485 121.805 17.885 122.165C17.285 122.525 16.81 123.015 16.46 123.635C16.12 124.255 15.95 124.96 15.95 125.75ZM14.6 125.75C14.6 124.98 14.73 124.27 14.99 123.62C15.26 122.96 15.635 122.39 16.115 121.91C16.595 121.42 17.16 121.04 17.81 120.77C18.46 120.49 19.165 120.35 19.925 120.35C20.695 120.35 21.4 120.49 22.04 120.77C22.69 121.04 23.255 121.42 23.735 121.91C24.215 122.39 24.585 122.96 24.845 123.62C25.115 124.27 25.25 124.98 25.25 125.75C25.25 126.51 25.115 127.22 24.845 127.88C24.585 128.54 24.215 129.115 23.735 129.605C23.255 130.085 22.69 130.465 22.04 130.745C21.4 131.015 20.695 131.15 19.925 131.15C19.165 131.15 18.46 131.015 17.81 130.745C17.16 130.465 16.595 130.085 16.115 129.605C15.635 129.115 15.26 128.54 14.99 127.88C14.73 127.22 14.6 126.51 14.6 125.75ZM28.1756 128.3C28.1756 128.85 28.3006 129.275 28.5506 129.575C28.8006 129.875 29.1656 130.025 29.6456 130.025C29.9956 130.025 30.3006 129.955 30.5606 129.815C30.8306 129.665 31.0356 129.46 31.1756 129.2C31.3256 128.94 31.4006 128.64 31.4006 128.3V124.1H32.6006V131H31.4006V129.92C31.1706 130.33 30.8856 130.64 30.5456 130.85C30.2056 131.05 29.8056 131.15 29.3456 131.15C28.6256 131.15 28.0506 130.905 27.6206 130.415C27.1906 129.925 26.9756 129.27 26.9756 128.45V124.1H28.1756V128.3ZM36.0564 124.1V131H34.8564V124.1H36.0564ZM38.1414 125.42C37.9814 125.3 37.8364 125.215 37.7064 125.165C37.5764 125.105 37.4114 125.075 37.2114 125.075C36.9114 125.075 36.6764 125.15 36.5064 125.3C36.3364 125.45 36.2164 125.655 36.1464 125.915C36.0864 126.175 36.0564 126.47 36.0564 126.8H35.5164C35.5164 126.25 35.6114 125.765 35.8014 125.345C36.0014 124.915 36.2564 124.575 36.5664 124.325C36.8764 124.075 37.1914 123.95 37.5114 123.95C37.7614 123.95 37.9914 123.985 38.2014 124.055C38.4214 124.115 38.6214 124.24 38.8014 124.43L38.1414 125.42ZM47.1651 131.15C46.5251 131.15 45.9551 131 45.4551 130.7C44.9651 130.39 44.5801 129.965 44.3001 129.425C44.0301 128.885 43.8951 128.26 43.8951 127.55C43.8951 126.83 44.0351 126.2 44.3151 125.66C44.6051 125.12 45.0051 124.7 45.5151 124.4C46.0351 124.1 46.6351 123.95 47.3151 123.95C47.9951 123.95 48.5751 124.095 49.0551 124.385C49.5451 124.665 49.9201 125.07 50.1801 125.6C50.4401 126.13 50.5701 126.76 50.5701 127.49C50.5701 127.56 50.5651 127.635 50.5551 127.715C50.5551 127.785 50.5551 127.83 50.5551 127.85H44.6601V126.83H49.6101L49.1301 127.52C49.1601 127.47 49.1901 127.395 49.2201 127.295C49.2501 127.185 49.2651 127.095 49.2651 127.025C49.2651 126.615 49.1801 126.26 49.0101 125.96C48.8501 125.66 48.6251 125.425 48.3351 125.255C48.0451 125.085 47.7051 125 47.3151 125C46.8551 125 46.4601 125.1 46.1301 125.3C45.8101 125.49 45.5601 125.77 45.3801 126.14C45.2101 126.5 45.1201 126.945 45.1101 127.475C45.1101 128.015 45.1951 128.475 45.3651 128.855C45.5351 129.235 45.7851 129.525 46.1151 129.725C46.4451 129.925 46.8451 130.025 47.3151 130.025C47.7851 130.025 48.2001 129.925 48.5601 129.725C48.9201 129.515 49.2251 129.2 49.4751 128.78L50.4501 129.395C50.0901 129.975 49.6351 130.415 49.0851 130.715C48.5451 131.005 47.9051 131.15 47.1651 131.15ZM55.6701 124.1H57.0201L54.6651 127.445L57.1701 131H55.8201L54.0201 128.39L52.2201 131H50.8701L53.3751 127.445L51.0201 124.1H52.3701L54.0201 126.5L55.6701 124.1ZM57.2439 124.1H60.6939V125.225H57.2439V124.1ZM58.3689 121.7H59.5689V131H58.3689V121.7ZM64.5675 131.15C63.9275 131.15 63.3575 131 62.8575 130.7C62.3675 130.39 61.9825 129.965 61.7025 129.425C61.4325 128.885 61.2975 128.26 61.2975 127.55C61.2975 126.83 61.4375 126.2 61.7175 125.66C62.0075 125.12 62.4075 124.7 62.9175 124.4C63.4375 124.1 64.0375 123.95 64.7175 123.95C65.3975 123.95 65.9775 124.095 66.4575 124.385C66.9475 124.665 67.3225 125.07 67.5825 125.6C67.8425 126.13 67.9725 126.76 67.9725 127.49C67.9725 127.56 67.9675 127.635 67.9575 127.715C67.9575 127.785 67.9575 127.83 67.9575 127.85H62.0625V126.83H67.0125L66.5325 127.52C66.5625 127.47 66.5925 127.395 66.6225 127.295C66.6525 127.185 66.6675 127.095 66.6675 127.025C66.6675 126.615 66.5825 126.26 66.4125 125.96C66.2525 125.66 66.0275 125.425 65.7375 125.255C65.4475 125.085 65.1075 125 64.7175 125C64.2575 125 63.8625 125.1 63.5325 125.3C63.2125 125.49 62.9625 125.77 62.7825 126.14C62.6125 126.5 62.5225 126.945 62.5125 127.475C62.5125 128.015 62.5975 128.475 62.7675 128.855C62.9375 129.235 63.1875 129.525 63.5175 129.725C63.8475 129.925 64.2475 130.025 64.7175 130.025C65.1875 130.025 65.6025 129.925 65.9625 129.725C66.3225 129.515 66.6275 129.2 66.8775 128.78L67.8525 129.395C67.4925 129.975 67.0375 130.415 66.4875 130.715C65.9475 131.005 65.3075 131.15 64.5675 131.15ZM74.0422 126.8C74.0422 126.23 73.9172 125.8 73.6672 125.51C73.4172 125.22 73.0522 125.075 72.5722 125.075C72.2222 125.075 71.9122 125.15 71.6422 125.3C71.3822 125.44 71.1772 125.64 71.0272 125.9C70.8872 126.16 70.8172 126.46 70.8172 126.8V131H69.6172V124.1H70.8172V125.18C71.0472 124.76 71.3322 124.45 71.6722 124.25C72.0222 124.05 72.4222 123.95 72.8722 123.95C73.6022 123.95 74.1772 124.195 74.5972 124.685C75.0272 125.165 75.2422 125.82 75.2422 126.65V131H74.0422V126.8ZM77.783 128.885C77.923 129.095 78.083 129.29 78.263 129.47C78.443 129.65 78.648 129.795 78.878 129.905C79.118 130.005 79.378 130.055 79.658 130.055C79.998 130.055 80.263 129.98 80.453 129.83C80.653 129.67 80.753 129.455 80.753 129.185C80.753 128.945 80.673 128.745 80.513 128.585C80.363 128.415 80.168 128.275 79.928 128.165C79.688 128.045 79.433 127.935 79.163 127.835C78.863 127.715 78.558 127.575 78.248 127.415C77.948 127.245 77.693 127.03 77.483 126.77C77.283 126.5 77.183 126.165 77.183 125.765C77.183 125.355 77.288 125.015 77.498 124.745C77.718 124.475 77.998 124.275 78.338 124.145C78.688 124.015 79.048 123.95 79.418 123.95C79.788 123.95 80.133 124.01 80.453 124.13C80.783 124.25 81.073 124.41 81.323 124.61C81.573 124.81 81.768 125.04 81.908 125.3L80.948 125.915C80.758 125.655 80.518 125.44 80.228 125.27C79.948 125.1 79.628 125.015 79.268 125.015C79.018 125.015 78.803 125.07 78.623 125.18C78.443 125.29 78.353 125.46 78.353 125.69C78.353 125.87 78.423 126.03 78.563 126.17C78.703 126.31 78.883 126.435 79.103 126.545C79.323 126.655 79.553 126.76 79.793 126.86C80.193 127.02 80.558 127.195 80.888 127.385C81.218 127.565 81.478 127.785 81.668 128.045C81.868 128.305 81.968 128.64 81.968 129.05C81.968 129.65 81.748 130.15 81.308 130.55C80.878 130.95 80.308 131.15 79.598 131.15C79.138 131.15 78.723 131.07 78.353 130.91C77.983 130.74 77.668 130.525 77.408 130.265C77.158 130.005 76.968 129.74 76.838 129.47L77.783 128.885ZM83.5479 121.25C83.5479 121.02 83.6279 120.825 83.7879 120.665C83.9579 120.505 84.1529 120.425 84.3729 120.425C84.6029 120.425 84.7979 120.505 84.9579 120.665C85.1179 120.825 85.1979 121.02 85.1979 121.25C85.1979 121.47 85.1179 121.665 84.9579 121.835C84.7979 121.995 84.6029 122.075 84.3729 122.075C84.1529 122.075 83.9579 121.995 83.7879 121.835C83.6279 121.665 83.5479 121.47 83.5479 121.25ZM83.7729 124.1H84.9729V131H83.7729V124.1ZM86.3193 124.1H87.6693L89.6193 128.975L91.5693 124.1H92.9193L89.6193 131.525L86.3193 124.1ZM96.5011 131.15C95.8611 131.15 95.2911 131 94.7911 130.7C94.3011 130.39 93.9161 129.965 93.6361 129.425C93.3661 128.885 93.2311 128.26 93.2311 127.55C93.2311 126.83 93.3711 126.2 93.6511 125.66C93.9411 125.12 94.3411 124.7 94.8511 124.4C95.3711 124.1 95.9711 123.95 96.6511 123.95C97.3311 123.95 97.9111 124.095 98.3911 124.385C98.8811 124.665 99.2561 125.07 99.5161 125.6C99.7761 126.13 99.9061 126.76 99.9061 127.49C99.9061 127.56 99.9011 127.635 99.8911 127.715C99.8911 127.785 99.8911 127.83 99.8911 127.85H93.9961V126.83H98.9461L98.4661 127.52C98.4961 127.47 98.5261 127.395 98.5561 127.295C98.5861 127.185 98.6011 127.095 98.6011 127.025C98.6011 126.615 98.5161 126.26 98.3461 125.96C98.1861 125.66 97.9611 125.425 97.6711 125.255C97.3811 125.085 97.0411 125 96.6511 125C96.1911 125 95.7961 125.1 95.4661 125.3C95.1461 125.49 94.8961 125.77 94.7161 126.14C94.5461 126.5 94.4561 126.945 94.4461 127.475C94.4461 128.015 94.5311 128.475 94.7011 128.855C94.8711 129.235 95.1211 129.525 95.4511 129.725C95.7811 129.925 96.1811 130.025 96.6511 130.025C97.1211 130.025 97.5361 129.925 97.8961 129.725C98.2561 129.515 98.5611 129.2 98.8111 128.78L99.7861 129.395C99.4261 129.975 98.9711 130.415 98.4211 130.715C97.8811 131.005 97.2411 131.15 96.5011 131.15ZM110.473 126.8C110.473 126.23 110.348 125.8 110.098 125.51C109.848 125.22 109.483 125.075 109.003 125.075C108.653 125.075 108.343 125.15 108.073 125.3C107.813 125.44 107.608 125.64 107.458 125.9C107.318 126.16 107.248 126.46 107.248 126.8V131H106.048V124.1H107.248V125.18C107.478 124.76 107.763 124.45 108.103 124.25C108.453 124.05 108.853 123.95 109.303 123.95C110.033 123.95 110.608 124.195 111.028 124.685C111.458 125.165 111.673 125.82 111.673 126.65V131H110.473V126.8ZM116.599 131.15C115.959 131.15 115.389 131 114.889 130.7C114.399 130.39 114.014 129.965 113.734 129.425C113.464 128.885 113.329 128.26 113.329 127.55C113.329 126.83 113.469 126.2 113.749 125.66C114.039 125.12 114.439 124.7 114.949 124.4C115.469 124.1 116.069 123.95 116.749 123.95C117.429 123.95 118.009 124.095 118.489 124.385C118.979 124.665 119.354 125.07 119.614 125.6C119.874 126.13 120.004 126.76 120.004 127.49C120.004 127.56 119.999 127.635 119.989 127.715C119.989 127.785 119.989 127.83 119.989 127.85H114.094V126.83H119.044L118.564 127.52C118.594 127.47 118.624 127.395 118.654 127.295C118.684 127.185 118.699 127.095 118.699 127.025C118.699 126.615 118.614 126.26 118.444 125.96C118.284 125.66 118.059 125.425 117.769 125.255C117.479 125.085 117.139 125 116.749 125C116.289 125 115.894 125.1 115.564 125.3C115.244 125.49 114.994 125.77 114.814 126.14C114.644 126.5 114.554 126.945 114.544 127.475C114.544 128.015 114.629 128.475 114.799 128.855C114.969 129.235 115.219 129.525 115.549 129.725C115.879 129.925 116.279 130.025 116.749 130.025C117.219 130.025 117.634 129.925 117.994 129.725C118.354 129.515 118.659 129.2 118.909 128.78L119.884 129.395C119.524 129.975 119.069 130.415 118.519 130.715C117.979 131.005 117.339 131.15 116.599 131.15ZM120.598 124.1H124.048V125.225H120.598V124.1ZM121.723 121.7H122.923V131H121.723V121.7ZM124.202 124.1H125.552L127.277 128.585L129.152 123.575L131.162 128.615L132.902 124.1H134.252L131.252 131.525L129.167 126.5L127.202 131.525L124.202 124.1ZM134.628 127.55C134.628 126.85 134.783 126.23 135.093 125.69C135.413 125.15 135.843 124.725 136.383 124.415C136.923 124.105 137.528 123.95 138.198 123.95C138.878 123.95 139.483 124.105 140.013 124.415C140.553 124.725 140.978 125.15 141.288 125.69C141.608 126.23 141.768 126.85 141.768 127.55C141.768 128.24 141.608 128.86 141.288 129.41C140.978 129.95 140.553 130.375 140.013 130.685C139.483 130.995 138.878 131.15 138.198 131.15C137.528 131.15 136.923 130.995 136.383 130.685C135.843 130.375 135.413 129.95 135.093 129.41C134.783 128.86 134.628 128.24 134.628 127.55ZM135.843 127.55C135.843 128.03 135.943 128.455 136.143 128.825C136.353 129.195 136.633 129.49 136.983 129.71C137.343 129.92 137.748 130.025 138.198 130.025C138.648 130.025 139.048 129.92 139.398 129.71C139.758 129.49 140.038 129.195 140.238 128.825C140.448 128.455 140.553 128.03 140.553 127.55C140.553 127.07 140.448 126.645 140.238 126.275C140.038 125.895 139.758 125.6 139.398 125.39C139.048 125.18 138.648 125.075 138.198 125.075C137.748 125.075 137.343 125.18 136.983 125.39C136.633 125.6 136.353 125.895 136.143 126.275C135.943 126.645 135.843 127.07 135.843 127.55ZM144.616 124.1V131H143.416V124.1H144.616ZM146.701 125.42C146.541 125.3 146.396 125.215 146.266 125.165C146.136 125.105 145.971 125.075 145.771 125.075C145.471 125.075 145.236 125.15 145.066 125.3C144.896 125.45 144.776 125.655 144.706 125.915C144.646 126.175 144.616 126.47 144.616 126.8H144.076C144.076 126.25 144.171 125.765 144.361 125.345C144.561 124.915 144.816 124.575 145.126 124.325C145.436 124.075 145.751 123.95 146.071 123.95C146.321 123.95 146.551 123.985 146.761 124.055C146.981 124.115 147.181 124.24 147.361 124.43L146.701 125.42ZM148.483 119.3H149.683V131H148.483V119.3ZM152.233 124.1H153.733L150.733 126.95L154.033 131H152.533L149.233 126.95L152.233 124.1ZM159.061 127.55C159.061 126.85 159.216 126.23 159.526 125.69C159.846 125.15 160.276 124.725 160.816 124.415C161.356 124.105 161.961 123.95 162.631 123.95C163.311 123.95 163.916 124.105 164.446 124.415C164.986 124.725 165.411 125.15 165.721 125.69C166.041 126.23 166.201 126.85 166.201 127.55C166.201 128.24 166.041 128.86 165.721 129.41C165.411 129.95 164.986 130.375 164.446 130.685C163.916 130.995 163.311 131.15 162.631 131.15C161.961 131.15 161.356 130.995 160.816 130.685C160.276 130.375 159.846 129.95 159.526 129.41C159.216 128.86 159.061 128.24 159.061 127.55ZM160.276 127.55C160.276 128.03 160.376 128.455 160.576 128.825C160.786 129.195 161.066 129.49 161.416 129.71C161.776 129.92 162.181 130.025 162.631 130.025C163.081 130.025 163.481 129.92 163.831 129.71C164.191 129.49 164.471 129.195 164.671 128.825C164.881 128.455 164.986 128.03 164.986 127.55C164.986 127.07 164.881 126.645 164.671 126.275C164.471 125.895 164.191 125.6 163.831 125.39C163.481 125.18 163.081 125.075 162.631 125.075C162.181 125.075 161.776 125.18 161.416 125.39C161.066 125.6 160.786 125.895 160.576 126.275C160.376 126.645 160.276 127.07 160.276 127.55ZM167.325 124.1H170.775V125.225H167.325V124.1ZM170.655 120.74C170.555 120.57 170.435 120.465 170.295 120.425C170.165 120.375 170.04 120.35 169.92 120.35C169.77 120.35 169.64 120.395 169.53 120.485C169.43 120.565 169.35 120.705 169.29 120.905C169.23 121.105 169.2 121.37 169.2 121.7V131H168V121.55C168 121 168.08 120.55 168.24 120.2C168.4 119.85 168.625 119.59 168.915 119.42C169.215 119.24 169.575 119.15 169.995 119.15C170.215 119.15 170.41 119.18 170.58 119.24C170.75 119.3 170.895 119.375 171.015 119.465C171.145 119.555 171.245 119.65 171.315 119.75L170.655 120.74ZM176.639 121.25C176.639 121.02 176.719 120.825 176.879 120.665C177.049 120.505 177.244 120.425 177.464 120.425C177.694 120.425 177.889 120.505 178.049 120.665C178.209 120.825 178.289 121.02 178.289 121.25C178.289 121.47 178.209 121.665 178.049 121.835C177.889 121.995 177.694 122.075 177.464 122.075C177.244 122.075 177.049 121.995 176.879 121.835C176.719 121.665 176.639 121.47 176.639 121.25ZM176.864 124.1H178.064V131H176.864V124.1ZM184.96 126.8C184.96 126.23 184.835 125.8 184.585 125.51C184.335 125.22 183.97 125.075 183.49 125.075C183.14 125.075 182.83 125.15 182.56 125.3C182.3 125.44 182.095 125.64 181.945 125.9C181.805 126.16 181.735 126.46 181.735 126.8V131H180.535V124.1H181.735V125.18C181.965 124.76 182.25 124.45 182.59 124.25C182.94 124.05 183.34 123.95 183.79 123.95C184.52 123.95 185.095 124.195 185.515 124.685C185.945 125.165 186.16 125.82 186.16 126.65V131H184.96V126.8ZM193.591 119.3H194.791V131H193.591V119.3ZM187.816 127.55C187.816 126.8 187.971 126.16 188.281 125.63C188.591 125.09 189.006 124.675 189.526 124.385C190.046 124.095 190.616 123.95 191.236 123.95C191.816 123.95 192.321 124.095 192.751 124.385C193.181 124.675 193.516 125.09 193.756 125.63C194.006 126.16 194.131 126.8 194.131 127.55C194.131 128.29 194.006 128.93 193.756 129.47C193.516 130.01 193.181 130.425 192.751 130.715C192.321 131.005 191.816 131.15 191.236 131.15C190.616 131.15 190.046 131.005 189.526 130.715C189.006 130.425 188.591 130.01 188.281 129.47C187.971 128.93 187.816 128.29 187.816 127.55ZM189.031 127.55C189.031 128.08 189.136 128.53 189.346 128.9C189.566 129.27 189.856 129.55 190.216 129.74C190.576 129.93 190.966 130.025 191.386 130.025C191.736 130.025 192.081 129.93 192.421 129.74C192.761 129.55 193.041 129.27 193.261 128.9C193.481 128.53 193.591 128.08 193.591 127.55C193.591 127.02 193.481 126.57 193.261 126.2C193.041 125.83 192.761 125.55 192.421 125.36C192.081 125.17 191.736 125.075 191.386 125.075C190.966 125.075 190.576 125.17 190.216 125.36C189.856 125.55 189.566 125.83 189.346 126.2C189.136 126.57 189.031 127.02 189.031 127.55ZM198.171 128.3C198.171 128.85 198.296 129.275 198.546 129.575C198.796 129.875 199.161 130.025 199.641 130.025C199.991 130.025 200.296 129.955 200.556 129.815C200.826 129.665 201.031 129.46 201.171 129.2C201.321 128.94 201.396 128.64 201.396 128.3V124.1H202.596V131H201.396V129.92C201.166 130.33 200.881 130.64 200.541 130.85C200.201 131.05 199.801 131.15 199.341 131.15C198.621 131.15 198.046 130.905 197.616 130.415C197.186 129.925 196.971 129.27 196.971 128.45V124.1H198.171V128.3ZM205.137 128.885C205.277 129.095 205.437 129.29 205.617 129.47C205.797 129.65 206.002 129.795 206.232 129.905C206.472 130.005 206.732 130.055 207.012 130.055C207.352 130.055 207.617 129.98 207.807 129.83C208.007 129.67 208.107 129.455 208.107 129.185C208.107 128.945 208.027 128.745 207.867 128.585C207.717 128.415 207.522 128.275 207.282 128.165C207.042 128.045 206.787 127.935 206.517 127.835C206.217 127.715 205.912 127.575 205.602 127.415C205.302 127.245 205.047 127.03 204.837 126.77C204.637 126.5 204.537 126.165 204.537 125.765C204.537 125.355 204.642 125.015 204.852 124.745C205.072 124.475 205.352 124.275 205.692 124.145C206.042 124.015 206.402 123.95 206.772 123.95C207.142 123.95 207.487 124.01 207.807 124.13C208.137 124.25 208.427 124.41 208.677 124.61C208.927 124.81 209.122 125.04 209.262 125.3L208.302 125.915C208.112 125.655 207.872 125.44 207.582 125.27C207.302 125.1 206.982 125.015 206.622 125.015C206.372 125.015 206.157 125.07 205.977 125.18C205.797 125.29 205.707 125.46 205.707 125.69C205.707 125.87 205.777 126.03 205.917 126.17C206.057 126.31 206.237 126.435 206.457 126.545C206.677 126.655 206.907 126.76 207.147 126.86C207.547 127.02 207.912 127.195 208.242 127.385C208.572 127.565 208.832 127.785 209.022 128.045C209.222 128.305 209.322 128.64 209.322 129.05C209.322 129.65 209.102 130.15 208.662 130.55C208.232 130.95 207.662 131.15 206.952 131.15C206.492 131.15 206.077 131.07 205.707 130.91C205.337 130.74 205.022 130.525 204.762 130.265C204.512 130.005 204.322 129.74 204.192 129.47L205.137 128.885ZM209.851 124.1H213.301V125.225H209.851V124.1ZM210.976 121.7H212.176V131H210.976V121.7ZM215.705 124.1V131H214.505V124.1H215.705ZM217.79 125.42C217.63 125.3 217.485 125.215 217.355 125.165C217.225 125.105 217.06 125.075 216.86 125.075C216.56 125.075 216.325 125.15 216.155 125.3C215.985 125.45 215.865 125.655 215.795 125.915C215.735 126.175 215.705 126.47 215.705 126.8H215.165C215.165 126.25 215.26 125.765 215.45 125.345C215.65 124.915 215.905 124.575 216.215 124.325C216.525 124.075 216.84 123.95 217.16 123.95C217.41 123.95 217.64 123.985 217.85 124.055C218.07 124.115 218.27 124.24 218.45 124.43L217.79 125.42ZM225.576 124.1L221.076 134.3H219.726L221.616 130.025L218.976 124.1H220.401L222.591 129.5L222.096 129.44L224.226 124.1H225.576ZM15.665 149.55C15.665 150.03 15.765 150.455 15.965 150.825C16.175 151.195 16.455 151.49 16.805 151.71C17.165 151.92 17.57 152.025 18.02 152.025C18.39 152.025 18.735 151.97 19.055 151.86C19.385 151.74 19.67 151.585 19.91 151.395C20.15 151.195 20.32 150.985 20.42 150.765V152.265C20.18 152.545 19.835 152.765 19.385 152.925C18.945 153.075 18.49 153.15 18.02 153.15C17.35 153.15 16.745 152.995 16.205 152.685C15.665 152.375 15.235 151.95 14.915 151.41C14.605 150.86 14.45 150.24 14.45 149.55C14.45 148.85 14.605 148.23 14.915 147.69C15.235 147.15 15.665 146.725 16.205 146.415C16.745 146.105 17.35 145.95 18.02 145.95C18.49 145.95 18.945 146.03 19.385 146.19C19.835 146.34 20.18 146.555 20.42 146.835V148.335C20.32 148.105 20.15 147.895 19.91 147.705C19.67 147.515 19.385 147.365 19.055 147.255C18.735 147.135 18.39 147.075 18.02 147.075C17.57 147.075 17.165 147.18 16.805 147.39C16.455 147.6 16.175 147.895 15.965 148.275C15.765 148.645 15.665 149.07 15.665 149.55ZM21.6881 149.55C21.6881 148.85 21.8431 148.23 22.1531 147.69C22.4731 147.15 22.9031 146.725 23.4431 146.415C23.9831 146.105 24.5881 145.95 25.2581 145.95C25.9381 145.95 26.5431 146.105 27.0731 146.415C27.6131 146.725 28.0381 147.15 28.3481 147.69C28.6681 148.23 28.8281 148.85 28.8281 149.55C28.8281 150.24 28.6681 150.86 28.3481 151.41C28.0381 151.95 27.6131 152.375 27.0731 152.685C26.5431 152.995 25.9381 153.15 25.2581 153.15C24.5881 153.15 23.9831 152.995 23.4431 152.685C22.9031 152.375 22.4731 151.95 22.1531 151.41C21.8431 150.86 21.6881 150.24 21.6881 149.55ZM22.9031 149.55C22.9031 150.03 23.0031 150.455 23.2031 150.825C23.4131 151.195 23.6931 151.49 24.0431 151.71C24.4031 151.92 24.8081 152.025 25.2581 152.025C25.7081 152.025 26.1081 151.92 26.4581 151.71C26.8181 151.49 27.0981 151.195 27.2981 150.825C27.5081 150.455 27.6131 150.03 27.6131 149.55C27.6131 149.07 27.5081 148.645 27.2981 148.275C27.0981 147.895 26.8181 147.6 26.4581 147.39C26.1081 147.18 25.7081 147.075 25.2581 147.075C24.8081 147.075 24.4031 147.18 24.0431 147.39C23.6931 147.6 23.4131 147.895 23.2031 148.275C23.0031 148.645 22.9031 149.07 22.9031 149.55ZM34.9016 148.8C34.9016 148.23 34.7766 147.8 34.5266 147.51C34.2766 147.22 33.9116 147.075 33.4316 147.075C33.0816 147.075 32.7716 147.15 32.5016 147.3C32.2416 147.44 32.0366 147.64 31.8866 147.9C31.7466 148.16 31.6766 148.46 31.6766 148.8V153H30.4766V146.1H31.6766V147.18C31.9066 146.76 32.1916 146.45 32.5316 146.25C32.8816 146.05 33.2816 145.95 33.7316 145.95C34.4616 145.95 35.0366 146.195 35.4566 146.685C35.8866 147.165 36.1016 147.82 36.1016 148.65V153H34.9016V148.8ZM37.3074 146.1H40.7574V147.225H37.3074V146.1ZM38.4324 143.7H39.6324V153H38.4324V143.7ZM42.5009 150.87C42.5009 151.13 42.5609 151.355 42.6809 151.545C42.8109 151.735 42.9859 151.88 43.2059 151.98C43.4359 152.07 43.6959 152.115 43.9859 152.115C44.3559 152.115 44.6859 152.04 44.9759 151.89C45.2759 151.74 45.5109 151.53 45.6809 151.26C45.8609 150.98 45.9509 150.66 45.9509 150.3L46.1909 151.2C46.1909 151.64 46.0559 152.005 45.7859 152.295C45.5259 152.585 45.2009 152.8 44.8109 152.94C44.4309 153.08 44.0509 153.15 43.6709 153.15C43.2509 153.15 42.8559 153.065 42.4859 152.895C42.1259 152.715 41.8359 152.46 41.6159 152.13C41.3959 151.8 41.2859 151.4 41.2859 150.93C41.2859 150.26 41.5209 149.725 41.9909 149.325C42.4709 148.915 43.1359 148.71 43.9859 148.71C44.4859 148.71 44.9009 148.77 45.2309 148.89C45.5709 149 45.8409 149.13 46.0409 149.28C46.2409 149.42 46.3759 149.535 46.4459 149.625V150.33C46.0959 150.09 45.7359 149.92 45.3659 149.82C44.9959 149.71 44.6009 149.655 44.1809 149.655C43.7909 149.655 43.4709 149.705 43.2209 149.805C42.9809 149.905 42.8009 150.045 42.6809 150.225C42.5609 150.405 42.5009 150.62 42.5009 150.87ZM42.3209 147.69L41.7359 146.805C41.9959 146.615 42.3509 146.425 42.8009 146.235C43.2609 146.045 43.8109 145.95 44.4509 145.95C44.9909 145.95 45.4609 146.035 45.8609 146.205C46.2709 146.365 46.5859 146.6 46.8059 146.91C47.0359 147.22 47.1509 147.6 47.1509 148.05V153H45.9509V148.215C45.9509 147.975 45.9109 147.78 45.8309 147.63C45.7509 147.47 45.6359 147.345 45.4859 147.255C45.3459 147.165 45.1809 147.1 44.9909 147.06C44.8009 147.02 44.6009 147 44.3909 147C44.0509 147 43.7409 147.04 43.4609 147.12C43.1909 147.2 42.9609 147.295 42.7709 147.405C42.5809 147.515 42.4309 147.61 42.3209 147.69ZM49.7226 149.55C49.7226 150.03 49.8226 150.455 50.0226 150.825C50.2326 151.195 50.5126 151.49 50.8626 151.71C51.2226 151.92 51.6276 152.025 52.0776 152.025C52.4476 152.025 52.7926 151.97 53.1126 151.86C53.4426 151.74 53.7276 151.585 53.9676 151.395C54.2076 151.195 54.3776 150.985 54.4776 150.765V152.265C54.2376 152.545 53.8926 152.765 53.4426 152.925C53.0026 153.075 52.5476 153.15 52.0776 153.15C51.4076 153.15 50.8026 152.995 50.2626 152.685C49.7226 152.375 49.2926 151.95 48.9726 151.41C48.6626 150.86 48.5076 150.24 48.5076 149.55C48.5076 148.85 48.6626 148.23 48.9726 147.69C49.2926 147.15 49.7226 146.725 50.2626 146.415C50.8026 146.105 51.4076 145.95 52.0776 145.95C52.5476 145.95 53.0026 146.03 53.4426 146.19C53.8926 146.34 54.2376 146.555 54.4776 146.835V148.335C54.3776 148.105 54.2076 147.895 53.9676 147.705C53.7276 147.515 53.4426 147.365 53.1126 147.255C52.7926 147.135 52.4476 147.075 52.0776 147.075C51.6276 147.075 51.2226 147.18 50.8626 147.39C50.5126 147.6 50.2326 147.895 50.0226 148.275C49.8226 148.645 49.7226 149.07 49.7226 149.55ZM55.2957 146.1H58.7457V147.225H55.2957V146.1ZM56.4207 143.7H57.6207V153H56.4207V143.7ZM60.2342 150.885C60.3742 151.095 60.5342 151.29 60.7142 151.47C60.8942 151.65 61.0992 151.795 61.3292 151.905C61.5692 152.005 61.8292 152.055 62.1092 152.055C62.4492 152.055 62.7142 151.98 62.9042 151.83C63.1042 151.67 63.2042 151.455 63.2042 151.185C63.2042 150.945 63.1242 150.745 62.9642 150.585C62.8142 150.415 62.6192 150.275 62.3792 150.165C62.1392 150.045 61.8842 149.935 61.6142 149.835C61.3142 149.715 61.0092 149.575 60.6992 149.415C60.3992 149.245 60.1442 149.03 59.9342 148.77C59.7342 148.5 59.6342 148.165 59.6342 147.765C59.6342 147.355 59.7392 147.015 59.9492 146.745C60.1692 146.475 60.4492 146.275 60.7892 146.145C61.1392 146.015 61.4992 145.95 61.8692 145.95C62.2392 145.95 62.5842 146.01 62.9042 146.13C63.2342 146.25 63.5242 146.41 63.7742 146.61C64.0242 146.81 64.2192 147.04 64.3592 147.3L63.3992 147.915C63.2092 147.655 62.9692 147.44 62.6792 147.27C62.3992 147.1 62.0792 147.015 61.7192 147.015C61.4692 147.015 61.2542 147.07 61.0742 147.18C60.8942 147.29 60.8042 147.46 60.8042 147.69C60.8042 147.87 60.8742 148.03 61.0142 148.17C61.1542 148.31 61.3342 148.435 61.5542 148.545C61.7742 148.655 62.0042 148.76 62.2442 148.86C62.6442 149.02 63.0092 149.195 63.3392 149.385C63.6692 149.565 63.9292 149.785 64.1192 150.045C64.3192 150.305 64.4192 150.64 64.4192 151.05C64.4192 151.65 64.1992 152.15 63.7592 152.55C63.3292 152.95 62.7592 153.15 62.0492 153.15C61.5892 153.15 61.1742 153.07 60.8042 152.91C60.4342 152.74 60.1192 152.525 59.8592 152.265C59.6092 152.005 59.4192 151.74 59.2892 151.47L60.2342 150.885ZM71.0361 150.87C71.0361 151.13 71.0961 151.355 71.2161 151.545C71.3461 151.735 71.5211 151.88 71.7411 151.98C71.9711 152.07 72.2311 152.115 72.5211 152.115C72.8911 152.115 73.2211 152.04 73.5111 151.89C73.8111 151.74 74.0461 151.53 74.2161 151.26C74.3961 150.98 74.4861 150.66 74.4861 150.3L74.7261 151.2C74.7261 151.64 74.5911 152.005 74.3211 152.295C74.0611 152.585 73.7361 152.8 73.3461 152.94C72.9661 153.08 72.5861 153.15 72.2061 153.15C71.7861 153.15 71.3911 153.065 71.0211 152.895C70.6611 152.715 70.3711 152.46 70.1511 152.13C69.9311 151.8 69.8211 151.4 69.8211 150.93C69.8211 150.26 70.0561 149.725 70.5261 149.325C71.0061 148.915 71.6711 148.71 72.5211 148.71C73.0211 148.71 73.4361 148.77 73.7661 148.89C74.1061 149 74.3761 149.13 74.5761 149.28C74.7761 149.42 74.9111 149.535 74.9811 149.625V150.33C74.6311 150.09 74.2711 149.92 73.9011 149.82C73.5311 149.71 73.1361 149.655 72.7161 149.655C72.3261 149.655 72.0061 149.705 71.7561 149.805C71.5161 149.905 71.3361 150.045 71.2161 150.225C71.0961 150.405 71.0361 150.62 71.0361 150.87ZM70.8561 147.69L70.2711 146.805C70.5311 146.615 70.8861 146.425 71.3361 146.235C71.7961 146.045 72.3461 145.95 72.9861 145.95C73.5261 145.95 73.9961 146.035 74.3961 146.205C74.8061 146.365 75.1211 146.6 75.3411 146.91C75.5711 147.22 75.6861 147.6 75.6861 148.05V153H74.4861V148.215C74.4861 147.975 74.4461 147.78 74.3661 147.63C74.2861 147.47 74.1711 147.345 74.0211 147.255C73.8811 147.165 73.7161 147.1 73.5261 147.06C73.3361 147.02 73.1361 147 72.9261 147C72.5861 147 72.2761 147.04 71.9961 147.12C71.7261 147.2 71.4961 147.295 71.3061 147.405C71.1161 147.515 70.9661 147.61 70.8561 147.69ZM82.1428 148.8C82.1428 148.23 82.0178 147.8 81.7678 147.51C81.5178 147.22 81.1528 147.075 80.6728 147.075C80.3228 147.075 80.0128 147.15 79.7428 147.3C79.4828 147.44 79.2778 147.64 79.1278 147.9C78.9878 148.16 78.9178 148.46 78.9178 148.8V153H77.7178V146.1H78.9178V147.18C79.1478 146.76 79.4328 146.45 79.7728 146.25C80.1228 146.05 80.5228 145.95 80.9728 145.95C81.7028 145.95 82.2778 146.195 82.6978 146.685C83.1278 147.165 83.3428 147.82 83.3428 148.65V153H82.1428V148.8ZM90.7736 141.3H91.9736V153H90.7736V141.3ZM84.9986 149.55C84.9986 148.8 85.1536 148.16 85.4636 147.63C85.7736 147.09 86.1886 146.675 86.7086 146.385C87.2286 146.095 87.7986 145.95 88.4186 145.95C88.9986 145.95 89.5036 146.095 89.9336 146.385C90.3636 146.675 90.6986 147.09 90.9386 147.63C91.1886 148.16 91.3136 148.8 91.3136 149.55C91.3136 150.29 91.1886 150.93 90.9386 151.47C90.6986 152.01 90.3636 152.425 89.9336 152.715C89.5036 153.005 88.9986 153.15 88.4186 153.15C87.7986 153.15 87.2286 153.005 86.7086 152.715C86.1886 152.425 85.7736 152.01 85.4636 151.47C85.1536 150.93 84.9986 150.29 84.9986 149.55ZM86.2136 149.55C86.2136 150.08 86.3186 150.53 86.5286 150.9C86.7486 151.27 87.0386 151.55 87.3986 151.74C87.7586 151.93 88.1486 152.025 88.5686 152.025C88.9186 152.025 89.2636 151.93 89.6036 151.74C89.9436 151.55 90.2236 151.27 90.4436 150.9C90.6636 150.53 90.7736 150.08 90.7736 149.55C90.7736 149.02 90.6636 148.57 90.4436 148.2C90.2236 147.83 89.9436 147.55 89.6036 147.36C89.2636 147.17 88.9186 147.075 88.5686 147.075C88.1486 147.075 87.7586 147.17 87.3986 147.36C87.0386 147.55 86.7486 147.83 86.5286 148.2C86.3186 148.57 86.2136 149.02 86.2136 149.55ZM99.7754 156.3H98.5754V146.1H99.7754V156.3ZM105.55 149.55C105.55 150.29 105.395 150.93 105.085 151.47C104.775 152.01 104.36 152.425 103.84 152.715C103.33 153.005 102.76 153.15 102.13 153.15C101.56 153.15 101.055 153.005 100.615 152.715C100.185 152.425 99.8454 152.01 99.5954 151.47C99.3554 150.93 99.2354 150.29 99.2354 149.55C99.2354 148.8 99.3554 148.16 99.5954 147.63C99.8454 147.09 100.185 146.675 100.615 146.385C101.055 146.095 101.56 145.95 102.13 145.95C102.76 145.95 103.33 146.095 103.84 146.385C104.36 146.675 104.775 147.09 105.085 147.63C105.395 148.16 105.55 148.8 105.55 149.55ZM104.335 149.55C104.335 149.02 104.225 148.57 104.005 148.2C103.795 147.83 103.51 147.55 103.15 147.36C102.8 147.17 102.41 147.075 101.98 147.075C101.63 147.075 101.285 147.17 100.945 147.36C100.605 147.55 100.325 147.83 100.105 148.2C99.8854 148.57 99.7754 149.02 99.7754 149.55C99.7754 150.08 99.8854 150.53 100.105 150.9C100.325 151.27 100.605 151.55 100.945 151.74C101.285 151.93 101.63 152.025 101.98 152.025C102.41 152.025 102.8 151.93 103.15 151.74C103.51 151.55 103.795 151.27 104.005 150.9C104.225 150.53 104.335 150.08 104.335 149.55ZM107.745 150.87C107.745 151.13 107.805 151.355 107.925 151.545C108.055 151.735 108.23 151.88 108.45 151.98C108.68 152.07 108.94 152.115 109.23 152.115C109.6 152.115 109.93 152.04 110.22 151.89C110.52 151.74 110.755 151.53 110.925 151.26C111.105 150.98 111.195 150.66 111.195 150.3L111.435 151.2C111.435 151.64 111.3 152.005 111.03 152.295C110.77 152.585 110.445 152.8 110.055 152.94C109.675 153.08 109.295 153.15 108.915 153.15C108.495 153.15 108.1 153.065 107.73 152.895C107.37 152.715 107.08 152.46 106.86 152.13C106.64 151.8 106.53 151.4 106.53 150.93C106.53 150.26 106.765 149.725 107.235 149.325C107.715 148.915 108.38 148.71 109.23 148.71C109.73 148.71 110.145 148.77 110.475 148.89C110.815 149 111.085 149.13 111.285 149.28C111.485 149.42 111.62 149.535 111.69 149.625V150.33C111.34 150.09 110.98 149.92 110.61 149.82C110.24 149.71 109.845 149.655 109.425 149.655C109.035 149.655 108.715 149.705 108.465 149.805C108.225 149.905 108.045 150.045 107.925 150.225C107.805 150.405 107.745 150.62 107.745 150.87ZM107.565 147.69L106.98 146.805C107.24 146.615 107.595 146.425 108.045 146.235C108.505 146.045 109.055 145.95 109.695 145.95C110.235 145.95 110.705 146.035 111.105 146.205C111.515 146.365 111.83 146.6 112.05 146.91C112.28 147.22 112.395 147.6 112.395 148.05V153H111.195V148.215C111.195 147.975 111.155 147.78 111.075 147.63C110.995 147.47 110.88 147.345 110.73 147.255C110.59 147.165 110.425 147.1 110.235 147.06C110.045 147.02 109.845 147 109.635 147C109.295 147 108.985 147.04 108.705 147.12C108.435 147.2 108.205 147.295 108.015 147.405C107.825 147.515 107.675 147.61 107.565 147.69ZM115.627 146.1V153H114.427V146.1H115.627ZM117.712 147.42C117.552 147.3 117.407 147.215 117.277 147.165C117.147 147.105 116.982 147.075 116.782 147.075C116.482 147.075 116.247 147.15 116.077 147.3C115.907 147.45 115.787 147.655 115.717 147.915C115.657 148.175 115.627 148.47 115.627 148.8H115.087C115.087 148.25 115.182 147.765 115.372 147.345C115.572 146.915 115.827 146.575 116.137 146.325C116.447 146.075 116.762 145.95 117.082 145.95C117.332 145.95 117.562 145.985 117.772 146.055C117.992 146.115 118.192 146.24 118.372 146.43L117.712 147.42ZM118.518 146.1H121.968V147.225H118.518V146.1ZM119.643 143.7H120.843V153H119.643V143.7ZM127.597 148.8C127.597 148.23 127.472 147.8 127.222 147.51C126.972 147.22 126.607 147.075 126.127 147.075C125.777 147.075 125.467 147.15 125.197 147.3C124.937 147.44 124.732 147.64 124.582 147.9C124.442 148.16 124.372 148.46 124.372 148.8V153H123.172V146.1H124.372V147.18C124.602 146.76 124.887 146.45 125.227 146.25C125.577 146.05 125.977 145.95 126.427 145.95C127.157 145.95 127.732 146.195 128.152 146.685C128.582 147.165 128.797 147.82 128.797 148.65V153H127.597V148.8ZM133.723 153.15C133.083 153.15 132.513 153 132.013 152.7C131.523 152.39 131.138 151.965 130.858 151.425C130.588 150.885 130.453 150.26 130.453 149.55C130.453 148.83 130.593 148.2 130.873 147.66C131.163 147.12 131.563 146.7 132.073 146.4C132.593 146.1 133.193 145.95 133.873 145.95C134.553 145.95 135.133 146.095 135.613 146.385C136.103 146.665 136.478 147.07 136.738 147.6C136.998 148.13 137.128 148.76 137.128 149.49C137.128 149.56 137.123 149.635 137.113 149.715C137.113 149.785 137.113 149.83 137.113 149.85H131.218V148.83H136.168L135.688 149.52C135.718 149.47 135.748 149.395 135.778 149.295C135.808 149.185 135.823 149.095 135.823 149.025C135.823 148.615 135.738 148.26 135.568 147.96C135.408 147.66 135.183 147.425 134.893 147.255C134.603 147.085 134.263 147 133.873 147C133.413 147 133.018 147.1 132.688 147.3C132.368 147.49 132.118 147.77 131.938 148.14C131.768 148.5 131.678 148.945 131.668 149.475C131.668 150.015 131.753 150.475 131.923 150.855C132.093 151.235 132.343 151.525 132.673 151.725C133.003 151.925 133.403 152.025 133.873 152.025C134.343 152.025 134.758 151.925 135.118 151.725C135.478 151.515 135.783 151.2 136.033 150.78L137.008 151.395C136.648 151.975 136.193 152.415 135.643 152.715C135.103 153.005 134.463 153.15 133.723 153.15ZM139.972 146.1V153H138.772V146.1H139.972ZM142.057 147.42C141.897 147.3 141.752 147.215 141.622 147.165C141.492 147.105 141.327 147.075 141.127 147.075C140.827 147.075 140.592 147.15 140.422 147.3C140.252 147.45 140.132 147.655 140.062 147.915C140.002 148.175 139.972 148.47 139.972 148.8H139.432C139.432 148.25 139.527 147.765 139.717 147.345C139.917 146.915 140.172 146.575 140.482 146.325C140.792 146.075 141.107 145.95 141.427 145.95C141.677 145.95 141.907 145.985 142.117 146.055C142.337 146.115 142.537 146.24 142.717 146.43L142.057 147.42ZM144.199 150.885C144.339 151.095 144.499 151.29 144.679 151.47C144.859 151.65 145.064 151.795 145.294 151.905C145.534 152.005 145.794 152.055 146.074 152.055C146.414 152.055 146.679 151.98 146.869 151.83C147.069 151.67 147.169 151.455 147.169 151.185C147.169 150.945 147.089 150.745 146.929 150.585C146.779 150.415 146.584 150.275 146.344 150.165C146.104 150.045 145.849 149.935 145.579 149.835C145.279 149.715 144.974 149.575 144.664 149.415C144.364 149.245 144.109 149.03 143.899 148.77C143.699 148.5 143.599 148.165 143.599 147.765C143.599 147.355 143.704 147.015 143.914 146.745C144.134 146.475 144.414 146.275 144.754 146.145C145.104 146.015 145.464 145.95 145.834 145.95C146.204 145.95 146.549 146.01 146.869 146.13C147.199 146.25 147.489 146.41 147.739 146.61C147.989 146.81 148.184 147.04 148.324 147.3L147.364 147.915C147.174 147.655 146.934 147.44 146.644 147.27C146.364 147.1 146.044 147.015 145.684 147.015C145.434 147.015 145.219 147.07 145.039 147.18C144.859 147.29 144.769 147.46 144.769 147.69C144.769 147.87 144.839 148.03 144.979 148.17C145.119 148.31 145.299 148.435 145.519 148.545C145.739 148.655 145.969 148.76 146.209 148.86C146.609 149.02 146.974 149.195 147.304 149.385C147.634 149.565 147.894 149.785 148.084 150.045C148.284 150.305 148.384 150.64 148.384 151.05C148.384 151.65 148.164 152.15 147.724 152.55C147.294 152.95 146.724 153.15 146.014 153.15C145.554 153.15 145.139 153.07 144.769 152.91C144.399 152.74 144.084 152.525 143.824 152.265C143.574 152.005 143.384 151.74 143.254 151.47L144.199 150.885ZM151.164 141.3V153H149.964V141.3H151.164ZM154.389 148.8C154.389 148.23 154.264 147.8 154.014 147.51C153.774 147.22 153.409 147.075 152.919 147.075C152.569 147.075 152.259 147.15 151.989 147.3C151.729 147.45 151.524 147.655 151.374 147.915C151.234 148.175 151.164 148.47 151.164 148.8H150.774C150.774 148.25 150.879 147.765 151.089 147.345C151.299 146.915 151.584 146.575 151.944 146.325C152.314 146.075 152.739 145.95 153.219 145.95C153.699 145.95 154.114 146.05 154.464 146.25C154.824 146.45 155.099 146.75 155.289 147.15C155.489 147.55 155.589 148.05 155.589 148.65V153H154.389V148.8ZM157.845 143.25C157.845 143.02 157.925 142.825 158.085 142.665C158.255 142.505 158.45 142.425 158.67 142.425C158.9 142.425 159.095 142.505 159.255 142.665C159.415 142.825 159.495 143.02 159.495 143.25C159.495 143.47 159.415 143.665 159.255 143.835C159.095 143.995 158.9 144.075 158.67 144.075C158.45 144.075 158.255 143.995 158.085 143.835C157.925 143.665 157.845 143.47 157.845 143.25ZM158.07 146.1H159.27V153H158.07V146.1ZM162.866 156.3H161.666V146.1H162.866V156.3ZM168.641 149.55C168.641 150.29 168.486 150.93 168.176 151.47C167.866 152.01 167.451 152.425 166.931 152.715C166.421 153.005 165.851 153.15 165.221 153.15C164.651 153.15 164.146 153.005 163.706 152.715C163.276 152.425 162.936 152.01 162.686 151.47C162.446 150.93 162.326 150.29 162.326 149.55C162.326 148.8 162.446 148.16 162.686 147.63C162.936 147.09 163.276 146.675 163.706 146.385C164.146 146.095 164.651 145.95 165.221 145.95C165.851 145.95 166.421 146.095 166.931 146.385C167.451 146.675 167.866 147.09 168.176 147.63C168.486 148.16 168.641 148.8 168.641 149.55ZM167.426 149.55C167.426 149.02 167.316 148.57 167.096 148.2C166.886 147.83 166.601 147.55 166.241 147.36C165.891 147.17 165.501 147.075 165.071 147.075C164.721 147.075 164.376 147.17 164.036 147.36C163.696 147.55 163.416 147.83 163.196 148.2C162.976 148.57 162.866 149.02 162.866 149.55C162.866 150.08 162.976 150.53 163.196 150.9C163.416 151.27 163.696 151.55 164.036 151.74C164.376 151.93 164.721 152.025 165.071 152.025C165.501 152.025 165.891 151.93 166.241 151.74C166.601 151.55 166.886 151.27 167.096 150.9C167.316 150.53 167.426 150.08 167.426 149.55ZM170.581 150.885C170.721 151.095 170.881 151.29 171.061 151.47C171.241 151.65 171.446 151.795 171.676 151.905C171.916 152.005 172.176 152.055 172.456 152.055C172.796 152.055 173.061 151.98 173.251 151.83C173.451 151.67 173.551 151.455 173.551 151.185C173.551 150.945 173.471 150.745 173.311 150.585C173.161 150.415 172.966 150.275 172.726 150.165C172.486 150.045 172.231 149.935 171.961 149.835C171.661 149.715 171.356 149.575 171.046 149.415C170.746 149.245 170.491 149.03 170.281 148.77C170.081 148.5 169.981 148.165 169.981 147.765C169.981 147.355 170.086 147.015 170.296 146.745C170.516 146.475 170.796 146.275 171.136 146.145C171.486 146.015 171.846 145.95 172.216 145.95C172.586 145.95 172.931 146.01 173.251 146.13C173.581 146.25 173.871 146.41 174.121 146.61C174.371 146.81 174.566 147.04 174.706 147.3L173.746 147.915C173.556 147.655 173.316 147.44 173.026 147.27C172.746 147.1 172.426 147.015 172.066 147.015C171.816 147.015 171.601 147.07 171.421 147.18C171.241 147.29 171.151 147.46 171.151 147.69C171.151 147.87 171.221 148.03 171.361 148.17C171.501 148.31 171.681 148.435 171.901 148.545C172.121 148.655 172.351 148.76 172.591 148.86C172.991 149.02 173.356 149.195 173.686 149.385C174.016 149.565 174.276 149.785 174.466 150.045C174.666 150.305 174.766 150.64 174.766 151.05C174.766 151.65 174.546 152.15 174.106 152.55C173.676 152.95 173.106 153.15 172.396 153.15C171.936 153.15 171.521 153.07 171.151 152.91C170.781 152.74 170.466 152.525 170.206 152.265C169.956 152.005 169.766 151.74 169.636 151.47L170.581 150.885ZM181.383 150.87C181.383 151.13 181.443 151.355 181.563 151.545C181.693 151.735 181.868 151.88 182.088 151.98C182.318 152.07 182.578 152.115 182.868 152.115C183.238 152.115 183.568 152.04 183.858 151.89C184.158 151.74 184.393 151.53 184.563 151.26C184.743 150.98 184.833 150.66 184.833 150.3L185.073 151.2C185.073 151.64 184.938 152.005 184.668 152.295C184.408 152.585 184.083 152.8 183.693 152.94C183.313 153.08 182.933 153.15 182.553 153.15C182.133 153.15 181.738 153.065 181.368 152.895C181.008 152.715 180.718 152.46 180.498 152.13C180.278 151.8 180.168 151.4 180.168 150.93C180.168 150.26 180.403 149.725 180.873 149.325C181.353 148.915 182.018 148.71 182.868 148.71C183.368 148.71 183.783 148.77 184.113 148.89C184.453 149 184.723 149.13 184.923 149.28C185.123 149.42 185.258 149.535 185.328 149.625V150.33C184.978 150.09 184.618 149.92 184.248 149.82C183.878 149.71 183.483 149.655 183.063 149.655C182.673 149.655 182.353 149.705 182.103 149.805C181.863 149.905 181.683 150.045 181.563 150.225C181.443 150.405 181.383 150.62 181.383 150.87ZM181.203 147.69L180.618 146.805C180.878 146.615 181.233 146.425 181.683 146.235C182.143 146.045 182.693 145.95 183.333 145.95C183.873 145.95 184.343 146.035 184.743 146.205C185.153 146.365 185.468 146.6 185.688 146.91C185.918 147.22 186.033 147.6 186.033 148.05V153H184.833V148.215C184.833 147.975 184.793 147.78 184.713 147.63C184.633 147.47 184.518 147.345 184.368 147.255C184.228 147.165 184.063 147.1 183.873 147.06C183.683 147.02 183.483 147 183.273 147C182.933 147 182.623 147.04 182.343 147.12C182.073 147.2 181.843 147.295 181.653 147.405C181.463 147.515 181.313 147.61 181.203 147.69ZM193.239 141.3H194.439V153H193.239V141.3ZM187.464 149.55C187.464 148.8 187.619 148.16 187.929 147.63C188.239 147.09 188.654 146.675 189.174 146.385C189.694 146.095 190.264 145.95 190.884 145.95C191.464 145.95 191.969 146.095 192.399 146.385C192.829 146.675 193.164 147.09 193.404 147.63C193.654 148.16 193.779 148.8 193.779 149.55C193.779 150.29 193.654 150.93 193.404 151.47C193.164 152.01 192.829 152.425 192.399 152.715C191.969 153.005 191.464 153.15 190.884 153.15C190.264 153.15 189.694 153.005 189.174 152.715C188.654 152.425 188.239 152.01 187.929 151.47C187.619 150.93 187.464 150.29 187.464 149.55ZM188.679 149.55C188.679 150.08 188.784 150.53 188.994 150.9C189.214 151.27 189.504 151.55 189.864 151.74C190.224 151.93 190.614 152.025 191.034 152.025C191.384 152.025 191.729 151.93 192.069 151.74C192.409 151.55 192.689 151.27 192.909 150.9C193.129 150.53 193.239 150.08 193.239 149.55C193.239 149.02 193.129 148.57 192.909 148.2C192.689 147.83 192.409 147.55 192.069 147.36C191.729 147.17 191.384 147.075 191.034 147.075C190.614 147.075 190.224 147.17 189.864 147.36C189.504 147.55 189.214 147.83 188.994 148.2C188.784 148.57 188.679 149.02 188.679 149.55ZM201.794 141.3H202.994V153H201.794V141.3ZM196.019 149.55C196.019 148.8 196.174 148.16 196.484 147.63C196.794 147.09 197.209 146.675 197.729 146.385C198.249 146.095 198.819 145.95 199.439 145.95C200.019 145.95 200.524 146.095 200.954 146.385C201.384 146.675 201.719 147.09 201.959 147.63C202.209 148.16 202.334 148.8 202.334 149.55C202.334 150.29 202.209 150.93 201.959 151.47C201.719 152.01 201.384 152.425 200.954 152.715C200.524 153.005 200.019 153.15 199.439 153.15C198.819 153.15 198.249 153.005 197.729 152.715C197.209 152.425 196.794 152.01 196.484 151.47C196.174 150.93 196.019 150.29 196.019 149.55ZM197.234 149.55C197.234 150.08 197.339 150.53 197.549 150.9C197.769 151.27 198.059 151.55 198.419 151.74C198.779 151.93 199.169 152.025 199.589 152.025C199.939 152.025 200.284 151.93 200.624 151.74C200.964 151.55 201.244 151.27 201.464 150.9C201.684 150.53 201.794 150.08 201.794 149.55C201.794 149.02 201.684 148.57 201.464 148.2C201.244 147.83 200.964 147.55 200.624 147.36C200.284 147.17 199.939 147.075 199.589 147.075C199.169 147.075 198.779 147.17 198.419 147.36C198.059 147.55 197.769 147.83 197.549 148.2C197.339 148.57 197.234 149.02 197.234 149.55ZM205.459 150.885C205.599 151.095 205.759 151.29 205.939 151.47C206.119 151.65 206.324 151.795 206.554 151.905C206.794 152.005 207.054 152.055 207.334 152.055C207.674 152.055 207.939 151.98 208.129 151.83C208.329 151.67 208.429 151.455 208.429 151.185C208.429 150.945 208.349 150.745 208.189 150.585C208.039 150.415 207.844 150.275 207.604 150.165C207.364 150.045 207.109 149.935 206.839 149.835C206.539 149.715 206.234 149.575 205.924 149.415C205.624 149.245 205.369 149.03 205.159 148.77C204.959 148.5 204.859 148.165 204.859 147.765C204.859 147.355 204.964 147.015 205.174 146.745C205.394 146.475 205.674 146.275 206.014 146.145C206.364 146.015 206.724 145.95 207.094 145.95C207.464 145.95 207.809 146.01 208.129 146.13C208.459 146.25 208.749 146.41 208.999 146.61C209.249 146.81 209.444 147.04 209.584 147.3L208.624 147.915C208.434 147.655 208.194 147.44 207.904 147.27C207.624 147.1 207.304 147.015 206.944 147.015C206.694 147.015 206.479 147.07 206.299 147.18C206.119 147.29 206.029 147.46 206.029 147.69C206.029 147.87 206.099 148.03 206.239 148.17C206.379 148.31 206.559 148.435 206.779 148.545C206.999 148.655 207.229 148.76 207.469 148.86C207.869 149.02 208.234 149.195 208.564 149.385C208.894 149.565 209.154 149.785 209.344 150.045C209.544 150.305 209.644 150.64 209.644 151.05C209.644 151.65 209.424 152.15 208.984 152.55C208.554 152.95 207.984 153.15 207.274 153.15C206.814 153.15 206.399 153.07 206.029 152.91C205.659 152.74 205.344 152.525 205.084 152.265C204.834 152.005 204.644 151.74 204.514 151.47L205.459 150.885ZM214.596 146.1H215.946L217.896 150.975L219.846 146.1H221.196L217.896 153.525L214.596 146.1ZM222.867 150.87C222.867 151.13 222.927 151.355 223.047 151.545C223.177 151.735 223.352 151.88 223.572 151.98C223.802 152.07 224.062 152.115 224.352 152.115C224.722 152.115 225.052 152.04 225.342 151.89C225.642 151.74 225.877 151.53 226.047 151.26C226.227 150.98 226.317 150.66 226.317 150.3L226.557 151.2C226.557 151.64 226.422 152.005 226.152 152.295C225.892 152.585 225.567 152.8 225.177 152.94C224.797 153.08 224.417 153.15 224.037 153.15C223.617 153.15 223.222 153.065 222.852 152.895C222.492 152.715 222.202 152.46 221.982 152.13C221.762 151.8 221.652 151.4 221.652 150.93C221.652 150.26 221.887 149.725 222.357 149.325C222.837 148.915 223.502 148.71 224.352 148.71C224.852 148.71 225.267 148.77 225.597 148.89C225.937 149 226.207 149.13 226.407 149.28C226.607 149.42 226.742 149.535 226.812 149.625V150.33C226.462 150.09 226.102 149.92 225.732 149.82C225.362 149.71 224.967 149.655 224.547 149.655C224.157 149.655 223.837 149.705 223.587 149.805C223.347 149.905 223.167 150.045 223.047 150.225C222.927 150.405 222.867 150.62 222.867 150.87ZM222.687 147.69L222.102 146.805C222.362 146.615 222.717 146.425 223.167 146.235C223.627 146.045 224.177 145.95 224.817 145.95C225.357 145.95 225.827 146.035 226.227 146.205C226.637 146.365 226.952 146.6 227.172 146.91C227.402 147.22 227.517 147.6 227.517 148.05V153H226.317V148.215C226.317 147.975 226.277 147.78 226.197 147.63C226.117 147.47 226.002 147.345 225.852 147.255C225.712 147.165 225.547 147.1 225.357 147.06C225.167 147.02 224.967 147 224.757 147C224.417 147 224.107 147.04 223.827 147.12C223.557 147.2 223.327 147.295 223.137 147.405C222.947 147.515 222.797 147.61 222.687 147.69ZM229.549 141.3H230.749V153H229.549V141.3ZM234.206 150.3C234.206 150.85 234.331 151.275 234.581 151.575C234.831 151.875 235.196 152.025 235.676 152.025C236.026 152.025 236.331 151.955 236.591 151.815C236.861 151.665 237.066 151.46 237.206 151.2C237.356 150.94 237.431 150.64 237.431 150.3V146.1H238.631V153H237.431V151.92C237.201 152.33 236.916 152.64 236.576 152.85C236.236 153.05 235.836 153.15 235.376 153.15C234.656 153.15 234.081 152.905 233.651 152.415C233.221 151.925 233.006 151.27 233.006 150.45V146.1H234.206V150.3ZM243.557 153.15C242.917 153.15 242.347 153 241.847 152.7C241.357 152.39 240.972 151.965 240.692 151.425C240.422 150.885 240.287 150.26 240.287 149.55C240.287 148.83 240.427 148.2 240.707 147.66C240.997 147.12 241.397 146.7 241.907 146.4C242.427 146.1 243.027 145.95 243.707 145.95C244.387 145.95 244.967 146.095 245.447 146.385C245.937 146.665 246.312 147.07 246.572 147.6C246.832 148.13 246.962 148.76 246.962 149.49C246.962 149.56 246.957 149.635 246.947 149.715C246.947 149.785 246.947 149.83 246.947 149.85H241.052V148.83H246.002L245.522 149.52C245.552 149.47 245.582 149.395 245.612 149.295C245.642 149.185 245.657 149.095 245.657 149.025C245.657 148.615 245.572 148.26 245.402 147.96C245.242 147.66 245.017 147.425 244.727 147.255C244.437 147.085 244.097 147 243.707 147C243.247 147 242.852 147.1 242.522 147.3C242.202 147.49 241.952 147.77 241.772 148.14C241.602 148.5 241.512 148.945 241.502 149.475C241.502 150.015 241.587 150.475 241.757 150.855C241.927 151.235 242.177 151.525 242.507 151.725C242.837 151.925 243.237 152.025 243.707 152.025C244.177 152.025 244.592 151.925 244.952 151.725C245.312 151.515 245.617 151.2 245.867 150.78L246.842 151.395C246.482 151.975 246.027 152.415 245.477 152.715C244.937 153.005 244.297 153.15 243.557 153.15ZM16.25 163.3V175H15.05V163.3H16.25ZM22.025 171.55C22.025 172.29 21.87 172.93 21.56 173.47C21.25 174.01 20.835 174.425 20.315 174.715C19.805 175.005 19.235 175.15 18.605 175.15C18.035 175.15 17.53 175.005 17.09 174.715C16.66 174.425 16.32 174.01 16.07 173.47C15.83 172.93 15.71 172.29 15.71 171.55C15.71 170.8 15.83 170.16 16.07 169.63C16.32 169.09 16.66 168.675 17.09 168.385C17.53 168.095 18.035 167.95 18.605 167.95C19.235 167.95 19.805 168.095 20.315 168.385C20.835 168.675 21.25 169.09 21.56 169.63C21.87 170.16 22.025 170.8 22.025 171.55ZM20.81 171.55C20.81 171.02 20.7 170.57 20.48 170.2C20.27 169.83 19.985 169.55 19.625 169.36C19.275 169.17 18.885 169.075 18.455 169.075C18.105 169.075 17.76 169.17 17.42 169.36C17.08 169.55 16.8 169.83 16.58 170.2C16.36 170.57 16.25 171.02 16.25 171.55C16.25 172.08 16.36 172.53 16.58 172.9C16.8 173.27 17.08 173.55 17.42 173.74C17.76 173.93 18.105 174.025 18.455 174.025C18.885 174.025 19.275 173.93 19.625 173.74C19.985 173.55 20.27 173.27 20.48 172.9C20.7 172.53 20.81 172.08 20.81 171.55ZM26.3497 175.15C25.7097 175.15 25.1397 175 24.6397 174.7C24.1497 174.39 23.7647 173.965 23.4847 173.425C23.2147 172.885 23.0797 172.26 23.0797 171.55C23.0797 170.83 23.2197 170.2 23.4997 169.66C23.7897 169.12 24.1897 168.7 24.6997 168.4C25.2197 168.1 25.8197 167.95 26.4997 167.95C27.1797 167.95 27.7597 168.095 28.2397 168.385C28.7297 168.665 29.1047 169.07 29.3647 169.6C29.6247 170.13 29.7547 170.76 29.7547 171.49C29.7547 171.56 29.7497 171.635 29.7397 171.715C29.7397 171.785 29.7397 171.83 29.7397 171.85H23.8447V170.83H28.7947L28.3147 171.52C28.3447 171.47 28.3747 171.395 28.4047 171.295C28.4347 171.185 28.4497 171.095 28.4497 171.025C28.4497 170.615 28.3647 170.26 28.1947 169.96C28.0347 169.66 27.8097 169.425 27.5197 169.255C27.2297 169.085 26.8897 169 26.4997 169C26.0397 169 25.6447 169.1 25.3147 169.3C24.9947 169.49 24.7447 169.77 24.5647 170.14C24.3947 170.5 24.3047 170.945 24.2947 171.475C24.2947 172.015 24.3797 172.475 24.5497 172.855C24.7197 173.235 24.9697 173.525 25.2997 173.725C25.6297 173.925 26.0297 174.025 26.4997 174.025C26.9697 174.025 27.3847 173.925 27.7447 173.725C28.1047 173.515 28.4097 173.2 28.6597 172.78L29.6347 173.395C29.2747 173.975 28.8197 174.415 28.2697 174.715C27.7297 175.005 27.0897 175.15 26.3497 175.15ZM36.6547 168.1L32.1547 178.3H30.8047L32.6947 174.025L30.0547 168.1H31.4797L33.6697 173.5L33.1747 173.44L35.3047 168.1H36.6547ZM36.9664 171.55C36.9664 170.85 37.1214 170.23 37.4314 169.69C37.7514 169.15 38.1814 168.725 38.7214 168.415C39.2614 168.105 39.8664 167.95 40.5364 167.95C41.2164 167.95 41.8214 168.105 42.3514 168.415C42.8914 168.725 43.3164 169.15 43.6264 169.69C43.9464 170.23 44.1064 170.85 44.1064 171.55C44.1064 172.24 43.9464 172.86 43.6264 173.41C43.3164 173.95 42.8914 174.375 42.3514 174.685C41.8214 174.995 41.2164 175.15 40.5364 175.15C39.8664 175.15 39.2614 174.995 38.7214 174.685C38.1814 174.375 37.7514 173.95 37.4314 173.41C37.1214 172.86 36.9664 172.24 36.9664 171.55ZM38.1814 171.55C38.1814 172.03 38.2814 172.455 38.4814 172.825C38.6914 173.195 38.9714 173.49 39.3214 173.71C39.6814 173.92 40.0864 174.025 40.5364 174.025C40.9864 174.025 41.3864 173.92 41.7364 173.71C42.0964 173.49 42.3764 173.195 42.5764 172.825C42.7864 172.455 42.8914 172.03 42.8914 171.55C42.8914 171.07 42.7864 170.645 42.5764 170.275C42.3764 169.895 42.0964 169.6 41.7364 169.39C41.3864 169.18 40.9864 169.075 40.5364 169.075C40.0864 169.075 39.6814 169.18 39.3214 169.39C38.9714 169.6 38.6914 169.895 38.4814 170.275C38.2814 170.645 38.1814 171.07 38.1814 171.55ZM50.1799 170.8C50.1799 170.23 50.0549 169.8 49.8049 169.51C49.5549 169.22 49.1899 169.075 48.7099 169.075C48.3599 169.075 48.0499 169.15 47.7799 169.3C47.5199 169.44 47.3149 169.64 47.1649 169.9C47.0249 170.16 46.9549 170.46 46.9549 170.8V175H45.7549V168.1H46.9549V169.18C47.1849 168.76 47.4699 168.45 47.8099 168.25C48.1599 168.05 48.5599 167.95 49.0099 167.95C49.7399 167.95 50.3149 168.195 50.7349 168.685C51.1649 169.165 51.3799 169.82 51.3799 170.65V175H50.1799V170.8ZM58.8107 163.3H60.0107V175H58.8107V163.3ZM53.0357 171.55C53.0357 170.8 53.1907 170.16 53.5007 169.63C53.8107 169.09 54.2257 168.675 54.7457 168.385C55.2657 168.095 55.8357 167.95 56.4557 167.95C57.0357 167.95 57.5407 168.095 57.9707 168.385C58.4007 168.675 58.7357 169.09 58.9757 169.63C59.2257 170.16 59.3507 170.8 59.3507 171.55C59.3507 172.29 59.2257 172.93 58.9757 173.47C58.7357 174.01 58.4007 174.425 57.9707 174.715C57.5407 175.005 57.0357 175.15 56.4557 175.15C55.8357 175.15 55.2657 175.005 54.7457 174.715C54.2257 174.425 53.8107 174.01 53.5007 173.47C53.1907 172.93 53.0357 172.29 53.0357 171.55ZM54.2507 171.55C54.2507 172.08 54.3557 172.53 54.5657 172.9C54.7857 173.27 55.0757 173.55 55.4357 173.74C55.7957 173.93 56.1857 174.025 56.6057 174.025C56.9557 174.025 57.3007 173.93 57.6407 173.74C57.9807 173.55 58.2607 173.27 58.4807 172.9C58.7007 172.53 58.8107 172.08 58.8107 171.55C58.8107 171.02 58.7007 170.57 58.4807 170.2C58.2607 169.83 57.9807 169.55 57.6407 169.36C57.3007 169.17 56.9557 169.075 56.6057 169.075C56.1857 169.075 55.7957 169.17 55.4357 169.36C55.0757 169.55 54.7857 169.83 54.5657 170.2C54.3557 170.57 54.2507 171.02 54.2507 171.55ZM66.0875 171.55C66.0875 170.85 66.2425 170.23 66.5525 169.69C66.8725 169.15 67.3025 168.725 67.8425 168.415C68.3825 168.105 68.9875 167.95 69.6575 167.95C70.3375 167.95 70.9425 168.105 71.4725 168.415C72.0125 168.725 72.4375 169.15 72.7475 169.69C73.0675 170.23 73.2275 170.85 73.2275 171.55C73.2275 172.24 73.0675 172.86 72.7475 173.41C72.4375 173.95 72.0125 174.375 71.4725 174.685C70.9425 174.995 70.3375 175.15 69.6575 175.15C68.9875 175.15 68.3825 174.995 67.8425 174.685C67.3025 174.375 66.8725 173.95 66.5525 173.41C66.2425 172.86 66.0875 172.24 66.0875 171.55ZM67.3025 171.55C67.3025 172.03 67.4025 172.455 67.6025 172.825C67.8125 173.195 68.0925 173.49 68.4425 173.71C68.8025 173.92 69.2075 174.025 69.6575 174.025C70.1075 174.025 70.5075 173.92 70.8575 173.71C71.2175 173.49 71.4975 173.195 71.6975 172.825C71.9075 172.455 72.0125 172.03 72.0125 171.55C72.0125 171.07 71.9075 170.645 71.6975 170.275C71.4975 169.895 71.2175 169.6 70.8575 169.39C70.5075 169.18 70.1075 169.075 69.6575 169.075C69.2075 169.075 68.8025 169.18 68.4425 169.39C68.0925 169.6 67.8125 169.895 67.6025 170.275C67.4025 170.645 67.3025 171.07 67.3025 171.55ZM76.076 172.3C76.076 172.85 76.201 173.275 76.451 173.575C76.701 173.875 77.066 174.025 77.546 174.025C77.896 174.025 78.201 173.955 78.461 173.815C78.731 173.665 78.936 173.46 79.076 173.2C79.226 172.94 79.301 172.64 79.301 172.3V168.1H80.501V175H79.301V173.92C79.071 174.33 78.786 174.64 78.446 174.85C78.106 175.05 77.706 175.15 77.246 175.15C76.526 175.15 75.951 174.905 75.521 174.415C75.091 173.925 74.876 173.27 74.876 172.45V168.1H76.076V172.3ZM83.9568 168.1V175H82.7568V168.1H83.9568ZM86.0418 169.42C85.8818 169.3 85.7368 169.215 85.6068 169.165C85.4768 169.105 85.3118 169.075 85.1118 169.075C84.8118 169.075 84.5768 169.15 84.4068 169.3C84.2368 169.45 84.1168 169.655 84.0468 169.915C83.9868 170.175 83.9568 170.47 83.9568 170.8H83.4168C83.4168 170.25 83.5118 169.765 83.7018 169.345C83.9018 168.915 84.1568 168.575 84.4668 168.325C84.7768 168.075 85.0918 167.95 85.4118 167.95C85.6618 167.95 85.8918 167.985 86.1018 168.055C86.3218 168.115 86.5218 168.24 86.7018 168.43L86.0418 169.42ZM92.9355 171.55C92.9355 172.03 93.0355 172.455 93.2355 172.825C93.4455 173.195 93.7255 173.49 94.0755 173.71C94.4355 173.92 94.8405 174.025 95.2905 174.025C95.6605 174.025 96.0055 173.97 96.3255 173.86C96.6555 173.74 96.9405 173.585 97.1805 173.395C97.4205 173.195 97.5905 172.985 97.6905 172.765V174.265C97.4505 174.545 97.1055 174.765 96.6555 174.925C96.2155 175.075 95.7605 175.15 95.2905 175.15C94.6205 175.15 94.0155 174.995 93.4755 174.685C92.9355 174.375 92.5055 173.95 92.1855 173.41C91.8755 172.86 91.7205 172.24 91.7205 171.55C91.7205 170.85 91.8755 170.23 92.1855 169.69C92.5055 169.15 92.9355 168.725 93.4755 168.415C94.0155 168.105 94.6205 167.95 95.2905 167.95C95.7605 167.95 96.2155 168.03 96.6555 168.19C97.1055 168.34 97.4505 168.555 97.6905 168.835V170.335C97.5905 170.105 97.4205 169.895 97.1805 169.705C96.9405 169.515 96.6555 169.365 96.3255 169.255C96.0055 169.135 95.6605 169.075 95.2905 169.075C94.8405 169.075 94.4355 169.18 94.0755 169.39C93.7255 169.6 93.4455 169.895 93.2355 170.275C93.0355 170.645 92.9355 171.07 92.9355 171.55ZM98.9586 171.55C98.9586 170.85 99.1136 170.23 99.4236 169.69C99.7436 169.15 100.174 168.725 100.714 168.415C101.254 168.105 101.859 167.95 102.529 167.95C103.209 167.95 103.814 168.105 104.344 168.415C104.884 168.725 105.309 169.15 105.619 169.69C105.939 170.23 106.099 170.85 106.099 171.55C106.099 172.24 105.939 172.86 105.619 173.41C105.309 173.95 104.884 174.375 104.344 174.685C103.814 174.995 103.209 175.15 102.529 175.15C101.859 175.15 101.254 174.995 100.714 174.685C100.174 174.375 99.7436 173.95 99.4236 173.41C99.1136 172.86 98.9586 172.24 98.9586 171.55ZM100.174 171.55C100.174 172.03 100.274 172.455 100.474 172.825C100.684 173.195 100.964 173.49 101.314 173.71C101.674 173.92 102.079 174.025 102.529 174.025C102.979 174.025 103.379 173.92 103.729 173.71C104.089 173.49 104.369 173.195 104.569 172.825C104.779 172.455 104.884 172.03 104.884 171.55C104.884 171.07 104.779 170.645 104.569 170.275C104.369 169.895 104.089 169.6 103.729 169.39C103.379 169.18 102.979 169.075 102.529 169.075C102.079 169.075 101.674 169.18 101.314 169.39C100.964 169.6 100.684 169.895 100.474 170.275C100.274 170.645 100.174 171.07 100.174 171.55ZM108.947 168.1V175H107.747V168.1H108.947ZM111.032 169.42C110.872 169.3 110.727 169.215 110.597 169.165C110.467 169.105 110.302 169.075 110.102 169.075C109.802 169.075 109.567 169.15 109.397 169.3C109.227 169.45 109.107 169.655 109.037 169.915C108.977 170.175 108.947 170.47 108.947 170.8H108.407C108.407 170.25 108.502 169.765 108.692 169.345C108.892 168.915 109.147 168.575 109.457 168.325C109.767 168.075 110.082 167.95 110.402 167.95C110.652 167.95 110.882 167.985 111.092 168.055C111.312 168.115 111.512 168.24 111.692 168.43L111.032 169.42ZM115.339 175.15C114.699 175.15 114.129 175 113.629 174.7C113.139 174.39 112.754 173.965 112.474 173.425C112.204 172.885 112.069 172.26 112.069 171.55C112.069 170.83 112.209 170.2 112.489 169.66C112.779 169.12 113.179 168.7 113.689 168.4C114.209 168.1 114.809 167.95 115.489 167.95C116.169 167.95 116.749 168.095 117.229 168.385C117.719 168.665 118.094 169.07 118.354 169.6C118.614 170.13 118.744 170.76 118.744 171.49C118.744 171.56 118.739 171.635 118.729 171.715C118.729 171.785 118.729 171.83 118.729 171.85H112.834V170.83H117.784L117.304 171.52C117.334 171.47 117.364 171.395 117.394 171.295C117.424 171.185 117.439 171.095 117.439 171.025C117.439 170.615 117.354 170.26 117.184 169.96C117.024 169.66 116.799 169.425 116.509 169.255C116.219 169.085 115.879 169 115.489 169C115.029 169 114.634 169.1 114.304 169.3C113.984 169.49 113.734 169.77 113.554 170.14C113.384 170.5 113.294 170.945 113.284 171.475C113.284 172.015 113.369 172.475 113.539 172.855C113.709 173.235 113.959 173.525 114.289 173.725C114.619 173.925 115.019 174.025 115.489 174.025C115.959 174.025 116.374 173.925 116.734 173.725C117.094 173.515 117.399 173.2 117.649 172.78L118.624 173.395C118.264 173.975 117.809 174.415 117.259 174.715C116.719 175.005 116.079 175.15 115.339 175.15ZM125.171 172.885C125.311 173.095 125.471 173.29 125.651 173.47C125.831 173.65 126.036 173.795 126.266 173.905C126.506 174.005 126.766 174.055 127.046 174.055C127.386 174.055 127.651 173.98 127.841 173.83C128.041 173.67 128.141 173.455 128.141 173.185C128.141 172.945 128.061 172.745 127.901 172.585C127.751 172.415 127.556 172.275 127.316 172.165C127.076 172.045 126.821 171.935 126.551 171.835C126.251 171.715 125.946 171.575 125.636 171.415C125.336 171.245 125.081 171.03 124.871 170.77C124.671 170.5 124.571 170.165 124.571 169.765C124.571 169.355 124.676 169.015 124.886 168.745C125.106 168.475 125.386 168.275 125.726 168.145C126.076 168.015 126.436 167.95 126.806 167.95C127.176 167.95 127.521 168.01 127.841 168.13C128.171 168.25 128.461 168.41 128.711 168.61C128.961 168.81 129.156 169.04 129.296 169.3L128.336 169.915C128.146 169.655 127.906 169.44 127.616 169.27C127.336 169.1 127.016 169.015 126.656 169.015C126.406 169.015 126.191 169.07 126.011 169.18C125.831 169.29 125.741 169.46 125.741 169.69C125.741 169.87 125.811 170.03 125.951 170.17C126.091 170.31 126.271 170.435 126.491 170.545C126.711 170.655 126.941 170.76 127.181 170.86C127.581 171.02 127.946 171.195 128.276 171.385C128.606 171.565 128.866 171.785 129.056 172.045C129.256 172.305 129.356 172.64 129.356 173.05C129.356 173.65 129.136 174.15 128.696 174.55C128.266 174.95 127.696 175.15 126.986 175.15C126.526 175.15 126.111 175.07 125.741 174.91C125.371 174.74 125.056 174.525 124.796 174.265C124.546 174.005 124.356 173.74 124.226 173.47L125.171 172.885ZM133.606 175.15C132.966 175.15 132.396 175 131.896 174.7C131.406 174.39 131.021 173.965 130.741 173.425C130.471 172.885 130.336 172.26 130.336 171.55C130.336 170.83 130.476 170.2 130.756 169.66C131.046 169.12 131.446 168.7 131.956 168.4C132.476 168.1 133.076 167.95 133.756 167.95C134.436 167.95 135.016 168.095 135.496 168.385C135.986 168.665 136.361 169.07 136.621 169.6C136.881 170.13 137.011 170.76 137.011 171.49C137.011 171.56 137.006 171.635 136.996 171.715C136.996 171.785 136.996 171.83 136.996 171.85H131.101V170.83H136.051L135.571 171.52C135.601 171.47 135.631 171.395 135.661 171.295C135.691 171.185 135.706 171.095 135.706 171.025C135.706 170.615 135.621 170.26 135.451 169.96C135.291 169.66 135.066 169.425 134.776 169.255C134.486 169.085 134.146 169 133.756 169C133.296 169 132.901 169.1 132.571 169.3C132.251 169.49 132.001 169.77 131.821 170.14C131.651 170.5 131.561 170.945 131.551 171.475C131.551 172.015 131.636 172.475 131.806 172.855C131.976 173.235 132.226 173.525 132.556 173.725C132.886 173.925 133.286 174.025 133.756 174.025C134.226 174.025 134.641 173.925 135.001 173.725C135.361 173.515 135.666 173.2 135.916 172.78L136.891 173.395C136.531 173.975 136.076 174.415 135.526 174.715C134.986 175.005 134.346 175.15 133.606 175.15ZM139.855 168.1V175H138.655V168.1H139.855ZM141.94 169.42C141.78 169.3 141.635 169.215 141.505 169.165C141.375 169.105 141.21 169.075 141.01 169.075C140.71 169.075 140.475 169.15 140.305 169.3C140.135 169.45 140.015 169.655 139.945 169.915C139.885 170.175 139.855 170.47 139.855 170.8H139.315C139.315 170.25 139.41 169.765 139.6 169.345C139.8 168.915 140.055 168.575 140.365 168.325C140.675 168.075 140.99 167.95 141.31 167.95C141.56 167.95 141.79 167.985 142 168.055C142.22 168.115 142.42 168.24 142.6 168.43L141.94 169.42ZM143.126 168.1H144.476L146.426 172.975L148.376 168.1H149.726L146.426 175.525L143.126 168.1ZM150.857 165.25C150.857 165.02 150.937 164.825 151.097 164.665C151.267 164.505 151.462 164.425 151.682 164.425C151.912 164.425 152.107 164.505 152.267 164.665C152.427 164.825 152.507 165.02 152.507 165.25C152.507 165.47 152.427 165.665 152.267 165.835C152.107 165.995 151.912 166.075 151.682 166.075C151.462 166.075 151.267 165.995 151.097 165.835C150.937 165.665 150.857 165.47 150.857 165.25ZM151.082 168.1H152.282V175H151.082V168.1ZM155.294 171.55C155.294 172.03 155.394 172.455 155.594 172.825C155.804 173.195 156.084 173.49 156.434 173.71C156.794 173.92 157.199 174.025 157.649 174.025C158.019 174.025 158.364 173.97 158.684 173.86C159.014 173.74 159.299 173.585 159.539 173.395C159.779 173.195 159.949 172.985 160.049 172.765V174.265C159.809 174.545 159.464 174.765 159.014 174.925C158.574 175.075 158.119 175.15 157.649 175.15C156.979 175.15 156.374 174.995 155.834 174.685C155.294 174.375 154.864 173.95 154.544 173.41C154.234 172.86 154.079 172.24 154.079 171.55C154.079 170.85 154.234 170.23 154.544 169.69C154.864 169.15 155.294 168.725 155.834 168.415C156.374 168.105 156.979 167.95 157.649 167.95C158.119 167.95 158.574 168.03 159.014 168.19C159.464 168.34 159.809 168.555 160.049 168.835V170.335C159.949 170.105 159.779 169.895 159.539 169.705C159.299 169.515 159.014 169.365 158.684 169.255C158.364 169.135 158.019 169.075 157.649 169.075C157.199 169.075 156.794 169.18 156.434 169.39C156.084 169.6 155.804 169.895 155.594 170.275C155.394 170.645 155.294 171.07 155.294 171.55ZM164.587 175.15C163.947 175.15 163.377 175 162.877 174.7C162.387 174.39 162.002 173.965 161.722 173.425C161.452 172.885 161.317 172.26 161.317 171.55C161.317 170.83 161.457 170.2 161.737 169.66C162.027 169.12 162.427 168.7 162.937 168.4C163.457 168.1 164.057 167.95 164.737 167.95C165.417 167.95 165.997 168.095 166.477 168.385C166.967 168.665 167.342 169.07 167.602 169.6C167.862 170.13 167.992 170.76 167.992 171.49C167.992 171.56 167.987 171.635 167.977 171.715C167.977 171.785 167.977 171.83 167.977 171.85H162.082V170.83H167.032L166.552 171.52C166.582 171.47 166.612 171.395 166.642 171.295C166.672 171.185 166.687 171.095 166.687 171.025C166.687 170.615 166.602 170.26 166.432 169.96C166.272 169.66 166.047 169.425 165.757 169.255C165.467 169.085 165.127 169 164.737 169C164.277 169 163.882 169.1 163.552 169.3C163.232 169.49 162.982 169.77 162.802 170.14C162.632 170.5 162.542 170.945 162.532 171.475C162.532 172.015 162.617 172.475 162.787 172.855C162.957 173.235 163.207 173.525 163.537 173.725C163.867 173.925 164.267 174.025 164.737 174.025C165.207 174.025 165.622 173.925 165.982 173.725C166.342 173.515 166.647 173.2 166.897 172.78L167.872 173.395C167.512 173.975 167.057 174.415 166.507 174.715C165.967 175.005 165.327 175.15 164.587 175.15ZM169.922 172.885C170.062 173.095 170.222 173.29 170.402 173.47C170.582 173.65 170.787 173.795 171.017 173.905C171.257 174.005 171.517 174.055 171.797 174.055C172.137 174.055 172.402 173.98 172.592 173.83C172.792 173.67 172.892 173.455 172.892 173.185C172.892 172.945 172.812 172.745 172.652 172.585C172.502 172.415 172.307 172.275 172.067 172.165C171.827 172.045 171.572 171.935 171.302 171.835C171.002 171.715 170.697 171.575 170.387 171.415C170.087 171.245 169.832 171.03 169.622 170.77C169.422 170.5 169.322 170.165 169.322 169.765C169.322 169.355 169.427 169.015 169.637 168.745C169.857 168.475 170.137 168.275 170.477 168.145C170.827 168.015 171.187 167.95 171.557 167.95C171.927 167.95 172.272 168.01 172.592 168.13C172.922 168.25 173.212 168.41 173.462 168.61C173.712 168.81 173.907 169.04 174.047 169.3L173.087 169.915C172.897 169.655 172.657 169.44 172.367 169.27C172.087 169.1 171.767 169.015 171.407 169.015C171.157 169.015 170.942 169.07 170.762 169.18C170.582 169.29 170.492 169.46 170.492 169.69C170.492 169.87 170.562 170.03 170.702 170.17C170.842 170.31 171.022 170.435 171.242 170.545C171.462 170.655 171.692 170.76 171.932 170.86C172.332 171.02 172.697 171.195 173.027 171.385C173.357 171.565 173.617 171.785 173.807 172.045C174.007 172.305 174.107 172.64 174.107 173.05C174.107 173.65 173.887 174.15 173.447 174.55C173.017 174.95 172.447 175.15 171.737 175.15C171.277 175.15 170.862 175.07 170.492 174.91C170.122 174.74 169.807 174.525 169.547 174.265C169.297 174.005 169.107 173.74 168.977 173.47L169.922 172.885ZM175.987 174.4C175.987 174.17 176.067 173.975 176.227 173.815C176.397 173.655 176.592 173.575 176.812 173.575C177.042 173.575 177.237 173.655 177.397 173.815C177.557 173.975 177.637 174.17 177.637 174.4C177.637 174.62 177.557 174.815 177.397 174.985C177.237 175.145 177.042 175.225 176.812 175.225C176.592 175.225 176.397 175.145 176.227 174.985C176.067 174.815 175.987 174.62 175.987 174.4Z" fill="white" fill-opacity="0.7"/>
<circle cx="249" cy="74" r="20" stroke="#02D5FF" stroke-width="2"/>
<path d="M257.707 66.7071C258.098 66.3166 258.098 65.6834 257.707 65.2929C257.317 64.9024 256.683 64.9024 256.293 65.2929L257.707 66.7071ZM240 82C240 82.5523 240.448 83 241 83L250 83C250.552 83 251 82.5523 251 82C251 81.4477 250.552 81 250 81L242 81L242 73C242 72.4477 241.552 72 241 72C240.448 72 240 72.4477 240 73L240 82ZM256.293 65.2929L240.293 81.2929L241.707 82.7071L257.707 66.7071L256.293 65.2929Z" fill="#02D5FF"/>
</svg>
