<svg width="195" height="53" viewBox="0 0 195 53" fill="none" xmlns="http://www.w3.org/2000/svg">
<rect width="195" height="53" rx="10" fill="url(#paint0_linear_12_75)"/>
<path d="M27.392 37.496C27.568 37.768 27.824 37.976 28.16 38.12C28.48 38.28 28.856 38.36 29.288 38.36C29.656 38.36 30.016 38.192 30.368 37.856C30.736 37.536 30.92 36.984 30.92 36.2V18.2H32.84V36.44C32.84 37.096 32.752 37.664 32.576 38.144C32.416 38.624 32.176 39.024 31.856 39.344C31.536 39.664 31.144 39.896 30.68 40.04C30.232 40.2 29.728 40.28 29.168 40.28C28.752 40.28 28.352 40.208 27.968 40.064C27.568 39.936 27.232 39.776 26.96 39.584C26.672 39.408 26.464 39.24 26.336 39.08L27.392 37.496ZM35.6056 29.48C35.6056 28.36 35.8536 27.368 36.3496 26.504C36.8616 25.64 37.5496 24.96 38.4136 24.464C39.2776 23.968 40.2456 23.72 41.3176 23.72C42.4056 23.72 43.3736 23.968 44.2216 24.464C45.0856 24.96 45.7656 25.64 46.2616 26.504C46.7736 27.368 47.0296 28.36 47.0296 29.48C47.0296 30.584 46.7736 31.576 46.2616 32.456C45.7656 33.32 45.0856 34 44.2216 34.496C43.3736 34.992 42.4056 35.24 41.3176 35.24C40.2456 35.24 39.2776 34.992 38.4136 34.496C37.5496 34 36.8616 33.32 36.3496 32.456C35.8536 31.576 35.6056 30.584 35.6056 29.48ZM37.5496 29.48C37.5496 30.248 37.7096 30.928 38.0296 31.52C38.3656 32.112 38.8136 32.584 39.3736 32.936C39.9496 33.272 40.5976 33.44 41.3176 33.44C42.0376 33.44 42.6776 33.272 43.2376 32.936C43.8136 32.584 44.2616 32.112 44.5816 31.52C44.9176 30.928 45.0856 30.248 45.0856 29.48C45.0856 28.712 44.9176 28.032 44.5816 27.44C44.2616 26.832 43.8136 26.36 43.2376 26.024C42.6776 25.688 42.0376 25.52 41.3176 25.52C40.5976 25.52 39.9496 25.688 39.3736 26.024C38.8136 26.36 38.3656 26.832 38.0296 27.44C37.7096 28.032 37.5496 28.712 37.5496 29.48ZM49.6672 19.4C49.6672 19.032 49.7952 18.72 50.0512 18.464C50.3232 18.208 50.6352 18.08 50.9872 18.08C51.3552 18.08 51.6672 18.208 51.9232 18.464C52.1792 18.72 52.3072 19.032 52.3072 19.4C52.3072 19.752 52.1792 20.064 51.9232 20.336C51.6672 20.592 51.3552 20.72 50.9872 20.72C50.6352 20.72 50.3232 20.592 50.0512 20.336C49.7952 20.064 49.6672 19.752 49.6672 19.4ZM50.0272 23.96H51.9472V35H50.0272V23.96ZM62.9816 28.28C62.9816 27.368 62.7816 26.68 62.3816 26.216C61.9816 25.752 61.3976 25.52 60.6296 25.52C60.0696 25.52 59.5736 25.64 59.1416 25.88C58.7256 26.104 58.3976 26.424 58.1576 26.84C57.9336 27.256 57.8216 27.736 57.8216 28.28V35H55.9016V23.96H57.8216V25.688C58.1896 25.016 58.6456 24.52 59.1896 24.2C59.7496 23.88 60.3896 23.72 61.1096 23.72C62.2776 23.72 63.1976 24.112 63.8696 24.896C64.5576 25.664 64.9016 26.712 64.9016 28.04V35H62.9816V28.28ZM74.1463 20.12V18.2H84.8263V20.12H80.5063V35H78.4663V20.12H74.1463ZM88.7439 35.24C87.7199 35.24 86.8079 35 86.0079 34.52C85.2239 34.024 84.6079 33.344 84.1599 32.48C83.7279 31.616 83.5119 30.616 83.5119 29.48C83.5119 28.328 83.7359 27.32 84.1839 26.456C84.6479 25.592 85.2879 24.92 86.1039 24.44C86.9359 23.96 87.8959 23.72 88.9839 23.72C90.0719 23.72 90.9999 23.952 91.7679 24.416C92.5519 24.864 93.1519 25.512 93.5679 26.36C93.9839 27.208 94.1919 28.216 94.1919 29.384C94.1919 29.496 94.1839 29.616 94.1679 29.744C94.1679 29.856 94.1679 29.928 94.1679 29.96H84.7359V28.328H92.6559L91.8879 29.432C91.9359 29.352 91.9839 29.232 92.0319 29.072C92.0799 28.896 92.1039 28.752 92.1039 28.64C92.1039 27.984 91.9679 27.416 91.6959 26.936C91.4399 26.456 91.0799 26.08 90.6159 25.808C90.1519 25.536 89.6079 25.4 88.9839 25.4C88.2479 25.4 87.6159 25.56 87.0879 25.88C86.5759 26.184 86.1759 26.632 85.8879 27.224C85.6159 27.8 85.4719 28.512 85.4559 29.36C85.4559 30.224 85.5919 30.96 85.8639 31.568C86.1359 32.176 86.5359 32.64 87.0639 32.96C87.5919 33.28 88.2319 33.44 88.9839 33.44C89.7359 33.44 90.3999 33.28 90.9759 32.96C91.5519 32.624 92.0399 32.12 92.4399 31.448L93.9999 32.432C93.4239 33.36 92.6959 34.064 91.8159 34.544C90.9519 35.008 89.9279 35.24 88.7439 35.24ZM96.8234 16.28H98.7434V35H96.8234V16.28ZM106.627 35.24C105.603 35.24 104.691 35 103.891 34.52C103.107 34.024 102.491 33.344 102.043 32.48C101.611 31.616 101.395 30.616 101.395 29.48C101.395 28.328 101.619 27.32 102.067 26.456C102.531 25.592 103.171 24.92 103.987 24.44C104.819 23.96 105.779 23.72 106.867 23.72C107.955 23.72 108.883 23.952 109.651 24.416C110.435 24.864 111.035 25.512 111.451 26.36C111.867 27.208 112.075 28.216 112.075 29.384C112.075 29.496 112.067 29.616 112.051 29.744C112.051 29.856 112.051 29.928 112.051 29.96H102.619V28.328H110.539L109.771 29.432C109.819 29.352 109.867 29.232 109.915 29.072C109.963 28.896 109.987 28.752 109.987 28.64C109.987 27.984 109.851 27.416 109.579 26.936C109.323 26.456 108.963 26.08 108.499 25.808C108.035 25.536 107.491 25.4 106.867 25.4C106.131 25.4 105.499 25.56 104.971 25.88C104.459 26.184 104.059 26.632 103.771 27.224C103.499 27.8 103.355 28.512 103.339 29.36C103.339 30.224 103.475 30.96 103.747 31.568C104.019 32.176 104.419 32.64 104.947 32.96C105.475 33.28 106.115 33.44 106.867 33.44C107.619 33.44 108.283 33.28 108.859 32.96C109.435 32.624 109.923 32.12 110.323 31.448L111.883 32.432C111.307 33.36 110.579 34.064 109.699 34.544C108.835 35.008 107.811 35.24 106.627 35.24ZM113.962 35.72H115.906C115.906 36.248 116.05 36.736 116.338 37.184C116.626 37.648 117.034 38.016 117.562 38.288C118.09 38.576 118.714 38.72 119.434 38.72C119.994 38.72 120.546 38.584 121.09 38.312C121.634 38.04 122.082 37.608 122.434 37.016C122.802 36.44 122.986 35.688 122.986 34.76V23.96H124.906V34.76C124.906 36.024 124.642 37.08 124.114 37.928C123.586 38.792 122.906 39.44 122.074 39.872C121.242 40.304 120.362 40.52 119.434 40.52C118.362 40.52 117.41 40.32 116.578 39.92C115.762 39.52 115.122 38.952 114.658 38.216C114.194 37.496 113.962 36.664 113.962 35.72ZM113.746 29.48C113.746 28.28 113.994 27.256 114.49 26.408C114.986 25.544 115.65 24.88 116.482 24.416C117.314 23.952 118.226 23.72 119.218 23.72C120.146 23.72 120.954 23.952 121.642 24.416C122.33 24.88 122.866 25.544 123.25 26.408C123.65 27.256 123.85 28.28 123.85 29.48C123.85 30.664 123.65 31.688 123.25 32.552C122.866 33.416 122.33 34.08 121.642 34.544C120.954 35.008 120.146 35.24 119.218 35.24C118.226 35.24 117.314 35.008 116.482 34.544C115.65 34.08 114.986 33.416 114.49 32.552C113.994 31.688 113.746 30.664 113.746 29.48ZM115.69 29.48C115.69 30.328 115.858 31.048 116.194 31.64C116.546 32.232 117.01 32.68 117.586 32.984C118.162 33.288 118.786 33.44 119.458 33.44C120.018 33.44 120.57 33.288 121.114 32.984C121.658 32.68 122.106 32.232 122.458 31.64C122.81 31.048 122.986 30.328 122.986 29.48C122.986 28.84 122.882 28.28 122.674 27.8C122.466 27.304 122.186 26.888 121.834 26.552C121.498 26.216 121.122 25.96 120.706 25.784C120.29 25.608 119.874 25.52 119.458 25.52C118.786 25.52 118.162 25.672 117.586 25.976C117.01 26.28 116.546 26.728 116.194 27.32C115.858 27.912 115.69 28.632 115.69 29.48ZM130.314 23.96V35H128.394V23.96H130.314ZM133.65 26.072C133.394 25.88 133.162 25.744 132.954 25.664C132.746 25.568 132.482 25.52 132.162 25.52C131.682 25.52 131.306 25.64 131.034 25.88C130.762 26.12 130.57 26.448 130.458 26.864C130.362 27.28 130.314 27.752 130.314 28.28H129.45C129.45 27.4 129.602 26.624 129.906 25.952C130.226 25.264 130.634 24.72 131.13 24.32C131.626 23.92 132.13 23.72 132.642 23.72C133.042 23.72 133.41 23.776 133.746 23.888C134.098 23.984 134.418 24.184 134.706 24.488L133.65 26.072ZM137.484 31.592C137.484 32.008 137.58 32.368 137.772 32.672C137.98 32.976 138.26 33.208 138.612 33.368C138.98 33.512 139.396 33.584 139.86 33.584C140.452 33.584 140.98 33.464 141.444 33.224C141.924 32.984 142.3 32.648 142.572 32.216C142.86 31.768 143.004 31.256 143.004 30.68L143.388 32.12C143.388 32.824 143.172 33.408 142.74 33.872C142.324 34.336 141.804 34.68 141.18 34.904C140.572 35.128 139.964 35.24 139.356 35.24C138.684 35.24 138.052 35.104 137.46 34.832C136.884 34.544 136.42 34.136 136.068 33.608C135.716 33.08 135.54 32.44 135.54 31.688C135.54 30.616 135.916 29.76 136.668 29.12C137.436 28.464 138.5 28.136 139.86 28.136C140.66 28.136 141.324 28.232 141.852 28.424C142.396 28.6 142.828 28.808 143.148 29.048C143.468 29.272 143.684 29.456 143.796 29.6V30.728C143.236 30.344 142.66 30.072 142.068 29.912C141.476 29.736 140.844 29.648 140.172 29.648C139.548 29.648 139.036 29.728 138.636 29.888C138.252 30.048 137.964 30.272 137.772 30.56C137.58 30.848 137.484 31.192 137.484 31.592ZM137.196 26.504L136.26 25.088C136.676 24.784 137.244 24.48 137.964 24.176C138.7 23.872 139.58 23.72 140.604 23.72C141.468 23.72 142.22 23.856 142.86 24.128C143.516 24.384 144.02 24.76 144.372 25.256C144.74 25.752 144.924 26.36 144.924 27.08V35H143.004V27.344C143.004 26.96 142.94 26.648 142.812 26.408C142.684 26.152 142.5 25.952 142.26 25.808C142.036 25.664 141.772 25.56 141.468 25.496C141.164 25.432 140.844 25.4 140.508 25.4C139.964 25.4 139.468 25.464 139.02 25.592C138.588 25.72 138.22 25.872 137.916 26.048C137.612 26.224 137.372 26.376 137.196 26.504ZM163.295 28.04V35H161.375V28.28C161.375 27.336 161.199 26.64 160.847 26.192C160.511 25.744 159.983 25.52 159.263 25.52C158.735 25.52 158.279 25.632 157.895 25.856C157.511 26.064 157.215 26.376 157.007 26.792C156.799 27.208 156.695 27.704 156.695 28.28V35H154.775V28.28C154.775 27.336 154.599 26.64 154.247 26.192C153.911 25.744 153.383 25.52 152.663 25.52C152.135 25.52 151.679 25.632 151.295 25.856C150.911 26.064 150.615 26.376 150.407 26.792C150.199 27.208 150.095 27.704 150.095 28.28V35H148.175V23.96H150.095V25.568C150.431 24.944 150.847 24.48 151.343 24.176C151.855 23.872 152.455 23.72 153.143 23.72C153.911 23.72 154.567 23.904 155.111 24.272C155.671 24.624 156.079 25.128 156.335 25.784C156.719 25.096 157.199 24.584 157.775 24.248C158.351 23.896 159.007 23.72 159.743 23.72C160.495 23.72 161.135 23.888 161.663 24.224C162.191 24.56 162.591 25.056 162.863 25.712C163.151 26.352 163.295 27.128 163.295 28.04Z" fill="white"/>
<defs>
<linearGradient id="paint0_linear_12_75" x1="0" y1="26.5" x2="195" y2="26.5" gradientUnits="userSpaceOnUse">
<stop stop-color="#02D5FF"/>
<stop offset="1" stop-color="#008FAB"/>
</linearGradient>
</defs>
</svg>
