<svg width="195" height="53" viewBox="0 0 195 53" fill="none" xmlns="http://www.w3.org/2000/svg">
<rect width="195" height="53" rx="10" fill="url(#paint0_linear_12_75)"/>
<path d="M51.6423 20.12V18.2H62.3223V20.12H58.0023V35H55.9623V20.12H51.6423ZM66.24 35.24C65.216 35.24 64.304 35 63.504 34.52C62.72 34.024 62.104 33.344 61.656 32.48C61.224 31.616 61.008 30.616 61.008 29.48C61.008 28.328 61.232 27.32 61.68 26.456C62.144 25.592 62.784 24.92 63.6 24.44C64.432 23.96 65.392 23.72 66.48 23.72C67.568 23.72 68.496 23.952 69.264 24.416C70.048 24.864 70.648 25.512 71.064 26.36C71.48 27.208 71.688 28.216 71.688 29.384C71.688 29.496 71.68 29.616 71.664 29.744C71.664 29.856 71.664 29.928 71.664 29.96H62.232V28.328H70.152L69.384 29.432C69.432 29.352 69.48 29.232 69.528 29.072C69.576 28.896 69.6 28.752 69.6 28.64C69.6 27.984 69.464 27.416 69.192 26.936C68.936 26.456 68.576 26.08 68.112 25.808C67.648 25.536 67.104 25.4 66.48 25.4C65.744 25.4 65.112 25.56 64.584 25.88C64.072 26.184 63.672 26.632 63.384 27.224C63.112 27.8 62.968 28.512 62.952 29.36C62.952 30.224 63.088 30.96 63.36 31.568C63.632 32.176 64.032 32.64 64.56 32.96C65.088 33.28 65.728 33.44 66.48 33.44C67.232 33.44 67.896 33.28 68.472 32.96C69.048 32.624 69.536 32.12 69.936 31.448L71.496 32.432C70.92 33.36 70.192 34.064 69.312 34.544C68.448 35.008 67.424 35.24 66.24 35.24ZM74.3195 16.28H76.2395V35H74.3195V16.28ZM84.1228 35.24C83.0988 35.24 82.1868 35 81.3868 34.52C80.6028 34.024 79.9868 33.344 79.5388 32.48C79.1068 31.616 78.8908 30.616 78.8908 29.48C78.8908 28.328 79.1148 27.32 79.5628 26.456C80.0268 25.592 80.6668 24.92 81.4828 24.44C82.3148 23.96 83.2748 23.72 84.3628 23.72C85.4508 23.72 86.3788 23.952 87.1468 24.416C87.9308 24.864 88.5308 25.512 88.9468 26.36C89.3628 27.208 89.5708 28.216 89.5708 29.384C89.5708 29.496 89.5628 29.616 89.5468 29.744C89.5468 29.856 89.5468 29.928 89.5468 29.96H80.1148V28.328H88.0348L87.2668 29.432C87.3148 29.352 87.3628 29.232 87.4108 29.072C87.4588 28.896 87.4828 28.752 87.4828 28.64C87.4828 27.984 87.3468 27.416 87.0748 26.936C86.8188 26.456 86.4588 26.08 85.9948 25.808C85.5308 25.536 84.9868 25.4 84.3628 25.4C83.6268 25.4 82.9948 25.56 82.4668 25.88C81.9548 26.184 81.5548 26.632 81.2668 27.224C80.9948 27.8 80.8508 28.512 80.8348 29.36C80.8348 30.224 80.9708 30.96 81.2428 31.568C81.5148 32.176 81.9148 32.64 82.4428 32.96C82.9708 33.28 83.6108 33.44 84.3628 33.44C85.1148 33.44 85.7788 33.28 86.3548 32.96C86.9308 32.624 87.4188 32.12 87.8188 31.448L89.3788 32.432C88.8028 33.36 88.0748 34.064 87.1948 34.544C86.3308 35.008 85.3068 35.24 84.1228 35.24ZM91.4583 35.72H93.4023C93.4023 36.248 93.5463 36.736 93.8343 37.184C94.1223 37.648 94.5303 38.016 95.0583 38.288C95.5863 38.576 96.2103 38.72 96.9303 38.72C97.4903 38.72 98.0423 38.584 98.5863 38.312C99.1303 38.04 99.5783 37.608 99.9303 37.016C100.298 36.44 100.482 35.688 100.482 34.76V23.96H102.402V34.76C102.402 36.024 102.138 37.08 101.61 37.928C101.082 38.792 100.402 39.44 99.5703 39.872C98.7383 40.304 97.8583 40.52 96.9303 40.52C95.8583 40.52 94.9063 40.32 94.0743 39.92C93.2583 39.52 92.6183 38.952 92.1543 38.216C91.6903 37.496 91.4583 36.664 91.4583 35.72ZM91.2423 29.48C91.2423 28.28 91.4903 27.256 91.9863 26.408C92.4823 25.544 93.1463 24.88 93.9783 24.416C94.8103 23.952 95.7223 23.72 96.7143 23.72C97.6423 23.72 98.4503 23.952 99.1383 24.416C99.8263 24.88 100.362 25.544 100.746 26.408C101.146 27.256 101.346 28.28 101.346 29.48C101.346 30.664 101.146 31.688 100.746 32.552C100.362 33.416 99.8263 34.08 99.1383 34.544C98.4503 35.008 97.6423 35.24 96.7143 35.24C95.7223 35.24 94.8103 35.008 93.9783 34.544C93.1463 34.08 92.4823 33.416 91.9863 32.552C91.4903 31.688 91.2423 30.664 91.2423 29.48ZM93.1863 29.48C93.1863 30.328 93.3543 31.048 93.6903 31.64C94.0423 32.232 94.5063 32.68 95.0823 32.984C95.6583 33.288 96.2823 33.44 96.9543 33.44C97.5143 33.44 98.0663 33.288 98.6103 32.984C99.1543 32.68 99.6023 32.232 99.9543 31.64C100.306 31.048 100.482 30.328 100.482 29.48C100.482 28.84 100.378 28.28 100.17 27.8C99.9623 27.304 99.6823 26.888 99.3303 26.552C98.9943 26.216 98.6183 25.96 98.2023 25.784C97.7863 25.608 97.3703 25.52 96.9543 25.52C96.2823 25.52 95.6583 25.672 95.0823 25.976C94.5063 26.28 94.0423 26.728 93.6903 27.32C93.3543 27.912 93.1863 28.632 93.1863 29.48ZM107.81 23.96V35H105.89V23.96H107.81ZM111.146 26.072C110.89 25.88 110.658 25.744 110.45 25.664C110.242 25.568 109.978 25.52 109.658 25.52C109.178 25.52 108.802 25.64 108.53 25.88C108.258 26.12 108.066 26.448 107.954 26.864C107.858 27.28 107.81 27.752 107.81 28.28H106.946C106.946 27.4 107.098 26.624 107.402 25.952C107.722 25.264 108.13 24.72 108.626 24.32C109.122 23.92 109.626 23.72 110.138 23.72C110.538 23.72 110.906 23.776 111.242 23.888C111.594 23.984 111.914 24.184 112.202 24.488L111.146 26.072ZM114.98 31.592C114.98 32.008 115.076 32.368 115.268 32.672C115.476 32.976 115.756 33.208 116.108 33.368C116.476 33.512 116.892 33.584 117.356 33.584C117.948 33.584 118.476 33.464 118.94 33.224C119.42 32.984 119.796 32.648 120.068 32.216C120.356 31.768 120.5 31.256 120.5 30.68L120.884 32.12C120.884 32.824 120.668 33.408 120.236 33.872C119.82 34.336 119.3 34.68 118.676 34.904C118.068 35.128 117.46 35.24 116.852 35.24C116.18 35.24 115.548 35.104 114.956 34.832C114.38 34.544 113.916 34.136 113.564 33.608C113.212 33.08 113.036 32.44 113.036 31.688C113.036 30.616 113.412 29.76 114.164 29.12C114.932 28.464 115.996 28.136 117.356 28.136C118.156 28.136 118.82 28.232 119.348 28.424C119.892 28.6 120.324 28.808 120.644 29.048C120.964 29.272 121.18 29.456 121.292 29.6V30.728C120.732 30.344 120.156 30.072 119.564 29.912C118.972 29.736 118.34 29.648 117.668 29.648C117.044 29.648 116.532 29.728 116.132 29.888C115.748 30.048 115.46 30.272 115.268 30.56C115.076 30.848 114.98 31.192 114.98 31.592ZM114.692 26.504L113.756 25.088C114.172 24.784 114.74 24.48 115.46 24.176C116.196 23.872 117.076 23.72 118.1 23.72C118.964 23.72 119.716 23.856 120.356 24.128C121.012 24.384 121.516 24.76 121.868 25.256C122.236 25.752 122.42 26.36 122.42 27.08V35H120.5V27.344C120.5 26.96 120.436 26.648 120.308 26.408C120.18 26.152 119.996 25.952 119.756 25.808C119.532 25.664 119.268 25.56 118.964 25.496C118.66 25.432 118.34 25.4 118.004 25.4C117.46 25.4 116.964 25.464 116.516 25.592C116.084 25.72 115.716 25.872 115.412 26.048C115.108 26.224 114.868 26.376 114.692 26.504ZM140.791 28.04V35H138.871V28.28C138.871 27.336 138.695 26.64 138.343 26.192C138.007 25.744 137.479 25.52 136.759 25.52C136.231 25.52 135.775 25.632 135.391 25.856C135.007 26.064 134.711 26.376 134.503 26.792C134.295 27.208 134.191 27.704 134.191 28.28V35H132.271V28.28C132.271 27.336 132.095 26.64 131.743 26.192C131.407 25.744 130.879 25.52 130.159 25.52C129.631 25.52 129.175 25.632 128.791 25.856C128.407 26.064 128.111 26.376 127.903 26.792C127.695 27.208 127.591 27.704 127.591 28.28V35H125.671V23.96H127.591V25.568C127.927 24.944 128.343 24.48 128.839 24.176C129.351 23.872 129.951 23.72 130.639 23.72C131.407 23.72 132.063 23.904 132.607 24.272C133.167 24.624 133.575 25.128 133.831 25.784C134.215 25.096 134.695 24.584 135.271 24.248C135.847 23.896 136.503 23.72 137.239 23.72C137.991 23.72 138.631 23.888 139.159 24.224C139.687 24.56 140.087 25.056 140.359 25.712C140.647 26.352 140.791 27.128 140.791 28.04Z" fill="white"/>
<defs>
<linearGradient id="paint0_linear_12_75" x1="0" y1="26.5" x2="195" y2="26.5" gradientUnits="userSpaceOnUse">
<stop stop-color="#02D5FF"/>
<stop offset="1" stop-color="#008FAB"/>
</linearGradient>
</defs>
</svg>
