<svg width="377" height="70" viewBox="0 0 377 70" fill="none" xmlns="http://www.w3.org/2000/svg">
<path d="M16.872 21.56L21.24 9.2H23.52L16.92 26.84L11.88 13.784L6.84 26.84L0.24 9.2H2.52L6.984 21.56L11.88 8.36L16.872 21.56ZM27.4856 7.28V26H25.5656V7.28H27.4856ZM32.6456 19.28C32.6456 18.368 32.4456 17.68 32.0456 17.216C31.6616 16.752 31.0776 16.52 30.2936 16.52C29.7336 16.52 29.2376 16.64 28.8056 16.88C28.3896 17.12 28.0616 17.448 27.8216 17.864C27.5976 18.28 27.4856 18.752 27.4856 19.28H26.8616C26.8616 18.4 27.0296 17.624 27.3656 16.952C27.7016 16.264 28.1576 15.72 28.7336 15.32C29.3256 14.92 30.0056 14.72 30.7736 14.72C31.5416 14.72 32.2056 14.88 32.7656 15.2C33.3416 15.52 33.7816 16 34.0856 16.64C34.4056 17.28 34.5656 18.08 34.5656 19.04V26H32.6456V19.28ZM42.447 26.24C41.423 26.24 40.511 26 39.711 25.52C38.927 25.024 38.311 24.344 37.863 23.48C37.431 22.616 37.215 21.616 37.215 20.48C37.215 19.328 37.439 18.32 37.887 17.456C38.351 16.592 38.991 15.92 39.807 15.44C40.639 14.96 41.599 14.72 42.687 14.72C43.775 14.72 44.703 14.952 45.471 15.416C46.255 15.864 46.855 16.512 47.271 17.36C47.687 18.208 47.895 19.216 47.895 20.384C47.895 20.496 47.887 20.616 47.871 20.744C47.871 20.856 47.871 20.928 47.871 20.96H38.439V19.328H46.359L45.591 20.432C45.639 20.352 45.687 20.232 45.735 20.072C45.783 19.896 45.807 19.752 45.807 19.64C45.807 18.984 45.671 18.416 45.399 17.936C45.143 17.456 44.783 17.08 44.319 16.808C43.855 16.536 43.311 16.4 42.687 16.4C41.951 16.4 41.319 16.56 40.791 16.88C40.279 17.184 39.879 17.632 39.591 18.224C39.319 18.8 39.175 19.512 39.159 20.36C39.159 21.224 39.295 21.96 39.567 22.568C39.839 23.176 40.239 23.64 40.767 23.96C41.295 24.28 41.935 24.44 42.687 24.44C43.439 24.44 44.103 24.28 44.679 23.96C45.255 23.624 45.743 23.12 46.143 22.448L47.703 23.432C47.127 24.36 46.399 25.064 45.519 25.544C44.655 26.008 43.631 26.24 42.447 26.24ZM57.6066 19.28C57.6066 18.368 57.4066 17.68 57.0066 17.216C56.6066 16.752 56.0226 16.52 55.2546 16.52C54.6946 16.52 54.1986 16.64 53.7666 16.88C53.3506 17.104 53.0226 17.424 52.7826 17.84C52.5586 18.256 52.4466 18.736 52.4466 19.28V26H50.5266V14.96H52.4466V16.688C52.8146 16.016 53.2706 15.52 53.8146 15.2C54.3746 14.88 55.0146 14.72 55.7346 14.72C56.9026 14.72 57.8226 15.112 58.4946 15.896C59.1826 16.664 59.5266 17.712 59.5266 19.04V26H57.6066V19.28ZM79.0913 14.96L71.8913 31.28H69.7313L72.7553 24.44L68.5312 14.96H70.8113L74.3153 23.6L73.5233 23.504L76.9313 14.96H79.0913ZM79.59 20.48C79.59 19.36 79.838 18.368 80.334 17.504C80.846 16.64 81.534 15.96 82.398 15.464C83.262 14.968 84.23 14.72 85.302 14.72C86.39 14.72 87.358 14.968 88.206 15.464C89.07 15.96 89.75 16.64 90.246 17.504C90.758 18.368 91.014 19.36 91.014 20.48C91.014 21.584 90.758 22.576 90.246 23.456C89.75 24.32 89.07 25 88.206 25.496C87.358 25.992 86.39 26.24 85.302 26.24C84.23 26.24 83.262 25.992 82.398 25.496C81.534 25 80.846 24.32 80.334 23.456C79.838 22.576 79.59 21.584 79.59 20.48ZM81.534 20.48C81.534 21.248 81.694 21.928 82.014 22.52C82.35 23.112 82.798 23.584 83.358 23.936C83.934 24.272 84.582 24.44 85.302 24.44C86.022 24.44 86.662 24.272 87.222 23.936C87.798 23.584 88.246 23.112 88.566 22.52C88.902 21.928 89.07 21.248 89.07 20.48C89.07 19.712 88.902 19.032 88.566 18.44C88.246 17.832 87.798 17.36 87.222 17.024C86.662 16.688 86.022 16.52 85.302 16.52C84.582 16.52 83.934 16.688 83.358 17.024C82.798 17.36 82.35 17.832 82.014 18.44C81.694 19.032 81.534 19.712 81.534 20.48ZM95.5716 21.68C95.5716 22.56 95.7716 23.24 96.1716 23.72C96.5716 24.2 97.1556 24.44 97.9236 24.44C98.4836 24.44 98.9716 24.328 99.3876 24.104C99.8196 23.864 100.148 23.536 100.372 23.12C100.612 22.704 100.732 22.224 100.732 21.68V14.96H102.652V26H100.732V24.272C100.364 24.928 99.9076 25.424 99.3636 25.76C98.8196 26.08 98.1796 26.24 97.4436 26.24C96.2916 26.24 95.3716 25.848 94.6836 25.064C93.9956 24.28 93.6516 23.232 93.6516 21.92V14.96H95.5716V21.68ZM108.181 14.96V26H106.261V14.96H108.181ZM111.517 17.072C111.261 16.88 111.029 16.744 110.821 16.664C110.613 16.568 110.349 16.52 110.029 16.52C109.549 16.52 109.173 16.64 108.901 16.88C108.629 17.12 108.437 17.448 108.325 17.864C108.229 18.28 108.181 18.752 108.181 19.28H107.317C107.317 18.4 107.469 17.624 107.773 16.952C108.093 16.264 108.501 15.72 108.997 15.32C109.493 14.92 109.997 14.72 110.509 14.72C110.909 14.72 111.277 14.776 111.613 14.888C111.965 14.984 112.285 15.184 112.573 15.488L111.517 17.072ZM122.547 20.48C122.547 21.248 122.707 21.928 123.027 22.52C123.363 23.112 123.811 23.584 124.371 23.936C124.947 24.272 125.595 24.44 126.315 24.44C126.907 24.44 127.459 24.352 127.971 24.176C128.499 23.984 128.955 23.736 129.339 23.432C129.723 23.112 129.995 22.776 130.155 22.424V24.824C129.771 25.272 129.219 25.624 128.499 25.88C127.795 26.12 127.067 26.24 126.315 26.24C125.243 26.24 124.275 25.992 123.411 25.496C122.547 25 121.859 24.32 121.347 23.456C120.851 22.576 120.603 21.584 120.603 20.48C120.603 19.36 120.851 18.368 121.347 17.504C121.859 16.64 122.547 15.96 123.411 15.464C124.275 14.968 125.243 14.72 126.315 14.72C127.067 14.72 127.795 14.848 128.499 15.104C129.219 15.344 129.771 15.688 130.155 16.136V18.536C129.995 18.168 129.723 17.832 129.339 17.528C128.955 17.224 128.499 16.984 127.971 16.808C127.459 16.616 126.907 16.52 126.315 16.52C125.595 16.52 124.947 16.688 124.371 17.024C123.811 17.36 123.363 17.832 123.027 18.44C122.707 19.032 122.547 19.712 122.547 20.48ZM132.184 20.48C132.184 19.36 132.432 18.368 132.928 17.504C133.44 16.64 134.128 15.96 134.992 15.464C135.856 14.968 136.824 14.72 137.896 14.72C138.984 14.72 139.952 14.968 140.8 15.464C141.664 15.96 142.344 16.64 142.84 17.504C143.352 18.368 143.608 19.36 143.608 20.48C143.608 21.584 143.352 22.576 142.84 23.456C142.344 24.32 141.664 25 140.8 25.496C139.952 25.992 138.984 26.24 137.896 26.24C136.824 26.24 135.856 25.992 134.992 25.496C134.128 25 133.44 24.32 132.928 23.456C132.432 22.576 132.184 21.584 132.184 20.48ZM134.128 20.48C134.128 21.248 134.288 21.928 134.608 22.52C134.944 23.112 135.392 23.584 135.952 23.936C136.528 24.272 137.176 24.44 137.896 24.44C138.616 24.44 139.256 24.272 139.816 23.936C140.392 23.584 140.84 23.112 141.16 22.52C141.496 21.928 141.664 21.248 141.664 20.48C141.664 19.712 141.496 19.032 141.16 18.44C140.84 17.832 140.392 17.36 139.816 17.024C139.256 16.688 138.616 16.52 137.896 16.52C137.176 16.52 136.528 16.688 135.952 17.024C135.392 17.36 134.944 17.832 134.608 18.44C134.288 19.032 134.128 19.712 134.128 20.48ZM161.365 19.04V26H159.445V19.28C159.445 18.336 159.269 17.64 158.917 17.192C158.581 16.744 158.053 16.52 157.333 16.52C156.805 16.52 156.349 16.632 155.965 16.856C155.581 17.064 155.285 17.376 155.077 17.792C154.869 18.208 154.765 18.704 154.765 19.28V26H152.845V19.28C152.845 18.336 152.669 17.64 152.317 17.192C151.981 16.744 151.453 16.52 150.733 16.52C150.205 16.52 149.749 16.632 149.365 16.856C148.981 17.064 148.685 17.376 148.477 17.792C148.269 18.208 148.165 18.704 148.165 19.28V26H146.245V14.96H148.165V16.568C148.501 15.944 148.917 15.48 149.413 15.176C149.925 14.872 150.525 14.72 151.213 14.72C151.981 14.72 152.637 14.904 153.181 15.272C153.741 15.624 154.149 16.128 154.405 16.784C154.789 16.096 155.269 15.584 155.845 15.248C156.421 14.896 157.077 14.72 157.813 14.72C158.565 14.72 159.205 14.888 159.733 15.224C160.261 15.56 160.661 16.056 160.933 16.712C161.221 17.352 161.365 18.128 161.365 19.04ZM166.772 31.28H164.852V14.96H166.772V31.28ZM176.012 20.48C176.012 21.664 175.764 22.688 175.268 23.552C174.772 24.416 174.108 25.08 173.276 25.544C172.46 26.008 171.548 26.24 170.54 26.24C169.628 26.24 168.82 26.008 168.116 25.544C167.428 25.08 166.884 24.416 166.484 23.552C166.1 22.688 165.908 21.664 165.908 20.48C165.908 19.28 166.1 18.256 166.484 17.408C166.884 16.544 167.428 15.88 168.116 15.416C168.82 14.952 169.628 14.72 170.54 14.72C171.548 14.72 172.46 14.952 173.276 15.416C174.108 15.88 174.772 16.544 175.268 17.408C175.764 18.256 176.012 19.28 176.012 20.48ZM174.068 20.48C174.068 19.632 173.892 18.912 173.54 18.32C173.204 17.728 172.748 17.28 172.172 16.976C171.612 16.672 170.988 16.52 170.3 16.52C169.74 16.52 169.188 16.672 168.644 16.976C168.1 17.28 167.652 17.728 167.3 18.32C166.948 18.912 166.772 19.632 166.772 20.48C166.772 21.328 166.948 22.048 167.3 22.64C167.652 23.232 168.1 23.68 168.644 23.984C169.188 24.288 169.74 24.44 170.3 24.44C170.988 24.44 171.612 24.288 172.172 23.984C172.748 23.68 173.204 23.232 173.54 22.64C173.892 22.048 174.068 21.328 174.068 20.48ZM179.523 22.592C179.523 23.008 179.619 23.368 179.811 23.672C180.019 23.976 180.299 24.208 180.651 24.368C181.019 24.512 181.435 24.584 181.899 24.584C182.491 24.584 183.019 24.464 183.483 24.224C183.963 23.984 184.339 23.648 184.611 23.216C184.899 22.768 185.043 22.256 185.043 21.68L185.427 23.12C185.427 23.824 185.211 24.408 184.779 24.872C184.363 25.336 183.843 25.68 183.219 25.904C182.611 26.128 182.003 26.24 181.395 26.24C180.723 26.24 180.091 26.104 179.499 25.832C178.923 25.544 178.459 25.136 178.107 24.608C177.755 24.08 177.579 23.44 177.579 22.688C177.579 21.616 177.955 20.76 178.707 20.12C179.475 19.464 180.539 19.136 181.899 19.136C182.699 19.136 183.363 19.232 183.891 19.424C184.435 19.6 184.867 19.808 185.187 20.048C185.507 20.272 185.723 20.456 185.835 20.6V21.728C185.275 21.344 184.699 21.072 184.107 20.912C183.515 20.736 182.883 20.648 182.211 20.648C181.587 20.648 181.075 20.728 180.675 20.888C180.291 21.048 180.003 21.272 179.811 21.56C179.619 21.848 179.523 22.192 179.523 22.592ZM179.235 17.504L178.299 16.088C178.715 15.784 179.283 15.48 180.003 15.176C180.739 14.872 181.619 14.72 182.643 14.72C183.507 14.72 184.259 14.856 184.899 15.128C185.555 15.384 186.059 15.76 186.411 16.256C186.779 16.752 186.963 17.36 186.963 18.08V26H185.043V18.344C185.043 17.96 184.979 17.648 184.851 17.408C184.723 17.152 184.539 16.952 184.299 16.808C184.075 16.664 183.811 16.56 183.507 16.496C183.203 16.432 182.883 16.4 182.547 16.4C182.003 16.4 181.507 16.464 181.059 16.592C180.627 16.72 180.259 16.872 179.955 17.048C179.651 17.224 179.411 17.376 179.235 17.504ZM197.294 19.28C197.294 18.368 197.094 17.68 196.694 17.216C196.294 16.752 195.71 16.52 194.942 16.52C194.382 16.52 193.886 16.64 193.454 16.88C193.038 17.104 192.71 17.424 192.47 17.84C192.246 18.256 192.134 18.736 192.134 19.28V26H190.214V14.96H192.134V16.688C192.502 16.016 192.958 15.52 193.502 15.2C194.062 14.88 194.702 14.72 195.422 14.72C196.59 14.72 197.51 15.112 198.182 15.896C198.87 16.664 199.214 17.712 199.214 19.04V26H197.294V19.28ZM211.466 14.96L204.266 31.28H202.106L205.13 24.44L200.906 14.96H203.186L206.69 23.6L205.898 23.504L209.306 14.96H211.466ZM227.552 19.28C227.552 18.368 227.352 17.68 226.952 17.216C226.552 16.752 225.968 16.52 225.2 16.52C224.64 16.52 224.144 16.64 223.712 16.88C223.296 17.104 222.968 17.424 222.728 17.84C222.504 18.256 222.392 18.736 222.392 19.28V26H220.472V14.96H222.392V16.688C222.76 16.016 223.216 15.52 223.76 15.2C224.32 14.88 224.96 14.72 225.68 14.72C226.848 14.72 227.768 15.112 228.44 15.896C229.128 16.664 229.472 17.712 229.472 19.04V26H227.552V19.28ZM237.353 26.24C236.329 26.24 235.417 26 234.617 25.52C233.833 25.024 233.217 24.344 232.769 23.48C232.337 22.616 232.121 21.616 232.121 20.48C232.121 19.328 232.345 18.32 232.793 17.456C233.257 16.592 233.897 15.92 234.713 15.44C235.545 14.96 236.505 14.72 237.593 14.72C238.681 14.72 239.609 14.952 240.377 15.416C241.161 15.864 241.761 16.512 242.177 17.36C242.593 18.208 242.801 19.216 242.801 20.384C242.801 20.496 242.793 20.616 242.777 20.744C242.777 20.856 242.777 20.928 242.777 20.96H233.345V19.328H241.265L240.497 20.432C240.545 20.352 240.593 20.232 240.641 20.072C240.689 19.896 240.713 19.752 240.713 19.64C240.713 18.984 240.577 18.416 240.305 17.936C240.049 17.456 239.689 17.08 239.225 16.808C238.761 16.536 238.217 16.4 237.593 16.4C236.857 16.4 236.225 16.56 235.697 16.88C235.185 17.184 234.785 17.632 234.497 18.224C234.225 18.8 234.081 19.512 234.065 20.36C234.065 21.224 234.201 21.96 234.473 22.568C234.745 23.176 235.145 23.64 235.673 23.96C236.201 24.28 236.841 24.44 237.593 24.44C238.345 24.44 239.009 24.28 239.585 23.96C240.161 23.624 240.649 23.12 241.049 22.448L242.609 23.432C242.033 24.36 241.305 25.064 240.425 25.544C239.561 26.008 238.537 26.24 237.353 26.24ZM249.705 26.24C248.681 26.24 247.769 26 246.969 25.52C246.185 25.024 245.569 24.344 245.121 23.48C244.689 22.616 244.473 21.616 244.473 20.48C244.473 19.328 244.697 18.32 245.145 17.456C245.609 16.592 246.249 15.92 247.065 15.44C247.897 14.96 248.857 14.72 249.945 14.72C251.033 14.72 251.961 14.952 252.729 15.416C253.513 15.864 254.113 16.512 254.529 17.36C254.945 18.208 255.153 19.216 255.153 20.384C255.153 20.496 255.145 20.616 255.129 20.744C255.129 20.856 255.129 20.928 255.129 20.96H245.697V19.328H253.617L252.849 20.432C252.897 20.352 252.945 20.232 252.993 20.072C253.041 19.896 253.065 19.752 253.065 19.64C253.065 18.984 252.929 18.416 252.657 17.936C252.401 17.456 252.041 17.08 251.577 16.808C251.113 16.536 250.569 16.4 249.945 16.4C249.209 16.4 248.577 16.56 248.049 16.88C247.537 17.184 247.137 17.632 246.849 18.224C246.577 18.8 246.433 19.512 246.417 20.36C246.417 21.224 246.553 21.96 246.825 22.568C247.097 23.176 247.497 23.64 248.025 23.96C248.553 24.28 249.193 24.44 249.945 24.44C250.697 24.44 251.361 24.28 251.937 23.96C252.513 23.624 253.001 23.12 253.401 22.448L254.961 23.432C254.385 24.36 253.657 25.064 252.777 25.544C251.913 26.008 250.889 26.24 249.705 26.24ZM266.064 7.28H267.984V26H266.064V7.28ZM256.824 20.48C256.824 19.28 257.072 18.256 257.568 17.408C258.064 16.544 258.728 15.88 259.56 15.416C260.392 14.952 261.304 14.72 262.296 14.72C263.224 14.72 264.032 14.952 264.72 15.416C265.408 15.88 265.944 16.544 266.328 17.408C266.728 18.256 266.928 19.28 266.928 20.48C266.928 21.664 266.728 22.688 266.328 23.552C265.944 24.416 265.408 25.08 264.72 25.544C264.032 26.008 263.224 26.24 262.296 26.24C261.304 26.24 260.392 26.008 259.56 25.544C258.728 25.08 258.064 24.416 257.568 23.552C257.072 22.688 256.824 21.664 256.824 20.48ZM258.768 20.48C258.768 21.328 258.936 22.048 259.272 22.64C259.624 23.232 260.088 23.68 260.664 23.984C261.24 24.288 261.864 24.44 262.536 24.44C263.096 24.44 263.648 24.288 264.192 23.984C264.736 23.68 265.184 23.232 265.536 22.64C265.888 22.048 266.064 21.328 266.064 20.48C266.064 19.632 265.888 18.912 265.536 18.32C265.184 17.728 264.736 17.28 264.192 16.976C263.648 16.672 263.096 16.52 262.536 16.52C261.864 16.52 261.24 16.672 260.664 16.976C260.088 17.28 259.624 17.728 259.272 18.32C258.936 18.912 258.768 19.632 258.768 20.48ZM271.928 22.616C272.152 22.952 272.408 23.264 272.696 23.552C272.984 23.84 273.312 24.072 273.68 24.248C274.064 24.408 274.48 24.488 274.928 24.488C275.472 24.488 275.896 24.368 276.2 24.128C276.52 23.872 276.68 23.528 276.68 23.096C276.68 22.712 276.552 22.392 276.296 22.136C276.056 21.864 275.744 21.64 275.36 21.464C274.976 21.272 274.568 21.096 274.136 20.936C273.656 20.744 273.168 20.52 272.672 20.264C272.192 19.992 271.784 19.648 271.448 19.232C271.128 18.8 270.968 18.264 270.968 17.624C270.968 16.968 271.136 16.424 271.472 15.992C271.824 15.56 272.272 15.24 272.816 15.032C273.376 14.824 273.952 14.72 274.544 14.72C275.136 14.72 275.688 14.816 276.2 15.008C276.728 15.2 277.192 15.456 277.592 15.776C277.992 16.096 278.304 16.464 278.528 16.88L276.992 17.864C276.688 17.448 276.304 17.104 275.84 16.832C275.392 16.56 274.88 16.424 274.304 16.424C273.904 16.424 273.56 16.512 273.272 16.688C272.984 16.864 272.84 17.136 272.84 17.504C272.84 17.792 272.952 18.048 273.176 18.272C273.4 18.496 273.688 18.696 274.04 18.872C274.392 19.048 274.76 19.216 275.144 19.376C275.784 19.632 276.368 19.912 276.896 20.216C277.424 20.504 277.84 20.856 278.144 21.272C278.464 21.688 278.624 22.224 278.624 22.88C278.624 23.84 278.272 24.64 277.568 25.28C276.88 25.92 275.968 26.24 274.832 26.24C274.096 26.24 273.432 26.112 272.84 25.856C272.248 25.584 271.744 25.24 271.328 24.824C270.928 24.408 270.624 23.984 270.416 23.552L271.928 22.616ZM286.667 14.96H292.187V16.76H286.667V14.96ZM288.467 11.12H290.387V26H288.467V11.12ZM293.153 20.48C293.153 19.36 293.4 18.368 293.896 17.504C294.409 16.64 295.097 15.96 295.961 15.464C296.825 14.968 297.793 14.72 298.865 14.72C299.953 14.72 300.921 14.968 301.769 15.464C302.633 15.96 303.313 16.64 303.809 17.504C304.321 18.368 304.577 19.36 304.577 20.48C304.577 21.584 304.321 22.576 303.809 23.456C303.313 24.32 302.633 25 301.769 25.496C300.921 25.992 299.953 26.24 298.865 26.24C297.793 26.24 296.825 25.992 295.961 25.496C295.097 25 294.409 24.32 293.896 23.456C293.4 22.576 293.153 21.584 293.153 20.48ZM295.097 20.48C295.097 21.248 295.257 21.928 295.577 22.52C295.913 23.112 296.361 23.584 296.921 23.936C297.497 24.272 298.145 24.44 298.865 24.44C299.585 24.44 300.225 24.272 300.785 23.936C301.361 23.584 301.809 23.112 302.129 22.52C302.465 21.928 302.633 21.248 302.633 20.48C302.633 19.712 302.465 19.032 302.129 18.44C301.809 17.832 301.361 17.36 300.785 17.024C300.225 16.688 299.585 16.52 298.865 16.52C298.145 16.52 297.497 16.688 296.921 17.024C296.361 17.36 295.913 17.832 295.577 18.44C295.257 19.032 295.097 19.712 295.097 20.48ZM0.12 49.96H5.64V51.76H0.12V49.96ZM1.92 46.12H3.84V61H1.92V46.12ZM11.8376 61.24C10.8136 61.24 9.90163 61 9.10163 60.52C8.31763 60.024 7.70163 59.344 7.25363 58.48C6.82163 57.616 6.60563 56.616 6.60563 55.48C6.60563 54.328 6.82963 53.32 7.27763 52.456C7.74163 51.592 8.38163 50.92 9.19763 50.44C10.0296 49.96 10.9896 49.72 12.0776 49.72C13.1656 49.72 14.0936 49.952 14.8616 50.416C15.6456 50.864 16.2456 51.512 16.6616 52.36C17.0776 53.208 17.2856 54.216 17.2856 55.384C17.2856 55.496 17.2776 55.616 17.2616 55.744C17.2616 55.856 17.2616 55.928 17.2616 55.96H7.82963V54.328H15.7496L14.9816 55.432C15.0296 55.352 15.0776 55.232 15.1256 55.072C15.1736 54.896 15.1976 54.752 15.1976 54.64C15.1976 53.984 15.0616 53.416 14.7896 52.936C14.5336 52.456 14.1736 52.08 13.7096 51.808C13.2456 51.536 12.7016 51.4 12.0776 51.4C11.3416 51.4 10.7096 51.56 10.1816 51.88C9.66963 52.184 9.26963 52.632 8.98163 53.224C8.70963 53.8 8.56563 54.512 8.54963 55.36C8.54963 56.224 8.68563 56.96 8.95763 57.568C9.22963 58.176 9.62963 58.64 10.1576 58.96C10.6856 59.28 11.3256 59.44 12.0776 59.44C12.8296 59.44 13.4936 59.28 14.0696 58.96C14.6456 58.624 15.1336 58.12 15.5336 57.448L17.0936 58.432C16.5176 59.36 15.7896 60.064 14.9096 60.544C14.0456 61.008 13.0216 61.24 11.8376 61.24ZM35.0372 54.04V61H33.1172V54.28C33.1172 53.336 32.9412 52.64 32.5892 52.192C32.2532 51.744 31.7252 51.52 31.0052 51.52C30.4772 51.52 30.0212 51.632 29.6372 51.856C29.2532 52.064 28.9572 52.376 28.7492 52.792C28.5412 53.208 28.4372 53.704 28.4372 54.28V61H26.5172V54.28C26.5172 53.336 26.3412 52.64 25.9892 52.192C25.6532 51.744 25.1252 51.52 24.4052 51.52C23.8772 51.52 23.4212 51.632 23.0372 51.856C22.6532 52.064 22.3572 52.376 22.1492 52.792C21.9412 53.208 21.8372 53.704 21.8372 54.28V61H19.9172V49.96H21.8372V51.568C22.1732 50.944 22.5892 50.48 23.0852 50.176C23.5972 49.872 24.1972 49.72 24.8852 49.72C25.6532 49.72 26.3092 49.904 26.8532 50.272C27.4132 50.624 27.8212 51.128 28.0772 51.784C28.4612 51.096 28.9412 50.584 29.5172 50.248C30.0932 49.896 30.7492 49.72 31.4852 49.72C32.2372 49.72 32.8772 49.888 33.4052 50.224C33.9332 50.56 34.3332 51.056 34.6052 51.712C34.8932 52.352 35.0372 53.128 35.0372 54.04ZM40.4438 66.28H38.5238V49.96H40.4438V66.28ZM49.6838 55.48C49.6838 56.664 49.4358 57.688 48.9398 58.552C48.4438 59.416 47.7798 60.08 46.9478 60.544C46.1318 61.008 45.2198 61.24 44.2118 61.24C43.2998 61.24 42.4918 61.008 41.7878 60.544C41.0998 60.08 40.5558 59.416 40.1558 58.552C39.7718 57.688 39.5798 56.664 39.5798 55.48C39.5798 54.28 39.7718 53.256 40.1558 52.408C40.5558 51.544 41.0998 50.88 41.7878 50.416C42.4918 49.952 43.2998 49.72 44.2118 49.72C45.2198 49.72 46.1318 49.952 46.9478 50.416C47.7798 50.88 48.4438 51.544 48.9398 52.408C49.4358 53.256 49.6838 54.28 49.6838 55.48ZM47.7398 55.48C47.7398 54.632 47.5638 53.912 47.2118 53.32C46.8758 52.728 46.4198 52.28 45.8438 51.976C45.2838 51.672 44.6598 51.52 43.9718 51.52C43.4118 51.52 42.8598 51.672 42.3158 51.976C41.7718 52.28 41.3238 52.728 40.9718 53.32C40.6198 53.912 40.4438 54.632 40.4438 55.48C40.4438 56.328 40.6198 57.048 40.9718 57.64C41.3238 58.232 41.7718 58.68 42.3158 58.984C42.8598 59.288 43.4118 59.44 43.9718 59.44C44.6598 59.44 45.2838 59.288 45.8438 58.984C46.4198 58.68 46.8758 58.232 47.2118 57.64C47.5638 57.048 47.7398 56.328 47.7398 55.48ZM51.3713 55.48C51.3713 54.36 51.6192 53.368 52.1152 52.504C52.6273 51.64 53.3153 50.96 54.1793 50.464C55.0433 49.968 56.0113 49.72 57.0833 49.72C58.1713 49.72 59.1393 49.968 59.9873 50.464C60.8513 50.96 61.5313 51.64 62.0273 52.504C62.5393 53.368 62.7953 54.36 62.7953 55.48C62.7953 56.584 62.5393 57.576 62.0273 58.456C61.5313 59.32 60.8513 60 59.9873 60.496C59.1393 60.992 58.1713 61.24 57.0833 61.24C56.0113 61.24 55.0433 60.992 54.1793 60.496C53.3153 60 52.6273 59.32 52.1152 58.456C51.6192 57.576 51.3713 56.584 51.3713 55.48ZM53.3153 55.48C53.3153 56.248 53.4753 56.928 53.7953 57.52C54.1313 58.112 54.5793 58.584 55.1393 58.936C55.7153 59.272 56.3633 59.44 57.0833 59.44C57.8033 59.44 58.4433 59.272 59.0033 58.936C59.5793 58.584 60.0273 58.112 60.3473 57.52C60.6833 56.928 60.8513 56.248 60.8513 55.48C60.8513 54.712 60.6833 54.032 60.3473 53.44C60.0273 52.832 59.5793 52.36 59.0033 52.024C58.4433 51.688 57.8033 51.52 57.0833 51.52C56.3633 51.52 55.7153 51.688 55.1393 52.024C54.5793 52.36 54.1313 52.832 53.7953 53.44C53.4753 54.032 53.3153 54.712 53.3153 55.48ZM67.3528 49.96V61H65.4328V49.96H67.3528ZM70.6888 52.072C70.4328 51.88 70.2008 51.744 69.9928 51.664C69.7848 51.568 69.5208 51.52 69.2008 51.52C68.7208 51.52 68.3448 51.64 68.0728 51.88C67.8008 52.12 67.6088 52.448 67.4968 52.864C67.4008 53.28 67.3528 53.752 67.3528 54.28H66.4888C66.4888 53.4 66.6408 52.624 66.9448 51.952C67.2648 51.264 67.6728 50.72 68.1688 50.32C68.6648 49.92 69.1688 49.72 69.6808 49.72C70.0808 49.72 70.4488 49.776 70.7848 49.888C71.1368 49.984 71.4568 50.184 71.7448 50.488L70.6888 52.072ZM72.7097 60.04C72.7097 59.672 72.8377 59.36 73.0937 59.104C73.3657 58.848 73.6777 58.72 74.0297 58.72C74.3977 58.72 74.7097 58.848 74.9657 59.104C75.2217 59.36 75.3497 59.672 75.3497 60.04C75.3497 60.392 75.2217 60.704 74.9657 60.976C74.7097 61.232 74.3977 61.36 74.0297 61.36C73.6777 61.36 73.3657 61.232 73.0937 60.976C72.8377 60.704 72.7097 60.392 72.7097 60.04Z" fill="url(#paint0_linear_78_141)"/>
<defs>
<linearGradient id="paint0_linear_78_141" x1="210.766" y1="11.7557" x2="210.766" y2="56.1069" gradientUnits="userSpaceOnUse">
<stop stop-color="#02D5FF"/>
<stop offset="1" stop-color="#0382BA"/>
</linearGradient>
</defs>
</svg>
