<svg width="195" height="53" viewBox="0 0 195 53" fill="none" xmlns="http://www.w3.org/2000/svg">
<rect width="195" height="53" rx="10" fill="url(#paint0_linear_12_78)"/>
<path d="M64.697 20.12V18.2H75.377V20.12H71.057V35H69.017V20.12H64.697ZM75.0067 23.96H77.1667L79.9267 31.136L82.9267 23.12L86.1427 31.184L88.9267 23.96H91.0867L86.2867 35.84L82.9507 27.8L79.8067 35.84L75.0067 23.96ZM92.9992 19.4C92.9992 19.032 93.1272 18.72 93.3832 18.464C93.6552 18.208 93.9672 18.08 94.3192 18.08C94.6872 18.08 94.9992 18.208 95.2552 18.464C95.5112 18.72 95.6392 19.032 95.6392 19.4C95.6392 19.752 95.5112 20.064 95.2552 20.336C94.9992 20.592 94.6872 20.72 94.3192 20.72C93.9672 20.72 93.6552 20.592 93.3832 20.336C93.1272 20.064 92.9992 19.752 92.9992 19.4ZM93.3592 23.96H95.2792V35H93.3592V23.96ZM97.5536 23.96H103.074V25.76H97.5536V23.96ZM99.3536 20.12H101.274V35H99.3536V20.12ZM103.319 23.96H108.839V25.76H103.319V23.96ZM105.119 20.12H107.039V35H105.119V20.12ZM115.037 35.24C114.013 35.24 113.101 35 112.301 34.52C111.517 34.024 110.901 33.344 110.453 32.48C110.021 31.616 109.805 30.616 109.805 29.48C109.805 28.328 110.029 27.32 110.477 26.456C110.941 25.592 111.581 24.92 112.397 24.44C113.229 23.96 114.189 23.72 115.277 23.72C116.365 23.72 117.293 23.952 118.061 24.416C118.845 24.864 119.445 25.512 119.861 26.36C120.277 27.208 120.485 28.216 120.485 29.384C120.485 29.496 120.477 29.616 120.461 29.744C120.461 29.856 120.461 29.928 120.461 29.96H111.029V28.328H118.949L118.181 29.432C118.229 29.352 118.277 29.232 118.325 29.072C118.373 28.896 118.397 28.752 118.397 28.64C118.397 27.984 118.261 27.416 117.989 26.936C117.733 26.456 117.373 26.08 116.909 25.808C116.445 25.536 115.901 25.4 115.277 25.4C114.541 25.4 113.909 25.56 113.381 25.88C112.869 26.184 112.469 26.632 112.181 27.224C111.909 27.8 111.765 28.512 111.749 29.36C111.749 30.224 111.885 30.96 112.157 31.568C112.429 32.176 112.829 32.64 113.357 32.96C113.885 33.28 114.525 33.44 115.277 33.44C116.029 33.44 116.693 33.28 117.269 32.96C117.845 32.624 118.333 32.12 118.733 31.448L120.293 32.432C119.717 33.36 118.989 34.064 118.109 34.544C117.245 35.008 116.221 35.24 115.037 35.24ZM125.036 23.96V35H123.116V23.96H125.036ZM128.372 26.072C128.116 25.88 127.884 25.744 127.676 25.664C127.468 25.568 127.204 25.52 126.884 25.52C126.404 25.52 126.028 25.64 125.756 25.88C125.484 26.12 125.292 26.448 125.18 26.864C125.084 27.28 125.036 27.752 125.036 28.28H124.172C124.172 27.4 124.324 26.624 124.628 25.952C124.948 25.264 125.356 24.72 125.852 24.32C126.348 23.92 126.852 23.72 127.364 23.72C127.764 23.72 128.132 23.776 128.468 23.888C128.82 23.984 129.14 24.184 129.428 24.488L128.372 26.072Z" fill="white"/>
<defs>
<linearGradient id="paint0_linear_12_78" x1="0" y1="26.5" x2="195" y2="26.5" gradientUnits="userSpaceOnUse">
<stop stop-color="#02D5FF"/>
<stop offset="1" stop-color="#008FAB"/>
</linearGradient>
</defs>
</svg>
