<svg width="195" height="53" viewBox="0 0 195 53" fill="none" xmlns="http://www.w3.org/2000/svg">
<rect width="195" height="53" rx="10" fill="url(#paint0_linear_12_78)"/>
<path d="M41.392 37.496C41.568 37.768 41.824 37.976 42.16 38.12C42.48 38.28 42.856 38.36 43.288 38.36C43.656 38.36 44.016 38.192 44.368 37.856C44.736 37.536 44.92 36.984 44.92 36.2V18.2H46.84V36.44C46.84 37.096 46.752 37.664 46.576 38.144C46.416 38.624 46.176 39.024 45.856 39.344C45.536 39.664 45.144 39.896 44.68 40.04C44.232 40.2 43.728 40.28 43.168 40.28C42.752 40.28 42.352 40.208 41.968 40.064C41.568 39.936 41.232 39.776 40.96 39.584C40.672 39.408 40.464 39.24 40.336 39.08L41.392 37.496ZM49.6056 29.48C49.6056 28.36 49.8536 27.368 50.3496 26.504C50.8616 25.64 51.5496 24.96 52.4136 24.464C53.2776 23.968 54.2456 23.72 55.3176 23.72C56.4056 23.72 57.3736 23.968 58.2216 24.464C59.0856 24.96 59.7656 25.64 60.2616 26.504C60.7736 27.368 61.0296 28.36 61.0296 29.48C61.0296 30.584 60.7736 31.576 60.2616 32.456C59.7656 33.32 59.0856 34 58.2216 34.496C57.3736 34.992 56.4056 35.24 55.3176 35.24C54.2456 35.24 53.2776 34.992 52.4136 34.496C51.5496 34 50.8616 33.32 50.3496 32.456C49.8536 31.576 49.6056 30.584 49.6056 29.48ZM51.5496 29.48C51.5496 30.248 51.7096 30.928 52.0296 31.52C52.3656 32.112 52.8136 32.584 53.3736 32.936C53.9496 33.272 54.5976 33.44 55.3176 33.44C56.0376 33.44 56.6776 33.272 57.2376 32.936C57.8136 32.584 58.2616 32.112 58.5816 31.52C58.9176 30.928 59.0856 30.248 59.0856 29.48C59.0856 28.712 58.9176 28.032 58.5816 27.44C58.2616 26.832 57.8136 26.36 57.2376 26.024C56.6776 25.688 56.0376 25.52 55.3176 25.52C54.5976 25.52 53.9496 25.688 53.3736 26.024C52.8136 26.36 52.3656 26.832 52.0296 27.44C51.7096 28.032 51.5496 28.712 51.5496 29.48ZM63.6672 19.4C63.6672 19.032 63.7952 18.72 64.0512 18.464C64.3232 18.208 64.6352 18.08 64.9872 18.08C65.3552 18.08 65.6672 18.208 65.9232 18.464C66.1792 18.72 66.3072 19.032 66.3072 19.4C66.3072 19.752 66.1792 20.064 65.9232 20.336C65.6672 20.592 65.3552 20.72 64.9872 20.72C64.6352 20.72 64.3232 20.592 64.0512 20.336C63.7952 20.064 63.6672 19.752 63.6672 19.4ZM64.0272 23.96H65.9472V35H64.0272V23.96ZM76.9816 28.28C76.9816 27.368 76.7816 26.68 76.3816 26.216C75.9816 25.752 75.3976 25.52 74.6296 25.52C74.0696 25.52 73.5736 25.64 73.1416 25.88C72.7256 26.104 72.3976 26.424 72.1576 26.84C71.9336 27.256 71.8216 27.736 71.8216 28.28V35H69.9016V23.96H71.8216V25.688C72.1896 25.016 72.6456 24.52 73.1896 24.2C73.7496 23.88 74.3896 23.72 75.1096 23.72C76.2776 23.72 77.1976 24.112 77.8696 24.896C78.5576 25.664 78.9016 26.712 78.9016 28.04V35H76.9816V28.28ZM88.1463 20.12V18.2H98.8263V20.12H94.5063V35H92.4663V20.12H88.1463ZM98.4559 23.96H100.616L103.376 31.136L106.376 23.12L109.592 31.184L112.376 23.96H114.536L109.736 35.84L106.4 27.8L103.256 35.84L98.4559 23.96ZM116.448 19.4C116.448 19.032 116.576 18.72 116.832 18.464C117.104 18.208 117.416 18.08 117.768 18.08C118.136 18.08 118.448 18.208 118.704 18.464C118.96 18.72 119.088 19.032 119.088 19.4C119.088 19.752 118.96 20.064 118.704 20.336C118.448 20.592 118.136 20.72 117.768 20.72C117.416 20.72 117.104 20.592 116.832 20.336C116.576 20.064 116.448 19.752 116.448 19.4ZM116.808 23.96H118.728V35H116.808V23.96ZM121.003 23.96H126.523V25.76H121.003V23.96ZM122.803 20.12H124.723V35H122.803V20.12ZM126.768 23.96H132.288V25.76H126.768V23.96ZM128.568 20.12H130.488V35H128.568V20.12ZM138.486 35.24C137.462 35.24 136.55 35 135.75 34.52C134.966 34.024 134.35 33.344 133.902 32.48C133.47 31.616 133.254 30.616 133.254 29.48C133.254 28.328 133.478 27.32 133.926 26.456C134.39 25.592 135.03 24.92 135.846 24.44C136.678 23.96 137.638 23.72 138.726 23.72C139.814 23.72 140.742 23.952 141.51 24.416C142.294 24.864 142.894 25.512 143.31 26.36C143.726 27.208 143.934 28.216 143.934 29.384C143.934 29.496 143.926 29.616 143.91 29.744C143.91 29.856 143.91 29.928 143.91 29.96H134.478V28.328H142.398L141.63 29.432C141.678 29.352 141.726 29.232 141.774 29.072C141.822 28.896 141.846 28.752 141.846 28.64C141.846 27.984 141.71 27.416 141.438 26.936C141.182 26.456 140.822 26.08 140.358 25.808C139.894 25.536 139.35 25.4 138.726 25.4C137.99 25.4 137.358 25.56 136.83 25.88C136.318 26.184 135.918 26.632 135.63 27.224C135.358 27.8 135.214 28.512 135.198 29.36C135.198 30.224 135.334 30.96 135.606 31.568C135.878 32.176 136.278 32.64 136.806 32.96C137.334 33.28 137.974 33.44 138.726 33.44C139.478 33.44 140.142 33.28 140.718 32.96C141.294 32.624 141.782 32.12 142.182 31.448L143.742 32.432C143.166 33.36 142.438 34.064 141.558 34.544C140.694 35.008 139.67 35.24 138.486 35.24ZM148.486 23.96V35H146.566V23.96H148.486ZM151.822 26.072C151.566 25.88 151.334 25.744 151.126 25.664C150.918 25.568 150.654 25.52 150.334 25.52C149.854 25.52 149.478 25.64 149.206 25.88C148.934 26.12 148.742 26.448 148.63 26.864C148.534 27.28 148.486 27.752 148.486 28.28H147.622C147.622 27.4 147.774 26.624 148.078 25.952C148.398 25.264 148.806 24.72 149.302 24.32C149.798 23.92 150.302 23.72 150.814 23.72C151.214 23.72 151.582 23.776 151.918 23.888C152.27 23.984 152.59 24.184 152.878 24.488L151.822 26.072Z" fill="white"/>
<defs>
<linearGradient id="paint0_linear_12_78" x1="0" y1="26.5" x2="195" y2="26.5" gradientUnits="userSpaceOnUse">
<stop stop-color="#02D5FF"/>
<stop offset="1" stop-color="#008FAB"/>
</linearGradient>
</defs>
</svg>
