<svg width="292" height="55" viewBox="0 0 292 55" fill="none" xmlns="http://www.w3.org/2000/svg">
<path d="M0.8 2.2H2.84V13.48C2.84 14.632 3.152 15.56 3.776 16.264C4.4 16.968 5.312 17.32 6.512 17.32C7.712 17.32 8.624 16.968 9.248 16.264C9.872 15.56 10.184 14.632 10.184 13.48V2.2H12.224V13.48C12.224 14.312 12.088 15.08 11.816 15.784C11.56 16.488 11.176 17.096 10.664 17.608C10.168 18.12 9.568 18.52 8.864 18.808C8.16 19.096 7.376 19.24 6.512 19.24C5.648 19.24 4.864 19.096 4.16 18.808C3.456 18.52 2.848 18.12 2.336 17.608C1.84 17.096 1.456 16.488 1.184 15.784C0.928 15.08 0.8 14.312 0.8 13.48V2.2ZM22.9034 12.28C22.9034 11.368 22.7034 10.68 22.3034 10.216C21.9034 9.752 21.3194 9.52 20.5514 9.52C19.9914 9.52 19.4954 9.64 19.0634 9.88C18.6474 10.104 18.3194 10.424 18.0794 10.84C17.8554 11.256 17.7434 11.736 17.7434 12.28V19H15.8234V7.96H17.7434V9.688C18.1114 9.016 18.5674 8.52 19.1114 8.2C19.6714 7.88 20.3114 7.72 21.0314 7.72C22.1994 7.72 23.1194 8.112 23.7914 8.896C24.4794 9.664 24.8234 10.712 24.8234 12.04V19H22.9034V12.28ZM28.4328 0.279999H30.3528V19H28.4328V0.279999ZM33.0041 13.48C33.0041 12.36 33.2521 11.368 33.7481 10.504C34.2601 9.64 34.9481 8.96 35.8121 8.464C36.6761 7.968 37.6441 7.72 38.7161 7.72C39.8041 7.72 40.7721 7.968 41.6201 8.464C42.4841 8.96 43.1641 9.64 43.6601 10.504C44.1721 11.368 44.4281 12.36 44.4281 13.48C44.4281 14.584 44.1721 15.576 43.6601 16.456C43.1641 17.32 42.4841 18 41.6201 18.496C40.7721 18.992 39.8041 19.24 38.7161 19.24C37.6441 19.24 36.6761 18.992 35.8121 18.496C34.9481 18 34.2601 17.32 33.7481 16.456C33.2521 15.576 33.0041 14.584 33.0041 13.48ZM34.9481 13.48C34.9481 14.248 35.1081 14.928 35.4281 15.52C35.7641 16.112 36.2121 16.584 36.7721 16.936C37.3481 17.272 37.9961 17.44 38.7161 17.44C39.4361 17.44 40.0761 17.272 40.6361 16.936C41.2121 16.584 41.6601 16.112 41.9801 15.52C42.3161 14.928 42.4841 14.248 42.4841 13.48C42.4841 12.712 42.3161 12.032 41.9801 11.44C41.6601 10.832 41.2121 10.36 40.6361 10.024C40.0761 9.688 39.4361 9.52 38.7161 9.52C37.9961 9.52 37.3481 9.688 36.7721 10.024C36.2121 10.36 35.7641 10.832 35.4281 11.44C35.1081 12.032 34.9481 12.712 34.9481 13.48ZM47.9296 13.48C47.9296 14.248 48.0896 14.928 48.4096 15.52C48.7456 16.112 49.1936 16.584 49.7536 16.936C50.3296 17.272 50.9776 17.44 51.6976 17.44C52.2896 17.44 52.8416 17.352 53.3536 17.176C53.8816 16.984 54.3376 16.736 54.7216 16.432C55.1056 16.112 55.3776 15.776 55.5376 15.424V17.824C55.1536 18.272 54.6016 18.624 53.8816 18.88C53.1776 19.12 52.4496 19.24 51.6976 19.24C50.6256 19.24 49.6576 18.992 48.7936 18.496C47.9296 18 47.2416 17.32 46.7296 16.456C46.2336 15.576 45.9856 14.584 45.9856 13.48C45.9856 12.36 46.2336 11.368 46.7296 10.504C47.2416 9.64 47.9296 8.96 48.7936 8.464C49.6576 7.968 50.6256 7.72 51.6976 7.72C52.4496 7.72 53.1776 7.848 53.8816 8.104C54.6016 8.344 55.1536 8.688 55.5376 9.136V11.536C55.3776 11.168 55.1056 10.832 54.7216 10.528C54.3376 10.224 53.8816 9.984 53.3536 9.808C52.8416 9.616 52.2896 9.52 51.6976 9.52C50.9776 9.52 50.3296 9.688 49.7536 10.024C49.1936 10.36 48.7456 10.832 48.4096 11.44C48.0896 12.032 47.9296 12.712 47.9296 13.48ZM58.4066 0.279999H60.3266V19H58.4066V0.279999ZM64.4066 7.96H66.8066L62.0066 12.52L67.2866 19H64.8866L59.6066 12.52L64.4066 7.96ZM69.0969 3.4C69.0969 3.032 69.2249 2.72 69.4809 2.464C69.7529 2.208 70.0649 2.08 70.4169 2.08C70.7849 2.08 71.0969 2.208 71.3529 2.464C71.6089 2.72 71.7369 3.032 71.7369 3.4C71.7369 3.752 71.6089 4.064 71.3529 4.336C71.0969 4.592 70.7849 4.72 70.4169 4.72C70.0649 4.72 69.7529 4.592 69.4809 4.336C69.2249 4.064 69.0969 3.752 69.0969 3.4ZM69.4569 7.96H71.3769V19H69.4569V7.96ZM82.4113 12.28C82.4113 11.368 82.2113 10.68 81.8113 10.216C81.4113 9.752 80.8273 9.52 80.0593 9.52C79.4993 9.52 79.0033 9.64 78.5713 9.88C78.1553 10.104 77.8273 10.424 77.5873 10.84C77.3633 11.256 77.2513 11.736 77.2513 12.28V19H75.3313V7.96H77.2513V9.688C77.6193 9.016 78.0753 8.52 78.6193 8.2C79.1793 7.88 79.8193 7.72 80.5393 7.72C81.7073 7.72 82.6273 8.112 83.2993 8.896C83.9873 9.664 84.3313 10.712 84.3313 12.04V19H82.4113V12.28ZM87.1966 19.72H89.1406C89.1406 20.248 89.2846 20.736 89.5726 21.184C89.8606 21.648 90.2686 22.016 90.7966 22.288C91.3246 22.576 91.9486 22.72 92.6686 22.72C93.2286 22.72 93.7806 22.584 94.3246 22.312C94.8686 22.04 95.3166 21.608 95.6686 21.016C96.0366 20.44 96.2206 19.688 96.2206 18.76V7.96H98.1406V18.76C98.1406 20.024 97.8766 21.08 97.3486 21.928C96.8206 22.792 96.1406 23.44 95.3086 23.872C94.4766 24.304 93.5966 24.52 92.6686 24.52C91.5966 24.52 90.6446 24.32 89.8126 23.92C88.9966 23.52 88.3566 22.952 87.8926 22.216C87.4286 21.496 87.1966 20.664 87.1966 19.72ZM86.9806 13.48C86.9806 12.28 87.2286 11.256 87.7246 10.408C88.2206 9.544 88.8846 8.88 89.7166 8.416C90.5486 7.952 91.4606 7.72 92.4526 7.72C93.3806 7.72 94.1886 7.952 94.8766 8.416C95.5646 8.88 96.1006 9.544 96.4846 10.408C96.8846 11.256 97.0846 12.28 97.0846 13.48C97.0846 14.664 96.8846 15.688 96.4846 16.552C96.1006 17.416 95.5646 18.08 94.8766 18.544C94.1886 19.008 93.3806 19.24 92.4526 19.24C91.4606 19.24 90.5486 19.008 89.7166 18.544C88.8846 18.08 88.2206 17.416 87.7246 16.552C87.2286 15.688 86.9806 14.664 86.9806 13.48ZM88.9246 13.48C88.9246 14.328 89.0926 15.048 89.4286 15.64C89.7806 16.232 90.2446 16.68 90.8206 16.984C91.3966 17.288 92.0206 17.44 92.6926 17.44C93.2526 17.44 93.8046 17.288 94.3486 16.984C94.8926 16.68 95.3406 16.232 95.6926 15.64C96.0446 15.048 96.2206 14.328 96.2206 13.48C96.2206 12.84 96.1166 12.28 95.9086 11.8C95.7006 11.304 95.4206 10.888 95.0686 10.552C94.7326 10.216 94.3566 9.96 93.9406 9.784C93.5246 9.608 93.1086 9.52 92.6926 9.52C92.0206 9.52 91.3966 9.672 90.8206 9.976C90.2446 10.28 89.7806 10.728 89.4286 11.32C89.0926 11.912 88.9246 12.632 88.9246 13.48ZM118.087 2.2H120.367L114.775 11.752V19H112.735V11.776L107.143 2.2H109.423L113.743 9.976L118.087 2.2ZM118.926 13.48C118.926 12.36 119.174 11.368 119.67 10.504C120.182 9.64 120.87 8.96 121.734 8.464C122.598 7.968 123.566 7.72 124.638 7.72C125.726 7.72 126.694 7.968 127.542 8.464C128.406 8.96 129.086 9.64 129.582 10.504C130.094 11.368 130.35 12.36 130.35 13.48C130.35 14.584 130.094 15.576 129.582 16.456C129.086 17.32 128.406 18 127.542 18.496C126.694 18.992 125.726 19.24 124.638 19.24C123.566 19.24 122.598 18.992 121.734 18.496C120.87 18 120.182 17.32 119.67 16.456C119.174 15.576 118.926 14.584 118.926 13.48ZM120.87 13.48C120.87 14.248 121.03 14.928 121.35 15.52C121.686 16.112 122.134 16.584 122.694 16.936C123.27 17.272 123.918 17.44 124.638 17.44C125.358 17.44 125.998 17.272 126.558 16.936C127.134 16.584 127.582 16.112 127.902 15.52C128.238 14.928 128.406 14.248 128.406 13.48C128.406 12.712 128.238 12.032 127.902 11.44C127.582 10.832 127.134 10.36 126.558 10.024C125.998 9.688 125.358 9.52 124.638 9.52C123.918 9.52 123.27 9.688 122.694 10.024C122.134 10.36 121.686 10.832 121.35 11.44C121.03 12.032 120.87 12.712 120.87 13.48ZM134.908 14.68C134.908 15.56 135.108 16.24 135.508 16.72C135.908 17.2 136.492 17.44 137.26 17.44C137.82 17.44 138.308 17.328 138.724 17.104C139.156 16.864 139.484 16.536 139.708 16.12C139.948 15.704 140.068 15.224 140.068 14.68V7.96H141.988V19H140.068V17.272C139.7 17.928 139.244 18.424 138.7 18.76C138.156 19.08 137.516 19.24 136.78 19.24C135.628 19.24 134.708 18.848 134.02 18.064C133.332 17.28 132.988 16.232 132.988 14.92V7.96H134.908V14.68ZM147.517 7.96V19H145.597V7.96H147.517ZM150.853 10.072C150.597 9.88 150.365 9.744 150.157 9.664C149.949 9.568 149.685 9.52 149.365 9.52C148.885 9.52 148.509 9.64 148.237 9.88C147.965 10.12 147.773 10.448 147.661 10.864C147.565 11.28 147.517 11.752 147.517 12.28H146.653C146.653 11.4 146.805 10.624 147.109 9.952C147.429 9.264 147.837 8.72 148.333 8.32C148.829 7.92 149.333 7.72 149.845 7.72C150.245 7.72 150.613 7.776 150.949 7.888C151.301 7.984 151.621 8.184 151.909 8.488L150.853 10.072ZM161.139 2.2H163.179V19H161.139V2.2ZM162.267 4.12V2.2H165.699C166.787 2.2 167.755 2.408 168.603 2.824C169.467 3.224 170.147 3.8 170.643 4.552C171.155 5.304 171.411 6.2 171.411 7.24C171.411 8.264 171.155 9.16 170.643 9.928C170.147 10.68 169.467 11.264 168.603 11.68C167.755 12.08 166.787 12.28 165.699 12.28H162.267V10.36H165.699C166.787 10.36 167.667 10.096 168.339 9.568C169.027 9.04 169.371 8.264 169.371 7.24C169.371 6.2 169.027 5.424 168.339 4.912C167.667 4.384 166.787 4.12 165.699 4.12H162.267ZM175.618 7.96V19H173.698V7.96H175.618ZM178.954 10.072C178.698 9.88 178.466 9.744 178.258 9.664C178.05 9.568 177.786 9.52 177.466 9.52C176.986 9.52 176.61 9.64 176.338 9.88C176.066 10.12 175.874 10.448 175.762 10.864C175.666 11.28 175.618 11.752 175.618 12.28H174.754C174.754 11.4 174.906 10.624 175.21 9.952C175.53 9.264 175.938 8.72 176.434 8.32C176.93 7.92 177.434 7.72 177.946 7.72C178.346 7.72 178.714 7.776 179.05 7.888C179.402 7.984 179.722 8.184 180.01 8.488L178.954 10.072ZM180.613 13.48C180.613 12.36 180.861 11.368 181.357 10.504C181.869 9.64 182.557 8.96 183.421 8.464C184.285 7.968 185.253 7.72 186.325 7.72C187.413 7.72 188.381 7.968 189.229 8.464C190.093 8.96 190.773 9.64 191.269 10.504C191.781 11.368 192.037 12.36 192.037 13.48C192.037 14.584 191.781 15.576 191.269 16.456C190.773 17.32 190.093 18 189.229 18.496C188.381 18.992 187.413 19.24 186.325 19.24C185.253 19.24 184.285 18.992 183.421 18.496C182.557 18 181.869 17.32 181.357 16.456C180.861 15.576 180.613 14.584 180.613 13.48ZM182.557 13.48C182.557 14.248 182.717 14.928 183.037 15.52C183.373 16.112 183.821 16.584 184.381 16.936C184.957 17.272 185.605 17.44 186.325 17.44C187.045 17.44 187.685 17.272 188.245 16.936C188.821 16.584 189.269 16.112 189.589 15.52C189.925 14.928 190.093 14.248 190.093 13.48C190.093 12.712 189.925 12.032 189.589 11.44C189.269 10.832 188.821 10.36 188.245 10.024C187.685 9.688 187.045 9.52 186.325 9.52C185.605 9.52 184.957 9.688 184.381 10.024C183.821 10.36 183.373 10.832 183.037 11.44C182.717 12.032 182.557 12.712 182.557 13.48ZM194.363 3.4C194.363 3.032 194.491 2.728 194.747 2.488C195.003 2.232 195.307 2.104 195.659 2.104C196.027 2.104 196.331 2.232 196.571 2.488C196.827 2.728 196.955 3.032 196.955 3.4C196.955 3.752 196.827 4.056 196.571 4.312C196.331 4.568 196.027 4.696 195.659 4.696C195.307 4.696 195.003 4.568 194.747 4.312C194.491 4.056 194.363 3.752 194.363 3.4ZM192.467 21.736C192.595 21.928 192.755 22.08 192.947 22.192C193.155 22.304 193.387 22.36 193.643 22.36C193.915 22.36 194.131 22.288 194.291 22.144C194.467 22 194.595 21.768 194.675 21.448C194.755 21.128 194.795 20.712 194.795 20.2V7.96H196.715V20.44C196.715 21.24 196.587 21.928 196.331 22.504C196.091 23.08 195.731 23.52 195.251 23.824C194.771 24.128 194.195 24.28 193.523 24.28C193.203 24.28 192.915 24.24 192.659 24.16C192.403 24.096 192.171 23.992 191.963 23.848C191.755 23.704 191.571 23.528 191.411 23.32L192.467 21.736ZM204.947 19.24C203.923 19.24 203.011 19 202.211 18.52C201.427 18.024 200.811 17.344 200.363 16.48C199.931 15.616 199.715 14.616 199.715 13.48C199.715 12.328 199.939 11.32 200.387 10.456C200.851 9.592 201.491 8.92 202.307 8.44C203.139 7.96 204.099 7.72 205.187 7.72C206.275 7.72 207.203 7.952 207.971 8.416C208.755 8.864 209.355 9.512 209.771 10.36C210.187 11.208 210.395 12.216 210.395 13.384C210.395 13.496 210.387 13.616 210.371 13.744C210.371 13.856 210.371 13.928 210.371 13.96H200.939V12.328H208.859L208.091 13.432C208.139 13.352 208.187 13.232 208.235 13.072C208.283 12.896 208.307 12.752 208.307 12.64C208.307 11.984 208.171 11.416 207.899 10.936C207.643 10.456 207.283 10.08 206.819 9.808C206.355 9.536 205.811 9.4 205.187 9.4C204.451 9.4 203.819 9.56 203.291 9.88C202.779 10.184 202.379 10.632 202.091 11.224C201.819 11.8 201.675 12.512 201.659 13.36C201.659 14.224 201.795 14.96 202.067 15.568C202.339 16.176 202.739 16.64 203.267 16.96C203.795 17.28 204.435 17.44 205.187 17.44C205.939 17.44 206.603 17.28 207.179 16.96C207.755 16.624 208.243 16.12 208.643 15.448L210.203 16.432C209.627 17.36 208.899 18.064 208.019 18.544C207.155 19.008 206.131 19.24 204.947 19.24ZM213.891 13.48C213.891 14.248 214.051 14.928 214.371 15.52C214.707 16.112 215.155 16.584 215.715 16.936C216.291 17.272 216.939 17.44 217.659 17.44C218.251 17.44 218.803 17.352 219.315 17.176C219.843 16.984 220.299 16.736 220.683 16.432C221.067 16.112 221.339 15.776 221.499 15.424V17.824C221.115 18.272 220.563 18.624 219.843 18.88C219.139 19.12 218.411 19.24 217.659 19.24C216.587 19.24 215.619 18.992 214.755 18.496C213.891 18 213.203 17.32 212.691 16.456C212.195 15.576 211.947 14.584 211.947 13.48C211.947 12.36 212.195 11.368 212.691 10.504C213.203 9.64 213.891 8.96 214.755 8.464C215.619 7.968 216.587 7.72 217.659 7.72C218.411 7.72 219.139 7.848 219.843 8.104C220.563 8.344 221.115 8.688 221.499 9.136V11.536C221.339 11.168 221.067 10.832 220.683 10.528C220.299 10.224 219.843 9.984 219.315 9.808C218.803 9.616 218.251 9.52 217.659 9.52C216.939 9.52 216.291 9.688 215.715 10.024C215.155 10.36 214.707 10.832 214.371 11.44C214.051 12.032 213.891 12.712 213.891 13.48ZM222.808 7.96H228.328V9.76H222.808V7.96ZM224.608 4.12H226.528V19H224.608V4.12ZM231.573 2.2H233.853L231.693 9.4H230.373L231.573 2.2ZM235.162 15.616C235.386 15.952 235.642 16.264 235.93 16.552C236.218 16.84 236.546 17.072 236.914 17.248C237.298 17.408 237.714 17.488 238.162 17.488C238.706 17.488 239.13 17.368 239.434 17.128C239.754 16.872 239.914 16.528 239.914 16.096C239.914 15.712 239.786 15.392 239.53 15.136C239.29 14.864 238.978 14.64 238.594 14.464C238.21 14.272 237.802 14.096 237.37 13.936C236.89 13.744 236.402 13.52 235.906 13.264C235.426 12.992 235.018 12.648 234.682 12.232C234.362 11.8 234.202 11.264 234.202 10.624C234.202 9.968 234.37 9.424 234.706 8.992C235.058 8.56 235.506 8.24 236.05 8.032C236.61 7.824 237.186 7.72 237.778 7.72C238.37 7.72 238.922 7.816 239.434 8.008C239.962 8.2 240.426 8.456 240.826 8.776C241.226 9.096 241.538 9.464 241.762 9.88L240.226 10.864C239.922 10.448 239.538 10.104 239.074 9.832C238.626 9.56 238.114 9.424 237.538 9.424C237.138 9.424 236.794 9.512 236.506 9.688C236.218 9.864 236.074 10.136 236.074 10.504C236.074 10.792 236.186 11.048 236.41 11.272C236.634 11.496 236.922 11.696 237.274 11.872C237.626 12.048 237.994 12.216 238.378 12.376C239.018 12.632 239.602 12.912 240.13 13.216C240.658 13.504 241.074 13.856 241.378 14.272C241.698 14.688 241.858 15.224 241.858 15.88C241.858 16.84 241.506 17.64 240.802 18.28C240.114 18.92 239.202 19.24 238.066 19.24C237.33 19.24 236.666 19.112 236.074 18.856C235.482 18.584 234.978 18.24 234.562 17.824C234.162 17.408 233.858 16.984 233.65 16.552L235.162 15.616ZM250.021 4.12V2.2H260.701V4.12H256.381V19H254.341V4.12H250.021ZM262.736 7.96V19H260.816V7.96H262.736ZM266.072 10.072C265.816 9.88 265.584 9.744 265.376 9.664C265.168 9.568 264.904 9.52 264.584 9.52C264.104 9.52 263.728 9.64 263.456 9.88C263.184 10.12 262.992 10.448 262.88 10.864C262.784 11.28 262.736 11.752 262.736 12.28H261.872C261.872 11.4 262.024 10.624 262.328 9.952C262.648 9.264 263.056 8.72 263.552 8.32C264.048 7.92 264.552 7.72 265.064 7.72C265.464 7.72 265.832 7.776 266.168 7.888C266.52 7.984 266.84 8.184 267.128 8.488L266.072 10.072ZM270.962 14.68C270.962 15.56 271.162 16.24 271.562 16.72C271.962 17.2 272.546 17.44 273.314 17.44C273.874 17.44 274.362 17.328 274.778 17.104C275.21 16.864 275.538 16.536 275.762 16.12C276.002 15.704 276.122 15.224 276.122 14.68V7.96H278.042V19H276.122V17.272C275.754 17.928 275.298 18.424 274.754 18.76C274.21 19.08 273.57 19.24 272.834 19.24C271.682 19.24 270.762 18.848 270.074 18.064C269.386 17.28 269.042 16.232 269.042 14.92V7.96H270.962V14.68ZM285.924 19.24C284.9 19.24 283.988 19 283.188 18.52C282.404 18.024 281.788 17.344 281.34 16.48C280.908 15.616 280.692 14.616 280.692 13.48C280.692 12.328 280.916 11.32 281.364 10.456C281.828 9.592 282.468 8.92 283.284 8.44C284.116 7.96 285.076 7.72 286.164 7.72C287.252 7.72 288.18 7.952 288.948 8.416C289.732 8.864 290.332 9.512 290.748 10.36C291.164 11.208 291.372 12.216 291.372 13.384C291.372 13.496 291.364 13.616 291.348 13.744C291.348 13.856 291.348 13.928 291.348 13.96H281.916V12.328H289.836L289.068 13.432C289.116 13.352 289.164 13.232 289.212 13.072C289.26 12.896 289.284 12.752 289.284 12.64C289.284 11.984 289.148 11.416 288.876 10.936C288.62 10.456 288.26 10.08 287.796 9.808C287.332 9.536 286.788 9.4 286.164 9.4C285.428 9.4 284.796 9.56 284.268 9.88C283.756 10.184 283.356 10.632 283.068 11.224C282.796 11.8 282.652 12.512 282.636 13.36C282.636 14.224 282.772 14.96 283.044 15.568C283.316 16.176 283.716 16.64 284.244 16.96C284.772 17.28 285.412 17.44 286.164 17.44C286.916 17.44 287.58 17.28 288.156 16.96C288.732 16.624 289.22 16.12 289.62 15.448L291.18 16.432C290.604 17.36 289.876 18.064 288.996 18.544C288.132 19.008 287.108 19.24 285.924 19.24ZM0.92 37.2H2.96V54H0.92V37.2ZM2.048 39.12V37.2H5.48C6.568 37.2 7.536 37.408 8.384 37.824C9.248 38.224 9.928 38.8 10.424 39.552C10.936 40.304 11.192 41.2 11.192 42.24C11.192 43.264 10.936 44.16 10.424 44.928C9.928 45.68 9.248 46.264 8.384 46.68C7.536 47.08 6.568 47.28 5.48 47.28H2.048V45.36H5.48C6.568 45.36 7.448 45.096 8.12 44.568C8.808 44.04 9.152 43.264 9.152 42.24C9.152 41.2 8.808 40.424 8.12 39.912C7.448 39.384 6.568 39.12 5.48 39.12H2.048ZM12.2619 48.48C12.2619 47.36 12.5099 46.368 13.0059 45.504C13.5179 44.64 14.2059 43.96 15.0699 43.464C15.9339 42.968 16.9019 42.72 17.9739 42.72C19.0619 42.72 20.0299 42.968 20.8779 43.464C21.7419 43.96 22.4219 44.64 22.9179 45.504C23.4299 46.368 23.6859 47.36 23.6859 48.48C23.6859 49.584 23.4299 50.576 22.9179 51.456C22.4219 52.32 21.7419 53 20.8779 53.496C20.0299 53.992 19.0619 54.24 17.9739 54.24C16.9019 54.24 15.9339 53.992 15.0699 53.496C14.2059 53 13.5179 52.32 13.0059 51.456C12.5099 50.576 12.2619 49.584 12.2619 48.48ZM14.2059 48.48C14.2059 49.248 14.3659 49.928 14.6859 50.52C15.0219 51.112 15.4699 51.584 16.0299 51.936C16.6059 52.272 17.2539 52.44 17.9739 52.44C18.6939 52.44 19.3339 52.272 19.8939 51.936C20.4699 51.584 20.9179 51.112 21.2379 50.52C21.5739 49.928 21.7419 49.248 21.7419 48.48C21.7419 47.712 21.5739 47.032 21.2379 46.44C20.9179 45.832 20.4699 45.36 19.8939 45.024C19.3339 44.688 18.6939 44.52 17.9739 44.52C17.2539 44.52 16.6059 44.688 16.0299 45.024C15.4699 45.36 15.0219 45.832 14.6859 46.44C14.3659 47.032 14.2059 47.712 14.2059 48.48ZM24.6434 42.96H30.1634V44.76H24.6434V42.96ZM26.4434 39.12H28.3634V54H26.4434V39.12ZM36.3611 54.24C35.3371 54.24 34.4251 54 33.6251 53.52C32.8411 53.024 32.2251 52.344 31.7771 51.48C31.3451 50.616 31.1291 49.616 31.1291 48.48C31.1291 47.328 31.3531 46.32 31.8011 45.456C32.2651 44.592 32.9051 43.92 33.7211 43.44C34.5531 42.96 35.5131 42.72 36.6011 42.72C37.6891 42.72 38.6171 42.952 39.3851 43.416C40.1691 43.864 40.7691 44.512 41.1851 45.36C41.6011 46.208 41.8091 47.216 41.8091 48.384C41.8091 48.496 41.8011 48.616 41.7851 48.744C41.7851 48.856 41.7851 48.928 41.7851 48.96H32.3531V47.328H40.2731L39.5051 48.432C39.5531 48.352 39.6011 48.232 39.6491 48.072C39.6971 47.896 39.7211 47.752 39.7211 47.64C39.7211 46.984 39.5851 46.416 39.3131 45.936C39.0571 45.456 38.6971 45.08 38.2331 44.808C37.7691 44.536 37.2251 44.4 36.6011 44.4C35.8651 44.4 35.2331 44.56 34.7051 44.88C34.1931 45.184 33.7931 45.632 33.5051 46.224C33.2331 46.8 33.0891 47.512 33.0731 48.36C33.0731 49.224 33.2091 49.96 33.4811 50.568C33.7531 51.176 34.1531 51.64 34.6811 51.96C35.2091 52.28 35.8491 52.44 36.6011 52.44C37.3531 52.44 38.0171 52.28 38.5931 51.96C39.1691 51.624 39.6571 51.12 40.0571 50.448L41.6171 51.432C41.0411 52.36 40.3131 53.064 39.4331 53.544C38.5691 54.008 37.5451 54.24 36.3611 54.24ZM51.5206 47.28C51.5206 46.368 51.3206 45.68 50.9206 45.216C50.5206 44.752 49.9366 44.52 49.1686 44.52C48.6086 44.52 48.1126 44.64 47.6806 44.88C47.2646 45.104 46.9366 45.424 46.6966 45.84C46.4726 46.256 46.3606 46.736 46.3606 47.28V54H44.4406V42.96H46.3606V44.688C46.7286 44.016 47.1846 43.52 47.7286 43.2C48.2886 42.88 48.9286 42.72 49.6486 42.72C50.8166 42.72 51.7366 43.112 52.4086 43.896C53.0966 44.664 53.4406 45.712 53.4406 47.04V54H51.5206V47.28ZM55.37 42.96H60.89V44.76H55.37V42.96ZM57.17 39.12H59.09V54H57.17V39.12ZM62.8156 38.4C62.8156 38.032 62.9436 37.72 63.1996 37.464C63.4716 37.208 63.7836 37.08 64.1356 37.08C64.5036 37.08 64.8156 37.208 65.0716 37.464C65.3276 37.72 65.4556 38.032 65.4556 38.4C65.4556 38.752 65.3276 39.064 65.0716 39.336C64.8156 39.592 64.5036 39.72 64.1356 39.72C63.7836 39.72 63.4716 39.592 63.1996 39.336C62.9436 39.064 62.8156 38.752 62.8156 38.4ZM63.1756 42.96H65.0956V54H63.1756V42.96ZM69.914 50.592C69.914 51.008 70.01 51.368 70.202 51.672C70.41 51.976 70.69 52.208 71.042 52.368C71.41 52.512 71.826 52.584 72.29 52.584C72.882 52.584 73.41 52.464 73.874 52.224C74.354 51.984 74.73 51.648 75.002 51.216C75.29 50.768 75.434 50.256 75.434 49.68L75.818 51.12C75.818 51.824 75.602 52.408 75.17 52.872C74.754 53.336 74.234 53.68 73.61 53.904C73.002 54.128 72.394 54.24 71.786 54.24C71.114 54.24 70.482 54.104 69.89 53.832C69.314 53.544 68.85 53.136 68.498 52.608C68.146 52.08 67.97 51.44 67.97 50.688C67.97 49.616 68.346 48.76 69.098 48.12C69.866 47.464 70.93 47.136 72.29 47.136C73.09 47.136 73.754 47.232 74.282 47.424C74.826 47.6 75.258 47.808 75.578 48.048C75.898 48.272 76.114 48.456 76.226 48.6V49.728C75.666 49.344 75.09 49.072 74.498 48.912C73.906 48.736 73.274 48.648 72.602 48.648C71.978 48.648 71.466 48.728 71.066 48.888C70.682 49.048 70.394 49.272 70.202 49.56C70.01 49.848 69.914 50.192 69.914 50.592ZM69.626 45.504L68.69 44.088C69.106 43.784 69.674 43.48 70.394 43.176C71.13 42.872 72.01 42.72 73.034 42.72C73.898 42.72 74.65 42.856 75.29 43.128C75.946 43.384 76.45 43.76 76.802 44.256C77.17 44.752 77.354 45.36 77.354 46.08V54H75.434V46.344C75.434 45.96 75.37 45.648 75.242 45.408C75.114 45.152 74.93 44.952 74.69 44.808C74.466 44.664 74.202 44.56 73.898 44.496C73.594 44.432 73.274 44.4 72.938 44.4C72.394 44.4 71.898 44.464 71.45 44.592C71.018 44.72 70.65 44.872 70.346 45.048C70.042 45.224 69.802 45.376 69.626 45.504ZM80.6047 35.28H82.5247V54H80.6047V35.28Z" fill="url(#paint0_linear_12_32)"/>
<defs>
<linearGradient id="paint0_linear_12_32" x1="200.262" y1="4.75573" x2="200.262" y2="49.1069" gradientUnits="userSpaceOnUse">
<stop stop-color="#02D5FF"/>
<stop offset="1" stop-color="#0382BA"/>
</linearGradient>
</defs>
</svg>
